M48
;DRILL file {KiCad 4.0.1-stable} date 17/04/2016 20:33:30
;FORMAT={-:-/ absolute / inch / decimal}
FMAT,2
INCH,TZ
T1C0.016
T2C0.032
T3C0.040
T4C0.091
T5C0.120
%
G90
G05
M72
T1
X3.2874Y-3.3898
X3.5778Y-3.1398
X3.5925Y-2.8543
X3.6949Y-2.9636
X3.7156Y-3.5472
X3.7411Y-2.8996
X3.7421Y-2.3435
X3.7894Y-4.1132
X3.7913Y-3.0472
X3.8415Y-2.6919
X3.8789Y-3.1969
X3.9006Y-2.8681
X3.9163Y-2.6161
X3.9252Y-3.0827
X3.9341Y-2.9213
X3.935Y-3.4911
X3.9537Y-3.3681
X3.9823Y-2.8583
X3.9911Y-3.1476
X4.0059Y-4.1112
X4.0285Y-2.8091
X4.0344Y-2.7146
X4.038Y-2.6719
X4.0541Y-3.1427
X4.0738Y-3.3701
X4.0837Y-2.8327
X4.1309Y-2.8602
X4.1683Y-3.4646
X4.1821Y-2.7126
X4.2549Y-2.8829
X4.3051Y-2.3435
X4.4006Y-3.3248
X4.4124Y-4.0984
X4.4222Y-3.8465
X4.4931Y-2.872
X4.5167Y-3.0098
X4.5768Y-3.1752
X4.6024Y-3.2707
X4.6339Y-2.814
X4.6742Y-3.122
X4.687Y-3.3681
X4.7037Y-3.4311
X4.7146Y-3.2539
X4.7815Y-3.2913
X4.872Y-2.3091
X4.9183Y-2.374
X4.9459Y-4.2382
X4.9528Y-3.938
X4.9695Y-3.2067
X4.9833Y-2.1388
X4.9911Y-3.6683
X5.1083Y-2.3858
X5.1093Y-3.9951
X5.1142Y-2.8386
X5.1358Y-3.6535
X5.2008Y-2.9951
X5.2785Y-3.1654
X5.2815Y-3.3356
X5.2874Y-3.4085
X5.3356Y-3.2087
X5.3376Y-2.3327
X5.3425Y-3.1693
X5.3445Y-2.3848
X5.3642Y-3.5128
X5.3801Y-4.008
X5.4006Y-3.8071
X5.4163Y-2.3327
X5.4213Y-2.3868
X5.4242Y-2.4284
X5.4675Y-2.8465
X5.4729Y-2.6481
X5.4833Y-2.1909
X5.5837Y-3.4764
X5.6063Y-3.7638
X5.6654Y-2.3868
X5.687Y-3.1732
X5.7274Y-3.1398
X5.8396Y-4.002
T2
X3.2845Y-3.1717
X3.2845Y-3.2717
X3.3632Y-3.1717
X3.3632Y-3.2717
T3
X4.5443Y-2.6608
X4.5443Y-2.7608
X6.2531Y-2.6315
X6.2531Y-2.7415
X6.2531Y-2.8465
X6.2531Y-2.9565
X6.2531Y-3.0665
X6.2531Y-3.1765
X6.2531Y-3.2815
X6.2531Y-3.3915
X6.2531Y-3.5015
X6.2531Y-3.6115
X6.2531Y-3.7165
X6.2531Y-3.8265
X6.2531Y-3.9365
X6.3531Y-2.6935
X6.3531Y-2.7935
X6.3531Y-2.9035
X6.3531Y-3.0115
X6.3531Y-3.1195
X6.3531Y-3.2295
X6.3531Y-3.3375
X6.3531Y-3.4455
X6.3531Y-3.5575
X6.3531Y-3.6635
X6.3531Y-3.7715
X6.3531Y-3.8815
T4
X3.1782Y-2.9855
X3.1782Y-3.4579
T5
X6.3531Y-2.3565
X6.3531Y-4.2065
T0
M30
