G04 #@! TF.FileFunction,Copper,L2,Bot,Signal*
%FSLAX46Y46*%
G04 Gerber Fmt 4.6, Leading zero omitted, Abs format (unit mm)*
G04 Created by KiCad (PCBNEW 4.0.1-stable) date 08/04/2016 12:11:11*
%MOMM*%
G01*
G04 APERTURE LIST*
%ADD10C,0.100000*%
%ADD11C,1.524000*%
%ADD12C,2.700020*%
%ADD13C,3.810000*%
%ADD14R,1.524000X1.524000*%
%ADD15R,2.032000X2.032000*%
%ADD16O,2.032000X2.032000*%
%ADD17C,0.600000*%
%ADD18C,0.250000*%
%ADD19C,0.450000*%
%ADD20C,0.254000*%
G04 APERTURE END LIST*
D10*
D11*
X169274000Y-92460000D03*
X169274000Y-95000000D03*
X167275020Y-95000000D03*
X167275020Y-92460000D03*
D12*
X164575000Y-87730520D03*
X164575000Y-99729480D03*
D13*
X259820000Y-118495000D03*
X259820000Y-71505000D03*
D14*
X257280000Y-78490000D03*
D11*
X257280000Y-81284000D03*
X257280000Y-83951000D03*
X257280000Y-86745000D03*
X257280000Y-89539000D03*
X257280000Y-92333000D03*
X257280000Y-95000000D03*
X257280000Y-97794000D03*
X257280000Y-100588000D03*
X257280000Y-103382000D03*
X257280000Y-106049000D03*
X257280000Y-108843000D03*
X257280000Y-111637000D03*
X259820000Y-80064800D03*
X259820000Y-82604800D03*
X259820000Y-85398800D03*
X259820000Y-88142000D03*
X259820000Y-90885200D03*
X259820000Y-93679200D03*
X259820000Y-96422400D03*
X259820000Y-99165600D03*
X259820000Y-102010400D03*
X259820000Y-104702800D03*
X259820000Y-107446000D03*
X259820000Y-110240000D03*
D15*
X206525000Y-79235000D03*
D16*
X206525000Y-81775000D03*
D17*
X232525000Y-92050000D03*
X235625000Y-108350000D03*
X234200000Y-72225000D03*
X234150000Y-92150000D03*
X234700000Y-100875000D03*
X236150000Y-72275000D03*
X210575000Y-98800000D03*
X216275000Y-92950000D03*
X202875000Y-96100000D03*
X191025000Y-85850000D03*
X196975000Y-99650000D03*
X191050000Y-100325000D03*
X211100000Y-95500000D03*
X221975000Y-118150000D03*
X189625000Y-92850000D03*
X172275000Y-103400000D03*
X218775000Y-94100000D03*
X190575000Y-78100000D03*
X193575000Y-80600000D03*
X237725000Y-67300000D03*
X208675000Y-108200000D03*
X208425000Y-114600000D03*
X243925000Y-91400000D03*
X246775000Y-113300000D03*
X224675000Y-93100000D03*
X200450000Y-71175000D03*
X186150000Y-71175000D03*
X199175000Y-84874990D03*
X205225000Y-84600000D03*
X190175000Y-84500000D03*
X191525000Y-97200000D03*
X194575000Y-97250000D03*
X233975000Y-93150000D03*
X228225000Y-113125000D03*
X224250000Y-111675000D03*
X240850000Y-107250000D03*
X210525000Y-85150000D03*
X208000000Y-94725000D03*
X192850000Y-116075000D03*
X187350000Y-116125000D03*
X228200000Y-72250000D03*
X197325000Y-80550000D03*
X182475000Y-103825000D03*
X184950000Y-86925000D03*
X242350000Y-72275000D03*
X196025000Y-84300000D03*
X194075000Y-91475000D03*
X190800000Y-89950000D03*
X186125000Y-85300000D03*
X187400000Y-89050000D03*
X223375000Y-71950000D03*
X234025000Y-70900000D03*
X193666349Y-79516349D03*
X188675000Y-80025000D03*
X194825000Y-83600000D03*
X180425000Y-82150000D03*
X230550000Y-87725000D03*
X228350000Y-83750000D03*
X242900000Y-92250000D03*
X240275000Y-99950010D03*
X232750000Y-98225000D03*
X232600000Y-96375000D03*
X228900000Y-104450000D03*
X225025000Y-65975000D03*
X236025000Y-70900000D03*
X236224981Y-73331567D03*
X193424990Y-82999990D03*
X208800001Y-83124999D03*
X237325000Y-83950000D03*
X237462660Y-78912340D03*
X222200000Y-70300000D03*
X192250000Y-84250010D03*
X208625000Y-92950010D03*
X192300000Y-92350000D03*
X225225000Y-104825000D03*
X235104449Y-113454449D03*
X206025000Y-91350000D03*
X219300000Y-90650000D03*
X215225000Y-92275000D03*
X192250000Y-91350000D03*
D18*
X231974999Y-92600001D02*
X231974999Y-75375001D01*
X231974999Y-75375001D02*
X234200000Y-73150000D01*
X234625001Y-108050001D02*
X231974999Y-105399999D01*
X231974999Y-105399999D02*
X231974999Y-92600001D01*
X231974999Y-92600001D02*
X232525000Y-92050000D01*
X235625000Y-108350000D02*
X235325001Y-108050001D01*
X235325001Y-108050001D02*
X234625001Y-108050001D01*
X234200000Y-73150000D02*
X233900000Y-73450000D01*
X234200000Y-72225000D02*
X234200000Y-73150000D01*
X233375000Y-91375000D02*
X235599980Y-89150020D01*
X235599980Y-73424980D02*
X235500000Y-73325000D01*
X235599980Y-89150020D02*
X235599980Y-73424980D01*
X234150000Y-92150000D02*
X233375000Y-91375000D01*
X234700000Y-100875000D02*
X234700000Y-92700000D01*
X234700000Y-92700000D02*
X234150000Y-92150000D01*
X235500000Y-72925000D02*
X235500000Y-73325000D01*
X236150000Y-72275000D02*
X235500000Y-72925000D01*
X210575000Y-98650000D02*
X210575000Y-98800000D01*
X216275000Y-92950000D02*
X210575000Y-98650000D01*
X191025000Y-85850000D02*
X190174999Y-86700001D01*
X190174999Y-86700001D02*
X190174999Y-91150001D01*
X190174999Y-91150001D02*
X195124998Y-96100000D01*
X195124998Y-96100000D02*
X202875000Y-96100000D01*
X207150000Y-100325000D02*
X195975000Y-100325000D01*
X195975000Y-100325000D02*
X191050000Y-100325000D01*
X196975000Y-99650000D02*
X196300000Y-100325000D01*
X196300000Y-100325000D02*
X195975000Y-100325000D01*
X211100000Y-96375000D02*
X207150000Y-100325000D01*
X211100000Y-95500000D02*
X211100000Y-96375000D01*
X221975000Y-118150000D02*
X221975000Y-118650000D01*
X208725000Y-95650000D02*
X208725000Y-95850000D01*
X208725000Y-95450000D02*
X208725000Y-95650000D01*
X208725000Y-95650000D02*
X207125000Y-97250000D01*
X207125000Y-97250000D02*
X194575000Y-97250000D01*
X191625000Y-101825002D02*
X190424999Y-100625001D01*
X191625000Y-101825002D02*
X184474998Y-101825002D01*
X197999998Y-108200000D02*
X191625000Y-101825002D01*
X184474998Y-101825002D02*
X182475000Y-103825000D01*
X190424999Y-100024999D02*
X191999998Y-98450000D01*
X191999998Y-98450000D02*
X193199998Y-97250000D01*
X191525000Y-97200000D02*
X191525000Y-97624264D01*
X191525000Y-97624264D02*
X191999998Y-98099262D01*
X191999998Y-98099262D02*
X191999998Y-98450000D01*
X208675000Y-108200000D02*
X197999998Y-108200000D01*
X190424999Y-100625001D02*
X190424999Y-100024999D01*
X193199998Y-97250000D02*
X194150736Y-97250000D01*
X194150736Y-97250000D02*
X194575000Y-97250000D01*
X208675000Y-108200000D02*
X208675000Y-107775736D01*
X208675000Y-107775736D02*
X208825000Y-107625736D01*
X208000000Y-94725000D02*
X208725000Y-95450000D01*
X228200000Y-72250000D02*
X228200000Y-72674264D01*
X228200000Y-72674264D02*
X228125000Y-72749264D01*
X242350000Y-72275000D02*
X242350000Y-72699264D01*
X242350000Y-72699264D02*
X242525000Y-72874264D01*
X243925000Y-91400000D02*
X244375000Y-91850000D01*
X233975000Y-93150000D02*
X233550736Y-93150000D01*
X233550736Y-93150000D02*
X233375000Y-93325736D01*
X218775000Y-94100000D02*
X218075000Y-94100000D01*
X224675000Y-93100000D02*
X224675000Y-93524264D01*
X224675000Y-93524264D02*
X224525000Y-93674264D01*
X200450000Y-71175000D02*
X200450000Y-70750736D01*
X200450000Y-70750736D02*
X200375000Y-70675736D01*
X186175000Y-70725736D02*
X186175000Y-70400000D01*
X186150000Y-71175000D02*
X186150000Y-70750736D01*
X186150000Y-70750736D02*
X186175000Y-70725736D01*
X193625000Y-81074264D02*
X193625000Y-81200000D01*
X193575000Y-80600000D02*
X193575000Y-81024264D01*
X193575000Y-81024264D02*
X193625000Y-81074264D01*
X198275000Y-80450000D02*
X198375000Y-80550000D01*
X198175000Y-80550000D02*
X198275000Y-80450000D01*
X197325000Y-80550000D02*
X198175000Y-80550000D01*
X190100736Y-78050000D02*
X189775000Y-78050000D01*
X190575000Y-78100000D02*
X190150736Y-78100000D01*
X190150736Y-78100000D02*
X190100736Y-78050000D01*
X184950000Y-86925000D02*
X184475000Y-86450000D01*
X190175000Y-84924264D02*
X190175000Y-85100000D01*
X190175000Y-84500000D02*
X190175000Y-84924264D01*
X189975000Y-92450000D02*
X189975000Y-92100000D01*
X189924999Y-92500001D02*
X189975000Y-92450000D01*
X189625000Y-92850000D02*
X189924999Y-92550001D01*
X189924999Y-92550001D02*
X189924999Y-92500001D01*
X198675746Y-84800000D02*
X198425000Y-84800000D01*
X199175000Y-84874990D02*
X198750736Y-84874990D01*
X198750736Y-84874990D02*
X198675746Y-84800000D01*
X172275000Y-103400000D02*
X172275000Y-103824264D01*
X172275000Y-103824264D02*
X172375000Y-103924264D01*
D19*
X242350000Y-72275000D02*
X242774264Y-72275000D01*
D18*
X192525000Y-87900000D02*
X196025000Y-84400000D01*
X196025000Y-84400000D02*
X196025000Y-84300000D01*
X192525000Y-90249999D02*
X192849999Y-90249999D01*
X191099999Y-90249999D02*
X192525000Y-90249999D01*
X192525000Y-90249999D02*
X192525000Y-87900000D01*
X192849999Y-90249999D02*
X194075000Y-91475000D01*
X190800000Y-89950000D02*
X191099999Y-90249999D01*
X187400000Y-89050000D02*
X186125000Y-87775000D01*
X186125000Y-87775000D02*
X186125000Y-85300000D01*
X233000736Y-71500000D02*
X223825000Y-71500000D01*
X223825000Y-71500000D02*
X223375000Y-71950000D01*
X234025000Y-70900000D02*
X233600736Y-70900000D01*
X233600736Y-70900000D02*
X233000736Y-71500000D01*
X188675000Y-80025000D02*
X193157698Y-80025000D01*
X193157698Y-80025000D02*
X193666349Y-79516349D01*
X182324264Y-83625000D02*
X194800000Y-83625000D01*
X194800000Y-83625000D02*
X194825000Y-83600000D01*
X180425000Y-82150000D02*
X180849264Y-82150000D01*
X180849264Y-82150000D02*
X182324264Y-83625000D01*
X228350000Y-83750000D02*
X228350000Y-85525000D01*
X228350000Y-85525000D02*
X230550000Y-87725000D01*
X240574999Y-94600001D02*
X242900000Y-92275000D01*
X242900000Y-92275000D02*
X242900000Y-92250000D01*
X240275000Y-99950010D02*
X240574999Y-99650011D01*
X240574999Y-99650011D02*
X240574999Y-94600001D01*
X232750000Y-96949264D02*
X232750000Y-98225000D01*
X232600000Y-96375000D02*
X232600000Y-96799264D01*
X232600000Y-96799264D02*
X232750000Y-96949264D01*
X225025000Y-65975000D02*
X225025000Y-69374998D01*
X225025000Y-69374998D02*
X222749999Y-71649999D01*
X222749999Y-71649999D02*
X222749999Y-98299999D01*
X222749999Y-98299999D02*
X228900000Y-104450000D01*
X237100000Y-71800000D02*
X236200000Y-70900000D01*
X236200000Y-70900000D02*
X236025000Y-70900000D01*
X237100000Y-72456548D02*
X237100000Y-71800000D01*
X236224981Y-73331567D02*
X237100000Y-72456548D01*
X208800001Y-83124999D02*
X195275001Y-83124999D01*
X195275001Y-83124999D02*
X195125001Y-82974999D01*
X195125001Y-82974999D02*
X193449981Y-82974999D01*
X193449981Y-82974999D02*
X193424990Y-82999990D01*
X237300000Y-79499264D02*
X237300000Y-83925000D01*
X237300000Y-83925000D02*
X237325000Y-83950000D01*
X237462660Y-78912340D02*
X237462660Y-79336604D01*
X237462660Y-79336604D02*
X237300000Y-79499264D01*
X220875000Y-80250000D02*
X220875000Y-73524998D01*
X220875000Y-73524998D02*
X222200000Y-72199998D01*
X222200000Y-72199998D02*
X222200000Y-70300000D01*
X217374991Y-83750009D02*
X220875000Y-80250000D01*
X216775000Y-83750009D02*
X217374991Y-83750009D01*
X192250000Y-84250010D02*
X195149988Y-84250010D01*
X196325001Y-83674999D02*
X196400011Y-83750009D01*
X195149988Y-84250010D02*
X195724999Y-83674999D01*
X195724999Y-83674999D02*
X196325001Y-83674999D01*
X196400011Y-83750009D02*
X216775000Y-83750009D01*
X192300000Y-92350000D02*
X192900010Y-92950010D01*
X192900010Y-92950010D02*
X208625000Y-92950010D01*
X234404450Y-113154450D02*
X226075000Y-104825000D01*
X226075000Y-104825000D02*
X225225000Y-104825000D01*
X235104449Y-113454449D02*
X234804450Y-113154450D01*
X234804450Y-113154450D02*
X234404450Y-113154450D01*
X208125000Y-91450000D02*
X208025000Y-91350000D01*
X208025000Y-91350000D02*
X206025000Y-91350000D01*
X219300000Y-90650000D02*
X218500000Y-91450000D01*
X218500000Y-91450000D02*
X208125000Y-91450000D01*
X192250000Y-91350000D02*
X193225000Y-92325000D01*
X193225000Y-92325000D02*
X215175000Y-92325000D01*
X215175000Y-92325000D02*
X215225000Y-92275000D01*
D20*
G36*
X269315000Y-129315000D02*
X160685000Y-129315000D01*
X160685000Y-125442619D01*
X167764613Y-125442619D01*
X168104155Y-126264372D01*
X168732321Y-126893636D01*
X169553481Y-127234611D01*
X170442619Y-127235387D01*
X171264372Y-126895845D01*
X171893636Y-126267679D01*
X172234611Y-125446519D01*
X172234614Y-125442619D01*
X247764613Y-125442619D01*
X248104155Y-126264372D01*
X248732321Y-126893636D01*
X249553481Y-127234611D01*
X250442619Y-127235387D01*
X251264372Y-126895845D01*
X251893636Y-126267679D01*
X252234611Y-125446519D01*
X252235387Y-124557381D01*
X251895845Y-123735628D01*
X251267679Y-123106364D01*
X250446519Y-122765389D01*
X249557381Y-122764613D01*
X248735628Y-123104155D01*
X248106364Y-123732321D01*
X247765389Y-124553481D01*
X247764613Y-125442619D01*
X172234614Y-125442619D01*
X172235387Y-124557381D01*
X171895845Y-123735628D01*
X171267679Y-123106364D01*
X170446519Y-122765389D01*
X169557381Y-122764613D01*
X168735628Y-123104155D01*
X168106364Y-123732321D01*
X167765389Y-124553481D01*
X167764613Y-125442619D01*
X160685000Y-125442619D01*
X160685000Y-118998021D01*
X257279560Y-118998021D01*
X257665437Y-119931915D01*
X258379327Y-120647052D01*
X259312546Y-121034559D01*
X260323021Y-121035440D01*
X261256915Y-120649563D01*
X261972052Y-119935673D01*
X262359559Y-119002454D01*
X262360440Y-117991979D01*
X261974563Y-117058085D01*
X261260673Y-116342948D01*
X260327454Y-115955441D01*
X259316979Y-115954560D01*
X258383085Y-116340437D01*
X257667948Y-117054327D01*
X257280441Y-117987546D01*
X257279560Y-118998021D01*
X160685000Y-118998021D01*
X160685000Y-105010167D01*
X224289838Y-105010167D01*
X224431883Y-105353943D01*
X224694673Y-105617192D01*
X225038201Y-105759838D01*
X225410167Y-105760162D01*
X225753943Y-105618117D01*
X225773646Y-105598448D01*
X233867049Y-113691851D01*
X234113611Y-113856598D01*
X234271956Y-113888095D01*
X234311332Y-113983392D01*
X234574122Y-114246641D01*
X234917650Y-114389287D01*
X235289616Y-114389611D01*
X235633392Y-114247566D01*
X235896641Y-113984776D01*
X236039287Y-113641248D01*
X236039611Y-113269282D01*
X235897566Y-112925506D01*
X235634776Y-112662257D01*
X235291248Y-112519611D01*
X235195900Y-112519528D01*
X235095289Y-112452302D01*
X234804450Y-112394450D01*
X234719252Y-112394450D01*
X226612401Y-104287599D01*
X226365839Y-104122852D01*
X226075000Y-104065000D01*
X225787463Y-104065000D01*
X225755327Y-104032808D01*
X225411799Y-103890162D01*
X225039833Y-103889838D01*
X224696057Y-104031883D01*
X224432808Y-104294673D01*
X224290162Y-104638201D01*
X224289838Y-105010167D01*
X160685000Y-105010167D01*
X160685000Y-100122591D01*
X162589646Y-100122591D01*
X162891209Y-100852429D01*
X163449114Y-101411309D01*
X164178425Y-101714145D01*
X164968111Y-101714834D01*
X165697949Y-101413271D01*
X166256829Y-100855366D01*
X166559665Y-100126055D01*
X166560354Y-99336369D01*
X166258791Y-98606531D01*
X165700886Y-98047651D01*
X164971575Y-97744815D01*
X164181889Y-97744126D01*
X163452051Y-98045689D01*
X162893171Y-98603594D01*
X162590335Y-99332905D01*
X162589646Y-100122591D01*
X160685000Y-100122591D01*
X160685000Y-95980213D01*
X166474412Y-95980213D01*
X166543877Y-96222397D01*
X167067322Y-96409144D01*
X167622388Y-96381362D01*
X168006163Y-96222397D01*
X168075628Y-95980213D01*
X167275020Y-95179605D01*
X166474412Y-95980213D01*
X160685000Y-95980213D01*
X160685000Y-94792302D01*
X165865876Y-94792302D01*
X165893658Y-95347368D01*
X166052623Y-95731143D01*
X166294807Y-95800608D01*
X167095415Y-95000000D01*
X166294807Y-94199392D01*
X166052623Y-94268857D01*
X165865876Y-94792302D01*
X160685000Y-94792302D01*
X160685000Y-92736661D01*
X165877778Y-92736661D01*
X166090010Y-93250303D01*
X166482650Y-93643629D01*
X166674747Y-93723395D01*
X166543877Y-93777603D01*
X166474412Y-94019787D01*
X167275020Y-94820395D01*
X168075628Y-94019787D01*
X168006163Y-93777603D01*
X167865702Y-93727491D01*
X168065323Y-93645010D01*
X168274530Y-93436168D01*
X168481630Y-93643629D01*
X168689512Y-93729949D01*
X168483697Y-93814990D01*
X168090371Y-94207630D01*
X167979154Y-94475471D01*
X167454625Y-95000000D01*
X167979189Y-95524564D01*
X168088990Y-95790303D01*
X168481630Y-96183629D01*
X168994900Y-96396757D01*
X169550661Y-96397242D01*
X170064303Y-96185010D01*
X170457629Y-95792370D01*
X170670757Y-95279100D01*
X170671242Y-94723339D01*
X170459010Y-94209697D01*
X170066370Y-93816371D01*
X169858488Y-93730051D01*
X170064303Y-93645010D01*
X170457629Y-93252370D01*
X170670757Y-92739100D01*
X170671242Y-92183339D01*
X170459010Y-91669697D01*
X170066370Y-91276371D01*
X169553100Y-91063243D01*
X168997339Y-91062758D01*
X168483697Y-91274990D01*
X168274490Y-91483832D01*
X168067390Y-91276371D01*
X167554120Y-91063243D01*
X166998359Y-91062758D01*
X166484717Y-91274990D01*
X166091391Y-91667630D01*
X165878263Y-92180900D01*
X165877778Y-92736661D01*
X160685000Y-92736661D01*
X160685000Y-88123631D01*
X162589646Y-88123631D01*
X162891209Y-88853469D01*
X163449114Y-89412349D01*
X164178425Y-89715185D01*
X164968111Y-89715874D01*
X165697949Y-89414311D01*
X166256829Y-88856406D01*
X166559665Y-88127095D01*
X166560354Y-87337409D01*
X166258791Y-86607571D01*
X165700886Y-86048691D01*
X164971575Y-85745855D01*
X164181889Y-85745166D01*
X163452051Y-86046729D01*
X162893171Y-86604634D01*
X162590335Y-87333945D01*
X162589646Y-88123631D01*
X160685000Y-88123631D01*
X160685000Y-82335167D01*
X179489838Y-82335167D01*
X179631883Y-82678943D01*
X179894673Y-82942192D01*
X180238201Y-83084838D01*
X180610167Y-83085162D01*
X180680545Y-83056083D01*
X181786863Y-84162401D01*
X182033425Y-84327148D01*
X182324264Y-84385000D01*
X185891037Y-84385000D01*
X185596057Y-84506883D01*
X185332808Y-84769673D01*
X185190162Y-85113201D01*
X185189838Y-85485167D01*
X185331883Y-85828943D01*
X185365000Y-85862118D01*
X185365000Y-87775000D01*
X185422852Y-88065839D01*
X185587599Y-88312401D01*
X186464878Y-89189680D01*
X186464838Y-89235167D01*
X186606883Y-89578943D01*
X186869673Y-89842192D01*
X187213201Y-89984838D01*
X187585167Y-89985162D01*
X187928943Y-89843117D01*
X188192192Y-89580327D01*
X188334838Y-89236799D01*
X188335162Y-88864833D01*
X188193117Y-88521057D01*
X187930327Y-88257808D01*
X187586799Y-88115162D01*
X187539923Y-88115121D01*
X186885000Y-87460198D01*
X186885000Y-85862463D01*
X186917192Y-85830327D01*
X187059838Y-85486799D01*
X187060162Y-85114833D01*
X186918117Y-84771057D01*
X186655327Y-84507808D01*
X186359574Y-84385000D01*
X191314882Y-84385000D01*
X191314838Y-84435177D01*
X191456883Y-84778953D01*
X191719673Y-85042202D01*
X192063201Y-85184848D01*
X192435167Y-85185172D01*
X192778943Y-85043127D01*
X192812118Y-85010010D01*
X194340188Y-85010010D01*
X191987599Y-87362599D01*
X191822852Y-87609161D01*
X191765000Y-87900000D01*
X191765000Y-89489999D01*
X191621603Y-89489999D01*
X191593117Y-89421057D01*
X191330327Y-89157808D01*
X190986799Y-89015162D01*
X190934999Y-89015117D01*
X190934999Y-87014803D01*
X191164680Y-86785122D01*
X191210167Y-86785162D01*
X191553943Y-86643117D01*
X191817192Y-86380327D01*
X191959838Y-86036799D01*
X191960162Y-85664833D01*
X191818117Y-85321057D01*
X191555327Y-85057808D01*
X191211799Y-84915162D01*
X190839833Y-84914838D01*
X190496057Y-85056883D01*
X190232808Y-85319673D01*
X190090162Y-85663201D01*
X190090121Y-85710077D01*
X189637598Y-86162600D01*
X189472851Y-86409162D01*
X189414999Y-86700001D01*
X189414999Y-91150001D01*
X189472851Y-91440840D01*
X189637598Y-91687402D01*
X194587597Y-96637401D01*
X194834159Y-96802148D01*
X195124998Y-96860000D01*
X202312537Y-96860000D01*
X202344673Y-96892192D01*
X202688201Y-97034838D01*
X203060167Y-97035162D01*
X203403943Y-96893117D01*
X203667192Y-96630327D01*
X203809838Y-96286799D01*
X203810162Y-95914833D01*
X203668117Y-95571057D01*
X203405327Y-95307808D01*
X203061799Y-95165162D01*
X202689833Y-95164838D01*
X202346057Y-95306883D01*
X202312882Y-95340000D01*
X195439800Y-95340000D01*
X193809810Y-93710010D01*
X208062537Y-93710010D01*
X208094673Y-93742202D01*
X208438201Y-93884848D01*
X208810167Y-93885172D01*
X209153943Y-93743127D01*
X209417192Y-93480337D01*
X209559838Y-93136809D01*
X209559883Y-93085000D01*
X214737559Y-93085000D01*
X214969067Y-93181131D01*
X211860000Y-96290198D01*
X211860000Y-96062463D01*
X211892192Y-96030327D01*
X212034838Y-95686799D01*
X212035162Y-95314833D01*
X211893117Y-94971057D01*
X211630327Y-94707808D01*
X211286799Y-94565162D01*
X210914833Y-94564838D01*
X210571057Y-94706883D01*
X210307808Y-94969673D01*
X210165162Y-95313201D01*
X210164838Y-95685167D01*
X210306883Y-96028943D01*
X210339041Y-96061157D01*
X206835198Y-99565000D01*
X197910075Y-99565000D01*
X197910162Y-99464833D01*
X197768117Y-99121057D01*
X197505327Y-98857808D01*
X197161799Y-98715162D01*
X196789833Y-98714838D01*
X196446057Y-98856883D01*
X196182808Y-99119673D01*
X196040162Y-99463201D01*
X196040121Y-99510077D01*
X195985198Y-99565000D01*
X191612463Y-99565000D01*
X191580327Y-99532808D01*
X191236799Y-99390162D01*
X190864833Y-99389838D01*
X190521057Y-99531883D01*
X190257808Y-99794673D01*
X190115162Y-100138201D01*
X190114838Y-100510167D01*
X190256883Y-100853943D01*
X190519673Y-101117192D01*
X190863201Y-101259838D01*
X191235167Y-101260162D01*
X191578943Y-101118117D01*
X191612118Y-101085000D01*
X207150000Y-101085000D01*
X207440839Y-101027148D01*
X207687401Y-100862401D01*
X209639904Y-98909898D01*
X209639838Y-98985167D01*
X209781883Y-99328943D01*
X210044673Y-99592192D01*
X210388201Y-99734838D01*
X210760167Y-99735162D01*
X211103943Y-99593117D01*
X211367192Y-99330327D01*
X211509838Y-98986799D01*
X211510010Y-98789792D01*
X216414680Y-93885122D01*
X216460167Y-93885162D01*
X216803943Y-93743117D01*
X217067192Y-93480327D01*
X217209838Y-93136799D01*
X217210162Y-92764833D01*
X217068117Y-92421057D01*
X216857428Y-92210000D01*
X218500000Y-92210000D01*
X218790839Y-92152148D01*
X219037401Y-91987401D01*
X219439680Y-91585122D01*
X219485167Y-91585162D01*
X219828943Y-91443117D01*
X220092192Y-91180327D01*
X220234838Y-90836799D01*
X220235162Y-90464833D01*
X220093117Y-90121057D01*
X219830327Y-89857808D01*
X219486799Y-89715162D01*
X219114833Y-89714838D01*
X218771057Y-89856883D01*
X218507808Y-90119673D01*
X218365162Y-90463201D01*
X218365121Y-90510077D01*
X218185198Y-90690000D01*
X208378918Y-90690000D01*
X208315839Y-90647852D01*
X208025000Y-90590000D01*
X206587463Y-90590000D01*
X206555327Y-90557808D01*
X206211799Y-90415162D01*
X205839833Y-90414838D01*
X205496057Y-90556883D01*
X205232808Y-90819673D01*
X205090162Y-91163201D01*
X205089838Y-91535167D01*
X205102165Y-91565000D01*
X195009922Y-91565000D01*
X195010162Y-91289833D01*
X194868117Y-90946057D01*
X194605327Y-90682808D01*
X194261799Y-90540162D01*
X194214923Y-90540121D01*
X193387400Y-89712598D01*
X193285000Y-89644177D01*
X193285000Y-88214802D01*
X196302996Y-85196806D01*
X196553943Y-85093117D01*
X196817192Y-84830327D01*
X196950200Y-84510009D01*
X217374991Y-84510009D01*
X217665830Y-84452157D01*
X217912392Y-84287410D01*
X221412401Y-80787401D01*
X221577148Y-80540840D01*
X221635000Y-80250000D01*
X221635000Y-73839800D01*
X221989999Y-73484801D01*
X221989999Y-98299999D01*
X222047851Y-98590838D01*
X222212598Y-98837400D01*
X227964878Y-104589680D01*
X227964838Y-104635167D01*
X228106883Y-104978943D01*
X228369673Y-105242192D01*
X228713201Y-105384838D01*
X229085167Y-105385162D01*
X229428943Y-105243117D01*
X229692192Y-104980327D01*
X229834838Y-104636799D01*
X229835162Y-104264833D01*
X229693117Y-103921057D01*
X229430327Y-103657808D01*
X229086799Y-103515162D01*
X229039923Y-103515121D01*
X223509999Y-97985197D01*
X223509999Y-72885118D01*
X223560167Y-72885162D01*
X223903943Y-72743117D01*
X224167192Y-72480327D01*
X224258680Y-72260000D01*
X233000736Y-72260000D01*
X233265015Y-72207431D01*
X233264838Y-72410167D01*
X233406883Y-72753943D01*
X233440000Y-72787118D01*
X233440000Y-72835198D01*
X231437598Y-74837600D01*
X231272851Y-75084162D01*
X231214999Y-75375001D01*
X231214999Y-87067715D01*
X231080327Y-86932808D01*
X230736799Y-86790162D01*
X230689923Y-86790121D01*
X229110000Y-85210198D01*
X229110000Y-84312463D01*
X229142192Y-84280327D01*
X229284838Y-83936799D01*
X229285162Y-83564833D01*
X229143117Y-83221057D01*
X228880327Y-82957808D01*
X228536799Y-82815162D01*
X228164833Y-82814838D01*
X227821057Y-82956883D01*
X227557808Y-83219673D01*
X227415162Y-83563201D01*
X227414838Y-83935167D01*
X227556883Y-84278943D01*
X227590000Y-84312118D01*
X227590000Y-85525000D01*
X227647852Y-85815839D01*
X227812599Y-86062401D01*
X229614878Y-87864680D01*
X229614838Y-87910167D01*
X229756883Y-88253943D01*
X230019673Y-88517192D01*
X230363201Y-88659838D01*
X230735167Y-88660162D01*
X231078943Y-88518117D01*
X231214999Y-88382298D01*
X231214999Y-105399999D01*
X231272851Y-105690838D01*
X231437598Y-105937400D01*
X234087600Y-108587402D01*
X234334162Y-108752149D01*
X234625001Y-108810001D01*
X234803397Y-108810001D01*
X234831883Y-108878943D01*
X235094673Y-109142192D01*
X235438201Y-109284838D01*
X235810167Y-109285162D01*
X236153943Y-109143117D01*
X236177439Y-109119661D01*
X255882758Y-109119661D01*
X256094990Y-109633303D01*
X256487630Y-110026629D01*
X257000900Y-110239757D01*
X257003336Y-110239759D01*
X256489697Y-110451990D01*
X256096371Y-110844630D01*
X255883243Y-111357900D01*
X255882758Y-111913661D01*
X256094990Y-112427303D01*
X256487630Y-112820629D01*
X257000900Y-113033757D01*
X257556661Y-113034242D01*
X258070303Y-112822010D01*
X258463629Y-112429370D01*
X258676757Y-111916100D01*
X258677242Y-111360339D01*
X258619344Y-111220213D01*
X259019392Y-111220213D01*
X259088857Y-111462397D01*
X259612302Y-111649144D01*
X260167368Y-111621362D01*
X260551143Y-111462397D01*
X260620608Y-111220213D01*
X259820000Y-110419605D01*
X259019392Y-111220213D01*
X258619344Y-111220213D01*
X258465010Y-110846697D01*
X258072370Y-110453371D01*
X257559100Y-110240243D01*
X257556664Y-110240241D01*
X258059915Y-110032302D01*
X258410856Y-110032302D01*
X258438638Y-110587368D01*
X258597603Y-110971143D01*
X258839787Y-111040608D01*
X259640395Y-110240000D01*
X259999605Y-110240000D01*
X260800213Y-111040608D01*
X261042397Y-110971143D01*
X261229144Y-110447698D01*
X261201362Y-109892632D01*
X261042397Y-109508857D01*
X260800213Y-109439392D01*
X259999605Y-110240000D01*
X259640395Y-110240000D01*
X258839787Y-109439392D01*
X258597603Y-109508857D01*
X258410856Y-110032302D01*
X258059915Y-110032302D01*
X258070303Y-110028010D01*
X258463629Y-109635370D01*
X258676757Y-109122100D01*
X258677242Y-108566339D01*
X258619344Y-108426213D01*
X259019392Y-108426213D01*
X259088857Y-108668397D01*
X259603707Y-108852077D01*
X259472632Y-108858638D01*
X259088857Y-109017603D01*
X259019392Y-109259787D01*
X259820000Y-110060395D01*
X260620608Y-109259787D01*
X260551143Y-109017603D01*
X260036293Y-108833923D01*
X260167368Y-108827362D01*
X260551143Y-108668397D01*
X260620608Y-108426213D01*
X259820000Y-107625605D01*
X259019392Y-108426213D01*
X258619344Y-108426213D01*
X258465010Y-108052697D01*
X258072370Y-107659371D01*
X257559100Y-107446243D01*
X257314344Y-107446029D01*
X257627368Y-107430362D01*
X258011143Y-107271397D01*
X258020635Y-107238302D01*
X258410856Y-107238302D01*
X258438638Y-107793368D01*
X258597603Y-108177143D01*
X258839787Y-108246608D01*
X259640395Y-107446000D01*
X259999605Y-107446000D01*
X260800213Y-108246608D01*
X261042397Y-108177143D01*
X261229144Y-107653698D01*
X261201362Y-107098632D01*
X261042397Y-106714857D01*
X260800213Y-106645392D01*
X259999605Y-107446000D01*
X259640395Y-107446000D01*
X258839787Y-106645392D01*
X258597603Y-106714857D01*
X258410856Y-107238302D01*
X258020635Y-107238302D01*
X258080608Y-107029213D01*
X257280000Y-106228605D01*
X256479392Y-107029213D01*
X256548857Y-107271397D01*
X257037668Y-107445788D01*
X257003339Y-107445758D01*
X256489697Y-107657990D01*
X256096371Y-108050630D01*
X255883243Y-108563900D01*
X255882758Y-109119661D01*
X236177439Y-109119661D01*
X236417192Y-108880327D01*
X236559838Y-108536799D01*
X236560162Y-108164833D01*
X236418117Y-107821057D01*
X236155327Y-107557808D01*
X235811799Y-107415162D01*
X235716451Y-107415079D01*
X235615840Y-107347853D01*
X235325001Y-107290001D01*
X234939803Y-107290001D01*
X233491104Y-105841302D01*
X255870856Y-105841302D01*
X255898638Y-106396368D01*
X256057603Y-106780143D01*
X256299787Y-106849608D01*
X257100395Y-106049000D01*
X257459605Y-106049000D01*
X258260213Y-106849608D01*
X258502397Y-106780143D01*
X258689144Y-106256698D01*
X258661362Y-105701632D01*
X258653650Y-105683013D01*
X259019392Y-105683013D01*
X259088857Y-105925197D01*
X259478835Y-106064328D01*
X259472632Y-106064638D01*
X259088857Y-106223603D01*
X259019392Y-106465787D01*
X259820000Y-107266395D01*
X260620608Y-106465787D01*
X260551143Y-106223603D01*
X260161165Y-106084472D01*
X260167368Y-106084162D01*
X260551143Y-105925197D01*
X260620608Y-105683013D01*
X259820000Y-104882405D01*
X259019392Y-105683013D01*
X258653650Y-105683013D01*
X258502397Y-105317857D01*
X258260213Y-105248392D01*
X257459605Y-106049000D01*
X257100395Y-106049000D01*
X256299787Y-105248392D01*
X256057603Y-105317857D01*
X255870856Y-105841302D01*
X233491104Y-105841302D01*
X232734999Y-105085197D01*
X232734999Y-104362213D01*
X256479392Y-104362213D01*
X256548857Y-104604397D01*
X256837070Y-104707221D01*
X256548857Y-104826603D01*
X256479392Y-105068787D01*
X257280000Y-105869395D01*
X258080608Y-105068787D01*
X258011143Y-104826603D01*
X257722930Y-104723779D01*
X258011143Y-104604397D01*
X258042491Y-104495102D01*
X258410856Y-104495102D01*
X258438638Y-105050168D01*
X258597603Y-105433943D01*
X258839787Y-105503408D01*
X259640395Y-104702800D01*
X259999605Y-104702800D01*
X260800213Y-105503408D01*
X261042397Y-105433943D01*
X261229144Y-104910498D01*
X261201362Y-104355432D01*
X261042397Y-103971657D01*
X260800213Y-103902192D01*
X259999605Y-104702800D01*
X259640395Y-104702800D01*
X258839787Y-103902192D01*
X258597603Y-103971657D01*
X258410856Y-104495102D01*
X258042491Y-104495102D01*
X258080608Y-104362213D01*
X257280000Y-103561605D01*
X256479392Y-104362213D01*
X232734999Y-104362213D01*
X232734999Y-103174302D01*
X255870856Y-103174302D01*
X255898638Y-103729368D01*
X256057603Y-104113143D01*
X256299787Y-104182608D01*
X257100395Y-103382000D01*
X257459605Y-103382000D01*
X258260213Y-104182608D01*
X258502397Y-104113143D01*
X258689144Y-103589698D01*
X258661362Y-103034632D01*
X258643129Y-102990613D01*
X259019392Y-102990613D01*
X259088857Y-103232797D01*
X259410015Y-103347375D01*
X259088857Y-103480403D01*
X259019392Y-103722587D01*
X259820000Y-104523195D01*
X260620608Y-103722587D01*
X260551143Y-103480403D01*
X260229985Y-103365825D01*
X260551143Y-103232797D01*
X260620608Y-102990613D01*
X259820000Y-102190005D01*
X259019392Y-102990613D01*
X258643129Y-102990613D01*
X258502397Y-102650857D01*
X258260213Y-102581392D01*
X257459605Y-103382000D01*
X257100395Y-103382000D01*
X256299787Y-102581392D01*
X256057603Y-102650857D01*
X255870856Y-103174302D01*
X232734999Y-103174302D01*
X232734999Y-99159988D01*
X232935167Y-99160162D01*
X233278943Y-99018117D01*
X233542192Y-98755327D01*
X233684838Y-98411799D01*
X233685162Y-98039833D01*
X233543117Y-97696057D01*
X233510000Y-97662882D01*
X233510000Y-96949264D01*
X233465935Y-96727735D01*
X233534838Y-96561799D01*
X233535162Y-96189833D01*
X233393117Y-95846057D01*
X233130327Y-95582808D01*
X232786799Y-95440162D01*
X232734999Y-95440117D01*
X232734999Y-92974902D01*
X233053943Y-92843117D01*
X233316444Y-92581073D01*
X233356883Y-92678943D01*
X233619673Y-92942192D01*
X233940000Y-93075204D01*
X233940000Y-100312537D01*
X233907808Y-100344673D01*
X233765162Y-100688201D01*
X233764838Y-101060167D01*
X233906883Y-101403943D01*
X234169673Y-101667192D01*
X234513201Y-101809838D01*
X234885167Y-101810162D01*
X235228943Y-101668117D01*
X235329021Y-101568213D01*
X256479392Y-101568213D01*
X256548857Y-101810397D01*
X257063707Y-101994077D01*
X256932632Y-102000638D01*
X256548857Y-102159603D01*
X256479392Y-102401787D01*
X257280000Y-103202395D01*
X258080608Y-102401787D01*
X258011143Y-102159603D01*
X257496293Y-101975923D01*
X257627368Y-101969362D01*
X258011143Y-101810397D01*
X258013350Y-101802702D01*
X258410856Y-101802702D01*
X258438638Y-102357768D01*
X258597603Y-102741543D01*
X258839787Y-102811008D01*
X259640395Y-102010400D01*
X259999605Y-102010400D01*
X260800213Y-102811008D01*
X261042397Y-102741543D01*
X261229144Y-102218098D01*
X261201362Y-101663032D01*
X261042397Y-101279257D01*
X260800213Y-101209792D01*
X259999605Y-102010400D01*
X259640395Y-102010400D01*
X258839787Y-101209792D01*
X258597603Y-101279257D01*
X258410856Y-101802702D01*
X258013350Y-101802702D01*
X258080608Y-101568213D01*
X257280000Y-100767605D01*
X256479392Y-101568213D01*
X235329021Y-101568213D01*
X235492192Y-101405327D01*
X235634838Y-101061799D01*
X235635162Y-100689833D01*
X235493117Y-100346057D01*
X235460000Y-100312882D01*
X235460000Y-100135177D01*
X239339838Y-100135177D01*
X239481883Y-100478953D01*
X239744673Y-100742202D01*
X240088201Y-100884848D01*
X240460167Y-100885172D01*
X240803943Y-100743127D01*
X241067192Y-100480337D01*
X241108730Y-100380302D01*
X255870856Y-100380302D01*
X255898638Y-100935368D01*
X256057603Y-101319143D01*
X256299787Y-101388608D01*
X257100395Y-100588000D01*
X257459605Y-100588000D01*
X258260213Y-101388608D01*
X258502397Y-101319143D01*
X258605486Y-101030187D01*
X259019392Y-101030187D01*
X259820000Y-101830795D01*
X260620608Y-101030187D01*
X260551143Y-100788003D01*
X260027698Y-100601256D01*
X259472632Y-100629038D01*
X259088857Y-100788003D01*
X259019392Y-101030187D01*
X258605486Y-101030187D01*
X258689144Y-100795698D01*
X258661362Y-100240632D01*
X258622087Y-100145813D01*
X259019392Y-100145813D01*
X259088857Y-100387997D01*
X259612302Y-100574744D01*
X260167368Y-100546962D01*
X260551143Y-100387997D01*
X260620608Y-100145813D01*
X259820000Y-99345205D01*
X259019392Y-100145813D01*
X258622087Y-100145813D01*
X258502397Y-99856857D01*
X258260213Y-99787392D01*
X257459605Y-100588000D01*
X257100395Y-100588000D01*
X256299787Y-99787392D01*
X256057603Y-99856857D01*
X255870856Y-100380302D01*
X241108730Y-100380302D01*
X241209838Y-100136809D01*
X241209921Y-100041461D01*
X241277147Y-99940850D01*
X241334999Y-99650011D01*
X241334999Y-98774213D01*
X256479392Y-98774213D01*
X256548857Y-99016397D01*
X257063707Y-99200077D01*
X256932632Y-99206638D01*
X256548857Y-99365603D01*
X256479392Y-99607787D01*
X257280000Y-100408395D01*
X258080608Y-99607787D01*
X258011143Y-99365603D01*
X257496293Y-99181923D01*
X257627368Y-99175362D01*
X258011143Y-99016397D01*
X258027920Y-98957902D01*
X258410856Y-98957902D01*
X258438638Y-99512968D01*
X258597603Y-99896743D01*
X258839787Y-99966208D01*
X259640395Y-99165600D01*
X259999605Y-99165600D01*
X260800213Y-99966208D01*
X261042397Y-99896743D01*
X261229144Y-99373298D01*
X261201362Y-98818232D01*
X261042397Y-98434457D01*
X260800213Y-98364992D01*
X259999605Y-99165600D01*
X259640395Y-99165600D01*
X258839787Y-98364992D01*
X258597603Y-98434457D01*
X258410856Y-98957902D01*
X258027920Y-98957902D01*
X258080608Y-98774213D01*
X257280000Y-97973605D01*
X256479392Y-98774213D01*
X241334999Y-98774213D01*
X241334999Y-97586302D01*
X255870856Y-97586302D01*
X255898638Y-98141368D01*
X256057603Y-98525143D01*
X256299787Y-98594608D01*
X257100395Y-97794000D01*
X257459605Y-97794000D01*
X258260213Y-98594608D01*
X258502397Y-98525143D01*
X258689144Y-98001698D01*
X258661362Y-97446632D01*
X258502397Y-97062857D01*
X258260213Y-96993392D01*
X257459605Y-97794000D01*
X257100395Y-97794000D01*
X256299787Y-96993392D01*
X256057603Y-97062857D01*
X255870856Y-97586302D01*
X241334999Y-97586302D01*
X241334999Y-94914803D01*
X243064658Y-93185144D01*
X243085167Y-93185162D01*
X243428943Y-93043117D01*
X243692192Y-92780327D01*
X243834838Y-92436799D01*
X243835162Y-92064833D01*
X243693117Y-91721057D01*
X243430327Y-91457808D01*
X243086799Y-91315162D01*
X242714833Y-91314838D01*
X242371057Y-91456883D01*
X242107808Y-91719673D01*
X241965162Y-92063201D01*
X241965099Y-92135099D01*
X240037598Y-94062600D01*
X239872851Y-94309162D01*
X239814999Y-94600001D01*
X239814999Y-99128407D01*
X239746057Y-99156893D01*
X239482808Y-99419683D01*
X239340162Y-99763211D01*
X239339838Y-100135177D01*
X235460000Y-100135177D01*
X235460000Y-92700000D01*
X235402148Y-92409161D01*
X235402148Y-92409160D01*
X235237401Y-92162599D01*
X235085122Y-92010320D01*
X235085162Y-91964833D01*
X234943117Y-91621057D01*
X234680327Y-91357808D01*
X234529587Y-91295215D01*
X236137381Y-89687421D01*
X236302128Y-89440859D01*
X236359980Y-89150020D01*
X236359980Y-84135167D01*
X236389838Y-84135167D01*
X236531883Y-84478943D01*
X236794673Y-84742192D01*
X237138201Y-84884838D01*
X237510167Y-84885162D01*
X237853943Y-84743117D01*
X238117192Y-84480327D01*
X238259838Y-84136799D01*
X238260162Y-83764833D01*
X238118117Y-83421057D01*
X238060000Y-83362838D01*
X238060000Y-79784300D01*
X238164808Y-79627443D01*
X238188359Y-79509044D01*
X238254852Y-79442667D01*
X238397498Y-79099139D01*
X238397822Y-78727173D01*
X238255777Y-78383397D01*
X237992987Y-78120148D01*
X237649459Y-77977502D01*
X237277493Y-77977178D01*
X236933717Y-78119223D01*
X236670468Y-78382013D01*
X236527822Y-78725541D01*
X236527498Y-79097507D01*
X236589883Y-79248490D01*
X236540000Y-79499264D01*
X236540000Y-83412494D01*
X236532808Y-83419673D01*
X236390162Y-83763201D01*
X236389838Y-84135167D01*
X236359980Y-84135167D01*
X236359980Y-77728000D01*
X255870560Y-77728000D01*
X255870560Y-79252000D01*
X255914838Y-79487317D01*
X256053910Y-79703441D01*
X256266110Y-79848431D01*
X256518000Y-79899440D01*
X256972646Y-79899440D01*
X256489697Y-80098990D01*
X256096371Y-80491630D01*
X255883243Y-81004900D01*
X255882758Y-81560661D01*
X256094990Y-82074303D01*
X256487630Y-82467629D01*
X256848815Y-82617606D01*
X256489697Y-82765990D01*
X256096371Y-83158630D01*
X255883243Y-83671900D01*
X255882758Y-84227661D01*
X256094990Y-84741303D01*
X256487630Y-85134629D01*
X257000900Y-85347757D01*
X257003336Y-85347759D01*
X256489697Y-85559990D01*
X256096371Y-85952630D01*
X255883243Y-86465900D01*
X255882758Y-87021661D01*
X256094990Y-87535303D01*
X256487630Y-87928629D01*
X257000900Y-88141757D01*
X257003336Y-88141759D01*
X256489697Y-88353990D01*
X256096371Y-88746630D01*
X255883243Y-89259900D01*
X255882758Y-89815661D01*
X256094990Y-90329303D01*
X256487630Y-90722629D01*
X257000900Y-90935757D01*
X257003336Y-90935759D01*
X256489697Y-91147990D01*
X256096371Y-91540630D01*
X255883243Y-92053900D01*
X255882758Y-92609661D01*
X256094990Y-93123303D01*
X256487630Y-93516629D01*
X256848815Y-93666606D01*
X256489697Y-93814990D01*
X256096371Y-94207630D01*
X255883243Y-94720900D01*
X255882758Y-95276661D01*
X256094990Y-95790303D01*
X256487630Y-96183629D01*
X257000900Y-96396757D01*
X257245656Y-96396971D01*
X256932632Y-96412638D01*
X256548857Y-96571603D01*
X256479392Y-96813787D01*
X257280000Y-97614395D01*
X258080608Y-96813787D01*
X258011143Y-96571603D01*
X257522332Y-96397212D01*
X257556661Y-96397242D01*
X258070303Y-96185010D01*
X258463629Y-95792370D01*
X258676757Y-95279100D01*
X258677242Y-94723339D01*
X258465010Y-94209697D01*
X258072370Y-93816371D01*
X257711185Y-93666394D01*
X258070303Y-93518010D01*
X258463629Y-93125370D01*
X258676757Y-92612100D01*
X258677242Y-92056339D01*
X258465010Y-91542697D01*
X258072370Y-91149371D01*
X257559100Y-90936243D01*
X257556664Y-90936241D01*
X258070303Y-90724010D01*
X258463629Y-90331370D01*
X258676757Y-89818100D01*
X258677242Y-89262339D01*
X258465010Y-88748697D01*
X258072370Y-88355371D01*
X257559100Y-88142243D01*
X257556664Y-88142241D01*
X258070303Y-87930010D01*
X258463629Y-87537370D01*
X258676757Y-87024100D01*
X258677242Y-86468339D01*
X258465010Y-85954697D01*
X258072370Y-85561371D01*
X257559100Y-85348243D01*
X257556664Y-85348241D01*
X258070303Y-85136010D01*
X258463629Y-84743370D01*
X258676757Y-84230100D01*
X258677242Y-83674339D01*
X258465010Y-83160697D01*
X258072370Y-82767371D01*
X257711185Y-82617394D01*
X258070303Y-82469010D01*
X258463629Y-82076370D01*
X258676757Y-81563100D01*
X258677242Y-81007339D01*
X258465010Y-80493697D01*
X258072370Y-80100371D01*
X257588474Y-79899440D01*
X258042000Y-79899440D01*
X258277317Y-79855162D01*
X258437091Y-79752350D01*
X258423243Y-79785700D01*
X258422758Y-80341461D01*
X258634990Y-80855103D01*
X259027630Y-81248429D01*
X259235512Y-81334749D01*
X259029697Y-81419790D01*
X258636371Y-81812430D01*
X258423243Y-82325700D01*
X258422758Y-82881461D01*
X258634990Y-83395103D01*
X259027630Y-83788429D01*
X259540900Y-84001557D01*
X259543336Y-84001559D01*
X259029697Y-84213790D01*
X258636371Y-84606430D01*
X258423243Y-85119700D01*
X258422758Y-85675461D01*
X258634990Y-86189103D01*
X259027630Y-86582429D01*
X259480797Y-86770600D01*
X259029697Y-86956990D01*
X258636371Y-87349630D01*
X258423243Y-87862900D01*
X258422758Y-88418661D01*
X258634990Y-88932303D01*
X259027630Y-89325629D01*
X259480797Y-89513800D01*
X259029697Y-89700190D01*
X258636371Y-90092830D01*
X258423243Y-90606100D01*
X258422758Y-91161861D01*
X258634990Y-91675503D01*
X259027630Y-92068829D01*
X259540900Y-92281957D01*
X259543336Y-92281959D01*
X259029697Y-92494190D01*
X258636371Y-92886830D01*
X258423243Y-93400100D01*
X258422758Y-93955861D01*
X258634990Y-94469503D01*
X259027630Y-94862829D01*
X259480797Y-95051000D01*
X259029697Y-95237390D01*
X258636371Y-95630030D01*
X258423243Y-96143300D01*
X258422758Y-96699061D01*
X258634990Y-97212703D01*
X259027630Y-97606029D01*
X259464709Y-97787520D01*
X259088857Y-97943203D01*
X259019392Y-98185387D01*
X259820000Y-98985995D01*
X260620608Y-98185387D01*
X260551143Y-97943203D01*
X260146771Y-97798937D01*
X260610303Y-97607410D01*
X261003629Y-97214770D01*
X261216757Y-96701500D01*
X261217242Y-96145739D01*
X261005010Y-95632097D01*
X260612370Y-95238771D01*
X260159203Y-95050600D01*
X260610303Y-94864210D01*
X261003629Y-94471570D01*
X261216757Y-93958300D01*
X261217242Y-93402539D01*
X261005010Y-92888897D01*
X260612370Y-92495571D01*
X260099100Y-92282443D01*
X260096664Y-92282441D01*
X260610303Y-92070210D01*
X261003629Y-91677570D01*
X261216757Y-91164300D01*
X261217242Y-90608539D01*
X261005010Y-90094897D01*
X260612370Y-89701571D01*
X260159203Y-89513400D01*
X260610303Y-89327010D01*
X261003629Y-88934370D01*
X261216757Y-88421100D01*
X261217242Y-87865339D01*
X261005010Y-87351697D01*
X260612370Y-86958371D01*
X260159203Y-86770200D01*
X260610303Y-86583810D01*
X261003629Y-86191170D01*
X261216757Y-85677900D01*
X261217242Y-85122139D01*
X261005010Y-84608497D01*
X260612370Y-84215171D01*
X260099100Y-84002043D01*
X260096664Y-84002041D01*
X260610303Y-83789810D01*
X261003629Y-83397170D01*
X261216757Y-82883900D01*
X261217242Y-82328139D01*
X261005010Y-81814497D01*
X260612370Y-81421171D01*
X260404488Y-81334851D01*
X260610303Y-81249810D01*
X261003629Y-80857170D01*
X261216757Y-80343900D01*
X261217242Y-79788139D01*
X261005010Y-79274497D01*
X260612370Y-78881171D01*
X260099100Y-78668043D01*
X259543339Y-78667558D01*
X259029697Y-78879790D01*
X258689440Y-79219454D01*
X258689440Y-77728000D01*
X258645162Y-77492683D01*
X258506090Y-77276559D01*
X258293890Y-77131569D01*
X258042000Y-77080560D01*
X256518000Y-77080560D01*
X256282683Y-77124838D01*
X256066559Y-77263910D01*
X255921569Y-77476110D01*
X255870560Y-77728000D01*
X236359980Y-77728000D01*
X236359980Y-74266685D01*
X236410148Y-74266729D01*
X236753924Y-74124684D01*
X237017173Y-73861894D01*
X237159819Y-73518366D01*
X237159860Y-73471490D01*
X237637401Y-72993949D01*
X237802148Y-72747387D01*
X237860000Y-72456548D01*
X237860000Y-72008021D01*
X257279560Y-72008021D01*
X257665437Y-72941915D01*
X258379327Y-73657052D01*
X259312546Y-74044559D01*
X260323021Y-74045440D01*
X261256915Y-73659563D01*
X261972052Y-72945673D01*
X262359559Y-72012454D01*
X262360440Y-71001979D01*
X261974563Y-70068085D01*
X261260673Y-69352948D01*
X260327454Y-68965441D01*
X259316979Y-68964560D01*
X258383085Y-69350437D01*
X257667948Y-70064327D01*
X257280441Y-70997546D01*
X257279560Y-72008021D01*
X237860000Y-72008021D01*
X237860000Y-71800000D01*
X237839049Y-71694673D01*
X237802148Y-71509160D01*
X237637401Y-71262599D01*
X236868996Y-70494194D01*
X236818117Y-70371057D01*
X236555327Y-70107808D01*
X236211799Y-69965162D01*
X235839833Y-69964838D01*
X235496057Y-70106883D01*
X235232808Y-70369673D01*
X235090162Y-70713201D01*
X235089838Y-71085167D01*
X235231883Y-71428943D01*
X235452600Y-71650046D01*
X235357808Y-71744673D01*
X235215162Y-72088201D01*
X235215121Y-72135077D01*
X235135009Y-72215189D01*
X235135162Y-72039833D01*
X234993117Y-71696057D01*
X234772443Y-71474998D01*
X234817192Y-71430327D01*
X234959838Y-71086799D01*
X234960162Y-70714833D01*
X234818117Y-70371057D01*
X234555327Y-70107808D01*
X234211799Y-69965162D01*
X233839833Y-69964838D01*
X233496057Y-70106883D01*
X233428578Y-70174245D01*
X233309897Y-70197852D01*
X233063335Y-70362599D01*
X232685934Y-70740000D01*
X224734800Y-70740000D01*
X225562401Y-69912399D01*
X225727148Y-69665838D01*
X225785000Y-69374998D01*
X225785000Y-66537463D01*
X225817192Y-66505327D01*
X225959838Y-66161799D01*
X225960162Y-65789833D01*
X225818117Y-65446057D01*
X225814685Y-65442619D01*
X247764613Y-65442619D01*
X248104155Y-66264372D01*
X248732321Y-66893636D01*
X249553481Y-67234611D01*
X250442619Y-67235387D01*
X251264372Y-66895845D01*
X251893636Y-66267679D01*
X252234611Y-65446519D01*
X252235387Y-64557381D01*
X251895845Y-63735628D01*
X251267679Y-63106364D01*
X250446519Y-62765389D01*
X249557381Y-62764613D01*
X248735628Y-63104155D01*
X248106364Y-63732321D01*
X247765389Y-64553481D01*
X247764613Y-65442619D01*
X225814685Y-65442619D01*
X225555327Y-65182808D01*
X225211799Y-65040162D01*
X224839833Y-65039838D01*
X224496057Y-65181883D01*
X224232808Y-65444673D01*
X224090162Y-65788201D01*
X224089838Y-66160167D01*
X224231883Y-66503943D01*
X224265000Y-66537118D01*
X224265000Y-69060196D01*
X223135096Y-70190100D01*
X223135162Y-70114833D01*
X222993117Y-69771057D01*
X222730327Y-69507808D01*
X222386799Y-69365162D01*
X222014833Y-69364838D01*
X221671057Y-69506883D01*
X221407808Y-69769673D01*
X221265162Y-70113201D01*
X221264838Y-70485167D01*
X221406883Y-70828943D01*
X221440000Y-70862118D01*
X221440000Y-71885196D01*
X220337599Y-72987597D01*
X220172852Y-73234159D01*
X220115000Y-73524998D01*
X220115000Y-79935198D01*
X217060189Y-82990009D01*
X209735119Y-82990009D01*
X209735163Y-82939832D01*
X209593118Y-82596056D01*
X209330328Y-82332807D01*
X208986800Y-82190161D01*
X208614834Y-82189837D01*
X208271058Y-82331882D01*
X208237883Y-82364999D01*
X208090987Y-82364999D01*
X208208345Y-81775000D01*
X208082670Y-81143190D01*
X207855501Y-80803208D01*
X207992441Y-80715090D01*
X208137431Y-80502890D01*
X208188440Y-80251000D01*
X208188440Y-78219000D01*
X208144162Y-77983683D01*
X208005090Y-77767559D01*
X207792890Y-77622569D01*
X207541000Y-77571560D01*
X205509000Y-77571560D01*
X205273683Y-77615838D01*
X205057559Y-77754910D01*
X204912569Y-77967110D01*
X204861560Y-78219000D01*
X204861560Y-80251000D01*
X204905838Y-80486317D01*
X205044910Y-80702441D01*
X205193837Y-80804198D01*
X204967330Y-81143190D01*
X204841655Y-81775000D01*
X204959013Y-82364999D01*
X195553750Y-82364999D01*
X195415840Y-82272851D01*
X195125001Y-82214999D01*
X193962505Y-82214999D01*
X193955317Y-82207798D01*
X193611789Y-82065152D01*
X193239823Y-82064828D01*
X192896047Y-82206873D01*
X192632798Y-82469663D01*
X192490152Y-82813191D01*
X192490107Y-82865000D01*
X182639066Y-82865000D01*
X181386665Y-81612599D01*
X181140103Y-81447852D01*
X181021704Y-81424301D01*
X180955327Y-81357808D01*
X180611799Y-81215162D01*
X180239833Y-81214838D01*
X179896057Y-81356883D01*
X179632808Y-81619673D01*
X179490162Y-81963201D01*
X179489838Y-82335167D01*
X160685000Y-82335167D01*
X160685000Y-80210167D01*
X187739838Y-80210167D01*
X187881883Y-80553943D01*
X188144673Y-80817192D01*
X188488201Y-80959838D01*
X188860167Y-80960162D01*
X189203943Y-80818117D01*
X189237118Y-80785000D01*
X193157698Y-80785000D01*
X193448537Y-80727148D01*
X193695099Y-80562401D01*
X193806029Y-80451471D01*
X193851516Y-80451511D01*
X194195292Y-80309466D01*
X194458541Y-80046676D01*
X194601187Y-79703148D01*
X194601511Y-79331182D01*
X194459466Y-78987406D01*
X194196676Y-78724157D01*
X193853148Y-78581511D01*
X193481182Y-78581187D01*
X193137406Y-78723232D01*
X192874157Y-78986022D01*
X192758315Y-79265000D01*
X189237463Y-79265000D01*
X189205327Y-79232808D01*
X188861799Y-79090162D01*
X188489833Y-79089838D01*
X188146057Y-79231883D01*
X187882808Y-79494673D01*
X187740162Y-79838201D01*
X187739838Y-80210167D01*
X160685000Y-80210167D01*
X160685000Y-65442619D01*
X167764613Y-65442619D01*
X168104155Y-66264372D01*
X168732321Y-66893636D01*
X169553481Y-67234611D01*
X170442619Y-67235387D01*
X171264372Y-66895845D01*
X171893636Y-66267679D01*
X172234611Y-65446519D01*
X172235387Y-64557381D01*
X171895845Y-63735628D01*
X171267679Y-63106364D01*
X170446519Y-62765389D01*
X169557381Y-62764613D01*
X168735628Y-63104155D01*
X168106364Y-63732321D01*
X167765389Y-64553481D01*
X167764613Y-65442619D01*
X160685000Y-65442619D01*
X160685000Y-60685000D01*
X269315000Y-60685000D01*
X269315000Y-129315000D01*
X269315000Y-129315000D01*
G37*
X269315000Y-129315000D02*
X160685000Y-129315000D01*
X160685000Y-125442619D01*
X167764613Y-125442619D01*
X168104155Y-126264372D01*
X168732321Y-126893636D01*
X169553481Y-127234611D01*
X170442619Y-127235387D01*
X171264372Y-126895845D01*
X171893636Y-126267679D01*
X172234611Y-125446519D01*
X172234614Y-125442619D01*
X247764613Y-125442619D01*
X248104155Y-126264372D01*
X248732321Y-126893636D01*
X249553481Y-127234611D01*
X250442619Y-127235387D01*
X251264372Y-126895845D01*
X251893636Y-126267679D01*
X252234611Y-125446519D01*
X252235387Y-124557381D01*
X251895845Y-123735628D01*
X251267679Y-123106364D01*
X250446519Y-122765389D01*
X249557381Y-122764613D01*
X248735628Y-123104155D01*
X248106364Y-123732321D01*
X247765389Y-124553481D01*
X247764613Y-125442619D01*
X172234614Y-125442619D01*
X172235387Y-124557381D01*
X171895845Y-123735628D01*
X171267679Y-123106364D01*
X170446519Y-122765389D01*
X169557381Y-122764613D01*
X168735628Y-123104155D01*
X168106364Y-123732321D01*
X167765389Y-124553481D01*
X167764613Y-125442619D01*
X160685000Y-125442619D01*
X160685000Y-118998021D01*
X257279560Y-118998021D01*
X257665437Y-119931915D01*
X258379327Y-120647052D01*
X259312546Y-121034559D01*
X260323021Y-121035440D01*
X261256915Y-120649563D01*
X261972052Y-119935673D01*
X262359559Y-119002454D01*
X262360440Y-117991979D01*
X261974563Y-117058085D01*
X261260673Y-116342948D01*
X260327454Y-115955441D01*
X259316979Y-115954560D01*
X258383085Y-116340437D01*
X257667948Y-117054327D01*
X257280441Y-117987546D01*
X257279560Y-118998021D01*
X160685000Y-118998021D01*
X160685000Y-105010167D01*
X224289838Y-105010167D01*
X224431883Y-105353943D01*
X224694673Y-105617192D01*
X225038201Y-105759838D01*
X225410167Y-105760162D01*
X225753943Y-105618117D01*
X225773646Y-105598448D01*
X233867049Y-113691851D01*
X234113611Y-113856598D01*
X234271956Y-113888095D01*
X234311332Y-113983392D01*
X234574122Y-114246641D01*
X234917650Y-114389287D01*
X235289616Y-114389611D01*
X235633392Y-114247566D01*
X235896641Y-113984776D01*
X236039287Y-113641248D01*
X236039611Y-113269282D01*
X235897566Y-112925506D01*
X235634776Y-112662257D01*
X235291248Y-112519611D01*
X235195900Y-112519528D01*
X235095289Y-112452302D01*
X234804450Y-112394450D01*
X234719252Y-112394450D01*
X226612401Y-104287599D01*
X226365839Y-104122852D01*
X226075000Y-104065000D01*
X225787463Y-104065000D01*
X225755327Y-104032808D01*
X225411799Y-103890162D01*
X225039833Y-103889838D01*
X224696057Y-104031883D01*
X224432808Y-104294673D01*
X224290162Y-104638201D01*
X224289838Y-105010167D01*
X160685000Y-105010167D01*
X160685000Y-100122591D01*
X162589646Y-100122591D01*
X162891209Y-100852429D01*
X163449114Y-101411309D01*
X164178425Y-101714145D01*
X164968111Y-101714834D01*
X165697949Y-101413271D01*
X166256829Y-100855366D01*
X166559665Y-100126055D01*
X166560354Y-99336369D01*
X166258791Y-98606531D01*
X165700886Y-98047651D01*
X164971575Y-97744815D01*
X164181889Y-97744126D01*
X163452051Y-98045689D01*
X162893171Y-98603594D01*
X162590335Y-99332905D01*
X162589646Y-100122591D01*
X160685000Y-100122591D01*
X160685000Y-95980213D01*
X166474412Y-95980213D01*
X166543877Y-96222397D01*
X167067322Y-96409144D01*
X167622388Y-96381362D01*
X168006163Y-96222397D01*
X168075628Y-95980213D01*
X167275020Y-95179605D01*
X166474412Y-95980213D01*
X160685000Y-95980213D01*
X160685000Y-94792302D01*
X165865876Y-94792302D01*
X165893658Y-95347368D01*
X166052623Y-95731143D01*
X166294807Y-95800608D01*
X167095415Y-95000000D01*
X166294807Y-94199392D01*
X166052623Y-94268857D01*
X165865876Y-94792302D01*
X160685000Y-94792302D01*
X160685000Y-92736661D01*
X165877778Y-92736661D01*
X166090010Y-93250303D01*
X166482650Y-93643629D01*
X166674747Y-93723395D01*
X166543877Y-93777603D01*
X166474412Y-94019787D01*
X167275020Y-94820395D01*
X168075628Y-94019787D01*
X168006163Y-93777603D01*
X167865702Y-93727491D01*
X168065323Y-93645010D01*
X168274530Y-93436168D01*
X168481630Y-93643629D01*
X168689512Y-93729949D01*
X168483697Y-93814990D01*
X168090371Y-94207630D01*
X167979154Y-94475471D01*
X167454625Y-95000000D01*
X167979189Y-95524564D01*
X168088990Y-95790303D01*
X168481630Y-96183629D01*
X168994900Y-96396757D01*
X169550661Y-96397242D01*
X170064303Y-96185010D01*
X170457629Y-95792370D01*
X170670757Y-95279100D01*
X170671242Y-94723339D01*
X170459010Y-94209697D01*
X170066370Y-93816371D01*
X169858488Y-93730051D01*
X170064303Y-93645010D01*
X170457629Y-93252370D01*
X170670757Y-92739100D01*
X170671242Y-92183339D01*
X170459010Y-91669697D01*
X170066370Y-91276371D01*
X169553100Y-91063243D01*
X168997339Y-91062758D01*
X168483697Y-91274990D01*
X168274490Y-91483832D01*
X168067390Y-91276371D01*
X167554120Y-91063243D01*
X166998359Y-91062758D01*
X166484717Y-91274990D01*
X166091391Y-91667630D01*
X165878263Y-92180900D01*
X165877778Y-92736661D01*
X160685000Y-92736661D01*
X160685000Y-88123631D01*
X162589646Y-88123631D01*
X162891209Y-88853469D01*
X163449114Y-89412349D01*
X164178425Y-89715185D01*
X164968111Y-89715874D01*
X165697949Y-89414311D01*
X166256829Y-88856406D01*
X166559665Y-88127095D01*
X166560354Y-87337409D01*
X166258791Y-86607571D01*
X165700886Y-86048691D01*
X164971575Y-85745855D01*
X164181889Y-85745166D01*
X163452051Y-86046729D01*
X162893171Y-86604634D01*
X162590335Y-87333945D01*
X162589646Y-88123631D01*
X160685000Y-88123631D01*
X160685000Y-82335167D01*
X179489838Y-82335167D01*
X179631883Y-82678943D01*
X179894673Y-82942192D01*
X180238201Y-83084838D01*
X180610167Y-83085162D01*
X180680545Y-83056083D01*
X181786863Y-84162401D01*
X182033425Y-84327148D01*
X182324264Y-84385000D01*
X185891037Y-84385000D01*
X185596057Y-84506883D01*
X185332808Y-84769673D01*
X185190162Y-85113201D01*
X185189838Y-85485167D01*
X185331883Y-85828943D01*
X185365000Y-85862118D01*
X185365000Y-87775000D01*
X185422852Y-88065839D01*
X185587599Y-88312401D01*
X186464878Y-89189680D01*
X186464838Y-89235167D01*
X186606883Y-89578943D01*
X186869673Y-89842192D01*
X187213201Y-89984838D01*
X187585167Y-89985162D01*
X187928943Y-89843117D01*
X188192192Y-89580327D01*
X188334838Y-89236799D01*
X188335162Y-88864833D01*
X188193117Y-88521057D01*
X187930327Y-88257808D01*
X187586799Y-88115162D01*
X187539923Y-88115121D01*
X186885000Y-87460198D01*
X186885000Y-85862463D01*
X186917192Y-85830327D01*
X187059838Y-85486799D01*
X187060162Y-85114833D01*
X186918117Y-84771057D01*
X186655327Y-84507808D01*
X186359574Y-84385000D01*
X191314882Y-84385000D01*
X191314838Y-84435177D01*
X191456883Y-84778953D01*
X191719673Y-85042202D01*
X192063201Y-85184848D01*
X192435167Y-85185172D01*
X192778943Y-85043127D01*
X192812118Y-85010010D01*
X194340188Y-85010010D01*
X191987599Y-87362599D01*
X191822852Y-87609161D01*
X191765000Y-87900000D01*
X191765000Y-89489999D01*
X191621603Y-89489999D01*
X191593117Y-89421057D01*
X191330327Y-89157808D01*
X190986799Y-89015162D01*
X190934999Y-89015117D01*
X190934999Y-87014803D01*
X191164680Y-86785122D01*
X191210167Y-86785162D01*
X191553943Y-86643117D01*
X191817192Y-86380327D01*
X191959838Y-86036799D01*
X191960162Y-85664833D01*
X191818117Y-85321057D01*
X191555327Y-85057808D01*
X191211799Y-84915162D01*
X190839833Y-84914838D01*
X190496057Y-85056883D01*
X190232808Y-85319673D01*
X190090162Y-85663201D01*
X190090121Y-85710077D01*
X189637598Y-86162600D01*
X189472851Y-86409162D01*
X189414999Y-86700001D01*
X189414999Y-91150001D01*
X189472851Y-91440840D01*
X189637598Y-91687402D01*
X194587597Y-96637401D01*
X194834159Y-96802148D01*
X195124998Y-96860000D01*
X202312537Y-96860000D01*
X202344673Y-96892192D01*
X202688201Y-97034838D01*
X203060167Y-97035162D01*
X203403943Y-96893117D01*
X203667192Y-96630327D01*
X203809838Y-96286799D01*
X203810162Y-95914833D01*
X203668117Y-95571057D01*
X203405327Y-95307808D01*
X203061799Y-95165162D01*
X202689833Y-95164838D01*
X202346057Y-95306883D01*
X202312882Y-95340000D01*
X195439800Y-95340000D01*
X193809810Y-93710010D01*
X208062537Y-93710010D01*
X208094673Y-93742202D01*
X208438201Y-93884848D01*
X208810167Y-93885172D01*
X209153943Y-93743127D01*
X209417192Y-93480337D01*
X209559838Y-93136809D01*
X209559883Y-93085000D01*
X214737559Y-93085000D01*
X214969067Y-93181131D01*
X211860000Y-96290198D01*
X211860000Y-96062463D01*
X211892192Y-96030327D01*
X212034838Y-95686799D01*
X212035162Y-95314833D01*
X211893117Y-94971057D01*
X211630327Y-94707808D01*
X211286799Y-94565162D01*
X210914833Y-94564838D01*
X210571057Y-94706883D01*
X210307808Y-94969673D01*
X210165162Y-95313201D01*
X210164838Y-95685167D01*
X210306883Y-96028943D01*
X210339041Y-96061157D01*
X206835198Y-99565000D01*
X197910075Y-99565000D01*
X197910162Y-99464833D01*
X197768117Y-99121057D01*
X197505327Y-98857808D01*
X197161799Y-98715162D01*
X196789833Y-98714838D01*
X196446057Y-98856883D01*
X196182808Y-99119673D01*
X196040162Y-99463201D01*
X196040121Y-99510077D01*
X195985198Y-99565000D01*
X191612463Y-99565000D01*
X191580327Y-99532808D01*
X191236799Y-99390162D01*
X190864833Y-99389838D01*
X190521057Y-99531883D01*
X190257808Y-99794673D01*
X190115162Y-100138201D01*
X190114838Y-100510167D01*
X190256883Y-100853943D01*
X190519673Y-101117192D01*
X190863201Y-101259838D01*
X191235167Y-101260162D01*
X191578943Y-101118117D01*
X191612118Y-101085000D01*
X207150000Y-101085000D01*
X207440839Y-101027148D01*
X207687401Y-100862401D01*
X209639904Y-98909898D01*
X209639838Y-98985167D01*
X209781883Y-99328943D01*
X210044673Y-99592192D01*
X210388201Y-99734838D01*
X210760167Y-99735162D01*
X211103943Y-99593117D01*
X211367192Y-99330327D01*
X211509838Y-98986799D01*
X211510010Y-98789792D01*
X216414680Y-93885122D01*
X216460167Y-93885162D01*
X216803943Y-93743117D01*
X217067192Y-93480327D01*
X217209838Y-93136799D01*
X217210162Y-92764833D01*
X217068117Y-92421057D01*
X216857428Y-92210000D01*
X218500000Y-92210000D01*
X218790839Y-92152148D01*
X219037401Y-91987401D01*
X219439680Y-91585122D01*
X219485167Y-91585162D01*
X219828943Y-91443117D01*
X220092192Y-91180327D01*
X220234838Y-90836799D01*
X220235162Y-90464833D01*
X220093117Y-90121057D01*
X219830327Y-89857808D01*
X219486799Y-89715162D01*
X219114833Y-89714838D01*
X218771057Y-89856883D01*
X218507808Y-90119673D01*
X218365162Y-90463201D01*
X218365121Y-90510077D01*
X218185198Y-90690000D01*
X208378918Y-90690000D01*
X208315839Y-90647852D01*
X208025000Y-90590000D01*
X206587463Y-90590000D01*
X206555327Y-90557808D01*
X206211799Y-90415162D01*
X205839833Y-90414838D01*
X205496057Y-90556883D01*
X205232808Y-90819673D01*
X205090162Y-91163201D01*
X205089838Y-91535167D01*
X205102165Y-91565000D01*
X195009922Y-91565000D01*
X195010162Y-91289833D01*
X194868117Y-90946057D01*
X194605327Y-90682808D01*
X194261799Y-90540162D01*
X194214923Y-90540121D01*
X193387400Y-89712598D01*
X193285000Y-89644177D01*
X193285000Y-88214802D01*
X196302996Y-85196806D01*
X196553943Y-85093117D01*
X196817192Y-84830327D01*
X196950200Y-84510009D01*
X217374991Y-84510009D01*
X217665830Y-84452157D01*
X217912392Y-84287410D01*
X221412401Y-80787401D01*
X221577148Y-80540840D01*
X221635000Y-80250000D01*
X221635000Y-73839800D01*
X221989999Y-73484801D01*
X221989999Y-98299999D01*
X222047851Y-98590838D01*
X222212598Y-98837400D01*
X227964878Y-104589680D01*
X227964838Y-104635167D01*
X228106883Y-104978943D01*
X228369673Y-105242192D01*
X228713201Y-105384838D01*
X229085167Y-105385162D01*
X229428943Y-105243117D01*
X229692192Y-104980327D01*
X229834838Y-104636799D01*
X229835162Y-104264833D01*
X229693117Y-103921057D01*
X229430327Y-103657808D01*
X229086799Y-103515162D01*
X229039923Y-103515121D01*
X223509999Y-97985197D01*
X223509999Y-72885118D01*
X223560167Y-72885162D01*
X223903943Y-72743117D01*
X224167192Y-72480327D01*
X224258680Y-72260000D01*
X233000736Y-72260000D01*
X233265015Y-72207431D01*
X233264838Y-72410167D01*
X233406883Y-72753943D01*
X233440000Y-72787118D01*
X233440000Y-72835198D01*
X231437598Y-74837600D01*
X231272851Y-75084162D01*
X231214999Y-75375001D01*
X231214999Y-87067715D01*
X231080327Y-86932808D01*
X230736799Y-86790162D01*
X230689923Y-86790121D01*
X229110000Y-85210198D01*
X229110000Y-84312463D01*
X229142192Y-84280327D01*
X229284838Y-83936799D01*
X229285162Y-83564833D01*
X229143117Y-83221057D01*
X228880327Y-82957808D01*
X228536799Y-82815162D01*
X228164833Y-82814838D01*
X227821057Y-82956883D01*
X227557808Y-83219673D01*
X227415162Y-83563201D01*
X227414838Y-83935167D01*
X227556883Y-84278943D01*
X227590000Y-84312118D01*
X227590000Y-85525000D01*
X227647852Y-85815839D01*
X227812599Y-86062401D01*
X229614878Y-87864680D01*
X229614838Y-87910167D01*
X229756883Y-88253943D01*
X230019673Y-88517192D01*
X230363201Y-88659838D01*
X230735167Y-88660162D01*
X231078943Y-88518117D01*
X231214999Y-88382298D01*
X231214999Y-105399999D01*
X231272851Y-105690838D01*
X231437598Y-105937400D01*
X234087600Y-108587402D01*
X234334162Y-108752149D01*
X234625001Y-108810001D01*
X234803397Y-108810001D01*
X234831883Y-108878943D01*
X235094673Y-109142192D01*
X235438201Y-109284838D01*
X235810167Y-109285162D01*
X236153943Y-109143117D01*
X236177439Y-109119661D01*
X255882758Y-109119661D01*
X256094990Y-109633303D01*
X256487630Y-110026629D01*
X257000900Y-110239757D01*
X257003336Y-110239759D01*
X256489697Y-110451990D01*
X256096371Y-110844630D01*
X255883243Y-111357900D01*
X255882758Y-111913661D01*
X256094990Y-112427303D01*
X256487630Y-112820629D01*
X257000900Y-113033757D01*
X257556661Y-113034242D01*
X258070303Y-112822010D01*
X258463629Y-112429370D01*
X258676757Y-111916100D01*
X258677242Y-111360339D01*
X258619344Y-111220213D01*
X259019392Y-111220213D01*
X259088857Y-111462397D01*
X259612302Y-111649144D01*
X260167368Y-111621362D01*
X260551143Y-111462397D01*
X260620608Y-111220213D01*
X259820000Y-110419605D01*
X259019392Y-111220213D01*
X258619344Y-111220213D01*
X258465010Y-110846697D01*
X258072370Y-110453371D01*
X257559100Y-110240243D01*
X257556664Y-110240241D01*
X258059915Y-110032302D01*
X258410856Y-110032302D01*
X258438638Y-110587368D01*
X258597603Y-110971143D01*
X258839787Y-111040608D01*
X259640395Y-110240000D01*
X259999605Y-110240000D01*
X260800213Y-111040608D01*
X261042397Y-110971143D01*
X261229144Y-110447698D01*
X261201362Y-109892632D01*
X261042397Y-109508857D01*
X260800213Y-109439392D01*
X259999605Y-110240000D01*
X259640395Y-110240000D01*
X258839787Y-109439392D01*
X258597603Y-109508857D01*
X258410856Y-110032302D01*
X258059915Y-110032302D01*
X258070303Y-110028010D01*
X258463629Y-109635370D01*
X258676757Y-109122100D01*
X258677242Y-108566339D01*
X258619344Y-108426213D01*
X259019392Y-108426213D01*
X259088857Y-108668397D01*
X259603707Y-108852077D01*
X259472632Y-108858638D01*
X259088857Y-109017603D01*
X259019392Y-109259787D01*
X259820000Y-110060395D01*
X260620608Y-109259787D01*
X260551143Y-109017603D01*
X260036293Y-108833923D01*
X260167368Y-108827362D01*
X260551143Y-108668397D01*
X260620608Y-108426213D01*
X259820000Y-107625605D01*
X259019392Y-108426213D01*
X258619344Y-108426213D01*
X258465010Y-108052697D01*
X258072370Y-107659371D01*
X257559100Y-107446243D01*
X257314344Y-107446029D01*
X257627368Y-107430362D01*
X258011143Y-107271397D01*
X258020635Y-107238302D01*
X258410856Y-107238302D01*
X258438638Y-107793368D01*
X258597603Y-108177143D01*
X258839787Y-108246608D01*
X259640395Y-107446000D01*
X259999605Y-107446000D01*
X260800213Y-108246608D01*
X261042397Y-108177143D01*
X261229144Y-107653698D01*
X261201362Y-107098632D01*
X261042397Y-106714857D01*
X260800213Y-106645392D01*
X259999605Y-107446000D01*
X259640395Y-107446000D01*
X258839787Y-106645392D01*
X258597603Y-106714857D01*
X258410856Y-107238302D01*
X258020635Y-107238302D01*
X258080608Y-107029213D01*
X257280000Y-106228605D01*
X256479392Y-107029213D01*
X256548857Y-107271397D01*
X257037668Y-107445788D01*
X257003339Y-107445758D01*
X256489697Y-107657990D01*
X256096371Y-108050630D01*
X255883243Y-108563900D01*
X255882758Y-109119661D01*
X236177439Y-109119661D01*
X236417192Y-108880327D01*
X236559838Y-108536799D01*
X236560162Y-108164833D01*
X236418117Y-107821057D01*
X236155327Y-107557808D01*
X235811799Y-107415162D01*
X235716451Y-107415079D01*
X235615840Y-107347853D01*
X235325001Y-107290001D01*
X234939803Y-107290001D01*
X233491104Y-105841302D01*
X255870856Y-105841302D01*
X255898638Y-106396368D01*
X256057603Y-106780143D01*
X256299787Y-106849608D01*
X257100395Y-106049000D01*
X257459605Y-106049000D01*
X258260213Y-106849608D01*
X258502397Y-106780143D01*
X258689144Y-106256698D01*
X258661362Y-105701632D01*
X258653650Y-105683013D01*
X259019392Y-105683013D01*
X259088857Y-105925197D01*
X259478835Y-106064328D01*
X259472632Y-106064638D01*
X259088857Y-106223603D01*
X259019392Y-106465787D01*
X259820000Y-107266395D01*
X260620608Y-106465787D01*
X260551143Y-106223603D01*
X260161165Y-106084472D01*
X260167368Y-106084162D01*
X260551143Y-105925197D01*
X260620608Y-105683013D01*
X259820000Y-104882405D01*
X259019392Y-105683013D01*
X258653650Y-105683013D01*
X258502397Y-105317857D01*
X258260213Y-105248392D01*
X257459605Y-106049000D01*
X257100395Y-106049000D01*
X256299787Y-105248392D01*
X256057603Y-105317857D01*
X255870856Y-105841302D01*
X233491104Y-105841302D01*
X232734999Y-105085197D01*
X232734999Y-104362213D01*
X256479392Y-104362213D01*
X256548857Y-104604397D01*
X256837070Y-104707221D01*
X256548857Y-104826603D01*
X256479392Y-105068787D01*
X257280000Y-105869395D01*
X258080608Y-105068787D01*
X258011143Y-104826603D01*
X257722930Y-104723779D01*
X258011143Y-104604397D01*
X258042491Y-104495102D01*
X258410856Y-104495102D01*
X258438638Y-105050168D01*
X258597603Y-105433943D01*
X258839787Y-105503408D01*
X259640395Y-104702800D01*
X259999605Y-104702800D01*
X260800213Y-105503408D01*
X261042397Y-105433943D01*
X261229144Y-104910498D01*
X261201362Y-104355432D01*
X261042397Y-103971657D01*
X260800213Y-103902192D01*
X259999605Y-104702800D01*
X259640395Y-104702800D01*
X258839787Y-103902192D01*
X258597603Y-103971657D01*
X258410856Y-104495102D01*
X258042491Y-104495102D01*
X258080608Y-104362213D01*
X257280000Y-103561605D01*
X256479392Y-104362213D01*
X232734999Y-104362213D01*
X232734999Y-103174302D01*
X255870856Y-103174302D01*
X255898638Y-103729368D01*
X256057603Y-104113143D01*
X256299787Y-104182608D01*
X257100395Y-103382000D01*
X257459605Y-103382000D01*
X258260213Y-104182608D01*
X258502397Y-104113143D01*
X258689144Y-103589698D01*
X258661362Y-103034632D01*
X258643129Y-102990613D01*
X259019392Y-102990613D01*
X259088857Y-103232797D01*
X259410015Y-103347375D01*
X259088857Y-103480403D01*
X259019392Y-103722587D01*
X259820000Y-104523195D01*
X260620608Y-103722587D01*
X260551143Y-103480403D01*
X260229985Y-103365825D01*
X260551143Y-103232797D01*
X260620608Y-102990613D01*
X259820000Y-102190005D01*
X259019392Y-102990613D01*
X258643129Y-102990613D01*
X258502397Y-102650857D01*
X258260213Y-102581392D01*
X257459605Y-103382000D01*
X257100395Y-103382000D01*
X256299787Y-102581392D01*
X256057603Y-102650857D01*
X255870856Y-103174302D01*
X232734999Y-103174302D01*
X232734999Y-99159988D01*
X232935167Y-99160162D01*
X233278943Y-99018117D01*
X233542192Y-98755327D01*
X233684838Y-98411799D01*
X233685162Y-98039833D01*
X233543117Y-97696057D01*
X233510000Y-97662882D01*
X233510000Y-96949264D01*
X233465935Y-96727735D01*
X233534838Y-96561799D01*
X233535162Y-96189833D01*
X233393117Y-95846057D01*
X233130327Y-95582808D01*
X232786799Y-95440162D01*
X232734999Y-95440117D01*
X232734999Y-92974902D01*
X233053943Y-92843117D01*
X233316444Y-92581073D01*
X233356883Y-92678943D01*
X233619673Y-92942192D01*
X233940000Y-93075204D01*
X233940000Y-100312537D01*
X233907808Y-100344673D01*
X233765162Y-100688201D01*
X233764838Y-101060167D01*
X233906883Y-101403943D01*
X234169673Y-101667192D01*
X234513201Y-101809838D01*
X234885167Y-101810162D01*
X235228943Y-101668117D01*
X235329021Y-101568213D01*
X256479392Y-101568213D01*
X256548857Y-101810397D01*
X257063707Y-101994077D01*
X256932632Y-102000638D01*
X256548857Y-102159603D01*
X256479392Y-102401787D01*
X257280000Y-103202395D01*
X258080608Y-102401787D01*
X258011143Y-102159603D01*
X257496293Y-101975923D01*
X257627368Y-101969362D01*
X258011143Y-101810397D01*
X258013350Y-101802702D01*
X258410856Y-101802702D01*
X258438638Y-102357768D01*
X258597603Y-102741543D01*
X258839787Y-102811008D01*
X259640395Y-102010400D01*
X259999605Y-102010400D01*
X260800213Y-102811008D01*
X261042397Y-102741543D01*
X261229144Y-102218098D01*
X261201362Y-101663032D01*
X261042397Y-101279257D01*
X260800213Y-101209792D01*
X259999605Y-102010400D01*
X259640395Y-102010400D01*
X258839787Y-101209792D01*
X258597603Y-101279257D01*
X258410856Y-101802702D01*
X258013350Y-101802702D01*
X258080608Y-101568213D01*
X257280000Y-100767605D01*
X256479392Y-101568213D01*
X235329021Y-101568213D01*
X235492192Y-101405327D01*
X235634838Y-101061799D01*
X235635162Y-100689833D01*
X235493117Y-100346057D01*
X235460000Y-100312882D01*
X235460000Y-100135177D01*
X239339838Y-100135177D01*
X239481883Y-100478953D01*
X239744673Y-100742202D01*
X240088201Y-100884848D01*
X240460167Y-100885172D01*
X240803943Y-100743127D01*
X241067192Y-100480337D01*
X241108730Y-100380302D01*
X255870856Y-100380302D01*
X255898638Y-100935368D01*
X256057603Y-101319143D01*
X256299787Y-101388608D01*
X257100395Y-100588000D01*
X257459605Y-100588000D01*
X258260213Y-101388608D01*
X258502397Y-101319143D01*
X258605486Y-101030187D01*
X259019392Y-101030187D01*
X259820000Y-101830795D01*
X260620608Y-101030187D01*
X260551143Y-100788003D01*
X260027698Y-100601256D01*
X259472632Y-100629038D01*
X259088857Y-100788003D01*
X259019392Y-101030187D01*
X258605486Y-101030187D01*
X258689144Y-100795698D01*
X258661362Y-100240632D01*
X258622087Y-100145813D01*
X259019392Y-100145813D01*
X259088857Y-100387997D01*
X259612302Y-100574744D01*
X260167368Y-100546962D01*
X260551143Y-100387997D01*
X260620608Y-100145813D01*
X259820000Y-99345205D01*
X259019392Y-100145813D01*
X258622087Y-100145813D01*
X258502397Y-99856857D01*
X258260213Y-99787392D01*
X257459605Y-100588000D01*
X257100395Y-100588000D01*
X256299787Y-99787392D01*
X256057603Y-99856857D01*
X255870856Y-100380302D01*
X241108730Y-100380302D01*
X241209838Y-100136809D01*
X241209921Y-100041461D01*
X241277147Y-99940850D01*
X241334999Y-99650011D01*
X241334999Y-98774213D01*
X256479392Y-98774213D01*
X256548857Y-99016397D01*
X257063707Y-99200077D01*
X256932632Y-99206638D01*
X256548857Y-99365603D01*
X256479392Y-99607787D01*
X257280000Y-100408395D01*
X258080608Y-99607787D01*
X258011143Y-99365603D01*
X257496293Y-99181923D01*
X257627368Y-99175362D01*
X258011143Y-99016397D01*
X258027920Y-98957902D01*
X258410856Y-98957902D01*
X258438638Y-99512968D01*
X258597603Y-99896743D01*
X258839787Y-99966208D01*
X259640395Y-99165600D01*
X259999605Y-99165600D01*
X260800213Y-99966208D01*
X261042397Y-99896743D01*
X261229144Y-99373298D01*
X261201362Y-98818232D01*
X261042397Y-98434457D01*
X260800213Y-98364992D01*
X259999605Y-99165600D01*
X259640395Y-99165600D01*
X258839787Y-98364992D01*
X258597603Y-98434457D01*
X258410856Y-98957902D01*
X258027920Y-98957902D01*
X258080608Y-98774213D01*
X257280000Y-97973605D01*
X256479392Y-98774213D01*
X241334999Y-98774213D01*
X241334999Y-97586302D01*
X255870856Y-97586302D01*
X255898638Y-98141368D01*
X256057603Y-98525143D01*
X256299787Y-98594608D01*
X257100395Y-97794000D01*
X257459605Y-97794000D01*
X258260213Y-98594608D01*
X258502397Y-98525143D01*
X258689144Y-98001698D01*
X258661362Y-97446632D01*
X258502397Y-97062857D01*
X258260213Y-96993392D01*
X257459605Y-97794000D01*
X257100395Y-97794000D01*
X256299787Y-96993392D01*
X256057603Y-97062857D01*
X255870856Y-97586302D01*
X241334999Y-97586302D01*
X241334999Y-94914803D01*
X243064658Y-93185144D01*
X243085167Y-93185162D01*
X243428943Y-93043117D01*
X243692192Y-92780327D01*
X243834838Y-92436799D01*
X243835162Y-92064833D01*
X243693117Y-91721057D01*
X243430327Y-91457808D01*
X243086799Y-91315162D01*
X242714833Y-91314838D01*
X242371057Y-91456883D01*
X242107808Y-91719673D01*
X241965162Y-92063201D01*
X241965099Y-92135099D01*
X240037598Y-94062600D01*
X239872851Y-94309162D01*
X239814999Y-94600001D01*
X239814999Y-99128407D01*
X239746057Y-99156893D01*
X239482808Y-99419683D01*
X239340162Y-99763211D01*
X239339838Y-100135177D01*
X235460000Y-100135177D01*
X235460000Y-92700000D01*
X235402148Y-92409161D01*
X235402148Y-92409160D01*
X235237401Y-92162599D01*
X235085122Y-92010320D01*
X235085162Y-91964833D01*
X234943117Y-91621057D01*
X234680327Y-91357808D01*
X234529587Y-91295215D01*
X236137381Y-89687421D01*
X236302128Y-89440859D01*
X236359980Y-89150020D01*
X236359980Y-84135167D01*
X236389838Y-84135167D01*
X236531883Y-84478943D01*
X236794673Y-84742192D01*
X237138201Y-84884838D01*
X237510167Y-84885162D01*
X237853943Y-84743117D01*
X238117192Y-84480327D01*
X238259838Y-84136799D01*
X238260162Y-83764833D01*
X238118117Y-83421057D01*
X238060000Y-83362838D01*
X238060000Y-79784300D01*
X238164808Y-79627443D01*
X238188359Y-79509044D01*
X238254852Y-79442667D01*
X238397498Y-79099139D01*
X238397822Y-78727173D01*
X238255777Y-78383397D01*
X237992987Y-78120148D01*
X237649459Y-77977502D01*
X237277493Y-77977178D01*
X236933717Y-78119223D01*
X236670468Y-78382013D01*
X236527822Y-78725541D01*
X236527498Y-79097507D01*
X236589883Y-79248490D01*
X236540000Y-79499264D01*
X236540000Y-83412494D01*
X236532808Y-83419673D01*
X236390162Y-83763201D01*
X236389838Y-84135167D01*
X236359980Y-84135167D01*
X236359980Y-77728000D01*
X255870560Y-77728000D01*
X255870560Y-79252000D01*
X255914838Y-79487317D01*
X256053910Y-79703441D01*
X256266110Y-79848431D01*
X256518000Y-79899440D01*
X256972646Y-79899440D01*
X256489697Y-80098990D01*
X256096371Y-80491630D01*
X255883243Y-81004900D01*
X255882758Y-81560661D01*
X256094990Y-82074303D01*
X256487630Y-82467629D01*
X256848815Y-82617606D01*
X256489697Y-82765990D01*
X256096371Y-83158630D01*
X255883243Y-83671900D01*
X255882758Y-84227661D01*
X256094990Y-84741303D01*
X256487630Y-85134629D01*
X257000900Y-85347757D01*
X257003336Y-85347759D01*
X256489697Y-85559990D01*
X256096371Y-85952630D01*
X255883243Y-86465900D01*
X255882758Y-87021661D01*
X256094990Y-87535303D01*
X256487630Y-87928629D01*
X257000900Y-88141757D01*
X257003336Y-88141759D01*
X256489697Y-88353990D01*
X256096371Y-88746630D01*
X255883243Y-89259900D01*
X255882758Y-89815661D01*
X256094990Y-90329303D01*
X256487630Y-90722629D01*
X257000900Y-90935757D01*
X257003336Y-90935759D01*
X256489697Y-91147990D01*
X256096371Y-91540630D01*
X255883243Y-92053900D01*
X255882758Y-92609661D01*
X256094990Y-93123303D01*
X256487630Y-93516629D01*
X256848815Y-93666606D01*
X256489697Y-93814990D01*
X256096371Y-94207630D01*
X255883243Y-94720900D01*
X255882758Y-95276661D01*
X256094990Y-95790303D01*
X256487630Y-96183629D01*
X257000900Y-96396757D01*
X257245656Y-96396971D01*
X256932632Y-96412638D01*
X256548857Y-96571603D01*
X256479392Y-96813787D01*
X257280000Y-97614395D01*
X258080608Y-96813787D01*
X258011143Y-96571603D01*
X257522332Y-96397212D01*
X257556661Y-96397242D01*
X258070303Y-96185010D01*
X258463629Y-95792370D01*
X258676757Y-95279100D01*
X258677242Y-94723339D01*
X258465010Y-94209697D01*
X258072370Y-93816371D01*
X257711185Y-93666394D01*
X258070303Y-93518010D01*
X258463629Y-93125370D01*
X258676757Y-92612100D01*
X258677242Y-92056339D01*
X258465010Y-91542697D01*
X258072370Y-91149371D01*
X257559100Y-90936243D01*
X257556664Y-90936241D01*
X258070303Y-90724010D01*
X258463629Y-90331370D01*
X258676757Y-89818100D01*
X258677242Y-89262339D01*
X258465010Y-88748697D01*
X258072370Y-88355371D01*
X257559100Y-88142243D01*
X257556664Y-88142241D01*
X258070303Y-87930010D01*
X258463629Y-87537370D01*
X258676757Y-87024100D01*
X258677242Y-86468339D01*
X258465010Y-85954697D01*
X258072370Y-85561371D01*
X257559100Y-85348243D01*
X257556664Y-85348241D01*
X258070303Y-85136010D01*
X258463629Y-84743370D01*
X258676757Y-84230100D01*
X258677242Y-83674339D01*
X258465010Y-83160697D01*
X258072370Y-82767371D01*
X257711185Y-82617394D01*
X258070303Y-82469010D01*
X258463629Y-82076370D01*
X258676757Y-81563100D01*
X258677242Y-81007339D01*
X258465010Y-80493697D01*
X258072370Y-80100371D01*
X257588474Y-79899440D01*
X258042000Y-79899440D01*
X258277317Y-79855162D01*
X258437091Y-79752350D01*
X258423243Y-79785700D01*
X258422758Y-80341461D01*
X258634990Y-80855103D01*
X259027630Y-81248429D01*
X259235512Y-81334749D01*
X259029697Y-81419790D01*
X258636371Y-81812430D01*
X258423243Y-82325700D01*
X258422758Y-82881461D01*
X258634990Y-83395103D01*
X259027630Y-83788429D01*
X259540900Y-84001557D01*
X259543336Y-84001559D01*
X259029697Y-84213790D01*
X258636371Y-84606430D01*
X258423243Y-85119700D01*
X258422758Y-85675461D01*
X258634990Y-86189103D01*
X259027630Y-86582429D01*
X259480797Y-86770600D01*
X259029697Y-86956990D01*
X258636371Y-87349630D01*
X258423243Y-87862900D01*
X258422758Y-88418661D01*
X258634990Y-88932303D01*
X259027630Y-89325629D01*
X259480797Y-89513800D01*
X259029697Y-89700190D01*
X258636371Y-90092830D01*
X258423243Y-90606100D01*
X258422758Y-91161861D01*
X258634990Y-91675503D01*
X259027630Y-92068829D01*
X259540900Y-92281957D01*
X259543336Y-92281959D01*
X259029697Y-92494190D01*
X258636371Y-92886830D01*
X258423243Y-93400100D01*
X258422758Y-93955861D01*
X258634990Y-94469503D01*
X259027630Y-94862829D01*
X259480797Y-95051000D01*
X259029697Y-95237390D01*
X258636371Y-95630030D01*
X258423243Y-96143300D01*
X258422758Y-96699061D01*
X258634990Y-97212703D01*
X259027630Y-97606029D01*
X259464709Y-97787520D01*
X259088857Y-97943203D01*
X259019392Y-98185387D01*
X259820000Y-98985995D01*
X260620608Y-98185387D01*
X260551143Y-97943203D01*
X260146771Y-97798937D01*
X260610303Y-97607410D01*
X261003629Y-97214770D01*
X261216757Y-96701500D01*
X261217242Y-96145739D01*
X261005010Y-95632097D01*
X260612370Y-95238771D01*
X260159203Y-95050600D01*
X260610303Y-94864210D01*
X261003629Y-94471570D01*
X261216757Y-93958300D01*
X261217242Y-93402539D01*
X261005010Y-92888897D01*
X260612370Y-92495571D01*
X260099100Y-92282443D01*
X260096664Y-92282441D01*
X260610303Y-92070210D01*
X261003629Y-91677570D01*
X261216757Y-91164300D01*
X261217242Y-90608539D01*
X261005010Y-90094897D01*
X260612370Y-89701571D01*
X260159203Y-89513400D01*
X260610303Y-89327010D01*
X261003629Y-88934370D01*
X261216757Y-88421100D01*
X261217242Y-87865339D01*
X261005010Y-87351697D01*
X260612370Y-86958371D01*
X260159203Y-86770200D01*
X260610303Y-86583810D01*
X261003629Y-86191170D01*
X261216757Y-85677900D01*
X261217242Y-85122139D01*
X261005010Y-84608497D01*
X260612370Y-84215171D01*
X260099100Y-84002043D01*
X260096664Y-84002041D01*
X260610303Y-83789810D01*
X261003629Y-83397170D01*
X261216757Y-82883900D01*
X261217242Y-82328139D01*
X261005010Y-81814497D01*
X260612370Y-81421171D01*
X260404488Y-81334851D01*
X260610303Y-81249810D01*
X261003629Y-80857170D01*
X261216757Y-80343900D01*
X261217242Y-79788139D01*
X261005010Y-79274497D01*
X260612370Y-78881171D01*
X260099100Y-78668043D01*
X259543339Y-78667558D01*
X259029697Y-78879790D01*
X258689440Y-79219454D01*
X258689440Y-77728000D01*
X258645162Y-77492683D01*
X258506090Y-77276559D01*
X258293890Y-77131569D01*
X258042000Y-77080560D01*
X256518000Y-77080560D01*
X256282683Y-77124838D01*
X256066559Y-77263910D01*
X255921569Y-77476110D01*
X255870560Y-77728000D01*
X236359980Y-77728000D01*
X236359980Y-74266685D01*
X236410148Y-74266729D01*
X236753924Y-74124684D01*
X237017173Y-73861894D01*
X237159819Y-73518366D01*
X237159860Y-73471490D01*
X237637401Y-72993949D01*
X237802148Y-72747387D01*
X237860000Y-72456548D01*
X237860000Y-72008021D01*
X257279560Y-72008021D01*
X257665437Y-72941915D01*
X258379327Y-73657052D01*
X259312546Y-74044559D01*
X260323021Y-74045440D01*
X261256915Y-73659563D01*
X261972052Y-72945673D01*
X262359559Y-72012454D01*
X262360440Y-71001979D01*
X261974563Y-70068085D01*
X261260673Y-69352948D01*
X260327454Y-68965441D01*
X259316979Y-68964560D01*
X258383085Y-69350437D01*
X257667948Y-70064327D01*
X257280441Y-70997546D01*
X257279560Y-72008021D01*
X237860000Y-72008021D01*
X237860000Y-71800000D01*
X237839049Y-71694673D01*
X237802148Y-71509160D01*
X237637401Y-71262599D01*
X236868996Y-70494194D01*
X236818117Y-70371057D01*
X236555327Y-70107808D01*
X236211799Y-69965162D01*
X235839833Y-69964838D01*
X235496057Y-70106883D01*
X235232808Y-70369673D01*
X235090162Y-70713201D01*
X235089838Y-71085167D01*
X235231883Y-71428943D01*
X235452600Y-71650046D01*
X235357808Y-71744673D01*
X235215162Y-72088201D01*
X235215121Y-72135077D01*
X235135009Y-72215189D01*
X235135162Y-72039833D01*
X234993117Y-71696057D01*
X234772443Y-71474998D01*
X234817192Y-71430327D01*
X234959838Y-71086799D01*
X234960162Y-70714833D01*
X234818117Y-70371057D01*
X234555327Y-70107808D01*
X234211799Y-69965162D01*
X233839833Y-69964838D01*
X233496057Y-70106883D01*
X233428578Y-70174245D01*
X233309897Y-70197852D01*
X233063335Y-70362599D01*
X232685934Y-70740000D01*
X224734800Y-70740000D01*
X225562401Y-69912399D01*
X225727148Y-69665838D01*
X225785000Y-69374998D01*
X225785000Y-66537463D01*
X225817192Y-66505327D01*
X225959838Y-66161799D01*
X225960162Y-65789833D01*
X225818117Y-65446057D01*
X225814685Y-65442619D01*
X247764613Y-65442619D01*
X248104155Y-66264372D01*
X248732321Y-66893636D01*
X249553481Y-67234611D01*
X250442619Y-67235387D01*
X251264372Y-66895845D01*
X251893636Y-66267679D01*
X252234611Y-65446519D01*
X252235387Y-64557381D01*
X251895845Y-63735628D01*
X251267679Y-63106364D01*
X250446519Y-62765389D01*
X249557381Y-62764613D01*
X248735628Y-63104155D01*
X248106364Y-63732321D01*
X247765389Y-64553481D01*
X247764613Y-65442619D01*
X225814685Y-65442619D01*
X225555327Y-65182808D01*
X225211799Y-65040162D01*
X224839833Y-65039838D01*
X224496057Y-65181883D01*
X224232808Y-65444673D01*
X224090162Y-65788201D01*
X224089838Y-66160167D01*
X224231883Y-66503943D01*
X224265000Y-66537118D01*
X224265000Y-69060196D01*
X223135096Y-70190100D01*
X223135162Y-70114833D01*
X222993117Y-69771057D01*
X222730327Y-69507808D01*
X222386799Y-69365162D01*
X222014833Y-69364838D01*
X221671057Y-69506883D01*
X221407808Y-69769673D01*
X221265162Y-70113201D01*
X221264838Y-70485167D01*
X221406883Y-70828943D01*
X221440000Y-70862118D01*
X221440000Y-71885196D01*
X220337599Y-72987597D01*
X220172852Y-73234159D01*
X220115000Y-73524998D01*
X220115000Y-79935198D01*
X217060189Y-82990009D01*
X209735119Y-82990009D01*
X209735163Y-82939832D01*
X209593118Y-82596056D01*
X209330328Y-82332807D01*
X208986800Y-82190161D01*
X208614834Y-82189837D01*
X208271058Y-82331882D01*
X208237883Y-82364999D01*
X208090987Y-82364999D01*
X208208345Y-81775000D01*
X208082670Y-81143190D01*
X207855501Y-80803208D01*
X207992441Y-80715090D01*
X208137431Y-80502890D01*
X208188440Y-80251000D01*
X208188440Y-78219000D01*
X208144162Y-77983683D01*
X208005090Y-77767559D01*
X207792890Y-77622569D01*
X207541000Y-77571560D01*
X205509000Y-77571560D01*
X205273683Y-77615838D01*
X205057559Y-77754910D01*
X204912569Y-77967110D01*
X204861560Y-78219000D01*
X204861560Y-80251000D01*
X204905838Y-80486317D01*
X205044910Y-80702441D01*
X205193837Y-80804198D01*
X204967330Y-81143190D01*
X204841655Y-81775000D01*
X204959013Y-82364999D01*
X195553750Y-82364999D01*
X195415840Y-82272851D01*
X195125001Y-82214999D01*
X193962505Y-82214999D01*
X193955317Y-82207798D01*
X193611789Y-82065152D01*
X193239823Y-82064828D01*
X192896047Y-82206873D01*
X192632798Y-82469663D01*
X192490152Y-82813191D01*
X192490107Y-82865000D01*
X182639066Y-82865000D01*
X181386665Y-81612599D01*
X181140103Y-81447852D01*
X181021704Y-81424301D01*
X180955327Y-81357808D01*
X180611799Y-81215162D01*
X180239833Y-81214838D01*
X179896057Y-81356883D01*
X179632808Y-81619673D01*
X179490162Y-81963201D01*
X179489838Y-82335167D01*
X160685000Y-82335167D01*
X160685000Y-80210167D01*
X187739838Y-80210167D01*
X187881883Y-80553943D01*
X188144673Y-80817192D01*
X188488201Y-80959838D01*
X188860167Y-80960162D01*
X189203943Y-80818117D01*
X189237118Y-80785000D01*
X193157698Y-80785000D01*
X193448537Y-80727148D01*
X193695099Y-80562401D01*
X193806029Y-80451471D01*
X193851516Y-80451511D01*
X194195292Y-80309466D01*
X194458541Y-80046676D01*
X194601187Y-79703148D01*
X194601511Y-79331182D01*
X194459466Y-78987406D01*
X194196676Y-78724157D01*
X193853148Y-78581511D01*
X193481182Y-78581187D01*
X193137406Y-78723232D01*
X192874157Y-78986022D01*
X192758315Y-79265000D01*
X189237463Y-79265000D01*
X189205327Y-79232808D01*
X188861799Y-79090162D01*
X188489833Y-79089838D01*
X188146057Y-79231883D01*
X187882808Y-79494673D01*
X187740162Y-79838201D01*
X187739838Y-80210167D01*
X160685000Y-80210167D01*
X160685000Y-65442619D01*
X167764613Y-65442619D01*
X168104155Y-66264372D01*
X168732321Y-66893636D01*
X169553481Y-67234611D01*
X170442619Y-67235387D01*
X171264372Y-66895845D01*
X171893636Y-66267679D01*
X172234611Y-65446519D01*
X172235387Y-64557381D01*
X171895845Y-63735628D01*
X171267679Y-63106364D01*
X170446519Y-62765389D01*
X169557381Y-62764613D01*
X168735628Y-63104155D01*
X168106364Y-63732321D01*
X167765389Y-64553481D01*
X167764613Y-65442619D01*
X160685000Y-65442619D01*
X160685000Y-60685000D01*
X269315000Y-60685000D01*
X269315000Y-129315000D01*
M02*
