G04 #@! TF.FileFunction,Soldermask,Top*
%FSLAX46Y46*%
G04 Gerber Fmt 4.6, Leading zero omitted, Abs format (unit mm)*
G04 Created by KiCad (PCBNEW 4.0.1-stable) date 08/04/2016 12:11:11*
%MOMM*%
G01*
G04 APERTURE LIST*
%ADD10C,0.100000*%
%ADD11R,1.000000X0.250000*%
%ADD12R,0.250000X1.000000*%
%ADD13C,3.000000*%
%ADD14R,0.750000X0.800000*%
%ADD15R,0.600000X0.500000*%
%ADD16R,0.800000X0.750000*%
%ADD17R,0.500000X0.600000*%
%ADD18R,1.501140X2.999740*%
%ADD19R,0.797560X0.797560*%
%ADD20R,2.300000X0.850000*%
%ADD21C,1.524000*%
%ADD22C,2.700020*%
%ADD23C,3.810000*%
%ADD24R,1.524000X1.524000*%
%ADD25R,0.700000X1.300000*%
%ADD26R,1.300000X0.700000*%
%ADD27C,3.200000*%
%ADD28R,3.657600X2.032000*%
%ADD29R,1.016000X2.032000*%
%ADD30R,1.000760X1.501140*%
%ADD31R,1.998980X2.999740*%
%ADD32R,1.100000X1.200000*%
%ADD33R,1.450000X0.450000*%
%ADD34R,1.550000X0.600000*%
%ADD35R,5.600700X2.100580*%
%ADD36R,2.032000X2.032000*%
%ADD37O,2.032000X2.032000*%
%ADD38R,1.400000X0.300000*%
G04 APERTURE END LIST*
D10*
D11*
X189100000Y-84000000D03*
X189100000Y-84500000D03*
X189100000Y-85000000D03*
X189100000Y-85500000D03*
X189100000Y-86000000D03*
X189100000Y-86500000D03*
X189100000Y-87000000D03*
X189100000Y-87500000D03*
X189100000Y-88000000D03*
X189100000Y-88500000D03*
X189100000Y-89000000D03*
X189100000Y-89500000D03*
X189100000Y-90000000D03*
X189100000Y-90500000D03*
X189100000Y-91000000D03*
X189100000Y-91500000D03*
D12*
X191050000Y-93450000D03*
X191550000Y-93450000D03*
X192050000Y-93450000D03*
X192550000Y-93450000D03*
X193050000Y-93450000D03*
X193550000Y-93450000D03*
X194050000Y-93450000D03*
X194550000Y-93450000D03*
X195050000Y-93450000D03*
X195550000Y-93450000D03*
X196050000Y-93450000D03*
X196550000Y-93450000D03*
X197050000Y-93450000D03*
X197550000Y-93450000D03*
X198050000Y-93450000D03*
X198550000Y-93450000D03*
D11*
X200500000Y-91500000D03*
X200500000Y-91000000D03*
X200500000Y-90500000D03*
X200500000Y-90000000D03*
X200500000Y-89500000D03*
X200500000Y-89000000D03*
X200500000Y-88500000D03*
X200500000Y-88000000D03*
X200500000Y-87500000D03*
X200500000Y-87000000D03*
X200500000Y-86500000D03*
X200500000Y-86000000D03*
X200500000Y-85500000D03*
X200500000Y-85000000D03*
X200500000Y-84500000D03*
X200500000Y-84000000D03*
D12*
X198550000Y-82050000D03*
X198050000Y-82050000D03*
X197550000Y-82050000D03*
X197050000Y-82050000D03*
X196550000Y-82050000D03*
X196050000Y-82050000D03*
X195550000Y-82050000D03*
X195050000Y-82050000D03*
X194550000Y-82050000D03*
X194050000Y-82050000D03*
X193550000Y-82050000D03*
X193050000Y-82050000D03*
X192550000Y-82050000D03*
X192050000Y-82050000D03*
X191550000Y-82050000D03*
X191050000Y-82050000D03*
D13*
X219575000Y-125000000D03*
X206700000Y-125000000D03*
X205725000Y-103625000D03*
X178275000Y-95450000D03*
X176375000Y-90000000D03*
D14*
X187225000Y-102600000D03*
X187225000Y-104100000D03*
X184800000Y-102600000D03*
X184800000Y-104100000D03*
D15*
X202100000Y-85500000D03*
X203200000Y-85500000D03*
D16*
X187425000Y-87875000D03*
X185925000Y-87875000D03*
D15*
X187475000Y-86325000D03*
X186375000Y-86325000D03*
D17*
X194550000Y-94975000D03*
X194550000Y-96075000D03*
X191550000Y-94950000D03*
X191550000Y-96050000D03*
X196050000Y-80550000D03*
X196050000Y-79450000D03*
X191050000Y-80450000D03*
X191050000Y-79350000D03*
D14*
X182975000Y-85525000D03*
X182975000Y-87025000D03*
D17*
X186150000Y-73575000D03*
X186150000Y-72475000D03*
X200450000Y-73450000D03*
X200450000Y-72350000D03*
X219700000Y-92125000D03*
X219700000Y-93225000D03*
D15*
X241025000Y-78250000D03*
X239925000Y-78250000D03*
X232125000Y-66500000D03*
X231025000Y-66500000D03*
X227175000Y-91625000D03*
X228275000Y-91625000D03*
X238700000Y-91550000D03*
X237600000Y-91550000D03*
X229425000Y-72250000D03*
X230525000Y-72250000D03*
X241125000Y-72250000D03*
X240025000Y-72250000D03*
X239750000Y-108250000D03*
X238650000Y-108250000D03*
X228650000Y-112175000D03*
X229750000Y-112175000D03*
D18*
X210500000Y-87426020D03*
X210500000Y-91423980D03*
D19*
X192850000Y-109476400D03*
X192850000Y-110975000D03*
D20*
X186125000Y-83800000D03*
X186140240Y-81850000D03*
D21*
X169274000Y-92460000D03*
X169274000Y-95000000D03*
X167275020Y-95000000D03*
X167275020Y-92460000D03*
D22*
X164575000Y-87730520D03*
X164575000Y-99729480D03*
D23*
X259820000Y-118495000D03*
X259820000Y-71505000D03*
D24*
X257280000Y-78490000D03*
D21*
X257280000Y-81284000D03*
X257280000Y-83951000D03*
X257280000Y-86745000D03*
X257280000Y-89539000D03*
X257280000Y-92333000D03*
X257280000Y-95000000D03*
X257280000Y-97794000D03*
X257280000Y-100588000D03*
X257280000Y-103382000D03*
X257280000Y-106049000D03*
X257280000Y-108843000D03*
X257280000Y-111637000D03*
X259820000Y-80064800D03*
X259820000Y-82604800D03*
X259820000Y-85398800D03*
X259820000Y-88142000D03*
X259820000Y-90885200D03*
X259820000Y-93679200D03*
X259820000Y-96422400D03*
X259820000Y-99165600D03*
X259820000Y-102010400D03*
X259820000Y-104702800D03*
X259820000Y-107446000D03*
X259820000Y-110240000D03*
D19*
X187350000Y-109476400D03*
X187350000Y-110975000D03*
D25*
X176450000Y-80025000D03*
X174550000Y-80025000D03*
X176475000Y-82175000D03*
X174575000Y-82175000D03*
X253350000Y-76500000D03*
X251450000Y-76500000D03*
X253350000Y-80650000D03*
X251450000Y-80650000D03*
X253350000Y-84800000D03*
X251450000Y-84800000D03*
X253350000Y-88950000D03*
X251450000Y-88950000D03*
X253350000Y-93100000D03*
X251450000Y-93100000D03*
X253350000Y-97250000D03*
X251450000Y-97250000D03*
X253350000Y-111475000D03*
X251450000Y-111475000D03*
X253350000Y-78575000D03*
X251450000Y-78575000D03*
X253350000Y-82725000D03*
X251450000Y-82725000D03*
X253350000Y-86875000D03*
X251450000Y-86875000D03*
X253350000Y-91025000D03*
X251450000Y-91025000D03*
X253350000Y-95175000D03*
X251450000Y-95175000D03*
X253350000Y-99325000D03*
X251450000Y-99325000D03*
X200275000Y-98450000D03*
X202175000Y-98450000D03*
D26*
X183000000Y-81975000D03*
X183000000Y-83875000D03*
X187350000Y-112950000D03*
X187350000Y-114850000D03*
X192850000Y-112950000D03*
X192850000Y-114850000D03*
X228800000Y-108600000D03*
X228800000Y-110500000D03*
D25*
X226675000Y-110100000D03*
X224775000Y-110100000D03*
D26*
X238000000Y-90025000D03*
X238000000Y-88125000D03*
X227050000Y-95150000D03*
X227050000Y-93250000D03*
D25*
X240100000Y-89700000D03*
X242000000Y-89700000D03*
X231175000Y-95800000D03*
X229275000Y-95800000D03*
X234675000Y-63450000D03*
X236575000Y-63450000D03*
X234750000Y-65800000D03*
X236650000Y-65800000D03*
X240000000Y-93725000D03*
X241900000Y-93725000D03*
X225900000Y-89400000D03*
X224000000Y-89400000D03*
X245175000Y-111575000D03*
X243275000Y-111575000D03*
D26*
X239975000Y-109600000D03*
X239975000Y-111500000D03*
X238100000Y-95275000D03*
X238100000Y-93375000D03*
X227800000Y-87850000D03*
X227800000Y-89750000D03*
D25*
X237725000Y-76275000D03*
X235825000Y-76275000D03*
X227500000Y-70300000D03*
X225600000Y-70300000D03*
X241350000Y-76275000D03*
X239450000Y-76275000D03*
X232575000Y-68350000D03*
X230675000Y-68350000D03*
D26*
X244925000Y-71650000D03*
X244925000Y-73550000D03*
X225800000Y-74100000D03*
X225800000Y-72200000D03*
X241100000Y-68950000D03*
X241100000Y-70850000D03*
X230000000Y-75650000D03*
X230000000Y-73750000D03*
D27*
X250000000Y-125000000D03*
X170000000Y-65000000D03*
X170000000Y-125000000D03*
X250000000Y-65000000D03*
D28*
X184800000Y-93723000D03*
D29*
X184800000Y-100327000D03*
X187086000Y-100327000D03*
X182514000Y-100327000D03*
D30*
X204248860Y-98476480D03*
X205750000Y-98476480D03*
X207251140Y-98476480D03*
D31*
X205750000Y-95525000D03*
D10*
G36*
X206750760Y-96999470D02*
X206250380Y-97748770D01*
X205249620Y-97748770D01*
X204749240Y-96999470D01*
X206750760Y-96999470D01*
X206750760Y-96999470D01*
G37*
D32*
X215600000Y-107970000D03*
X207300000Y-107970000D03*
X215600000Y-110510000D03*
X207300000Y-110510000D03*
X215600000Y-113050000D03*
X207300000Y-113050000D03*
X215600000Y-115590000D03*
X207300000Y-115590000D03*
X215600000Y-118130000D03*
X207300000Y-118130000D03*
D33*
X229975000Y-89675000D03*
X229975000Y-90325000D03*
X229975000Y-90975000D03*
X229975000Y-91625000D03*
X229975000Y-92275000D03*
X229975000Y-92925000D03*
X229975000Y-93575000D03*
X235875000Y-93575000D03*
X235875000Y-92925000D03*
X235875000Y-92275000D03*
X235875000Y-91625000D03*
X235875000Y-90975000D03*
X235875000Y-90325000D03*
X235875000Y-89675000D03*
D34*
X231500000Y-108370000D03*
X231500000Y-109640000D03*
X231500000Y-110910000D03*
X231500000Y-112180000D03*
X236900000Y-112180000D03*
X236900000Y-110910000D03*
X236900000Y-109640000D03*
X236900000Y-108370000D03*
D33*
X232400001Y-70300000D03*
X232400001Y-70950000D03*
X232400001Y-71600000D03*
X232400001Y-72250000D03*
X232400001Y-72900000D03*
X232400001Y-73550000D03*
X232400001Y-74200000D03*
X238300001Y-74200000D03*
X238300001Y-73550000D03*
X238300001Y-72900000D03*
X238300001Y-72250000D03*
X238300001Y-71600000D03*
X238300001Y-70950000D03*
X238300001Y-70300000D03*
D35*
X188526140Y-75825000D03*
X198223860Y-75825000D03*
D36*
X206525000Y-79235000D03*
D37*
X206525000Y-81775000D03*
D38*
X213475000Y-90200000D03*
X213475000Y-90700000D03*
X213475000Y-91200000D03*
X213475000Y-91700000D03*
X213475000Y-92200000D03*
X217875000Y-92200000D03*
X217875000Y-91700000D03*
X217875000Y-91200000D03*
X217875000Y-90700000D03*
X217875000Y-90200000D03*
D13*
X200075000Y-125000000D03*
D16*
X221225000Y-116650000D03*
X219725000Y-116650000D03*
D14*
X204975000Y-118900000D03*
X204975000Y-117400000D03*
X203975000Y-112400000D03*
X203975000Y-113900000D03*
M02*
