G04 #@! TF.FileFunction,Copper,L2,Bot,Signal*
%FSLAX46Y46*%
G04 Gerber Fmt 4.6, Leading zero omitted, Abs format (unit mm)*
G04 Created by KiCad (PCBNEW 4.0.1-stable) date 17/04/2016 17:24:36*
%MOMM*%
G01*
G04 APERTURE LIST*
%ADD10C,0.100000*%
%ADD11C,1.524000*%
%ADD12C,2.700020*%
%ADD13C,3.810000*%
%ADD14R,1.524000X1.524000*%
%ADD15R,2.032000X2.032000*%
%ADD16O,2.032000X2.032000*%
%ADD17C,0.600000*%
%ADD18C,0.250000*%
%ADD19C,0.450000*%
%ADD20C,0.254000*%
G04 APERTURE END LIST*
D10*
D11*
X78174000Y-80810000D03*
X78174000Y-83350000D03*
X76175020Y-83350000D03*
X76175020Y-80810000D03*
D12*
X73475000Y-76080520D03*
X73475000Y-88079480D03*
D13*
X168720000Y-106845000D03*
X168720000Y-59855000D03*
D14*
X166180000Y-66840000D03*
D11*
X166180000Y-69634000D03*
X166180000Y-72301000D03*
X166180000Y-75095000D03*
X166180000Y-77889000D03*
X166180000Y-80683000D03*
X166180000Y-83350000D03*
X166180000Y-86144000D03*
X166180000Y-88938000D03*
X166180000Y-91732000D03*
X166180000Y-94399000D03*
X166180000Y-97193000D03*
X166180000Y-99987000D03*
X168720000Y-68414800D03*
X168720000Y-70954800D03*
X168720000Y-73748800D03*
X168720000Y-76492000D03*
X168720000Y-79235200D03*
X168720000Y-82029200D03*
X168720000Y-84772400D03*
X168720000Y-87515600D03*
X168720000Y-90360400D03*
X168720000Y-93052800D03*
X168720000Y-95796000D03*
X168720000Y-98590000D03*
D15*
X115425000Y-67585000D03*
D16*
X115425000Y-70125000D03*
D17*
X141425000Y-80400000D03*
X144525000Y-96700000D03*
X143100000Y-60575000D03*
X143050000Y-80500000D03*
X143600000Y-89225000D03*
X145050000Y-60625000D03*
X122675000Y-80550000D03*
X119475000Y-87150000D03*
X111775000Y-84450000D03*
X99925000Y-74200000D03*
X120000000Y-83850000D03*
X99950000Y-88675000D03*
X105875000Y-88000000D03*
X118675000Y-77700000D03*
X90875000Y-79750000D03*
X94375000Y-90100000D03*
X130875000Y-106500000D03*
X98525000Y-81200000D03*
X81175000Y-91750000D03*
X99475000Y-66450000D03*
X102475000Y-68950000D03*
X146625000Y-55650000D03*
X117575000Y-96550000D03*
X117325000Y-102950000D03*
X152825000Y-79750000D03*
X155675000Y-101650000D03*
X133575000Y-81450000D03*
X109350000Y-59525000D03*
X95050000Y-59525000D03*
X108075000Y-73224990D03*
X114125000Y-72950000D03*
X99075000Y-72850000D03*
X100425000Y-85550000D03*
X103475000Y-85600000D03*
X142875000Y-81500000D03*
X137125000Y-101475000D03*
X133150000Y-100025000D03*
X149750000Y-95600000D03*
X116900000Y-83075000D03*
X101750000Y-104425000D03*
X96250000Y-104475000D03*
X137100000Y-60600000D03*
X106225000Y-68900000D03*
X93850000Y-75275000D03*
X151250000Y-60625000D03*
X104925000Y-72650000D03*
X102975000Y-79825000D03*
X99700000Y-78300000D03*
X95025000Y-73650000D03*
X96300000Y-77400000D03*
X132275000Y-60300000D03*
X142925000Y-59250000D03*
X102566349Y-67866349D03*
X97575000Y-68375000D03*
X103725000Y-71950000D03*
X89325000Y-70500000D03*
X139450000Y-76075000D03*
X137250000Y-72100000D03*
X151800000Y-80600000D03*
X149175000Y-88300010D03*
X141650000Y-86575000D03*
X141500000Y-84725000D03*
X145124981Y-61681567D03*
X144925000Y-59250000D03*
X102324990Y-71349990D03*
X117700001Y-71474999D03*
X146225000Y-72300000D03*
X146362660Y-67262340D03*
X131100000Y-58650000D03*
X101150000Y-72600010D03*
X117325000Y-80850000D03*
X101375000Y-79950000D03*
X144004449Y-101804449D03*
X134125000Y-93175000D03*
X137800000Y-92800000D03*
X133925000Y-54325000D03*
D18*
X140874999Y-80950001D02*
X140874999Y-63725001D01*
X140874999Y-63725001D02*
X143100000Y-61500000D01*
X143525001Y-96400001D02*
X140874999Y-93749999D01*
X140874999Y-93749999D02*
X140874999Y-80950001D01*
X140874999Y-80950001D02*
X141425000Y-80400000D01*
X144525000Y-96700000D02*
X144225001Y-96400001D01*
X144225001Y-96400001D02*
X143525001Y-96400001D01*
X143100000Y-61500000D02*
X142800000Y-61800000D01*
X143100000Y-60575000D02*
X143100000Y-61500000D01*
X142275000Y-79725000D02*
X144499980Y-77500020D01*
X144499980Y-61774980D02*
X144400000Y-61675000D01*
X144499980Y-77500020D02*
X144499980Y-61774980D01*
X143050000Y-80500000D02*
X142275000Y-79725000D01*
X143600000Y-89225000D02*
X143600000Y-81050000D01*
X143600000Y-81050000D02*
X143050000Y-80500000D01*
X144400000Y-61275000D02*
X144400000Y-61675000D01*
X145050000Y-60625000D02*
X144400000Y-61275000D01*
X119475000Y-87150000D02*
X122675000Y-83950000D01*
X122675000Y-83950000D02*
X122675000Y-82686410D01*
X122675000Y-82686410D02*
X122675000Y-80550000D01*
X119475000Y-87000000D02*
X119475000Y-87150000D01*
X99925000Y-74200000D02*
X99074999Y-75050001D01*
X99074999Y-75050001D02*
X99074999Y-79500001D01*
X99074999Y-79500001D02*
X104024998Y-84450000D01*
X104024998Y-84450000D02*
X111775000Y-84450000D01*
X116050000Y-88675000D02*
X104875000Y-88675000D01*
X104875000Y-88675000D02*
X99950000Y-88675000D01*
X105875000Y-88000000D02*
X105200000Y-88675000D01*
X105200000Y-88675000D02*
X104875000Y-88675000D01*
X120000000Y-84725000D02*
X116050000Y-88675000D01*
X120000000Y-83850000D02*
X120000000Y-84725000D01*
X118625000Y-77350000D02*
X118425000Y-77150000D01*
X118625000Y-77650000D02*
X118625000Y-77350000D01*
X118675000Y-77700000D02*
X118625000Y-77650000D01*
X90875000Y-79750000D02*
X90875000Y-79300000D01*
X94375000Y-90100000D02*
X94674999Y-89800001D01*
X94674999Y-89800001D02*
X95124999Y-89800001D01*
X130875000Y-106500000D02*
X130875000Y-107000000D01*
X117625000Y-84000000D02*
X117625000Y-84200000D01*
X117625000Y-83800000D02*
X117625000Y-84000000D01*
X117625000Y-84000000D02*
X116025000Y-85600000D01*
X116025000Y-85600000D02*
X103475000Y-85600000D01*
X100525000Y-90175002D02*
X99324999Y-88975001D01*
X106899998Y-96550000D02*
X100525000Y-90175002D01*
X99324999Y-88374999D02*
X100899998Y-86800000D01*
X100899998Y-86800000D02*
X102099998Y-85600000D01*
X100425000Y-85550000D02*
X100425000Y-85974264D01*
X100425000Y-85974264D02*
X100899998Y-86449262D01*
X100899998Y-86449262D02*
X100899998Y-86800000D01*
X117575000Y-96550000D02*
X106899998Y-96550000D01*
X99324999Y-88975001D02*
X99324999Y-88374999D01*
X102099998Y-85600000D02*
X103050736Y-85600000D01*
X103050736Y-85600000D02*
X103475000Y-85600000D01*
X117575000Y-96550000D02*
X117575000Y-96125736D01*
X117575000Y-96125736D02*
X117725000Y-95975736D01*
X116900000Y-83075000D02*
X117625000Y-83800000D01*
X137100000Y-60600000D02*
X137100000Y-61024264D01*
X137100000Y-61024264D02*
X137025000Y-61099264D01*
X151250000Y-60625000D02*
X151250000Y-61049264D01*
X151250000Y-61049264D02*
X151425000Y-61224264D01*
X152825000Y-79750000D02*
X153275000Y-80200000D01*
X142875000Y-81500000D02*
X142450736Y-81500000D01*
X142450736Y-81500000D02*
X142275000Y-81675736D01*
X133575000Y-81450000D02*
X133575000Y-81874264D01*
X133575000Y-81874264D02*
X133425000Y-82024264D01*
X109350000Y-59525000D02*
X109350000Y-59100736D01*
X109350000Y-59100736D02*
X109275000Y-59025736D01*
X95075000Y-59075736D02*
X95075000Y-58750000D01*
X95050000Y-59525000D02*
X95050000Y-59100736D01*
X95050000Y-59100736D02*
X95075000Y-59075736D01*
X102525000Y-69424264D02*
X102525000Y-69550000D01*
X102475000Y-68950000D02*
X102475000Y-69374264D01*
X102475000Y-69374264D02*
X102525000Y-69424264D01*
X107175000Y-68800000D02*
X107275000Y-68900000D01*
X107075000Y-68900000D02*
X107175000Y-68800000D01*
X106225000Y-68900000D02*
X107075000Y-68900000D01*
X99000736Y-66400000D02*
X98675000Y-66400000D01*
X99475000Y-66450000D02*
X99050736Y-66450000D01*
X99050736Y-66450000D02*
X99000736Y-66400000D01*
X93850000Y-75275000D02*
X93375000Y-74800000D01*
X99075000Y-73274264D02*
X99075000Y-73450000D01*
X99075000Y-72850000D02*
X99075000Y-73274264D01*
X98875000Y-80800000D02*
X98875000Y-80450000D01*
X98824999Y-80850001D02*
X98875000Y-80800000D01*
X98525000Y-81200000D02*
X98824999Y-80900001D01*
X98824999Y-80900001D02*
X98824999Y-80850001D01*
X107575746Y-73150000D02*
X107325000Y-73150000D01*
X108075000Y-73224990D02*
X107650736Y-73224990D01*
X107650736Y-73224990D02*
X107575746Y-73150000D01*
X81175000Y-91750000D02*
X81175000Y-92174264D01*
X81175000Y-92174264D02*
X81275000Y-92274264D01*
D19*
X151250000Y-60625000D02*
X151674264Y-60625000D01*
D18*
X101425000Y-76250000D02*
X104925000Y-72750000D01*
X104925000Y-72750000D02*
X104925000Y-72650000D01*
X101425000Y-78599999D02*
X101749999Y-78599999D01*
X99999999Y-78599999D02*
X101425000Y-78599999D01*
X101425000Y-78599999D02*
X101425000Y-76250000D01*
X101749999Y-78599999D02*
X102975000Y-79825000D01*
X99700000Y-78300000D02*
X99999999Y-78599999D01*
X96300000Y-77400000D02*
X95025000Y-76125000D01*
X95025000Y-76125000D02*
X95025000Y-73650000D01*
X141900736Y-59850000D02*
X132725000Y-59850000D01*
X132725000Y-59850000D02*
X132275000Y-60300000D01*
X142925000Y-59250000D02*
X142500736Y-59250000D01*
X142500736Y-59250000D02*
X141900736Y-59850000D01*
X97575000Y-68375000D02*
X102057698Y-68375000D01*
X102057698Y-68375000D02*
X102566349Y-67866349D01*
X91224264Y-71975000D02*
X103700000Y-71975000D01*
X103700000Y-71975000D02*
X103725000Y-71950000D01*
X89325000Y-70500000D02*
X89749264Y-70500000D01*
X89749264Y-70500000D02*
X91224264Y-71975000D01*
X137250000Y-72100000D02*
X137250000Y-73875000D01*
X137250000Y-73875000D02*
X139450000Y-76075000D01*
X149474999Y-82950001D02*
X151800000Y-80625000D01*
X151800000Y-80625000D02*
X151800000Y-80600000D01*
X149175000Y-88300010D02*
X149474999Y-88000011D01*
X149474999Y-88000011D02*
X149474999Y-82950001D01*
X141650000Y-85299264D02*
X141650000Y-86575000D01*
X141500000Y-84725000D02*
X141500000Y-85149264D01*
X141500000Y-85149264D02*
X141650000Y-85299264D01*
X146000000Y-60806548D02*
X146000000Y-60150000D01*
X145124981Y-61681567D02*
X146000000Y-60806548D01*
X146000000Y-60150000D02*
X145100000Y-59250000D01*
X145100000Y-59250000D02*
X144925000Y-59250000D01*
X117700001Y-71474999D02*
X104175001Y-71474999D01*
X104175001Y-71474999D02*
X104025001Y-71324999D01*
X104025001Y-71324999D02*
X102349981Y-71324999D01*
X102349981Y-71324999D02*
X102324990Y-71349990D01*
X146200000Y-67849264D02*
X146200000Y-72275000D01*
X146200000Y-72275000D02*
X146225000Y-72300000D01*
X146362660Y-67262340D02*
X146362660Y-67686604D01*
X146362660Y-67686604D02*
X146200000Y-67849264D01*
X129775000Y-68600000D02*
X129775000Y-61874998D01*
X129775000Y-61874998D02*
X131100000Y-60549998D01*
X131100000Y-60549998D02*
X131100000Y-58650000D01*
X126274991Y-72100009D02*
X129775000Y-68600000D01*
X125675000Y-72100009D02*
X126274991Y-72100009D01*
X101150000Y-72600010D02*
X104049988Y-72600010D01*
X105225001Y-72024999D02*
X105300011Y-72100009D01*
X104049988Y-72600010D02*
X104624999Y-72024999D01*
X104624999Y-72024999D02*
X105225001Y-72024999D01*
X105300011Y-72100009D02*
X125675000Y-72100009D01*
X101375000Y-79950000D02*
X102225000Y-80800000D01*
X117275000Y-80800000D02*
X117325000Y-80850000D01*
X102225000Y-80800000D02*
X117275000Y-80800000D01*
X143704450Y-101504450D02*
X143304450Y-101504450D01*
X144004449Y-101804449D02*
X143704450Y-101504450D01*
X134975000Y-93175000D02*
X134125000Y-93175000D01*
X143304450Y-101504450D02*
X134975000Y-93175000D01*
X133925000Y-54325000D02*
X133925000Y-57724998D01*
X133925000Y-57724998D02*
X131649999Y-59999999D01*
X131649999Y-59999999D02*
X131649999Y-86649999D01*
X131649999Y-86649999D02*
X137800000Y-92800000D01*
D20*
G36*
X178215000Y-117665000D02*
X69585000Y-117665000D01*
X69585000Y-113792619D01*
X76664613Y-113792619D01*
X77004155Y-114614372D01*
X77632321Y-115243636D01*
X78453481Y-115584611D01*
X79342619Y-115585387D01*
X80164372Y-115245845D01*
X80793636Y-114617679D01*
X81134611Y-113796519D01*
X81134614Y-113792619D01*
X156664613Y-113792619D01*
X157004155Y-114614372D01*
X157632321Y-115243636D01*
X158453481Y-115584611D01*
X159342619Y-115585387D01*
X160164372Y-115245845D01*
X160793636Y-114617679D01*
X161134611Y-113796519D01*
X161135387Y-112907381D01*
X160795845Y-112085628D01*
X160167679Y-111456364D01*
X159346519Y-111115389D01*
X158457381Y-111114613D01*
X157635628Y-111454155D01*
X157006364Y-112082321D01*
X156665389Y-112903481D01*
X156664613Y-113792619D01*
X81134614Y-113792619D01*
X81135387Y-112907381D01*
X80795845Y-112085628D01*
X80167679Y-111456364D01*
X79346519Y-111115389D01*
X78457381Y-111114613D01*
X77635628Y-111454155D01*
X77006364Y-112082321D01*
X76665389Y-112903481D01*
X76664613Y-113792619D01*
X69585000Y-113792619D01*
X69585000Y-107348021D01*
X166179560Y-107348021D01*
X166565437Y-108281915D01*
X167279327Y-108997052D01*
X168212546Y-109384559D01*
X169223021Y-109385440D01*
X170156915Y-108999563D01*
X170872052Y-108285673D01*
X171259559Y-107352454D01*
X171260440Y-106341979D01*
X170874563Y-105408085D01*
X170160673Y-104692948D01*
X169227454Y-104305441D01*
X168216979Y-104304560D01*
X167283085Y-104690437D01*
X166567948Y-105404327D01*
X166180441Y-106337546D01*
X166179560Y-107348021D01*
X69585000Y-107348021D01*
X69585000Y-93360167D01*
X133189838Y-93360167D01*
X133331883Y-93703943D01*
X133594673Y-93967192D01*
X133938201Y-94109838D01*
X134310167Y-94110162D01*
X134653943Y-93968117D01*
X134673646Y-93948448D01*
X142767049Y-102041851D01*
X143013611Y-102206598D01*
X143171956Y-102238095D01*
X143211332Y-102333392D01*
X143474122Y-102596641D01*
X143817650Y-102739287D01*
X144189616Y-102739611D01*
X144533392Y-102597566D01*
X144796641Y-102334776D01*
X144939287Y-101991248D01*
X144939611Y-101619282D01*
X144797566Y-101275506D01*
X144534776Y-101012257D01*
X144191248Y-100869611D01*
X144095900Y-100869528D01*
X143995289Y-100802302D01*
X143704450Y-100744450D01*
X143619252Y-100744450D01*
X135512401Y-92637599D01*
X135265839Y-92472852D01*
X134975000Y-92415000D01*
X134687463Y-92415000D01*
X134655327Y-92382808D01*
X134311799Y-92240162D01*
X133939833Y-92239838D01*
X133596057Y-92381883D01*
X133332808Y-92644673D01*
X133190162Y-92988201D01*
X133189838Y-93360167D01*
X69585000Y-93360167D01*
X69585000Y-88472591D01*
X71489646Y-88472591D01*
X71791209Y-89202429D01*
X72349114Y-89761309D01*
X73078425Y-90064145D01*
X73868111Y-90064834D01*
X74597949Y-89763271D01*
X75156829Y-89205366D01*
X75300167Y-88860167D01*
X99014838Y-88860167D01*
X99156883Y-89203943D01*
X99419673Y-89467192D01*
X99763201Y-89609838D01*
X100135167Y-89610162D01*
X100478943Y-89468117D01*
X100512118Y-89435000D01*
X116050000Y-89435000D01*
X116340839Y-89377148D01*
X116587401Y-89212401D01*
X118539904Y-87259898D01*
X118539838Y-87335167D01*
X118681883Y-87678943D01*
X118944673Y-87942192D01*
X119288201Y-88084838D01*
X119660167Y-88085162D01*
X120003943Y-87943117D01*
X120267192Y-87680327D01*
X120409838Y-87336799D01*
X120409879Y-87289923D01*
X123212401Y-84487401D01*
X123377148Y-84240840D01*
X123435000Y-83950000D01*
X123435000Y-81112463D01*
X123467192Y-81080327D01*
X123609838Y-80736799D01*
X123610162Y-80364833D01*
X123468117Y-80021057D01*
X123205327Y-79757808D01*
X122861799Y-79615162D01*
X122489833Y-79614838D01*
X122146057Y-79756883D01*
X121882808Y-80019673D01*
X121740162Y-80363201D01*
X121739838Y-80735167D01*
X121881883Y-81078943D01*
X121915000Y-81112118D01*
X121915000Y-83635198D01*
X120743811Y-84806387D01*
X120760000Y-84725000D01*
X120760000Y-84412463D01*
X120792192Y-84380327D01*
X120934838Y-84036799D01*
X120935162Y-83664833D01*
X120793117Y-83321057D01*
X120530327Y-83057808D01*
X120186799Y-82915162D01*
X119814833Y-82914838D01*
X119471057Y-83056883D01*
X119207808Y-83319673D01*
X119065162Y-83663201D01*
X119064838Y-84035167D01*
X119206883Y-84378943D01*
X119239041Y-84411157D01*
X115735198Y-87915000D01*
X106810075Y-87915000D01*
X106810162Y-87814833D01*
X106668117Y-87471057D01*
X106405327Y-87207808D01*
X106061799Y-87065162D01*
X105689833Y-87064838D01*
X105346057Y-87206883D01*
X105082808Y-87469673D01*
X104940162Y-87813201D01*
X104940121Y-87860077D01*
X104885198Y-87915000D01*
X100512463Y-87915000D01*
X100480327Y-87882808D01*
X100136799Y-87740162D01*
X99764833Y-87739838D01*
X99421057Y-87881883D01*
X99157808Y-88144673D01*
X99015162Y-88488201D01*
X99014838Y-88860167D01*
X75300167Y-88860167D01*
X75459665Y-88476055D01*
X75460354Y-87686369D01*
X75158791Y-86956531D01*
X74600886Y-86397651D01*
X73871575Y-86094815D01*
X73081889Y-86094126D01*
X72352051Y-86395689D01*
X71793171Y-86953594D01*
X71490335Y-87682905D01*
X71489646Y-88472591D01*
X69585000Y-88472591D01*
X69585000Y-84330213D01*
X75374412Y-84330213D01*
X75443877Y-84572397D01*
X75967322Y-84759144D01*
X76522388Y-84731362D01*
X76906163Y-84572397D01*
X76975628Y-84330213D01*
X76175020Y-83529605D01*
X75374412Y-84330213D01*
X69585000Y-84330213D01*
X69585000Y-83142302D01*
X74765876Y-83142302D01*
X74793658Y-83697368D01*
X74952623Y-84081143D01*
X75194807Y-84150608D01*
X75995415Y-83350000D01*
X75194807Y-82549392D01*
X74952623Y-82618857D01*
X74765876Y-83142302D01*
X69585000Y-83142302D01*
X69585000Y-81086661D01*
X74777778Y-81086661D01*
X74990010Y-81600303D01*
X75382650Y-81993629D01*
X75574747Y-82073395D01*
X75443877Y-82127603D01*
X75374412Y-82369787D01*
X76175020Y-83170395D01*
X76975628Y-82369787D01*
X76906163Y-82127603D01*
X76765702Y-82077491D01*
X76965323Y-81995010D01*
X77174530Y-81786168D01*
X77381630Y-81993629D01*
X77589512Y-82079949D01*
X77383697Y-82164990D01*
X76990371Y-82557630D01*
X76879154Y-82825471D01*
X76354625Y-83350000D01*
X76879189Y-83874564D01*
X76988990Y-84140303D01*
X77381630Y-84533629D01*
X77894900Y-84746757D01*
X78450661Y-84747242D01*
X78964303Y-84535010D01*
X79357629Y-84142370D01*
X79570757Y-83629100D01*
X79571242Y-83073339D01*
X79359010Y-82559697D01*
X78966370Y-82166371D01*
X78758488Y-82080051D01*
X78964303Y-81995010D01*
X79357629Y-81602370D01*
X79570757Y-81089100D01*
X79571242Y-80533339D01*
X79359010Y-80019697D01*
X78966370Y-79626371D01*
X78453100Y-79413243D01*
X77897339Y-79412758D01*
X77383697Y-79624990D01*
X77174490Y-79833832D01*
X76967390Y-79626371D01*
X76454120Y-79413243D01*
X75898359Y-79412758D01*
X75384717Y-79624990D01*
X74991391Y-80017630D01*
X74778263Y-80530900D01*
X74777778Y-81086661D01*
X69585000Y-81086661D01*
X69585000Y-76473631D01*
X71489646Y-76473631D01*
X71791209Y-77203469D01*
X72349114Y-77762349D01*
X73078425Y-78065185D01*
X73868111Y-78065874D01*
X74597949Y-77764311D01*
X75156829Y-77206406D01*
X75459665Y-76477095D01*
X75460354Y-75687409D01*
X75158791Y-74957571D01*
X74600886Y-74398691D01*
X73871575Y-74095855D01*
X73081889Y-74095166D01*
X72352051Y-74396729D01*
X71793171Y-74954634D01*
X71490335Y-75683945D01*
X71489646Y-76473631D01*
X69585000Y-76473631D01*
X69585000Y-70685167D01*
X88389838Y-70685167D01*
X88531883Y-71028943D01*
X88794673Y-71292192D01*
X89138201Y-71434838D01*
X89510167Y-71435162D01*
X89580545Y-71406083D01*
X90686863Y-72512401D01*
X90933425Y-72677148D01*
X91224264Y-72735000D01*
X94791037Y-72735000D01*
X94496057Y-72856883D01*
X94232808Y-73119673D01*
X94090162Y-73463201D01*
X94089838Y-73835167D01*
X94231883Y-74178943D01*
X94265000Y-74212118D01*
X94265000Y-76125000D01*
X94322852Y-76415839D01*
X94487599Y-76662401D01*
X95364878Y-77539680D01*
X95364838Y-77585167D01*
X95506883Y-77928943D01*
X95769673Y-78192192D01*
X96113201Y-78334838D01*
X96485167Y-78335162D01*
X96828943Y-78193117D01*
X97092192Y-77930327D01*
X97234838Y-77586799D01*
X97235162Y-77214833D01*
X97093117Y-76871057D01*
X96830327Y-76607808D01*
X96486799Y-76465162D01*
X96439923Y-76465121D01*
X95785000Y-75810198D01*
X95785000Y-74212463D01*
X95817192Y-74180327D01*
X95959838Y-73836799D01*
X95960162Y-73464833D01*
X95818117Y-73121057D01*
X95555327Y-72857808D01*
X95259574Y-72735000D01*
X100214882Y-72735000D01*
X100214838Y-72785177D01*
X100356883Y-73128953D01*
X100619673Y-73392202D01*
X100963201Y-73534848D01*
X101335167Y-73535172D01*
X101678943Y-73393127D01*
X101712118Y-73360010D01*
X103240188Y-73360010D01*
X100887599Y-75712599D01*
X100722852Y-75959161D01*
X100665000Y-76250000D01*
X100665000Y-77839999D01*
X100521603Y-77839999D01*
X100493117Y-77771057D01*
X100230327Y-77507808D01*
X99886799Y-77365162D01*
X99834999Y-77365117D01*
X99834999Y-75364803D01*
X100064680Y-75135122D01*
X100110167Y-75135162D01*
X100453943Y-74993117D01*
X100717192Y-74730327D01*
X100859838Y-74386799D01*
X100860162Y-74014833D01*
X100718117Y-73671057D01*
X100455327Y-73407808D01*
X100111799Y-73265162D01*
X99739833Y-73264838D01*
X99396057Y-73406883D01*
X99132808Y-73669673D01*
X98990162Y-74013201D01*
X98990121Y-74060077D01*
X98537598Y-74512600D01*
X98372851Y-74759162D01*
X98314999Y-75050001D01*
X98314999Y-79500001D01*
X98372851Y-79790840D01*
X98537598Y-80037402D01*
X103487597Y-84987401D01*
X103734159Y-85152148D01*
X104024998Y-85210000D01*
X111212537Y-85210000D01*
X111244673Y-85242192D01*
X111588201Y-85384838D01*
X111960167Y-85385162D01*
X112303943Y-85243117D01*
X112567192Y-84980327D01*
X112709838Y-84636799D01*
X112710162Y-84264833D01*
X112568117Y-83921057D01*
X112305327Y-83657808D01*
X111961799Y-83515162D01*
X111589833Y-83514838D01*
X111246057Y-83656883D01*
X111212882Y-83690000D01*
X104339800Y-83690000D01*
X102206026Y-81556226D01*
X102225000Y-81560000D01*
X116712624Y-81560000D01*
X116794673Y-81642192D01*
X117138201Y-81784838D01*
X117510167Y-81785162D01*
X117853943Y-81643117D01*
X118117192Y-81380327D01*
X118259838Y-81036799D01*
X118260162Y-80664833D01*
X118118117Y-80321057D01*
X117855327Y-80057808D01*
X117511799Y-79915162D01*
X117139833Y-79914838D01*
X116836917Y-80040000D01*
X103898128Y-80040000D01*
X103909838Y-80011799D01*
X103910162Y-79639833D01*
X103768117Y-79296057D01*
X103505327Y-79032808D01*
X103161799Y-78890162D01*
X103114923Y-78890121D01*
X102287400Y-78062598D01*
X102185000Y-77994177D01*
X102185000Y-76564802D01*
X105202996Y-73546806D01*
X105453943Y-73443117D01*
X105717192Y-73180327D01*
X105850200Y-72860009D01*
X126274991Y-72860009D01*
X126565830Y-72802157D01*
X126812392Y-72637410D01*
X130312401Y-69137401D01*
X130477148Y-68890840D01*
X130535000Y-68600000D01*
X130535000Y-62189800D01*
X130889999Y-61834801D01*
X130889999Y-86649999D01*
X130947851Y-86940838D01*
X131112598Y-87187400D01*
X136864878Y-92939680D01*
X136864838Y-92985167D01*
X137006883Y-93328943D01*
X137269673Y-93592192D01*
X137613201Y-93734838D01*
X137985167Y-93735162D01*
X138328943Y-93593117D01*
X138592192Y-93330327D01*
X138734838Y-92986799D01*
X138735162Y-92614833D01*
X138593117Y-92271057D01*
X138330327Y-92007808D01*
X137986799Y-91865162D01*
X137939923Y-91865121D01*
X132409999Y-86335197D01*
X132409999Y-61235118D01*
X132460167Y-61235162D01*
X132803943Y-61093117D01*
X133067192Y-60830327D01*
X133158680Y-60610000D01*
X141900736Y-60610000D01*
X142165015Y-60557431D01*
X142164838Y-60760167D01*
X142306883Y-61103943D01*
X142340000Y-61137118D01*
X142340000Y-61185198D01*
X140337598Y-63187600D01*
X140172851Y-63434162D01*
X140114999Y-63725001D01*
X140114999Y-75417715D01*
X139980327Y-75282808D01*
X139636799Y-75140162D01*
X139589923Y-75140121D01*
X138010000Y-73560198D01*
X138010000Y-72662463D01*
X138042192Y-72630327D01*
X138184838Y-72286799D01*
X138185162Y-71914833D01*
X138043117Y-71571057D01*
X137780327Y-71307808D01*
X137436799Y-71165162D01*
X137064833Y-71164838D01*
X136721057Y-71306883D01*
X136457808Y-71569673D01*
X136315162Y-71913201D01*
X136314838Y-72285167D01*
X136456883Y-72628943D01*
X136490000Y-72662118D01*
X136490000Y-73875000D01*
X136547852Y-74165839D01*
X136712599Y-74412401D01*
X138514878Y-76214680D01*
X138514838Y-76260167D01*
X138656883Y-76603943D01*
X138919673Y-76867192D01*
X139263201Y-77009838D01*
X139635167Y-77010162D01*
X139978943Y-76868117D01*
X140114999Y-76732298D01*
X140114999Y-93749999D01*
X140172851Y-94040838D01*
X140337598Y-94287400D01*
X142987600Y-96937402D01*
X143234162Y-97102149D01*
X143525001Y-97160001D01*
X143703397Y-97160001D01*
X143731883Y-97228943D01*
X143994673Y-97492192D01*
X144338201Y-97634838D01*
X144710167Y-97635162D01*
X145053943Y-97493117D01*
X145077439Y-97469661D01*
X164782758Y-97469661D01*
X164994990Y-97983303D01*
X165387630Y-98376629D01*
X165900900Y-98589757D01*
X165903336Y-98589759D01*
X165389697Y-98801990D01*
X164996371Y-99194630D01*
X164783243Y-99707900D01*
X164782758Y-100263661D01*
X164994990Y-100777303D01*
X165387630Y-101170629D01*
X165900900Y-101383757D01*
X166456661Y-101384242D01*
X166970303Y-101172010D01*
X167363629Y-100779370D01*
X167576757Y-100266100D01*
X167577242Y-99710339D01*
X167519344Y-99570213D01*
X167919392Y-99570213D01*
X167988857Y-99812397D01*
X168512302Y-99999144D01*
X169067368Y-99971362D01*
X169451143Y-99812397D01*
X169520608Y-99570213D01*
X168720000Y-98769605D01*
X167919392Y-99570213D01*
X167519344Y-99570213D01*
X167365010Y-99196697D01*
X166972370Y-98803371D01*
X166459100Y-98590243D01*
X166456664Y-98590241D01*
X166959915Y-98382302D01*
X167310856Y-98382302D01*
X167338638Y-98937368D01*
X167497603Y-99321143D01*
X167739787Y-99390608D01*
X168540395Y-98590000D01*
X168899605Y-98590000D01*
X169700213Y-99390608D01*
X169942397Y-99321143D01*
X170129144Y-98797698D01*
X170101362Y-98242632D01*
X169942397Y-97858857D01*
X169700213Y-97789392D01*
X168899605Y-98590000D01*
X168540395Y-98590000D01*
X167739787Y-97789392D01*
X167497603Y-97858857D01*
X167310856Y-98382302D01*
X166959915Y-98382302D01*
X166970303Y-98378010D01*
X167363629Y-97985370D01*
X167576757Y-97472100D01*
X167577242Y-96916339D01*
X167519344Y-96776213D01*
X167919392Y-96776213D01*
X167988857Y-97018397D01*
X168503707Y-97202077D01*
X168372632Y-97208638D01*
X167988857Y-97367603D01*
X167919392Y-97609787D01*
X168720000Y-98410395D01*
X169520608Y-97609787D01*
X169451143Y-97367603D01*
X168936293Y-97183923D01*
X169067368Y-97177362D01*
X169451143Y-97018397D01*
X169520608Y-96776213D01*
X168720000Y-95975605D01*
X167919392Y-96776213D01*
X167519344Y-96776213D01*
X167365010Y-96402697D01*
X166972370Y-96009371D01*
X166459100Y-95796243D01*
X166214344Y-95796029D01*
X166527368Y-95780362D01*
X166911143Y-95621397D01*
X166920635Y-95588302D01*
X167310856Y-95588302D01*
X167338638Y-96143368D01*
X167497603Y-96527143D01*
X167739787Y-96596608D01*
X168540395Y-95796000D01*
X168899605Y-95796000D01*
X169700213Y-96596608D01*
X169942397Y-96527143D01*
X170129144Y-96003698D01*
X170101362Y-95448632D01*
X169942397Y-95064857D01*
X169700213Y-94995392D01*
X168899605Y-95796000D01*
X168540395Y-95796000D01*
X167739787Y-94995392D01*
X167497603Y-95064857D01*
X167310856Y-95588302D01*
X166920635Y-95588302D01*
X166980608Y-95379213D01*
X166180000Y-94578605D01*
X165379392Y-95379213D01*
X165448857Y-95621397D01*
X165937668Y-95795788D01*
X165903339Y-95795758D01*
X165389697Y-96007990D01*
X164996371Y-96400630D01*
X164783243Y-96913900D01*
X164782758Y-97469661D01*
X145077439Y-97469661D01*
X145317192Y-97230327D01*
X145459838Y-96886799D01*
X145460162Y-96514833D01*
X145318117Y-96171057D01*
X145055327Y-95907808D01*
X144711799Y-95765162D01*
X144616451Y-95765079D01*
X144515840Y-95697853D01*
X144225001Y-95640001D01*
X143839803Y-95640001D01*
X142391104Y-94191302D01*
X164770856Y-94191302D01*
X164798638Y-94746368D01*
X164957603Y-95130143D01*
X165199787Y-95199608D01*
X166000395Y-94399000D01*
X166359605Y-94399000D01*
X167160213Y-95199608D01*
X167402397Y-95130143D01*
X167589144Y-94606698D01*
X167561362Y-94051632D01*
X167553650Y-94033013D01*
X167919392Y-94033013D01*
X167988857Y-94275197D01*
X168378835Y-94414328D01*
X168372632Y-94414638D01*
X167988857Y-94573603D01*
X167919392Y-94815787D01*
X168720000Y-95616395D01*
X169520608Y-94815787D01*
X169451143Y-94573603D01*
X169061165Y-94434472D01*
X169067368Y-94434162D01*
X169451143Y-94275197D01*
X169520608Y-94033013D01*
X168720000Y-93232405D01*
X167919392Y-94033013D01*
X167553650Y-94033013D01*
X167402397Y-93667857D01*
X167160213Y-93598392D01*
X166359605Y-94399000D01*
X166000395Y-94399000D01*
X165199787Y-93598392D01*
X164957603Y-93667857D01*
X164770856Y-94191302D01*
X142391104Y-94191302D01*
X141634999Y-93435197D01*
X141634999Y-92712213D01*
X165379392Y-92712213D01*
X165448857Y-92954397D01*
X165737070Y-93057221D01*
X165448857Y-93176603D01*
X165379392Y-93418787D01*
X166180000Y-94219395D01*
X166980608Y-93418787D01*
X166911143Y-93176603D01*
X166622930Y-93073779D01*
X166911143Y-92954397D01*
X166942491Y-92845102D01*
X167310856Y-92845102D01*
X167338638Y-93400168D01*
X167497603Y-93783943D01*
X167739787Y-93853408D01*
X168540395Y-93052800D01*
X168899605Y-93052800D01*
X169700213Y-93853408D01*
X169942397Y-93783943D01*
X170129144Y-93260498D01*
X170101362Y-92705432D01*
X169942397Y-92321657D01*
X169700213Y-92252192D01*
X168899605Y-93052800D01*
X168540395Y-93052800D01*
X167739787Y-92252192D01*
X167497603Y-92321657D01*
X167310856Y-92845102D01*
X166942491Y-92845102D01*
X166980608Y-92712213D01*
X166180000Y-91911605D01*
X165379392Y-92712213D01*
X141634999Y-92712213D01*
X141634999Y-91524302D01*
X164770856Y-91524302D01*
X164798638Y-92079368D01*
X164957603Y-92463143D01*
X165199787Y-92532608D01*
X166000395Y-91732000D01*
X166359605Y-91732000D01*
X167160213Y-92532608D01*
X167402397Y-92463143D01*
X167589144Y-91939698D01*
X167561362Y-91384632D01*
X167543129Y-91340613D01*
X167919392Y-91340613D01*
X167988857Y-91582797D01*
X168310015Y-91697375D01*
X167988857Y-91830403D01*
X167919392Y-92072587D01*
X168720000Y-92873195D01*
X169520608Y-92072587D01*
X169451143Y-91830403D01*
X169129985Y-91715825D01*
X169451143Y-91582797D01*
X169520608Y-91340613D01*
X168720000Y-90540005D01*
X167919392Y-91340613D01*
X167543129Y-91340613D01*
X167402397Y-91000857D01*
X167160213Y-90931392D01*
X166359605Y-91732000D01*
X166000395Y-91732000D01*
X165199787Y-90931392D01*
X164957603Y-91000857D01*
X164770856Y-91524302D01*
X141634999Y-91524302D01*
X141634999Y-87509988D01*
X141835167Y-87510162D01*
X142178943Y-87368117D01*
X142442192Y-87105327D01*
X142584838Y-86761799D01*
X142585162Y-86389833D01*
X142443117Y-86046057D01*
X142410000Y-86012882D01*
X142410000Y-85299264D01*
X142365935Y-85077735D01*
X142434838Y-84911799D01*
X142435162Y-84539833D01*
X142293117Y-84196057D01*
X142030327Y-83932808D01*
X141686799Y-83790162D01*
X141634999Y-83790117D01*
X141634999Y-81324902D01*
X141953943Y-81193117D01*
X142216444Y-80931073D01*
X142256883Y-81028943D01*
X142519673Y-81292192D01*
X142840000Y-81425204D01*
X142840000Y-88662537D01*
X142807808Y-88694673D01*
X142665162Y-89038201D01*
X142664838Y-89410167D01*
X142806883Y-89753943D01*
X143069673Y-90017192D01*
X143413201Y-90159838D01*
X143785167Y-90160162D01*
X144128943Y-90018117D01*
X144229021Y-89918213D01*
X165379392Y-89918213D01*
X165448857Y-90160397D01*
X165963707Y-90344077D01*
X165832632Y-90350638D01*
X165448857Y-90509603D01*
X165379392Y-90751787D01*
X166180000Y-91552395D01*
X166980608Y-90751787D01*
X166911143Y-90509603D01*
X166396293Y-90325923D01*
X166527368Y-90319362D01*
X166911143Y-90160397D01*
X166913350Y-90152702D01*
X167310856Y-90152702D01*
X167338638Y-90707768D01*
X167497603Y-91091543D01*
X167739787Y-91161008D01*
X168540395Y-90360400D01*
X168899605Y-90360400D01*
X169700213Y-91161008D01*
X169942397Y-91091543D01*
X170129144Y-90568098D01*
X170101362Y-90013032D01*
X169942397Y-89629257D01*
X169700213Y-89559792D01*
X168899605Y-90360400D01*
X168540395Y-90360400D01*
X167739787Y-89559792D01*
X167497603Y-89629257D01*
X167310856Y-90152702D01*
X166913350Y-90152702D01*
X166980608Y-89918213D01*
X166180000Y-89117605D01*
X165379392Y-89918213D01*
X144229021Y-89918213D01*
X144392192Y-89755327D01*
X144534838Y-89411799D01*
X144535162Y-89039833D01*
X144393117Y-88696057D01*
X144360000Y-88662882D01*
X144360000Y-88485177D01*
X148239838Y-88485177D01*
X148381883Y-88828953D01*
X148644673Y-89092202D01*
X148988201Y-89234848D01*
X149360167Y-89235172D01*
X149703943Y-89093127D01*
X149967192Y-88830337D01*
X150008730Y-88730302D01*
X164770856Y-88730302D01*
X164798638Y-89285368D01*
X164957603Y-89669143D01*
X165199787Y-89738608D01*
X166000395Y-88938000D01*
X166359605Y-88938000D01*
X167160213Y-89738608D01*
X167402397Y-89669143D01*
X167505486Y-89380187D01*
X167919392Y-89380187D01*
X168720000Y-90180795D01*
X169520608Y-89380187D01*
X169451143Y-89138003D01*
X168927698Y-88951256D01*
X168372632Y-88979038D01*
X167988857Y-89138003D01*
X167919392Y-89380187D01*
X167505486Y-89380187D01*
X167589144Y-89145698D01*
X167561362Y-88590632D01*
X167522087Y-88495813D01*
X167919392Y-88495813D01*
X167988857Y-88737997D01*
X168512302Y-88924744D01*
X169067368Y-88896962D01*
X169451143Y-88737997D01*
X169520608Y-88495813D01*
X168720000Y-87695205D01*
X167919392Y-88495813D01*
X167522087Y-88495813D01*
X167402397Y-88206857D01*
X167160213Y-88137392D01*
X166359605Y-88938000D01*
X166000395Y-88938000D01*
X165199787Y-88137392D01*
X164957603Y-88206857D01*
X164770856Y-88730302D01*
X150008730Y-88730302D01*
X150109838Y-88486809D01*
X150109921Y-88391461D01*
X150177147Y-88290850D01*
X150234999Y-88000011D01*
X150234999Y-87124213D01*
X165379392Y-87124213D01*
X165448857Y-87366397D01*
X165963707Y-87550077D01*
X165832632Y-87556638D01*
X165448857Y-87715603D01*
X165379392Y-87957787D01*
X166180000Y-88758395D01*
X166980608Y-87957787D01*
X166911143Y-87715603D01*
X166396293Y-87531923D01*
X166527368Y-87525362D01*
X166911143Y-87366397D01*
X166927920Y-87307902D01*
X167310856Y-87307902D01*
X167338638Y-87862968D01*
X167497603Y-88246743D01*
X167739787Y-88316208D01*
X168540395Y-87515600D01*
X168899605Y-87515600D01*
X169700213Y-88316208D01*
X169942397Y-88246743D01*
X170129144Y-87723298D01*
X170101362Y-87168232D01*
X169942397Y-86784457D01*
X169700213Y-86714992D01*
X168899605Y-87515600D01*
X168540395Y-87515600D01*
X167739787Y-86714992D01*
X167497603Y-86784457D01*
X167310856Y-87307902D01*
X166927920Y-87307902D01*
X166980608Y-87124213D01*
X166180000Y-86323605D01*
X165379392Y-87124213D01*
X150234999Y-87124213D01*
X150234999Y-85936302D01*
X164770856Y-85936302D01*
X164798638Y-86491368D01*
X164957603Y-86875143D01*
X165199787Y-86944608D01*
X166000395Y-86144000D01*
X166359605Y-86144000D01*
X167160213Y-86944608D01*
X167402397Y-86875143D01*
X167589144Y-86351698D01*
X167561362Y-85796632D01*
X167402397Y-85412857D01*
X167160213Y-85343392D01*
X166359605Y-86144000D01*
X166000395Y-86144000D01*
X165199787Y-85343392D01*
X164957603Y-85412857D01*
X164770856Y-85936302D01*
X150234999Y-85936302D01*
X150234999Y-83264803D01*
X151964658Y-81535144D01*
X151985167Y-81535162D01*
X152328943Y-81393117D01*
X152592192Y-81130327D01*
X152734838Y-80786799D01*
X152735162Y-80414833D01*
X152593117Y-80071057D01*
X152330327Y-79807808D01*
X151986799Y-79665162D01*
X151614833Y-79664838D01*
X151271057Y-79806883D01*
X151007808Y-80069673D01*
X150865162Y-80413201D01*
X150865099Y-80485099D01*
X148937598Y-82412600D01*
X148772851Y-82659162D01*
X148714999Y-82950001D01*
X148714999Y-87478407D01*
X148646057Y-87506893D01*
X148382808Y-87769683D01*
X148240162Y-88113211D01*
X148239838Y-88485177D01*
X144360000Y-88485177D01*
X144360000Y-81050000D01*
X144302148Y-80759161D01*
X144302148Y-80759160D01*
X144137401Y-80512599D01*
X143985122Y-80360320D01*
X143985162Y-80314833D01*
X143843117Y-79971057D01*
X143580327Y-79707808D01*
X143429587Y-79645215D01*
X145037381Y-78037421D01*
X145202128Y-77790859D01*
X145259980Y-77500020D01*
X145259980Y-72485167D01*
X145289838Y-72485167D01*
X145431883Y-72828943D01*
X145694673Y-73092192D01*
X146038201Y-73234838D01*
X146410167Y-73235162D01*
X146753943Y-73093117D01*
X147017192Y-72830327D01*
X147159838Y-72486799D01*
X147160162Y-72114833D01*
X147018117Y-71771057D01*
X146960000Y-71712838D01*
X146960000Y-68134300D01*
X147064808Y-67977443D01*
X147088359Y-67859044D01*
X147154852Y-67792667D01*
X147297498Y-67449139D01*
X147297822Y-67077173D01*
X147155777Y-66733397D01*
X146892987Y-66470148D01*
X146549459Y-66327502D01*
X146177493Y-66327178D01*
X145833717Y-66469223D01*
X145570468Y-66732013D01*
X145427822Y-67075541D01*
X145427498Y-67447507D01*
X145489883Y-67598490D01*
X145440000Y-67849264D01*
X145440000Y-71762494D01*
X145432808Y-71769673D01*
X145290162Y-72113201D01*
X145289838Y-72485167D01*
X145259980Y-72485167D01*
X145259980Y-66078000D01*
X164770560Y-66078000D01*
X164770560Y-67602000D01*
X164814838Y-67837317D01*
X164953910Y-68053441D01*
X165166110Y-68198431D01*
X165418000Y-68249440D01*
X165872646Y-68249440D01*
X165389697Y-68448990D01*
X164996371Y-68841630D01*
X164783243Y-69354900D01*
X164782758Y-69910661D01*
X164994990Y-70424303D01*
X165387630Y-70817629D01*
X165748815Y-70967606D01*
X165389697Y-71115990D01*
X164996371Y-71508630D01*
X164783243Y-72021900D01*
X164782758Y-72577661D01*
X164994990Y-73091303D01*
X165387630Y-73484629D01*
X165900900Y-73697757D01*
X165903336Y-73697759D01*
X165389697Y-73909990D01*
X164996371Y-74302630D01*
X164783243Y-74815900D01*
X164782758Y-75371661D01*
X164994990Y-75885303D01*
X165387630Y-76278629D01*
X165900900Y-76491757D01*
X165903336Y-76491759D01*
X165389697Y-76703990D01*
X164996371Y-77096630D01*
X164783243Y-77609900D01*
X164782758Y-78165661D01*
X164994990Y-78679303D01*
X165387630Y-79072629D01*
X165900900Y-79285757D01*
X165903336Y-79285759D01*
X165389697Y-79497990D01*
X164996371Y-79890630D01*
X164783243Y-80403900D01*
X164782758Y-80959661D01*
X164994990Y-81473303D01*
X165387630Y-81866629D01*
X165748815Y-82016606D01*
X165389697Y-82164990D01*
X164996371Y-82557630D01*
X164783243Y-83070900D01*
X164782758Y-83626661D01*
X164994990Y-84140303D01*
X165387630Y-84533629D01*
X165900900Y-84746757D01*
X166145656Y-84746971D01*
X165832632Y-84762638D01*
X165448857Y-84921603D01*
X165379392Y-85163787D01*
X166180000Y-85964395D01*
X166980608Y-85163787D01*
X166911143Y-84921603D01*
X166422332Y-84747212D01*
X166456661Y-84747242D01*
X166970303Y-84535010D01*
X167363629Y-84142370D01*
X167576757Y-83629100D01*
X167577242Y-83073339D01*
X167365010Y-82559697D01*
X166972370Y-82166371D01*
X166611185Y-82016394D01*
X166970303Y-81868010D01*
X167363629Y-81475370D01*
X167576757Y-80962100D01*
X167577242Y-80406339D01*
X167365010Y-79892697D01*
X166972370Y-79499371D01*
X166459100Y-79286243D01*
X166456664Y-79286241D01*
X166970303Y-79074010D01*
X167363629Y-78681370D01*
X167576757Y-78168100D01*
X167577242Y-77612339D01*
X167365010Y-77098697D01*
X166972370Y-76705371D01*
X166459100Y-76492243D01*
X166456664Y-76492241D01*
X166970303Y-76280010D01*
X167363629Y-75887370D01*
X167576757Y-75374100D01*
X167577242Y-74818339D01*
X167365010Y-74304697D01*
X166972370Y-73911371D01*
X166459100Y-73698243D01*
X166456664Y-73698241D01*
X166970303Y-73486010D01*
X167363629Y-73093370D01*
X167576757Y-72580100D01*
X167577242Y-72024339D01*
X167365010Y-71510697D01*
X166972370Y-71117371D01*
X166611185Y-70967394D01*
X166970303Y-70819010D01*
X167363629Y-70426370D01*
X167576757Y-69913100D01*
X167577242Y-69357339D01*
X167365010Y-68843697D01*
X166972370Y-68450371D01*
X166488474Y-68249440D01*
X166942000Y-68249440D01*
X167177317Y-68205162D01*
X167337091Y-68102350D01*
X167323243Y-68135700D01*
X167322758Y-68691461D01*
X167534990Y-69205103D01*
X167927630Y-69598429D01*
X168135512Y-69684749D01*
X167929697Y-69769790D01*
X167536371Y-70162430D01*
X167323243Y-70675700D01*
X167322758Y-71231461D01*
X167534990Y-71745103D01*
X167927630Y-72138429D01*
X168440900Y-72351557D01*
X168443336Y-72351559D01*
X167929697Y-72563790D01*
X167536371Y-72956430D01*
X167323243Y-73469700D01*
X167322758Y-74025461D01*
X167534990Y-74539103D01*
X167927630Y-74932429D01*
X168380797Y-75120600D01*
X167929697Y-75306990D01*
X167536371Y-75699630D01*
X167323243Y-76212900D01*
X167322758Y-76768661D01*
X167534990Y-77282303D01*
X167927630Y-77675629D01*
X168380797Y-77863800D01*
X167929697Y-78050190D01*
X167536371Y-78442830D01*
X167323243Y-78956100D01*
X167322758Y-79511861D01*
X167534990Y-80025503D01*
X167927630Y-80418829D01*
X168440900Y-80631957D01*
X168443336Y-80631959D01*
X167929697Y-80844190D01*
X167536371Y-81236830D01*
X167323243Y-81750100D01*
X167322758Y-82305861D01*
X167534990Y-82819503D01*
X167927630Y-83212829D01*
X168380797Y-83401000D01*
X167929697Y-83587390D01*
X167536371Y-83980030D01*
X167323243Y-84493300D01*
X167322758Y-85049061D01*
X167534990Y-85562703D01*
X167927630Y-85956029D01*
X168364709Y-86137520D01*
X167988857Y-86293203D01*
X167919392Y-86535387D01*
X168720000Y-87335995D01*
X169520608Y-86535387D01*
X169451143Y-86293203D01*
X169046771Y-86148937D01*
X169510303Y-85957410D01*
X169903629Y-85564770D01*
X170116757Y-85051500D01*
X170117242Y-84495739D01*
X169905010Y-83982097D01*
X169512370Y-83588771D01*
X169059203Y-83400600D01*
X169510303Y-83214210D01*
X169903629Y-82821570D01*
X170116757Y-82308300D01*
X170117242Y-81752539D01*
X169905010Y-81238897D01*
X169512370Y-80845571D01*
X168999100Y-80632443D01*
X168996664Y-80632441D01*
X169510303Y-80420210D01*
X169903629Y-80027570D01*
X170116757Y-79514300D01*
X170117242Y-78958539D01*
X169905010Y-78444897D01*
X169512370Y-78051571D01*
X169059203Y-77863400D01*
X169510303Y-77677010D01*
X169903629Y-77284370D01*
X170116757Y-76771100D01*
X170117242Y-76215339D01*
X169905010Y-75701697D01*
X169512370Y-75308371D01*
X169059203Y-75120200D01*
X169510303Y-74933810D01*
X169903629Y-74541170D01*
X170116757Y-74027900D01*
X170117242Y-73472139D01*
X169905010Y-72958497D01*
X169512370Y-72565171D01*
X168999100Y-72352043D01*
X168996664Y-72352041D01*
X169510303Y-72139810D01*
X169903629Y-71747170D01*
X170116757Y-71233900D01*
X170117242Y-70678139D01*
X169905010Y-70164497D01*
X169512370Y-69771171D01*
X169304488Y-69684851D01*
X169510303Y-69599810D01*
X169903629Y-69207170D01*
X170116757Y-68693900D01*
X170117242Y-68138139D01*
X169905010Y-67624497D01*
X169512370Y-67231171D01*
X168999100Y-67018043D01*
X168443339Y-67017558D01*
X167929697Y-67229790D01*
X167589440Y-67569454D01*
X167589440Y-66078000D01*
X167545162Y-65842683D01*
X167406090Y-65626559D01*
X167193890Y-65481569D01*
X166942000Y-65430560D01*
X165418000Y-65430560D01*
X165182683Y-65474838D01*
X164966559Y-65613910D01*
X164821569Y-65826110D01*
X164770560Y-66078000D01*
X145259980Y-66078000D01*
X145259980Y-62616685D01*
X145310148Y-62616729D01*
X145653924Y-62474684D01*
X145917173Y-62211894D01*
X146059819Y-61868366D01*
X146059860Y-61821490D01*
X146537401Y-61343949D01*
X146702148Y-61097387D01*
X146760000Y-60806548D01*
X146760000Y-60358021D01*
X166179560Y-60358021D01*
X166565437Y-61291915D01*
X167279327Y-62007052D01*
X168212546Y-62394559D01*
X169223021Y-62395440D01*
X170156915Y-62009563D01*
X170872052Y-61295673D01*
X171259559Y-60362454D01*
X171260440Y-59351979D01*
X170874563Y-58418085D01*
X170160673Y-57702948D01*
X169227454Y-57315441D01*
X168216979Y-57314560D01*
X167283085Y-57700437D01*
X166567948Y-58414327D01*
X166180441Y-59347546D01*
X166179560Y-60358021D01*
X146760000Y-60358021D01*
X146760000Y-60150000D01*
X146739049Y-60044673D01*
X146702148Y-59859160D01*
X146537401Y-59612599D01*
X145768996Y-58844194D01*
X145718117Y-58721057D01*
X145455327Y-58457808D01*
X145111799Y-58315162D01*
X144739833Y-58314838D01*
X144396057Y-58456883D01*
X144132808Y-58719673D01*
X143990162Y-59063201D01*
X143989838Y-59435167D01*
X144131883Y-59778943D01*
X144352600Y-60000046D01*
X144257808Y-60094673D01*
X144115162Y-60438201D01*
X144115121Y-60485077D01*
X144035009Y-60565189D01*
X144035162Y-60389833D01*
X143893117Y-60046057D01*
X143672443Y-59824998D01*
X143717192Y-59780327D01*
X143859838Y-59436799D01*
X143860162Y-59064833D01*
X143718117Y-58721057D01*
X143455327Y-58457808D01*
X143111799Y-58315162D01*
X142739833Y-58314838D01*
X142396057Y-58456883D01*
X142328578Y-58524245D01*
X142209897Y-58547852D01*
X141963335Y-58712599D01*
X141585934Y-59090000D01*
X133634800Y-59090000D01*
X134462401Y-58262399D01*
X134627148Y-58015838D01*
X134685000Y-57724998D01*
X134685000Y-54887463D01*
X134717192Y-54855327D01*
X134859838Y-54511799D01*
X134860162Y-54139833D01*
X134718117Y-53796057D01*
X134714685Y-53792619D01*
X156664613Y-53792619D01*
X157004155Y-54614372D01*
X157632321Y-55243636D01*
X158453481Y-55584611D01*
X159342619Y-55585387D01*
X160164372Y-55245845D01*
X160793636Y-54617679D01*
X161134611Y-53796519D01*
X161135387Y-52907381D01*
X160795845Y-52085628D01*
X160167679Y-51456364D01*
X159346519Y-51115389D01*
X158457381Y-51114613D01*
X157635628Y-51454155D01*
X157006364Y-52082321D01*
X156665389Y-52903481D01*
X156664613Y-53792619D01*
X134714685Y-53792619D01*
X134455327Y-53532808D01*
X134111799Y-53390162D01*
X133739833Y-53389838D01*
X133396057Y-53531883D01*
X133132808Y-53794673D01*
X132990162Y-54138201D01*
X132989838Y-54510167D01*
X133131883Y-54853943D01*
X133165000Y-54887118D01*
X133165000Y-57410196D01*
X132035096Y-58540100D01*
X132035162Y-58464833D01*
X131893117Y-58121057D01*
X131630327Y-57857808D01*
X131286799Y-57715162D01*
X130914833Y-57714838D01*
X130571057Y-57856883D01*
X130307808Y-58119673D01*
X130165162Y-58463201D01*
X130164838Y-58835167D01*
X130306883Y-59178943D01*
X130340000Y-59212118D01*
X130340000Y-60235196D01*
X129237599Y-61337597D01*
X129072852Y-61584159D01*
X129015000Y-61874998D01*
X129015000Y-68285198D01*
X125960189Y-71340009D01*
X118635119Y-71340009D01*
X118635163Y-71289832D01*
X118493118Y-70946056D01*
X118230328Y-70682807D01*
X117886800Y-70540161D01*
X117514834Y-70539837D01*
X117171058Y-70681882D01*
X117137883Y-70714999D01*
X116990987Y-70714999D01*
X117108345Y-70125000D01*
X116982670Y-69493190D01*
X116755501Y-69153208D01*
X116892441Y-69065090D01*
X117037431Y-68852890D01*
X117088440Y-68601000D01*
X117088440Y-66569000D01*
X117044162Y-66333683D01*
X116905090Y-66117559D01*
X116692890Y-65972569D01*
X116441000Y-65921560D01*
X114409000Y-65921560D01*
X114173683Y-65965838D01*
X113957559Y-66104910D01*
X113812569Y-66317110D01*
X113761560Y-66569000D01*
X113761560Y-68601000D01*
X113805838Y-68836317D01*
X113944910Y-69052441D01*
X114093837Y-69154198D01*
X113867330Y-69493190D01*
X113741655Y-70125000D01*
X113859013Y-70714999D01*
X104453750Y-70714999D01*
X104315840Y-70622851D01*
X104025001Y-70564999D01*
X102862505Y-70564999D01*
X102855317Y-70557798D01*
X102511789Y-70415152D01*
X102139823Y-70414828D01*
X101796047Y-70556873D01*
X101532798Y-70819663D01*
X101390152Y-71163191D01*
X101390107Y-71215000D01*
X91539066Y-71215000D01*
X90286665Y-69962599D01*
X90040103Y-69797852D01*
X89921704Y-69774301D01*
X89855327Y-69707808D01*
X89511799Y-69565162D01*
X89139833Y-69564838D01*
X88796057Y-69706883D01*
X88532808Y-69969673D01*
X88390162Y-70313201D01*
X88389838Y-70685167D01*
X69585000Y-70685167D01*
X69585000Y-68560167D01*
X96639838Y-68560167D01*
X96781883Y-68903943D01*
X97044673Y-69167192D01*
X97388201Y-69309838D01*
X97760167Y-69310162D01*
X98103943Y-69168117D01*
X98137118Y-69135000D01*
X102057698Y-69135000D01*
X102348537Y-69077148D01*
X102595099Y-68912401D01*
X102706029Y-68801471D01*
X102751516Y-68801511D01*
X103095292Y-68659466D01*
X103358541Y-68396676D01*
X103501187Y-68053148D01*
X103501511Y-67681182D01*
X103359466Y-67337406D01*
X103096676Y-67074157D01*
X102753148Y-66931511D01*
X102381182Y-66931187D01*
X102037406Y-67073232D01*
X101774157Y-67336022D01*
X101658315Y-67615000D01*
X98137463Y-67615000D01*
X98105327Y-67582808D01*
X97761799Y-67440162D01*
X97389833Y-67439838D01*
X97046057Y-67581883D01*
X96782808Y-67844673D01*
X96640162Y-68188201D01*
X96639838Y-68560167D01*
X69585000Y-68560167D01*
X69585000Y-53792619D01*
X76664613Y-53792619D01*
X77004155Y-54614372D01*
X77632321Y-55243636D01*
X78453481Y-55584611D01*
X79342619Y-55585387D01*
X80164372Y-55245845D01*
X80793636Y-54617679D01*
X81134611Y-53796519D01*
X81135387Y-52907381D01*
X80795845Y-52085628D01*
X80167679Y-51456364D01*
X79346519Y-51115389D01*
X78457381Y-51114613D01*
X77635628Y-51454155D01*
X77006364Y-52082321D01*
X76665389Y-52903481D01*
X76664613Y-53792619D01*
X69585000Y-53792619D01*
X69585000Y-49035000D01*
X178215000Y-49035000D01*
X178215000Y-117665000D01*
X178215000Y-117665000D01*
G37*
X178215000Y-117665000D02*
X69585000Y-117665000D01*
X69585000Y-113792619D01*
X76664613Y-113792619D01*
X77004155Y-114614372D01*
X77632321Y-115243636D01*
X78453481Y-115584611D01*
X79342619Y-115585387D01*
X80164372Y-115245845D01*
X80793636Y-114617679D01*
X81134611Y-113796519D01*
X81134614Y-113792619D01*
X156664613Y-113792619D01*
X157004155Y-114614372D01*
X157632321Y-115243636D01*
X158453481Y-115584611D01*
X159342619Y-115585387D01*
X160164372Y-115245845D01*
X160793636Y-114617679D01*
X161134611Y-113796519D01*
X161135387Y-112907381D01*
X160795845Y-112085628D01*
X160167679Y-111456364D01*
X159346519Y-111115389D01*
X158457381Y-111114613D01*
X157635628Y-111454155D01*
X157006364Y-112082321D01*
X156665389Y-112903481D01*
X156664613Y-113792619D01*
X81134614Y-113792619D01*
X81135387Y-112907381D01*
X80795845Y-112085628D01*
X80167679Y-111456364D01*
X79346519Y-111115389D01*
X78457381Y-111114613D01*
X77635628Y-111454155D01*
X77006364Y-112082321D01*
X76665389Y-112903481D01*
X76664613Y-113792619D01*
X69585000Y-113792619D01*
X69585000Y-107348021D01*
X166179560Y-107348021D01*
X166565437Y-108281915D01*
X167279327Y-108997052D01*
X168212546Y-109384559D01*
X169223021Y-109385440D01*
X170156915Y-108999563D01*
X170872052Y-108285673D01*
X171259559Y-107352454D01*
X171260440Y-106341979D01*
X170874563Y-105408085D01*
X170160673Y-104692948D01*
X169227454Y-104305441D01*
X168216979Y-104304560D01*
X167283085Y-104690437D01*
X166567948Y-105404327D01*
X166180441Y-106337546D01*
X166179560Y-107348021D01*
X69585000Y-107348021D01*
X69585000Y-93360167D01*
X133189838Y-93360167D01*
X133331883Y-93703943D01*
X133594673Y-93967192D01*
X133938201Y-94109838D01*
X134310167Y-94110162D01*
X134653943Y-93968117D01*
X134673646Y-93948448D01*
X142767049Y-102041851D01*
X143013611Y-102206598D01*
X143171956Y-102238095D01*
X143211332Y-102333392D01*
X143474122Y-102596641D01*
X143817650Y-102739287D01*
X144189616Y-102739611D01*
X144533392Y-102597566D01*
X144796641Y-102334776D01*
X144939287Y-101991248D01*
X144939611Y-101619282D01*
X144797566Y-101275506D01*
X144534776Y-101012257D01*
X144191248Y-100869611D01*
X144095900Y-100869528D01*
X143995289Y-100802302D01*
X143704450Y-100744450D01*
X143619252Y-100744450D01*
X135512401Y-92637599D01*
X135265839Y-92472852D01*
X134975000Y-92415000D01*
X134687463Y-92415000D01*
X134655327Y-92382808D01*
X134311799Y-92240162D01*
X133939833Y-92239838D01*
X133596057Y-92381883D01*
X133332808Y-92644673D01*
X133190162Y-92988201D01*
X133189838Y-93360167D01*
X69585000Y-93360167D01*
X69585000Y-88472591D01*
X71489646Y-88472591D01*
X71791209Y-89202429D01*
X72349114Y-89761309D01*
X73078425Y-90064145D01*
X73868111Y-90064834D01*
X74597949Y-89763271D01*
X75156829Y-89205366D01*
X75300167Y-88860167D01*
X99014838Y-88860167D01*
X99156883Y-89203943D01*
X99419673Y-89467192D01*
X99763201Y-89609838D01*
X100135167Y-89610162D01*
X100478943Y-89468117D01*
X100512118Y-89435000D01*
X116050000Y-89435000D01*
X116340839Y-89377148D01*
X116587401Y-89212401D01*
X118539904Y-87259898D01*
X118539838Y-87335167D01*
X118681883Y-87678943D01*
X118944673Y-87942192D01*
X119288201Y-88084838D01*
X119660167Y-88085162D01*
X120003943Y-87943117D01*
X120267192Y-87680327D01*
X120409838Y-87336799D01*
X120409879Y-87289923D01*
X123212401Y-84487401D01*
X123377148Y-84240840D01*
X123435000Y-83950000D01*
X123435000Y-81112463D01*
X123467192Y-81080327D01*
X123609838Y-80736799D01*
X123610162Y-80364833D01*
X123468117Y-80021057D01*
X123205327Y-79757808D01*
X122861799Y-79615162D01*
X122489833Y-79614838D01*
X122146057Y-79756883D01*
X121882808Y-80019673D01*
X121740162Y-80363201D01*
X121739838Y-80735167D01*
X121881883Y-81078943D01*
X121915000Y-81112118D01*
X121915000Y-83635198D01*
X120743811Y-84806387D01*
X120760000Y-84725000D01*
X120760000Y-84412463D01*
X120792192Y-84380327D01*
X120934838Y-84036799D01*
X120935162Y-83664833D01*
X120793117Y-83321057D01*
X120530327Y-83057808D01*
X120186799Y-82915162D01*
X119814833Y-82914838D01*
X119471057Y-83056883D01*
X119207808Y-83319673D01*
X119065162Y-83663201D01*
X119064838Y-84035167D01*
X119206883Y-84378943D01*
X119239041Y-84411157D01*
X115735198Y-87915000D01*
X106810075Y-87915000D01*
X106810162Y-87814833D01*
X106668117Y-87471057D01*
X106405327Y-87207808D01*
X106061799Y-87065162D01*
X105689833Y-87064838D01*
X105346057Y-87206883D01*
X105082808Y-87469673D01*
X104940162Y-87813201D01*
X104940121Y-87860077D01*
X104885198Y-87915000D01*
X100512463Y-87915000D01*
X100480327Y-87882808D01*
X100136799Y-87740162D01*
X99764833Y-87739838D01*
X99421057Y-87881883D01*
X99157808Y-88144673D01*
X99015162Y-88488201D01*
X99014838Y-88860167D01*
X75300167Y-88860167D01*
X75459665Y-88476055D01*
X75460354Y-87686369D01*
X75158791Y-86956531D01*
X74600886Y-86397651D01*
X73871575Y-86094815D01*
X73081889Y-86094126D01*
X72352051Y-86395689D01*
X71793171Y-86953594D01*
X71490335Y-87682905D01*
X71489646Y-88472591D01*
X69585000Y-88472591D01*
X69585000Y-84330213D01*
X75374412Y-84330213D01*
X75443877Y-84572397D01*
X75967322Y-84759144D01*
X76522388Y-84731362D01*
X76906163Y-84572397D01*
X76975628Y-84330213D01*
X76175020Y-83529605D01*
X75374412Y-84330213D01*
X69585000Y-84330213D01*
X69585000Y-83142302D01*
X74765876Y-83142302D01*
X74793658Y-83697368D01*
X74952623Y-84081143D01*
X75194807Y-84150608D01*
X75995415Y-83350000D01*
X75194807Y-82549392D01*
X74952623Y-82618857D01*
X74765876Y-83142302D01*
X69585000Y-83142302D01*
X69585000Y-81086661D01*
X74777778Y-81086661D01*
X74990010Y-81600303D01*
X75382650Y-81993629D01*
X75574747Y-82073395D01*
X75443877Y-82127603D01*
X75374412Y-82369787D01*
X76175020Y-83170395D01*
X76975628Y-82369787D01*
X76906163Y-82127603D01*
X76765702Y-82077491D01*
X76965323Y-81995010D01*
X77174530Y-81786168D01*
X77381630Y-81993629D01*
X77589512Y-82079949D01*
X77383697Y-82164990D01*
X76990371Y-82557630D01*
X76879154Y-82825471D01*
X76354625Y-83350000D01*
X76879189Y-83874564D01*
X76988990Y-84140303D01*
X77381630Y-84533629D01*
X77894900Y-84746757D01*
X78450661Y-84747242D01*
X78964303Y-84535010D01*
X79357629Y-84142370D01*
X79570757Y-83629100D01*
X79571242Y-83073339D01*
X79359010Y-82559697D01*
X78966370Y-82166371D01*
X78758488Y-82080051D01*
X78964303Y-81995010D01*
X79357629Y-81602370D01*
X79570757Y-81089100D01*
X79571242Y-80533339D01*
X79359010Y-80019697D01*
X78966370Y-79626371D01*
X78453100Y-79413243D01*
X77897339Y-79412758D01*
X77383697Y-79624990D01*
X77174490Y-79833832D01*
X76967390Y-79626371D01*
X76454120Y-79413243D01*
X75898359Y-79412758D01*
X75384717Y-79624990D01*
X74991391Y-80017630D01*
X74778263Y-80530900D01*
X74777778Y-81086661D01*
X69585000Y-81086661D01*
X69585000Y-76473631D01*
X71489646Y-76473631D01*
X71791209Y-77203469D01*
X72349114Y-77762349D01*
X73078425Y-78065185D01*
X73868111Y-78065874D01*
X74597949Y-77764311D01*
X75156829Y-77206406D01*
X75459665Y-76477095D01*
X75460354Y-75687409D01*
X75158791Y-74957571D01*
X74600886Y-74398691D01*
X73871575Y-74095855D01*
X73081889Y-74095166D01*
X72352051Y-74396729D01*
X71793171Y-74954634D01*
X71490335Y-75683945D01*
X71489646Y-76473631D01*
X69585000Y-76473631D01*
X69585000Y-70685167D01*
X88389838Y-70685167D01*
X88531883Y-71028943D01*
X88794673Y-71292192D01*
X89138201Y-71434838D01*
X89510167Y-71435162D01*
X89580545Y-71406083D01*
X90686863Y-72512401D01*
X90933425Y-72677148D01*
X91224264Y-72735000D01*
X94791037Y-72735000D01*
X94496057Y-72856883D01*
X94232808Y-73119673D01*
X94090162Y-73463201D01*
X94089838Y-73835167D01*
X94231883Y-74178943D01*
X94265000Y-74212118D01*
X94265000Y-76125000D01*
X94322852Y-76415839D01*
X94487599Y-76662401D01*
X95364878Y-77539680D01*
X95364838Y-77585167D01*
X95506883Y-77928943D01*
X95769673Y-78192192D01*
X96113201Y-78334838D01*
X96485167Y-78335162D01*
X96828943Y-78193117D01*
X97092192Y-77930327D01*
X97234838Y-77586799D01*
X97235162Y-77214833D01*
X97093117Y-76871057D01*
X96830327Y-76607808D01*
X96486799Y-76465162D01*
X96439923Y-76465121D01*
X95785000Y-75810198D01*
X95785000Y-74212463D01*
X95817192Y-74180327D01*
X95959838Y-73836799D01*
X95960162Y-73464833D01*
X95818117Y-73121057D01*
X95555327Y-72857808D01*
X95259574Y-72735000D01*
X100214882Y-72735000D01*
X100214838Y-72785177D01*
X100356883Y-73128953D01*
X100619673Y-73392202D01*
X100963201Y-73534848D01*
X101335167Y-73535172D01*
X101678943Y-73393127D01*
X101712118Y-73360010D01*
X103240188Y-73360010D01*
X100887599Y-75712599D01*
X100722852Y-75959161D01*
X100665000Y-76250000D01*
X100665000Y-77839999D01*
X100521603Y-77839999D01*
X100493117Y-77771057D01*
X100230327Y-77507808D01*
X99886799Y-77365162D01*
X99834999Y-77365117D01*
X99834999Y-75364803D01*
X100064680Y-75135122D01*
X100110167Y-75135162D01*
X100453943Y-74993117D01*
X100717192Y-74730327D01*
X100859838Y-74386799D01*
X100860162Y-74014833D01*
X100718117Y-73671057D01*
X100455327Y-73407808D01*
X100111799Y-73265162D01*
X99739833Y-73264838D01*
X99396057Y-73406883D01*
X99132808Y-73669673D01*
X98990162Y-74013201D01*
X98990121Y-74060077D01*
X98537598Y-74512600D01*
X98372851Y-74759162D01*
X98314999Y-75050001D01*
X98314999Y-79500001D01*
X98372851Y-79790840D01*
X98537598Y-80037402D01*
X103487597Y-84987401D01*
X103734159Y-85152148D01*
X104024998Y-85210000D01*
X111212537Y-85210000D01*
X111244673Y-85242192D01*
X111588201Y-85384838D01*
X111960167Y-85385162D01*
X112303943Y-85243117D01*
X112567192Y-84980327D01*
X112709838Y-84636799D01*
X112710162Y-84264833D01*
X112568117Y-83921057D01*
X112305327Y-83657808D01*
X111961799Y-83515162D01*
X111589833Y-83514838D01*
X111246057Y-83656883D01*
X111212882Y-83690000D01*
X104339800Y-83690000D01*
X102206026Y-81556226D01*
X102225000Y-81560000D01*
X116712624Y-81560000D01*
X116794673Y-81642192D01*
X117138201Y-81784838D01*
X117510167Y-81785162D01*
X117853943Y-81643117D01*
X118117192Y-81380327D01*
X118259838Y-81036799D01*
X118260162Y-80664833D01*
X118118117Y-80321057D01*
X117855327Y-80057808D01*
X117511799Y-79915162D01*
X117139833Y-79914838D01*
X116836917Y-80040000D01*
X103898128Y-80040000D01*
X103909838Y-80011799D01*
X103910162Y-79639833D01*
X103768117Y-79296057D01*
X103505327Y-79032808D01*
X103161799Y-78890162D01*
X103114923Y-78890121D01*
X102287400Y-78062598D01*
X102185000Y-77994177D01*
X102185000Y-76564802D01*
X105202996Y-73546806D01*
X105453943Y-73443117D01*
X105717192Y-73180327D01*
X105850200Y-72860009D01*
X126274991Y-72860009D01*
X126565830Y-72802157D01*
X126812392Y-72637410D01*
X130312401Y-69137401D01*
X130477148Y-68890840D01*
X130535000Y-68600000D01*
X130535000Y-62189800D01*
X130889999Y-61834801D01*
X130889999Y-86649999D01*
X130947851Y-86940838D01*
X131112598Y-87187400D01*
X136864878Y-92939680D01*
X136864838Y-92985167D01*
X137006883Y-93328943D01*
X137269673Y-93592192D01*
X137613201Y-93734838D01*
X137985167Y-93735162D01*
X138328943Y-93593117D01*
X138592192Y-93330327D01*
X138734838Y-92986799D01*
X138735162Y-92614833D01*
X138593117Y-92271057D01*
X138330327Y-92007808D01*
X137986799Y-91865162D01*
X137939923Y-91865121D01*
X132409999Y-86335197D01*
X132409999Y-61235118D01*
X132460167Y-61235162D01*
X132803943Y-61093117D01*
X133067192Y-60830327D01*
X133158680Y-60610000D01*
X141900736Y-60610000D01*
X142165015Y-60557431D01*
X142164838Y-60760167D01*
X142306883Y-61103943D01*
X142340000Y-61137118D01*
X142340000Y-61185198D01*
X140337598Y-63187600D01*
X140172851Y-63434162D01*
X140114999Y-63725001D01*
X140114999Y-75417715D01*
X139980327Y-75282808D01*
X139636799Y-75140162D01*
X139589923Y-75140121D01*
X138010000Y-73560198D01*
X138010000Y-72662463D01*
X138042192Y-72630327D01*
X138184838Y-72286799D01*
X138185162Y-71914833D01*
X138043117Y-71571057D01*
X137780327Y-71307808D01*
X137436799Y-71165162D01*
X137064833Y-71164838D01*
X136721057Y-71306883D01*
X136457808Y-71569673D01*
X136315162Y-71913201D01*
X136314838Y-72285167D01*
X136456883Y-72628943D01*
X136490000Y-72662118D01*
X136490000Y-73875000D01*
X136547852Y-74165839D01*
X136712599Y-74412401D01*
X138514878Y-76214680D01*
X138514838Y-76260167D01*
X138656883Y-76603943D01*
X138919673Y-76867192D01*
X139263201Y-77009838D01*
X139635167Y-77010162D01*
X139978943Y-76868117D01*
X140114999Y-76732298D01*
X140114999Y-93749999D01*
X140172851Y-94040838D01*
X140337598Y-94287400D01*
X142987600Y-96937402D01*
X143234162Y-97102149D01*
X143525001Y-97160001D01*
X143703397Y-97160001D01*
X143731883Y-97228943D01*
X143994673Y-97492192D01*
X144338201Y-97634838D01*
X144710167Y-97635162D01*
X145053943Y-97493117D01*
X145077439Y-97469661D01*
X164782758Y-97469661D01*
X164994990Y-97983303D01*
X165387630Y-98376629D01*
X165900900Y-98589757D01*
X165903336Y-98589759D01*
X165389697Y-98801990D01*
X164996371Y-99194630D01*
X164783243Y-99707900D01*
X164782758Y-100263661D01*
X164994990Y-100777303D01*
X165387630Y-101170629D01*
X165900900Y-101383757D01*
X166456661Y-101384242D01*
X166970303Y-101172010D01*
X167363629Y-100779370D01*
X167576757Y-100266100D01*
X167577242Y-99710339D01*
X167519344Y-99570213D01*
X167919392Y-99570213D01*
X167988857Y-99812397D01*
X168512302Y-99999144D01*
X169067368Y-99971362D01*
X169451143Y-99812397D01*
X169520608Y-99570213D01*
X168720000Y-98769605D01*
X167919392Y-99570213D01*
X167519344Y-99570213D01*
X167365010Y-99196697D01*
X166972370Y-98803371D01*
X166459100Y-98590243D01*
X166456664Y-98590241D01*
X166959915Y-98382302D01*
X167310856Y-98382302D01*
X167338638Y-98937368D01*
X167497603Y-99321143D01*
X167739787Y-99390608D01*
X168540395Y-98590000D01*
X168899605Y-98590000D01*
X169700213Y-99390608D01*
X169942397Y-99321143D01*
X170129144Y-98797698D01*
X170101362Y-98242632D01*
X169942397Y-97858857D01*
X169700213Y-97789392D01*
X168899605Y-98590000D01*
X168540395Y-98590000D01*
X167739787Y-97789392D01*
X167497603Y-97858857D01*
X167310856Y-98382302D01*
X166959915Y-98382302D01*
X166970303Y-98378010D01*
X167363629Y-97985370D01*
X167576757Y-97472100D01*
X167577242Y-96916339D01*
X167519344Y-96776213D01*
X167919392Y-96776213D01*
X167988857Y-97018397D01*
X168503707Y-97202077D01*
X168372632Y-97208638D01*
X167988857Y-97367603D01*
X167919392Y-97609787D01*
X168720000Y-98410395D01*
X169520608Y-97609787D01*
X169451143Y-97367603D01*
X168936293Y-97183923D01*
X169067368Y-97177362D01*
X169451143Y-97018397D01*
X169520608Y-96776213D01*
X168720000Y-95975605D01*
X167919392Y-96776213D01*
X167519344Y-96776213D01*
X167365010Y-96402697D01*
X166972370Y-96009371D01*
X166459100Y-95796243D01*
X166214344Y-95796029D01*
X166527368Y-95780362D01*
X166911143Y-95621397D01*
X166920635Y-95588302D01*
X167310856Y-95588302D01*
X167338638Y-96143368D01*
X167497603Y-96527143D01*
X167739787Y-96596608D01*
X168540395Y-95796000D01*
X168899605Y-95796000D01*
X169700213Y-96596608D01*
X169942397Y-96527143D01*
X170129144Y-96003698D01*
X170101362Y-95448632D01*
X169942397Y-95064857D01*
X169700213Y-94995392D01*
X168899605Y-95796000D01*
X168540395Y-95796000D01*
X167739787Y-94995392D01*
X167497603Y-95064857D01*
X167310856Y-95588302D01*
X166920635Y-95588302D01*
X166980608Y-95379213D01*
X166180000Y-94578605D01*
X165379392Y-95379213D01*
X165448857Y-95621397D01*
X165937668Y-95795788D01*
X165903339Y-95795758D01*
X165389697Y-96007990D01*
X164996371Y-96400630D01*
X164783243Y-96913900D01*
X164782758Y-97469661D01*
X145077439Y-97469661D01*
X145317192Y-97230327D01*
X145459838Y-96886799D01*
X145460162Y-96514833D01*
X145318117Y-96171057D01*
X145055327Y-95907808D01*
X144711799Y-95765162D01*
X144616451Y-95765079D01*
X144515840Y-95697853D01*
X144225001Y-95640001D01*
X143839803Y-95640001D01*
X142391104Y-94191302D01*
X164770856Y-94191302D01*
X164798638Y-94746368D01*
X164957603Y-95130143D01*
X165199787Y-95199608D01*
X166000395Y-94399000D01*
X166359605Y-94399000D01*
X167160213Y-95199608D01*
X167402397Y-95130143D01*
X167589144Y-94606698D01*
X167561362Y-94051632D01*
X167553650Y-94033013D01*
X167919392Y-94033013D01*
X167988857Y-94275197D01*
X168378835Y-94414328D01*
X168372632Y-94414638D01*
X167988857Y-94573603D01*
X167919392Y-94815787D01*
X168720000Y-95616395D01*
X169520608Y-94815787D01*
X169451143Y-94573603D01*
X169061165Y-94434472D01*
X169067368Y-94434162D01*
X169451143Y-94275197D01*
X169520608Y-94033013D01*
X168720000Y-93232405D01*
X167919392Y-94033013D01*
X167553650Y-94033013D01*
X167402397Y-93667857D01*
X167160213Y-93598392D01*
X166359605Y-94399000D01*
X166000395Y-94399000D01*
X165199787Y-93598392D01*
X164957603Y-93667857D01*
X164770856Y-94191302D01*
X142391104Y-94191302D01*
X141634999Y-93435197D01*
X141634999Y-92712213D01*
X165379392Y-92712213D01*
X165448857Y-92954397D01*
X165737070Y-93057221D01*
X165448857Y-93176603D01*
X165379392Y-93418787D01*
X166180000Y-94219395D01*
X166980608Y-93418787D01*
X166911143Y-93176603D01*
X166622930Y-93073779D01*
X166911143Y-92954397D01*
X166942491Y-92845102D01*
X167310856Y-92845102D01*
X167338638Y-93400168D01*
X167497603Y-93783943D01*
X167739787Y-93853408D01*
X168540395Y-93052800D01*
X168899605Y-93052800D01*
X169700213Y-93853408D01*
X169942397Y-93783943D01*
X170129144Y-93260498D01*
X170101362Y-92705432D01*
X169942397Y-92321657D01*
X169700213Y-92252192D01*
X168899605Y-93052800D01*
X168540395Y-93052800D01*
X167739787Y-92252192D01*
X167497603Y-92321657D01*
X167310856Y-92845102D01*
X166942491Y-92845102D01*
X166980608Y-92712213D01*
X166180000Y-91911605D01*
X165379392Y-92712213D01*
X141634999Y-92712213D01*
X141634999Y-91524302D01*
X164770856Y-91524302D01*
X164798638Y-92079368D01*
X164957603Y-92463143D01*
X165199787Y-92532608D01*
X166000395Y-91732000D01*
X166359605Y-91732000D01*
X167160213Y-92532608D01*
X167402397Y-92463143D01*
X167589144Y-91939698D01*
X167561362Y-91384632D01*
X167543129Y-91340613D01*
X167919392Y-91340613D01*
X167988857Y-91582797D01*
X168310015Y-91697375D01*
X167988857Y-91830403D01*
X167919392Y-92072587D01*
X168720000Y-92873195D01*
X169520608Y-92072587D01*
X169451143Y-91830403D01*
X169129985Y-91715825D01*
X169451143Y-91582797D01*
X169520608Y-91340613D01*
X168720000Y-90540005D01*
X167919392Y-91340613D01*
X167543129Y-91340613D01*
X167402397Y-91000857D01*
X167160213Y-90931392D01*
X166359605Y-91732000D01*
X166000395Y-91732000D01*
X165199787Y-90931392D01*
X164957603Y-91000857D01*
X164770856Y-91524302D01*
X141634999Y-91524302D01*
X141634999Y-87509988D01*
X141835167Y-87510162D01*
X142178943Y-87368117D01*
X142442192Y-87105327D01*
X142584838Y-86761799D01*
X142585162Y-86389833D01*
X142443117Y-86046057D01*
X142410000Y-86012882D01*
X142410000Y-85299264D01*
X142365935Y-85077735D01*
X142434838Y-84911799D01*
X142435162Y-84539833D01*
X142293117Y-84196057D01*
X142030327Y-83932808D01*
X141686799Y-83790162D01*
X141634999Y-83790117D01*
X141634999Y-81324902D01*
X141953943Y-81193117D01*
X142216444Y-80931073D01*
X142256883Y-81028943D01*
X142519673Y-81292192D01*
X142840000Y-81425204D01*
X142840000Y-88662537D01*
X142807808Y-88694673D01*
X142665162Y-89038201D01*
X142664838Y-89410167D01*
X142806883Y-89753943D01*
X143069673Y-90017192D01*
X143413201Y-90159838D01*
X143785167Y-90160162D01*
X144128943Y-90018117D01*
X144229021Y-89918213D01*
X165379392Y-89918213D01*
X165448857Y-90160397D01*
X165963707Y-90344077D01*
X165832632Y-90350638D01*
X165448857Y-90509603D01*
X165379392Y-90751787D01*
X166180000Y-91552395D01*
X166980608Y-90751787D01*
X166911143Y-90509603D01*
X166396293Y-90325923D01*
X166527368Y-90319362D01*
X166911143Y-90160397D01*
X166913350Y-90152702D01*
X167310856Y-90152702D01*
X167338638Y-90707768D01*
X167497603Y-91091543D01*
X167739787Y-91161008D01*
X168540395Y-90360400D01*
X168899605Y-90360400D01*
X169700213Y-91161008D01*
X169942397Y-91091543D01*
X170129144Y-90568098D01*
X170101362Y-90013032D01*
X169942397Y-89629257D01*
X169700213Y-89559792D01*
X168899605Y-90360400D01*
X168540395Y-90360400D01*
X167739787Y-89559792D01*
X167497603Y-89629257D01*
X167310856Y-90152702D01*
X166913350Y-90152702D01*
X166980608Y-89918213D01*
X166180000Y-89117605D01*
X165379392Y-89918213D01*
X144229021Y-89918213D01*
X144392192Y-89755327D01*
X144534838Y-89411799D01*
X144535162Y-89039833D01*
X144393117Y-88696057D01*
X144360000Y-88662882D01*
X144360000Y-88485177D01*
X148239838Y-88485177D01*
X148381883Y-88828953D01*
X148644673Y-89092202D01*
X148988201Y-89234848D01*
X149360167Y-89235172D01*
X149703943Y-89093127D01*
X149967192Y-88830337D01*
X150008730Y-88730302D01*
X164770856Y-88730302D01*
X164798638Y-89285368D01*
X164957603Y-89669143D01*
X165199787Y-89738608D01*
X166000395Y-88938000D01*
X166359605Y-88938000D01*
X167160213Y-89738608D01*
X167402397Y-89669143D01*
X167505486Y-89380187D01*
X167919392Y-89380187D01*
X168720000Y-90180795D01*
X169520608Y-89380187D01*
X169451143Y-89138003D01*
X168927698Y-88951256D01*
X168372632Y-88979038D01*
X167988857Y-89138003D01*
X167919392Y-89380187D01*
X167505486Y-89380187D01*
X167589144Y-89145698D01*
X167561362Y-88590632D01*
X167522087Y-88495813D01*
X167919392Y-88495813D01*
X167988857Y-88737997D01*
X168512302Y-88924744D01*
X169067368Y-88896962D01*
X169451143Y-88737997D01*
X169520608Y-88495813D01*
X168720000Y-87695205D01*
X167919392Y-88495813D01*
X167522087Y-88495813D01*
X167402397Y-88206857D01*
X167160213Y-88137392D01*
X166359605Y-88938000D01*
X166000395Y-88938000D01*
X165199787Y-88137392D01*
X164957603Y-88206857D01*
X164770856Y-88730302D01*
X150008730Y-88730302D01*
X150109838Y-88486809D01*
X150109921Y-88391461D01*
X150177147Y-88290850D01*
X150234999Y-88000011D01*
X150234999Y-87124213D01*
X165379392Y-87124213D01*
X165448857Y-87366397D01*
X165963707Y-87550077D01*
X165832632Y-87556638D01*
X165448857Y-87715603D01*
X165379392Y-87957787D01*
X166180000Y-88758395D01*
X166980608Y-87957787D01*
X166911143Y-87715603D01*
X166396293Y-87531923D01*
X166527368Y-87525362D01*
X166911143Y-87366397D01*
X166927920Y-87307902D01*
X167310856Y-87307902D01*
X167338638Y-87862968D01*
X167497603Y-88246743D01*
X167739787Y-88316208D01*
X168540395Y-87515600D01*
X168899605Y-87515600D01*
X169700213Y-88316208D01*
X169942397Y-88246743D01*
X170129144Y-87723298D01*
X170101362Y-87168232D01*
X169942397Y-86784457D01*
X169700213Y-86714992D01*
X168899605Y-87515600D01*
X168540395Y-87515600D01*
X167739787Y-86714992D01*
X167497603Y-86784457D01*
X167310856Y-87307902D01*
X166927920Y-87307902D01*
X166980608Y-87124213D01*
X166180000Y-86323605D01*
X165379392Y-87124213D01*
X150234999Y-87124213D01*
X150234999Y-85936302D01*
X164770856Y-85936302D01*
X164798638Y-86491368D01*
X164957603Y-86875143D01*
X165199787Y-86944608D01*
X166000395Y-86144000D01*
X166359605Y-86144000D01*
X167160213Y-86944608D01*
X167402397Y-86875143D01*
X167589144Y-86351698D01*
X167561362Y-85796632D01*
X167402397Y-85412857D01*
X167160213Y-85343392D01*
X166359605Y-86144000D01*
X166000395Y-86144000D01*
X165199787Y-85343392D01*
X164957603Y-85412857D01*
X164770856Y-85936302D01*
X150234999Y-85936302D01*
X150234999Y-83264803D01*
X151964658Y-81535144D01*
X151985167Y-81535162D01*
X152328943Y-81393117D01*
X152592192Y-81130327D01*
X152734838Y-80786799D01*
X152735162Y-80414833D01*
X152593117Y-80071057D01*
X152330327Y-79807808D01*
X151986799Y-79665162D01*
X151614833Y-79664838D01*
X151271057Y-79806883D01*
X151007808Y-80069673D01*
X150865162Y-80413201D01*
X150865099Y-80485099D01*
X148937598Y-82412600D01*
X148772851Y-82659162D01*
X148714999Y-82950001D01*
X148714999Y-87478407D01*
X148646057Y-87506893D01*
X148382808Y-87769683D01*
X148240162Y-88113211D01*
X148239838Y-88485177D01*
X144360000Y-88485177D01*
X144360000Y-81050000D01*
X144302148Y-80759161D01*
X144302148Y-80759160D01*
X144137401Y-80512599D01*
X143985122Y-80360320D01*
X143985162Y-80314833D01*
X143843117Y-79971057D01*
X143580327Y-79707808D01*
X143429587Y-79645215D01*
X145037381Y-78037421D01*
X145202128Y-77790859D01*
X145259980Y-77500020D01*
X145259980Y-72485167D01*
X145289838Y-72485167D01*
X145431883Y-72828943D01*
X145694673Y-73092192D01*
X146038201Y-73234838D01*
X146410167Y-73235162D01*
X146753943Y-73093117D01*
X147017192Y-72830327D01*
X147159838Y-72486799D01*
X147160162Y-72114833D01*
X147018117Y-71771057D01*
X146960000Y-71712838D01*
X146960000Y-68134300D01*
X147064808Y-67977443D01*
X147088359Y-67859044D01*
X147154852Y-67792667D01*
X147297498Y-67449139D01*
X147297822Y-67077173D01*
X147155777Y-66733397D01*
X146892987Y-66470148D01*
X146549459Y-66327502D01*
X146177493Y-66327178D01*
X145833717Y-66469223D01*
X145570468Y-66732013D01*
X145427822Y-67075541D01*
X145427498Y-67447507D01*
X145489883Y-67598490D01*
X145440000Y-67849264D01*
X145440000Y-71762494D01*
X145432808Y-71769673D01*
X145290162Y-72113201D01*
X145289838Y-72485167D01*
X145259980Y-72485167D01*
X145259980Y-66078000D01*
X164770560Y-66078000D01*
X164770560Y-67602000D01*
X164814838Y-67837317D01*
X164953910Y-68053441D01*
X165166110Y-68198431D01*
X165418000Y-68249440D01*
X165872646Y-68249440D01*
X165389697Y-68448990D01*
X164996371Y-68841630D01*
X164783243Y-69354900D01*
X164782758Y-69910661D01*
X164994990Y-70424303D01*
X165387630Y-70817629D01*
X165748815Y-70967606D01*
X165389697Y-71115990D01*
X164996371Y-71508630D01*
X164783243Y-72021900D01*
X164782758Y-72577661D01*
X164994990Y-73091303D01*
X165387630Y-73484629D01*
X165900900Y-73697757D01*
X165903336Y-73697759D01*
X165389697Y-73909990D01*
X164996371Y-74302630D01*
X164783243Y-74815900D01*
X164782758Y-75371661D01*
X164994990Y-75885303D01*
X165387630Y-76278629D01*
X165900900Y-76491757D01*
X165903336Y-76491759D01*
X165389697Y-76703990D01*
X164996371Y-77096630D01*
X164783243Y-77609900D01*
X164782758Y-78165661D01*
X164994990Y-78679303D01*
X165387630Y-79072629D01*
X165900900Y-79285757D01*
X165903336Y-79285759D01*
X165389697Y-79497990D01*
X164996371Y-79890630D01*
X164783243Y-80403900D01*
X164782758Y-80959661D01*
X164994990Y-81473303D01*
X165387630Y-81866629D01*
X165748815Y-82016606D01*
X165389697Y-82164990D01*
X164996371Y-82557630D01*
X164783243Y-83070900D01*
X164782758Y-83626661D01*
X164994990Y-84140303D01*
X165387630Y-84533629D01*
X165900900Y-84746757D01*
X166145656Y-84746971D01*
X165832632Y-84762638D01*
X165448857Y-84921603D01*
X165379392Y-85163787D01*
X166180000Y-85964395D01*
X166980608Y-85163787D01*
X166911143Y-84921603D01*
X166422332Y-84747212D01*
X166456661Y-84747242D01*
X166970303Y-84535010D01*
X167363629Y-84142370D01*
X167576757Y-83629100D01*
X167577242Y-83073339D01*
X167365010Y-82559697D01*
X166972370Y-82166371D01*
X166611185Y-82016394D01*
X166970303Y-81868010D01*
X167363629Y-81475370D01*
X167576757Y-80962100D01*
X167577242Y-80406339D01*
X167365010Y-79892697D01*
X166972370Y-79499371D01*
X166459100Y-79286243D01*
X166456664Y-79286241D01*
X166970303Y-79074010D01*
X167363629Y-78681370D01*
X167576757Y-78168100D01*
X167577242Y-77612339D01*
X167365010Y-77098697D01*
X166972370Y-76705371D01*
X166459100Y-76492243D01*
X166456664Y-76492241D01*
X166970303Y-76280010D01*
X167363629Y-75887370D01*
X167576757Y-75374100D01*
X167577242Y-74818339D01*
X167365010Y-74304697D01*
X166972370Y-73911371D01*
X166459100Y-73698243D01*
X166456664Y-73698241D01*
X166970303Y-73486010D01*
X167363629Y-73093370D01*
X167576757Y-72580100D01*
X167577242Y-72024339D01*
X167365010Y-71510697D01*
X166972370Y-71117371D01*
X166611185Y-70967394D01*
X166970303Y-70819010D01*
X167363629Y-70426370D01*
X167576757Y-69913100D01*
X167577242Y-69357339D01*
X167365010Y-68843697D01*
X166972370Y-68450371D01*
X166488474Y-68249440D01*
X166942000Y-68249440D01*
X167177317Y-68205162D01*
X167337091Y-68102350D01*
X167323243Y-68135700D01*
X167322758Y-68691461D01*
X167534990Y-69205103D01*
X167927630Y-69598429D01*
X168135512Y-69684749D01*
X167929697Y-69769790D01*
X167536371Y-70162430D01*
X167323243Y-70675700D01*
X167322758Y-71231461D01*
X167534990Y-71745103D01*
X167927630Y-72138429D01*
X168440900Y-72351557D01*
X168443336Y-72351559D01*
X167929697Y-72563790D01*
X167536371Y-72956430D01*
X167323243Y-73469700D01*
X167322758Y-74025461D01*
X167534990Y-74539103D01*
X167927630Y-74932429D01*
X168380797Y-75120600D01*
X167929697Y-75306990D01*
X167536371Y-75699630D01*
X167323243Y-76212900D01*
X167322758Y-76768661D01*
X167534990Y-77282303D01*
X167927630Y-77675629D01*
X168380797Y-77863800D01*
X167929697Y-78050190D01*
X167536371Y-78442830D01*
X167323243Y-78956100D01*
X167322758Y-79511861D01*
X167534990Y-80025503D01*
X167927630Y-80418829D01*
X168440900Y-80631957D01*
X168443336Y-80631959D01*
X167929697Y-80844190D01*
X167536371Y-81236830D01*
X167323243Y-81750100D01*
X167322758Y-82305861D01*
X167534990Y-82819503D01*
X167927630Y-83212829D01*
X168380797Y-83401000D01*
X167929697Y-83587390D01*
X167536371Y-83980030D01*
X167323243Y-84493300D01*
X167322758Y-85049061D01*
X167534990Y-85562703D01*
X167927630Y-85956029D01*
X168364709Y-86137520D01*
X167988857Y-86293203D01*
X167919392Y-86535387D01*
X168720000Y-87335995D01*
X169520608Y-86535387D01*
X169451143Y-86293203D01*
X169046771Y-86148937D01*
X169510303Y-85957410D01*
X169903629Y-85564770D01*
X170116757Y-85051500D01*
X170117242Y-84495739D01*
X169905010Y-83982097D01*
X169512370Y-83588771D01*
X169059203Y-83400600D01*
X169510303Y-83214210D01*
X169903629Y-82821570D01*
X170116757Y-82308300D01*
X170117242Y-81752539D01*
X169905010Y-81238897D01*
X169512370Y-80845571D01*
X168999100Y-80632443D01*
X168996664Y-80632441D01*
X169510303Y-80420210D01*
X169903629Y-80027570D01*
X170116757Y-79514300D01*
X170117242Y-78958539D01*
X169905010Y-78444897D01*
X169512370Y-78051571D01*
X169059203Y-77863400D01*
X169510303Y-77677010D01*
X169903629Y-77284370D01*
X170116757Y-76771100D01*
X170117242Y-76215339D01*
X169905010Y-75701697D01*
X169512370Y-75308371D01*
X169059203Y-75120200D01*
X169510303Y-74933810D01*
X169903629Y-74541170D01*
X170116757Y-74027900D01*
X170117242Y-73472139D01*
X169905010Y-72958497D01*
X169512370Y-72565171D01*
X168999100Y-72352043D01*
X168996664Y-72352041D01*
X169510303Y-72139810D01*
X169903629Y-71747170D01*
X170116757Y-71233900D01*
X170117242Y-70678139D01*
X169905010Y-70164497D01*
X169512370Y-69771171D01*
X169304488Y-69684851D01*
X169510303Y-69599810D01*
X169903629Y-69207170D01*
X170116757Y-68693900D01*
X170117242Y-68138139D01*
X169905010Y-67624497D01*
X169512370Y-67231171D01*
X168999100Y-67018043D01*
X168443339Y-67017558D01*
X167929697Y-67229790D01*
X167589440Y-67569454D01*
X167589440Y-66078000D01*
X167545162Y-65842683D01*
X167406090Y-65626559D01*
X167193890Y-65481569D01*
X166942000Y-65430560D01*
X165418000Y-65430560D01*
X165182683Y-65474838D01*
X164966559Y-65613910D01*
X164821569Y-65826110D01*
X164770560Y-66078000D01*
X145259980Y-66078000D01*
X145259980Y-62616685D01*
X145310148Y-62616729D01*
X145653924Y-62474684D01*
X145917173Y-62211894D01*
X146059819Y-61868366D01*
X146059860Y-61821490D01*
X146537401Y-61343949D01*
X146702148Y-61097387D01*
X146760000Y-60806548D01*
X146760000Y-60358021D01*
X166179560Y-60358021D01*
X166565437Y-61291915D01*
X167279327Y-62007052D01*
X168212546Y-62394559D01*
X169223021Y-62395440D01*
X170156915Y-62009563D01*
X170872052Y-61295673D01*
X171259559Y-60362454D01*
X171260440Y-59351979D01*
X170874563Y-58418085D01*
X170160673Y-57702948D01*
X169227454Y-57315441D01*
X168216979Y-57314560D01*
X167283085Y-57700437D01*
X166567948Y-58414327D01*
X166180441Y-59347546D01*
X166179560Y-60358021D01*
X146760000Y-60358021D01*
X146760000Y-60150000D01*
X146739049Y-60044673D01*
X146702148Y-59859160D01*
X146537401Y-59612599D01*
X145768996Y-58844194D01*
X145718117Y-58721057D01*
X145455327Y-58457808D01*
X145111799Y-58315162D01*
X144739833Y-58314838D01*
X144396057Y-58456883D01*
X144132808Y-58719673D01*
X143990162Y-59063201D01*
X143989838Y-59435167D01*
X144131883Y-59778943D01*
X144352600Y-60000046D01*
X144257808Y-60094673D01*
X144115162Y-60438201D01*
X144115121Y-60485077D01*
X144035009Y-60565189D01*
X144035162Y-60389833D01*
X143893117Y-60046057D01*
X143672443Y-59824998D01*
X143717192Y-59780327D01*
X143859838Y-59436799D01*
X143860162Y-59064833D01*
X143718117Y-58721057D01*
X143455327Y-58457808D01*
X143111799Y-58315162D01*
X142739833Y-58314838D01*
X142396057Y-58456883D01*
X142328578Y-58524245D01*
X142209897Y-58547852D01*
X141963335Y-58712599D01*
X141585934Y-59090000D01*
X133634800Y-59090000D01*
X134462401Y-58262399D01*
X134627148Y-58015838D01*
X134685000Y-57724998D01*
X134685000Y-54887463D01*
X134717192Y-54855327D01*
X134859838Y-54511799D01*
X134860162Y-54139833D01*
X134718117Y-53796057D01*
X134714685Y-53792619D01*
X156664613Y-53792619D01*
X157004155Y-54614372D01*
X157632321Y-55243636D01*
X158453481Y-55584611D01*
X159342619Y-55585387D01*
X160164372Y-55245845D01*
X160793636Y-54617679D01*
X161134611Y-53796519D01*
X161135387Y-52907381D01*
X160795845Y-52085628D01*
X160167679Y-51456364D01*
X159346519Y-51115389D01*
X158457381Y-51114613D01*
X157635628Y-51454155D01*
X157006364Y-52082321D01*
X156665389Y-52903481D01*
X156664613Y-53792619D01*
X134714685Y-53792619D01*
X134455327Y-53532808D01*
X134111799Y-53390162D01*
X133739833Y-53389838D01*
X133396057Y-53531883D01*
X133132808Y-53794673D01*
X132990162Y-54138201D01*
X132989838Y-54510167D01*
X133131883Y-54853943D01*
X133165000Y-54887118D01*
X133165000Y-57410196D01*
X132035096Y-58540100D01*
X132035162Y-58464833D01*
X131893117Y-58121057D01*
X131630327Y-57857808D01*
X131286799Y-57715162D01*
X130914833Y-57714838D01*
X130571057Y-57856883D01*
X130307808Y-58119673D01*
X130165162Y-58463201D01*
X130164838Y-58835167D01*
X130306883Y-59178943D01*
X130340000Y-59212118D01*
X130340000Y-60235196D01*
X129237599Y-61337597D01*
X129072852Y-61584159D01*
X129015000Y-61874998D01*
X129015000Y-68285198D01*
X125960189Y-71340009D01*
X118635119Y-71340009D01*
X118635163Y-71289832D01*
X118493118Y-70946056D01*
X118230328Y-70682807D01*
X117886800Y-70540161D01*
X117514834Y-70539837D01*
X117171058Y-70681882D01*
X117137883Y-70714999D01*
X116990987Y-70714999D01*
X117108345Y-70125000D01*
X116982670Y-69493190D01*
X116755501Y-69153208D01*
X116892441Y-69065090D01*
X117037431Y-68852890D01*
X117088440Y-68601000D01*
X117088440Y-66569000D01*
X117044162Y-66333683D01*
X116905090Y-66117559D01*
X116692890Y-65972569D01*
X116441000Y-65921560D01*
X114409000Y-65921560D01*
X114173683Y-65965838D01*
X113957559Y-66104910D01*
X113812569Y-66317110D01*
X113761560Y-66569000D01*
X113761560Y-68601000D01*
X113805838Y-68836317D01*
X113944910Y-69052441D01*
X114093837Y-69154198D01*
X113867330Y-69493190D01*
X113741655Y-70125000D01*
X113859013Y-70714999D01*
X104453750Y-70714999D01*
X104315840Y-70622851D01*
X104025001Y-70564999D01*
X102862505Y-70564999D01*
X102855317Y-70557798D01*
X102511789Y-70415152D01*
X102139823Y-70414828D01*
X101796047Y-70556873D01*
X101532798Y-70819663D01*
X101390152Y-71163191D01*
X101390107Y-71215000D01*
X91539066Y-71215000D01*
X90286665Y-69962599D01*
X90040103Y-69797852D01*
X89921704Y-69774301D01*
X89855327Y-69707808D01*
X89511799Y-69565162D01*
X89139833Y-69564838D01*
X88796057Y-69706883D01*
X88532808Y-69969673D01*
X88390162Y-70313201D01*
X88389838Y-70685167D01*
X69585000Y-70685167D01*
X69585000Y-68560167D01*
X96639838Y-68560167D01*
X96781883Y-68903943D01*
X97044673Y-69167192D01*
X97388201Y-69309838D01*
X97760167Y-69310162D01*
X98103943Y-69168117D01*
X98137118Y-69135000D01*
X102057698Y-69135000D01*
X102348537Y-69077148D01*
X102595099Y-68912401D01*
X102706029Y-68801471D01*
X102751516Y-68801511D01*
X103095292Y-68659466D01*
X103358541Y-68396676D01*
X103501187Y-68053148D01*
X103501511Y-67681182D01*
X103359466Y-67337406D01*
X103096676Y-67074157D01*
X102753148Y-66931511D01*
X102381182Y-66931187D01*
X102037406Y-67073232D01*
X101774157Y-67336022D01*
X101658315Y-67615000D01*
X98137463Y-67615000D01*
X98105327Y-67582808D01*
X97761799Y-67440162D01*
X97389833Y-67439838D01*
X97046057Y-67581883D01*
X96782808Y-67844673D01*
X96640162Y-68188201D01*
X96639838Y-68560167D01*
X69585000Y-68560167D01*
X69585000Y-53792619D01*
X76664613Y-53792619D01*
X77004155Y-54614372D01*
X77632321Y-55243636D01*
X78453481Y-55584611D01*
X79342619Y-55585387D01*
X80164372Y-55245845D01*
X80793636Y-54617679D01*
X81134611Y-53796519D01*
X81135387Y-52907381D01*
X80795845Y-52085628D01*
X80167679Y-51456364D01*
X79346519Y-51115389D01*
X78457381Y-51114613D01*
X77635628Y-51454155D01*
X77006364Y-52082321D01*
X76665389Y-52903481D01*
X76664613Y-53792619D01*
X69585000Y-53792619D01*
X69585000Y-49035000D01*
X178215000Y-49035000D01*
X178215000Y-117665000D01*
M02*
