G04 #@! TF.FileFunction,Legend,Top*
%FSLAX46Y46*%
G04 Gerber Fmt 4.6, Leading zero omitted, Abs format (unit mm)*
G04 Created by KiCad (PCBNEW 4.0.1-stable) date 17/04/2016 17:24:36*
%MOMM*%
G01*
G04 APERTURE LIST*
%ADD10C,0.100000*%
%ADD11C,0.150000*%
G04 APERTURE END LIST*
D10*
D11*
X98525000Y-70925000D02*
X98525000Y-72000000D01*
X108875000Y-70925000D02*
X108875000Y-72000000D01*
X108875000Y-81275000D02*
X108875000Y-80200000D01*
X98525000Y-81275000D02*
X98525000Y-80200000D01*
X98525000Y-70925000D02*
X99600000Y-70925000D01*
X98525000Y-81275000D02*
X99600000Y-81275000D01*
X108875000Y-81275000D02*
X107800000Y-81275000D01*
X108875000Y-70925000D02*
X107800000Y-70925000D01*
X98525000Y-72000000D02*
X97500000Y-72000000D01*
X86825000Y-91800000D02*
X86825000Y-92500000D01*
X85625000Y-92500000D02*
X85625000Y-91800000D01*
X111800000Y-73375000D02*
X111300000Y-73375000D01*
X111300000Y-74325000D02*
X111800000Y-74325000D01*
X95925000Y-76825000D02*
X95225000Y-76825000D01*
X95225000Y-75625000D02*
X95925000Y-75625000D01*
X95575000Y-75150000D02*
X96075000Y-75150000D01*
X96075000Y-74200000D02*
X95575000Y-74200000D01*
X103925000Y-84125000D02*
X103925000Y-83625000D01*
X102975000Y-83625000D02*
X102975000Y-84125000D01*
X100925000Y-84100000D02*
X100925000Y-83600000D01*
X99975000Y-83600000D02*
X99975000Y-84100000D01*
X104475000Y-68100000D02*
X104475000Y-68600000D01*
X105425000Y-68600000D02*
X105425000Y-68100000D01*
X99475000Y-68000000D02*
X99475000Y-68500000D01*
X100425000Y-68500000D02*
X100425000Y-68000000D01*
X92475000Y-74275000D02*
X92475000Y-74975000D01*
X91275000Y-74975000D02*
X91275000Y-74275000D01*
X94575000Y-61125000D02*
X94575000Y-61625000D01*
X95525000Y-61625000D02*
X95525000Y-61125000D01*
X108875000Y-61000000D02*
X108875000Y-61500000D01*
X109825000Y-61500000D02*
X109825000Y-61000000D01*
X125850000Y-83050000D02*
X125850000Y-82550000D01*
X124900000Y-82550000D02*
X124900000Y-83050000D01*
X149125000Y-67075000D02*
X149625000Y-67075000D01*
X149625000Y-66125000D02*
X149125000Y-66125000D01*
X140225000Y-55325000D02*
X140725000Y-55325000D01*
X140725000Y-54375000D02*
X140225000Y-54375000D01*
X136875000Y-79500000D02*
X136375000Y-79500000D01*
X136375000Y-80450000D02*
X136875000Y-80450000D01*
X146800000Y-80375000D02*
X147300000Y-80375000D01*
X147300000Y-79425000D02*
X146800000Y-79425000D01*
X139125000Y-60125000D02*
X138625000Y-60125000D01*
X138625000Y-61075000D02*
X139125000Y-61075000D01*
X149225000Y-61075000D02*
X149725000Y-61075000D01*
X149725000Y-60125000D02*
X149225000Y-60125000D01*
X147850000Y-97075000D02*
X148350000Y-97075000D01*
X148350000Y-96125000D02*
X147850000Y-96125000D01*
X138350000Y-100050000D02*
X137850000Y-100050000D01*
X137850000Y-101000000D02*
X138350000Y-101000000D01*
X92073880Y-87600960D02*
X92073880Y-82399040D01*
X89676120Y-82399040D02*
X89676120Y-87600960D01*
X88576300Y-89599940D02*
X89676120Y-89599940D01*
X89076680Y-90199380D02*
X89076680Y-89000500D01*
X89676120Y-88995420D02*
X92073880Y-88995420D01*
X102300000Y-99675700D02*
X102300000Y-97775700D01*
X101200000Y-99675700D02*
X101200000Y-97775700D01*
X101750000Y-98775700D02*
X101750000Y-98325700D01*
X101500000Y-98825700D02*
X102000000Y-98825700D01*
X101750000Y-98825700D02*
X101500000Y-98575700D01*
X101500000Y-98575700D02*
X102000000Y-98575700D01*
X102000000Y-98575700D02*
X101750000Y-98825700D01*
X71824000Y-75984000D02*
X63188000Y-75984000D01*
X80206000Y-75984000D02*
X75126000Y-75984000D01*
X71824000Y-88176000D02*
X63188000Y-88176000D01*
X80206000Y-88176000D02*
X75126000Y-88176000D01*
X63188000Y-88176000D02*
X63188000Y-75984000D01*
X80206000Y-75984000D02*
X80206000Y-88176000D01*
X178880000Y-110020000D02*
X164910000Y-110020000D01*
X173800000Y-102400000D02*
X164910000Y-102400000D01*
X178880000Y-104305000D02*
X173800000Y-104305000D01*
X178880000Y-62395000D02*
X173800000Y-62395000D01*
X173800000Y-64300000D02*
X164910000Y-64300000D01*
X164910000Y-56680000D02*
X178880000Y-56680000D01*
X173800000Y-110020000D02*
X173800000Y-102400000D01*
X173800000Y-56680000D02*
X173800000Y-64300000D01*
X175705000Y-103670000D02*
X178880000Y-103670000D01*
X175705000Y-63030000D02*
X178880000Y-63030000D01*
X185865000Y-103670000D02*
X180150000Y-103670000D01*
X185865000Y-63030000D02*
X180150000Y-63030000D01*
X178880000Y-110020000D02*
X180150000Y-110020000D01*
X180150000Y-110020000D02*
X180150000Y-56680000D01*
X180150000Y-56680000D02*
X178880000Y-56680000D01*
X178880000Y-56680000D02*
X178880000Y-110020000D01*
X164910000Y-102400000D02*
X164910000Y-110020000D01*
X175705000Y-63030000D02*
X175705000Y-103670000D01*
X185865000Y-63030000D02*
X185865000Y-103670000D01*
X164910000Y-56680000D02*
X164910000Y-64300000D01*
X96800000Y-99675700D02*
X96800000Y-97775700D01*
X95700000Y-99675700D02*
X95700000Y-97775700D01*
X96250000Y-98775700D02*
X96250000Y-98325700D01*
X96000000Y-98825700D02*
X96500000Y-98825700D01*
X96250000Y-98825700D02*
X96000000Y-98575700D01*
X96000000Y-98575700D02*
X96500000Y-98575700D01*
X96500000Y-98575700D02*
X96250000Y-98825700D01*
X83800000Y-67500000D02*
X85000000Y-67500000D01*
X85000000Y-69250000D02*
X83800000Y-69250000D01*
X83825000Y-69650000D02*
X85025000Y-69650000D01*
X85025000Y-71400000D02*
X83825000Y-71400000D01*
X160700000Y-63975000D02*
X161900000Y-63975000D01*
X161900000Y-65725000D02*
X160700000Y-65725000D01*
X160700000Y-68125000D02*
X161900000Y-68125000D01*
X161900000Y-69875000D02*
X160700000Y-69875000D01*
X160700000Y-72275000D02*
X161900000Y-72275000D01*
X161900000Y-74025000D02*
X160700000Y-74025000D01*
X160700000Y-76425000D02*
X161900000Y-76425000D01*
X161900000Y-78175000D02*
X160700000Y-78175000D01*
X160700000Y-80575000D02*
X161900000Y-80575000D01*
X161900000Y-82325000D02*
X160700000Y-82325000D01*
X160700000Y-84725000D02*
X161900000Y-84725000D01*
X161900000Y-86475000D02*
X160700000Y-86475000D01*
X160700000Y-98950000D02*
X161900000Y-98950000D01*
X161900000Y-100700000D02*
X160700000Y-100700000D01*
X160700000Y-66050000D02*
X161900000Y-66050000D01*
X161900000Y-67800000D02*
X160700000Y-67800000D01*
X160700000Y-70200000D02*
X161900000Y-70200000D01*
X161900000Y-71950000D02*
X160700000Y-71950000D01*
X160700000Y-74350000D02*
X161900000Y-74350000D01*
X161900000Y-76100000D02*
X160700000Y-76100000D01*
X160700000Y-78500000D02*
X161900000Y-78500000D01*
X161900000Y-80250000D02*
X160700000Y-80250000D01*
X160700000Y-82650000D02*
X161900000Y-82650000D01*
X161900000Y-84400000D02*
X160700000Y-84400000D01*
X160700000Y-86800000D02*
X161900000Y-86800000D01*
X161900000Y-88550000D02*
X160700000Y-88550000D01*
X110725000Y-87675000D02*
X109525000Y-87675000D01*
X109525000Y-85925000D02*
X110725000Y-85925000D01*
X95375000Y-102850000D02*
X95375000Y-101650000D01*
X97125000Y-101650000D02*
X97125000Y-102850000D01*
X100875000Y-102850000D02*
X100875000Y-101650000D01*
X102625000Y-101650000D02*
X102625000Y-102850000D01*
X136825000Y-98500000D02*
X136825000Y-97300000D01*
X138575000Y-97300000D02*
X138575000Y-98500000D01*
X134025000Y-97575000D02*
X135225000Y-97575000D01*
X135225000Y-99325000D02*
X134025000Y-99325000D01*
X147775000Y-76825000D02*
X147775000Y-78025000D01*
X146025000Y-78025000D02*
X146025000Y-76825000D01*
X136825000Y-81950000D02*
X136825000Y-83150000D01*
X135075000Y-83150000D02*
X135075000Y-81950000D01*
X150550000Y-78925000D02*
X149350000Y-78925000D01*
X149350000Y-77175000D02*
X150550000Y-77175000D01*
X138525000Y-83275000D02*
X139725000Y-83275000D01*
X139725000Y-85025000D02*
X138525000Y-85025000D01*
X145125000Y-52675000D02*
X143925000Y-52675000D01*
X143925000Y-50925000D02*
X145125000Y-50925000D01*
X145200000Y-55025000D02*
X144000000Y-55025000D01*
X144000000Y-53275000D02*
X145200000Y-53275000D01*
X150450000Y-82950000D02*
X149250000Y-82950000D01*
X149250000Y-81200000D02*
X150450000Y-81200000D01*
X133250000Y-76875000D02*
X134450000Y-76875000D01*
X134450000Y-78625000D02*
X133250000Y-78625000D01*
X152525000Y-99050000D02*
X153725000Y-99050000D01*
X153725000Y-100800000D02*
X152525000Y-100800000D01*
X148000000Y-99500000D02*
X148000000Y-98300000D01*
X149750000Y-98300000D02*
X149750000Y-99500000D01*
X147875000Y-82075000D02*
X147875000Y-83275000D01*
X146125000Y-83275000D02*
X146125000Y-82075000D01*
X135825000Y-77750000D02*
X135825000Y-76550000D01*
X137575000Y-76550000D02*
X137575000Y-77750000D01*
X145075000Y-63750000D02*
X146275000Y-63750000D01*
X146275000Y-65500000D02*
X145075000Y-65500000D01*
X134850000Y-57775000D02*
X136050000Y-57775000D01*
X136050000Y-59525000D02*
X134850000Y-59525000D01*
X148700000Y-63750000D02*
X149900000Y-63750000D01*
X149900000Y-65500000D02*
X148700000Y-65500000D01*
X139925000Y-55825000D02*
X141125000Y-55825000D01*
X141125000Y-57575000D02*
X139925000Y-57575000D01*
X152950000Y-61550000D02*
X152950000Y-60350000D01*
X154700000Y-60350000D02*
X154700000Y-61550000D01*
X135575000Y-60900000D02*
X135575000Y-62100000D01*
X133825000Y-62100000D02*
X133825000Y-60900000D01*
X149125000Y-58850000D02*
X149125000Y-57650000D01*
X150875000Y-57650000D02*
X150875000Y-58850000D01*
X139775000Y-62450000D02*
X139775000Y-63650000D01*
X138025000Y-63650000D02*
X138025000Y-62450000D01*
X94481000Y-93826000D02*
X94481000Y-90778000D01*
X94481000Y-90778000D02*
X87369000Y-90778000D01*
X87369000Y-90778000D02*
X87369000Y-93826000D01*
X94481000Y-96874000D02*
X94481000Y-97636000D01*
X94481000Y-97636000D02*
X92957000Y-99922000D01*
X92957000Y-99922000D02*
X88893000Y-99922000D01*
X88893000Y-99922000D02*
X87369000Y-97636000D01*
X87369000Y-97636000D02*
X87369000Y-96874000D01*
X112750080Y-85175480D02*
X112999000Y-84875760D01*
X112999000Y-84875760D02*
X113100600Y-84725900D01*
X113100600Y-84725900D02*
X113100600Y-85574260D01*
X112399560Y-83674340D02*
X112399560Y-85475200D01*
X112399560Y-83674340D02*
X113049800Y-83674340D01*
X116900440Y-83674340D02*
X116900440Y-85475200D01*
X116900440Y-83674340D02*
X116250200Y-83674340D01*
X125550000Y-96220000D02*
X124550000Y-95220000D01*
X124550000Y-95220000D02*
X115150000Y-95220000D01*
X115150000Y-95220000D02*
X115150000Y-107580000D01*
X115150000Y-107580000D02*
X125550000Y-107580000D01*
X125550000Y-107580000D02*
X125550000Y-96220000D01*
X139500000Y-77350000D02*
X139500000Y-77575000D01*
X144150000Y-77350000D02*
X144150000Y-77575000D01*
X144150000Y-82600000D02*
X144150000Y-82375000D01*
X139500000Y-82600000D02*
X139500000Y-82375000D01*
X139500000Y-77350000D02*
X144150000Y-77350000D01*
X139500000Y-82600000D02*
X144150000Y-82600000D01*
X139500000Y-77575000D02*
X138150000Y-77575000D01*
X141025000Y-96050000D02*
X141025000Y-96195000D01*
X145175000Y-96050000D02*
X145175000Y-96195000D01*
X145175000Y-101200000D02*
X145175000Y-101055000D01*
X141025000Y-101200000D02*
X141025000Y-101055000D01*
X141025000Y-96050000D02*
X145175000Y-96050000D01*
X141025000Y-101200000D02*
X145175000Y-101200000D01*
X141025000Y-96195000D02*
X139625000Y-96195000D01*
X141925001Y-57975000D02*
X141925001Y-58200000D01*
X146575001Y-57975000D02*
X146575001Y-58200000D01*
X146575001Y-63225000D02*
X146575001Y-63000000D01*
X141925001Y-63225000D02*
X141925001Y-63000000D01*
X141925001Y-57975000D02*
X146575001Y-57975000D01*
X141925001Y-63225000D02*
X146575001Y-63225000D01*
X141925001Y-58200000D02*
X140575001Y-58200000D01*
X96425380Y-66674360D02*
X108124620Y-66674360D01*
X108124620Y-61675640D02*
X96425380Y-61675640D01*
X108124620Y-66674360D02*
X108124620Y-65826000D01*
X108124620Y-61675640D02*
X108124620Y-62524000D01*
X96425380Y-66674360D02*
X96425380Y-65826000D01*
X96425380Y-61675640D02*
X96425380Y-62524000D01*
X116695000Y-68855000D02*
X116695000Y-71395000D01*
X116975000Y-66035000D02*
X116975000Y-67585000D01*
X116695000Y-68855000D02*
X114155000Y-68855000D01*
X113875000Y-67585000D02*
X113875000Y-66035000D01*
X113875000Y-66035000D02*
X116975000Y-66035000D01*
X114155000Y-68855000D02*
X114155000Y-71395000D01*
X114155000Y-71395000D02*
X116695000Y-71395000D01*
X124500000Y-81175000D02*
X124500000Y-80875000D01*
X121150000Y-81175000D02*
X121150000Y-80875000D01*
X121150000Y-77825000D02*
X121150000Y-78125000D01*
X124500000Y-77825000D02*
X124500000Y-78125000D01*
X124500000Y-81175000D02*
X121150000Y-81175000D01*
X124500000Y-77825000D02*
X121150000Y-77825000D01*
X124500000Y-80875000D02*
X125725000Y-80875000D01*
X129725000Y-105600000D02*
X129025000Y-105600000D01*
X129025000Y-104400000D02*
X129725000Y-104400000D01*
X113275000Y-106850000D02*
X113275000Y-106150000D01*
X114475000Y-106150000D02*
X114475000Y-106850000D01*
X113475000Y-101150000D02*
X113475000Y-101850000D01*
X112275000Y-101850000D02*
X112275000Y-101150000D01*
X95900000Y-70575000D02*
X95900000Y-71775000D01*
X94150000Y-71775000D02*
X94150000Y-70575000D01*
X102163095Y-68377381D02*
X102163095Y-69186905D01*
X102210714Y-69282143D01*
X102258333Y-69329762D01*
X102353571Y-69377381D01*
X102544048Y-69377381D01*
X102639286Y-69329762D01*
X102686905Y-69282143D01*
X102734524Y-69186905D01*
X102734524Y-68377381D01*
X103639286Y-68710714D02*
X103639286Y-69377381D01*
X103401190Y-68329762D02*
X103163095Y-69044048D01*
X103782143Y-69044048D01*
X126713095Y-110421429D02*
X127475000Y-110421429D01*
X127094048Y-110802381D02*
X127094048Y-110040476D01*
X127998809Y-110802381D02*
X128189285Y-110802381D01*
X128284524Y-110754762D01*
X128332143Y-110707143D01*
X128427381Y-110564286D01*
X128475000Y-110373810D01*
X128475000Y-109992857D01*
X128427381Y-109897619D01*
X128379762Y-109850000D01*
X128284524Y-109802381D01*
X128094047Y-109802381D01*
X127998809Y-109850000D01*
X127951190Y-109897619D01*
X127903571Y-109992857D01*
X127903571Y-110230952D01*
X127951190Y-110326190D01*
X127998809Y-110373810D01*
X128094047Y-110421429D01*
X128284524Y-110421429D01*
X128379762Y-110373810D01*
X128427381Y-110326190D01*
X128475000Y-110230952D01*
X128760714Y-109802381D02*
X129094047Y-110802381D01*
X129427381Y-109802381D01*
X130284524Y-110802381D02*
X129713095Y-110802381D01*
X129998809Y-110802381D02*
X129998809Y-109802381D01*
X129903571Y-109945238D01*
X129808333Y-110040476D01*
X129713095Y-110088095D01*
X113838095Y-110421429D02*
X114600000Y-110421429D01*
X115123809Y-110802381D02*
X115314285Y-110802381D01*
X115409524Y-110754762D01*
X115457143Y-110707143D01*
X115552381Y-110564286D01*
X115600000Y-110373810D01*
X115600000Y-109992857D01*
X115552381Y-109897619D01*
X115504762Y-109850000D01*
X115409524Y-109802381D01*
X115219047Y-109802381D01*
X115123809Y-109850000D01*
X115076190Y-109897619D01*
X115028571Y-109992857D01*
X115028571Y-110230952D01*
X115076190Y-110326190D01*
X115123809Y-110373810D01*
X115219047Y-110421429D01*
X115409524Y-110421429D01*
X115504762Y-110373810D01*
X115552381Y-110326190D01*
X115600000Y-110230952D01*
X115885714Y-109802381D02*
X116219047Y-110802381D01*
X116552381Y-109802381D01*
X117409524Y-110802381D02*
X116838095Y-110802381D01*
X117123809Y-110802381D02*
X117123809Y-109802381D01*
X117028571Y-109945238D01*
X116933333Y-110040476D01*
X116838095Y-110088095D01*
X112720238Y-88522619D02*
X112767857Y-88475000D01*
X112863095Y-88427381D01*
X113101191Y-88427381D01*
X113196429Y-88475000D01*
X113244048Y-88522619D01*
X113291667Y-88617857D01*
X113291667Y-88713095D01*
X113244048Y-88855952D01*
X112672619Y-89427381D01*
X113291667Y-89427381D01*
X113720238Y-89332143D02*
X113767857Y-89379762D01*
X113720238Y-89427381D01*
X113672619Y-89379762D01*
X113720238Y-89332143D01*
X113720238Y-89427381D01*
X114672619Y-88427381D02*
X114196428Y-88427381D01*
X114148809Y-88903571D01*
X114196428Y-88855952D01*
X114291666Y-88808333D01*
X114529762Y-88808333D01*
X114625000Y-88855952D01*
X114672619Y-88903571D01*
X114720238Y-88998810D01*
X114720238Y-89236905D01*
X114672619Y-89332143D01*
X114625000Y-89379762D01*
X114529762Y-89427381D01*
X114291666Y-89427381D01*
X114196428Y-89379762D01*
X114148809Y-89332143D01*
X115005952Y-88427381D02*
X115339285Y-89427381D01*
X115672619Y-88427381D01*
X116529762Y-89427381D02*
X115958333Y-89427381D01*
X116244047Y-89427381D02*
X116244047Y-88427381D01*
X116148809Y-88570238D01*
X116053571Y-88665476D01*
X115958333Y-88713095D01*
X83072619Y-81502381D02*
X83691667Y-81502381D01*
X83358333Y-81883333D01*
X83501191Y-81883333D01*
X83596429Y-81930952D01*
X83644048Y-81978571D01*
X83691667Y-82073810D01*
X83691667Y-82311905D01*
X83644048Y-82407143D01*
X83596429Y-82454762D01*
X83501191Y-82502381D01*
X83215476Y-82502381D01*
X83120238Y-82454762D01*
X83072619Y-82407143D01*
X84120238Y-82407143D02*
X84167857Y-82454762D01*
X84120238Y-82502381D01*
X84072619Y-82454762D01*
X84120238Y-82407143D01*
X84120238Y-82502381D01*
X84501190Y-81502381D02*
X85120238Y-81502381D01*
X84786904Y-81883333D01*
X84929762Y-81883333D01*
X85025000Y-81930952D01*
X85072619Y-81978571D01*
X85120238Y-82073810D01*
X85120238Y-82311905D01*
X85072619Y-82407143D01*
X85025000Y-82454762D01*
X84929762Y-82502381D01*
X84644047Y-82502381D01*
X84548809Y-82454762D01*
X84501190Y-82407143D01*
X85405952Y-81502381D02*
X85739285Y-82502381D01*
X86072619Y-81502381D01*
X86929762Y-82502381D02*
X86358333Y-82502381D01*
X86644047Y-82502381D02*
X86644047Y-81502381D01*
X86548809Y-81645238D01*
X86453571Y-81740476D01*
X86358333Y-81788095D01*
X84608334Y-74802381D02*
X84132143Y-74802381D01*
X84084524Y-75278571D01*
X84132143Y-75230952D01*
X84227381Y-75183333D01*
X84465477Y-75183333D01*
X84560715Y-75230952D01*
X84608334Y-75278571D01*
X84655953Y-75373810D01*
X84655953Y-75611905D01*
X84608334Y-75707143D01*
X84560715Y-75754762D01*
X84465477Y-75802381D01*
X84227381Y-75802381D01*
X84132143Y-75754762D01*
X84084524Y-75707143D01*
X84941667Y-74802381D02*
X85275000Y-75802381D01*
X85608334Y-74802381D01*
X86465477Y-75802381D02*
X85894048Y-75802381D01*
X86179762Y-75802381D02*
X86179762Y-74802381D01*
X86084524Y-74945238D01*
X85989286Y-75040476D01*
X85894048Y-75088095D01*
X86083334Y-94807143D02*
X86035715Y-94854762D01*
X85892858Y-94902381D01*
X85797620Y-94902381D01*
X85654762Y-94854762D01*
X85559524Y-94759524D01*
X85511905Y-94664286D01*
X85464286Y-94473810D01*
X85464286Y-94330952D01*
X85511905Y-94140476D01*
X85559524Y-94045238D01*
X85654762Y-93950000D01*
X85797620Y-93902381D01*
X85892858Y-93902381D01*
X86035715Y-93950000D01*
X86083334Y-93997619D01*
X87035715Y-94902381D02*
X86464286Y-94902381D01*
X86750000Y-94902381D02*
X86750000Y-93902381D01*
X86654762Y-94045238D01*
X86559524Y-94140476D01*
X86464286Y-94188095D01*
X113583334Y-74257143D02*
X113535715Y-74304762D01*
X113392858Y-74352381D01*
X113297620Y-74352381D01*
X113154762Y-74304762D01*
X113059524Y-74209524D01*
X113011905Y-74114286D01*
X112964286Y-73923810D01*
X112964286Y-73780952D01*
X113011905Y-73590476D01*
X113059524Y-73495238D01*
X113154762Y-73400000D01*
X113297620Y-73352381D01*
X113392858Y-73352381D01*
X113535715Y-73400000D01*
X113583334Y-73447619D01*
X114154762Y-73780952D02*
X114059524Y-73733333D01*
X114011905Y-73685714D01*
X113964286Y-73590476D01*
X113964286Y-73542857D01*
X114011905Y-73447619D01*
X114059524Y-73400000D01*
X114154762Y-73352381D01*
X114345239Y-73352381D01*
X114440477Y-73400000D01*
X114488096Y-73447619D01*
X114535715Y-73542857D01*
X114535715Y-73590476D01*
X114488096Y-73685714D01*
X114440477Y-73733333D01*
X114345239Y-73780952D01*
X114154762Y-73780952D01*
X114059524Y-73828571D01*
X114011905Y-73876190D01*
X113964286Y-73971429D01*
X113964286Y-74161905D01*
X114011905Y-74257143D01*
X114059524Y-74304762D01*
X114154762Y-74352381D01*
X114345239Y-74352381D01*
X114440477Y-74304762D01*
X114488096Y-74257143D01*
X114535715Y-74161905D01*
X114535715Y-73971429D01*
X114488096Y-73876190D01*
X114440477Y-73828571D01*
X114345239Y-73780952D01*
X92958334Y-76957143D02*
X92910715Y-77004762D01*
X92767858Y-77052381D01*
X92672620Y-77052381D01*
X92529762Y-77004762D01*
X92434524Y-76909524D01*
X92386905Y-76814286D01*
X92339286Y-76623810D01*
X92339286Y-76480952D01*
X92386905Y-76290476D01*
X92434524Y-76195238D01*
X92529762Y-76100000D01*
X92672620Y-76052381D01*
X92767858Y-76052381D01*
X92910715Y-76100000D01*
X92958334Y-76147619D01*
X93815477Y-76052381D02*
X93625000Y-76052381D01*
X93529762Y-76100000D01*
X93482143Y-76147619D01*
X93386905Y-76290476D01*
X93339286Y-76480952D01*
X93339286Y-76861905D01*
X93386905Y-76957143D01*
X93434524Y-77004762D01*
X93529762Y-77052381D01*
X93720239Y-77052381D01*
X93815477Y-77004762D01*
X93863096Y-76957143D01*
X93910715Y-76861905D01*
X93910715Y-76623810D01*
X93863096Y-76528571D01*
X93815477Y-76480952D01*
X93720239Y-76433333D01*
X93529762Y-76433333D01*
X93434524Y-76480952D01*
X93386905Y-76528571D01*
X93339286Y-76623810D01*
X93483334Y-75057143D02*
X93435715Y-75104762D01*
X93292858Y-75152381D01*
X93197620Y-75152381D01*
X93054762Y-75104762D01*
X92959524Y-75009524D01*
X92911905Y-74914286D01*
X92864286Y-74723810D01*
X92864286Y-74580952D01*
X92911905Y-74390476D01*
X92959524Y-74295238D01*
X93054762Y-74200000D01*
X93197620Y-74152381D01*
X93292858Y-74152381D01*
X93435715Y-74200000D01*
X93483334Y-74247619D01*
X93959524Y-75152381D02*
X94150000Y-75152381D01*
X94245239Y-75104762D01*
X94292858Y-75057143D01*
X94388096Y-74914286D01*
X94435715Y-74723810D01*
X94435715Y-74342857D01*
X94388096Y-74247619D01*
X94340477Y-74200000D01*
X94245239Y-74152381D01*
X94054762Y-74152381D01*
X93959524Y-74200000D01*
X93911905Y-74247619D01*
X93864286Y-74342857D01*
X93864286Y-74580952D01*
X93911905Y-74676190D01*
X93959524Y-74723810D01*
X94054762Y-74771429D01*
X94245239Y-74771429D01*
X94340477Y-74723810D01*
X94388096Y-74676190D01*
X94435715Y-74580952D01*
X103183334Y-86782143D02*
X103135715Y-86829762D01*
X102992858Y-86877381D01*
X102897620Y-86877381D01*
X102754762Y-86829762D01*
X102659524Y-86734524D01*
X102611905Y-86639286D01*
X102564286Y-86448810D01*
X102564286Y-86305952D01*
X102611905Y-86115476D01*
X102659524Y-86020238D01*
X102754762Y-85925000D01*
X102897620Y-85877381D01*
X102992858Y-85877381D01*
X103135715Y-85925000D01*
X103183334Y-85972619D01*
X103516667Y-85877381D02*
X104183334Y-85877381D01*
X103754762Y-86877381D01*
X100357143Y-86307143D02*
X100309524Y-86354762D01*
X100166667Y-86402381D01*
X100071429Y-86402381D01*
X99928571Y-86354762D01*
X99833333Y-86259524D01*
X99785714Y-86164286D01*
X99738095Y-85973810D01*
X99738095Y-85830952D01*
X99785714Y-85640476D01*
X99833333Y-85545238D01*
X99928571Y-85450000D01*
X100071429Y-85402381D01*
X100166667Y-85402381D01*
X100309524Y-85450000D01*
X100357143Y-85497619D01*
X101309524Y-86402381D02*
X100738095Y-86402381D01*
X101023809Y-86402381D02*
X101023809Y-85402381D01*
X100928571Y-85545238D01*
X100833333Y-85640476D01*
X100738095Y-85688095D01*
X102261905Y-86402381D02*
X101690476Y-86402381D01*
X101976190Y-86402381D02*
X101976190Y-85402381D01*
X101880952Y-85545238D01*
X101785714Y-85640476D01*
X101690476Y-85688095D01*
X106007143Y-68132143D02*
X105959524Y-68179762D01*
X105816667Y-68227381D01*
X105721429Y-68227381D01*
X105578571Y-68179762D01*
X105483333Y-68084524D01*
X105435714Y-67989286D01*
X105388095Y-67798810D01*
X105388095Y-67655952D01*
X105435714Y-67465476D01*
X105483333Y-67370238D01*
X105578571Y-67275000D01*
X105721429Y-67227381D01*
X105816667Y-67227381D01*
X105959524Y-67275000D01*
X106007143Y-67322619D01*
X106959524Y-68227381D02*
X106388095Y-68227381D01*
X106673809Y-68227381D02*
X106673809Y-67227381D01*
X106578571Y-67370238D01*
X106483333Y-67465476D01*
X106388095Y-67513095D01*
X107578571Y-67227381D02*
X107673810Y-67227381D01*
X107769048Y-67275000D01*
X107816667Y-67322619D01*
X107864286Y-67417857D01*
X107911905Y-67608333D01*
X107911905Y-67846429D01*
X107864286Y-68036905D01*
X107816667Y-68132143D01*
X107769048Y-68179762D01*
X107673810Y-68227381D01*
X107578571Y-68227381D01*
X107483333Y-68179762D01*
X107435714Y-68132143D01*
X107388095Y-68036905D01*
X107340476Y-67846429D01*
X107340476Y-67608333D01*
X107388095Y-67417857D01*
X107435714Y-67322619D01*
X107483333Y-67275000D01*
X107578571Y-67227381D01*
X97057143Y-67982143D02*
X97009524Y-68029762D01*
X96866667Y-68077381D01*
X96771429Y-68077381D01*
X96628571Y-68029762D01*
X96533333Y-67934524D01*
X96485714Y-67839286D01*
X96438095Y-67648810D01*
X96438095Y-67505952D01*
X96485714Y-67315476D01*
X96533333Y-67220238D01*
X96628571Y-67125000D01*
X96771429Y-67077381D01*
X96866667Y-67077381D01*
X97009524Y-67125000D01*
X97057143Y-67172619D01*
X98009524Y-68077381D02*
X97438095Y-68077381D01*
X97723809Y-68077381D02*
X97723809Y-67077381D01*
X97628571Y-67220238D01*
X97533333Y-67315476D01*
X97438095Y-67363095D01*
X98390476Y-67172619D02*
X98438095Y-67125000D01*
X98533333Y-67077381D01*
X98771429Y-67077381D01*
X98866667Y-67125000D01*
X98914286Y-67172619D01*
X98961905Y-67267857D01*
X98961905Y-67363095D01*
X98914286Y-67505952D01*
X98342857Y-68077381D01*
X98961905Y-68077381D01*
X89107143Y-75382143D02*
X89059524Y-75429762D01*
X88916667Y-75477381D01*
X88821429Y-75477381D01*
X88678571Y-75429762D01*
X88583333Y-75334524D01*
X88535714Y-75239286D01*
X88488095Y-75048810D01*
X88488095Y-74905952D01*
X88535714Y-74715476D01*
X88583333Y-74620238D01*
X88678571Y-74525000D01*
X88821429Y-74477381D01*
X88916667Y-74477381D01*
X89059524Y-74525000D01*
X89107143Y-74572619D01*
X90059524Y-75477381D02*
X89488095Y-75477381D01*
X89773809Y-75477381D02*
X89773809Y-74477381D01*
X89678571Y-74620238D01*
X89583333Y-74715476D01*
X89488095Y-74763095D01*
X90392857Y-74477381D02*
X91011905Y-74477381D01*
X90678571Y-74858333D01*
X90821429Y-74858333D01*
X90916667Y-74905952D01*
X90964286Y-74953571D01*
X91011905Y-75048810D01*
X91011905Y-75286905D01*
X90964286Y-75382143D01*
X90916667Y-75429762D01*
X90821429Y-75477381D01*
X90535714Y-75477381D01*
X90440476Y-75429762D01*
X90392857Y-75382143D01*
X92282143Y-61707143D02*
X92234524Y-61754762D01*
X92091667Y-61802381D01*
X91996429Y-61802381D01*
X91853571Y-61754762D01*
X91758333Y-61659524D01*
X91710714Y-61564286D01*
X91663095Y-61373810D01*
X91663095Y-61230952D01*
X91710714Y-61040476D01*
X91758333Y-60945238D01*
X91853571Y-60850000D01*
X91996429Y-60802381D01*
X92091667Y-60802381D01*
X92234524Y-60850000D01*
X92282143Y-60897619D01*
X93234524Y-61802381D02*
X92663095Y-61802381D01*
X92948809Y-61802381D02*
X92948809Y-60802381D01*
X92853571Y-60945238D01*
X92758333Y-61040476D01*
X92663095Y-61088095D01*
X94091667Y-61135714D02*
X94091667Y-61802381D01*
X93853571Y-60754762D02*
X93615476Y-61469048D01*
X94234524Y-61469048D01*
X111132143Y-61457143D02*
X111084524Y-61504762D01*
X110941667Y-61552381D01*
X110846429Y-61552381D01*
X110703571Y-61504762D01*
X110608333Y-61409524D01*
X110560714Y-61314286D01*
X110513095Y-61123810D01*
X110513095Y-60980952D01*
X110560714Y-60790476D01*
X110608333Y-60695238D01*
X110703571Y-60600000D01*
X110846429Y-60552381D01*
X110941667Y-60552381D01*
X111084524Y-60600000D01*
X111132143Y-60647619D01*
X112084524Y-61552381D02*
X111513095Y-61552381D01*
X111798809Y-61552381D02*
X111798809Y-60552381D01*
X111703571Y-60695238D01*
X111608333Y-60790476D01*
X111513095Y-60838095D01*
X112989286Y-60552381D02*
X112513095Y-60552381D01*
X112465476Y-61028571D01*
X112513095Y-60980952D01*
X112608333Y-60933333D01*
X112846429Y-60933333D01*
X112941667Y-60980952D01*
X112989286Y-61028571D01*
X113036905Y-61123810D01*
X113036905Y-61361905D01*
X112989286Y-61457143D01*
X112941667Y-61504762D01*
X112846429Y-61552381D01*
X112608333Y-61552381D01*
X112513095Y-61504762D01*
X112465476Y-61457143D01*
X125532143Y-85132143D02*
X125484524Y-85179762D01*
X125341667Y-85227381D01*
X125246429Y-85227381D01*
X125103571Y-85179762D01*
X125008333Y-85084524D01*
X124960714Y-84989286D01*
X124913095Y-84798810D01*
X124913095Y-84655952D01*
X124960714Y-84465476D01*
X125008333Y-84370238D01*
X125103571Y-84275000D01*
X125246429Y-84227381D01*
X125341667Y-84227381D01*
X125484524Y-84275000D01*
X125532143Y-84322619D01*
X126484524Y-85227381D02*
X125913095Y-85227381D01*
X126198809Y-85227381D02*
X126198809Y-84227381D01*
X126103571Y-84370238D01*
X126008333Y-84465476D01*
X125913095Y-84513095D01*
X127341667Y-84227381D02*
X127151190Y-84227381D01*
X127055952Y-84275000D01*
X127008333Y-84322619D01*
X126913095Y-84465476D01*
X126865476Y-84655952D01*
X126865476Y-85036905D01*
X126913095Y-85132143D01*
X126960714Y-85179762D01*
X127055952Y-85227381D01*
X127246429Y-85227381D01*
X127341667Y-85179762D01*
X127389286Y-85132143D01*
X127436905Y-85036905D01*
X127436905Y-84798810D01*
X127389286Y-84703571D01*
X127341667Y-84655952D01*
X127246429Y-84608333D01*
X127055952Y-84608333D01*
X126960714Y-84655952D01*
X126913095Y-84703571D01*
X126865476Y-84798810D01*
X151557143Y-66932143D02*
X151509524Y-66979762D01*
X151366667Y-67027381D01*
X151271429Y-67027381D01*
X151128571Y-66979762D01*
X151033333Y-66884524D01*
X150985714Y-66789286D01*
X150938095Y-66598810D01*
X150938095Y-66455952D01*
X150985714Y-66265476D01*
X151033333Y-66170238D01*
X151128571Y-66075000D01*
X151271429Y-66027381D01*
X151366667Y-66027381D01*
X151509524Y-66075000D01*
X151557143Y-66122619D01*
X152509524Y-67027381D02*
X151938095Y-67027381D01*
X152223809Y-67027381D02*
X152223809Y-66027381D01*
X152128571Y-66170238D01*
X152033333Y-66265476D01*
X151938095Y-66313095D01*
X152842857Y-66027381D02*
X153509524Y-66027381D01*
X153080952Y-67027381D01*
X136882143Y-55107143D02*
X136834524Y-55154762D01*
X136691667Y-55202381D01*
X136596429Y-55202381D01*
X136453571Y-55154762D01*
X136358333Y-55059524D01*
X136310714Y-54964286D01*
X136263095Y-54773810D01*
X136263095Y-54630952D01*
X136310714Y-54440476D01*
X136358333Y-54345238D01*
X136453571Y-54250000D01*
X136596429Y-54202381D01*
X136691667Y-54202381D01*
X136834524Y-54250000D01*
X136882143Y-54297619D01*
X137834524Y-55202381D02*
X137263095Y-55202381D01*
X137548809Y-55202381D02*
X137548809Y-54202381D01*
X137453571Y-54345238D01*
X137358333Y-54440476D01*
X137263095Y-54488095D01*
X138405952Y-54630952D02*
X138310714Y-54583333D01*
X138263095Y-54535714D01*
X138215476Y-54440476D01*
X138215476Y-54392857D01*
X138263095Y-54297619D01*
X138310714Y-54250000D01*
X138405952Y-54202381D01*
X138596429Y-54202381D01*
X138691667Y-54250000D01*
X138739286Y-54297619D01*
X138786905Y-54392857D01*
X138786905Y-54440476D01*
X138739286Y-54535714D01*
X138691667Y-54583333D01*
X138596429Y-54630952D01*
X138405952Y-54630952D01*
X138310714Y-54678571D01*
X138263095Y-54726190D01*
X138215476Y-54821429D01*
X138215476Y-55011905D01*
X138263095Y-55107143D01*
X138310714Y-55154762D01*
X138405952Y-55202381D01*
X138596429Y-55202381D01*
X138691667Y-55154762D01*
X138739286Y-55107143D01*
X138786905Y-55011905D01*
X138786905Y-54821429D01*
X138739286Y-54726190D01*
X138691667Y-54678571D01*
X138596429Y-54630952D01*
X133332143Y-80307143D02*
X133284524Y-80354762D01*
X133141667Y-80402381D01*
X133046429Y-80402381D01*
X132903571Y-80354762D01*
X132808333Y-80259524D01*
X132760714Y-80164286D01*
X132713095Y-79973810D01*
X132713095Y-79830952D01*
X132760714Y-79640476D01*
X132808333Y-79545238D01*
X132903571Y-79450000D01*
X133046429Y-79402381D01*
X133141667Y-79402381D01*
X133284524Y-79450000D01*
X133332143Y-79497619D01*
X134284524Y-80402381D02*
X133713095Y-80402381D01*
X133998809Y-80402381D02*
X133998809Y-79402381D01*
X133903571Y-79545238D01*
X133808333Y-79640476D01*
X133713095Y-79688095D01*
X134760714Y-80402381D02*
X134951190Y-80402381D01*
X135046429Y-80354762D01*
X135094048Y-80307143D01*
X135189286Y-80164286D01*
X135236905Y-79973810D01*
X135236905Y-79592857D01*
X135189286Y-79497619D01*
X135141667Y-79450000D01*
X135046429Y-79402381D01*
X134855952Y-79402381D01*
X134760714Y-79450000D01*
X134713095Y-79497619D01*
X134665476Y-79592857D01*
X134665476Y-79830952D01*
X134713095Y-79926190D01*
X134760714Y-79973810D01*
X134855952Y-80021429D01*
X135046429Y-80021429D01*
X135141667Y-79973810D01*
X135189286Y-79926190D01*
X135236905Y-79830952D01*
X149107143Y-80257143D02*
X149059524Y-80304762D01*
X148916667Y-80352381D01*
X148821429Y-80352381D01*
X148678571Y-80304762D01*
X148583333Y-80209524D01*
X148535714Y-80114286D01*
X148488095Y-79923810D01*
X148488095Y-79780952D01*
X148535714Y-79590476D01*
X148583333Y-79495238D01*
X148678571Y-79400000D01*
X148821429Y-79352381D01*
X148916667Y-79352381D01*
X149059524Y-79400000D01*
X149107143Y-79447619D01*
X149488095Y-79447619D02*
X149535714Y-79400000D01*
X149630952Y-79352381D01*
X149869048Y-79352381D01*
X149964286Y-79400000D01*
X150011905Y-79447619D01*
X150059524Y-79542857D01*
X150059524Y-79638095D01*
X150011905Y-79780952D01*
X149440476Y-80352381D01*
X150059524Y-80352381D01*
X150678571Y-79352381D02*
X150773810Y-79352381D01*
X150869048Y-79400000D01*
X150916667Y-79447619D01*
X150964286Y-79542857D01*
X151011905Y-79733333D01*
X151011905Y-79971429D01*
X150964286Y-80161905D01*
X150916667Y-80257143D01*
X150869048Y-80304762D01*
X150773810Y-80352381D01*
X150678571Y-80352381D01*
X150583333Y-80304762D01*
X150535714Y-80257143D01*
X150488095Y-80161905D01*
X150440476Y-79971429D01*
X150440476Y-79733333D01*
X150488095Y-79542857D01*
X150535714Y-79447619D01*
X150583333Y-79400000D01*
X150678571Y-79352381D01*
X138182143Y-59707143D02*
X138134524Y-59754762D01*
X137991667Y-59802381D01*
X137896429Y-59802381D01*
X137753571Y-59754762D01*
X137658333Y-59659524D01*
X137610714Y-59564286D01*
X137563095Y-59373810D01*
X137563095Y-59230952D01*
X137610714Y-59040476D01*
X137658333Y-58945238D01*
X137753571Y-58850000D01*
X137896429Y-58802381D01*
X137991667Y-58802381D01*
X138134524Y-58850000D01*
X138182143Y-58897619D01*
X138563095Y-58897619D02*
X138610714Y-58850000D01*
X138705952Y-58802381D01*
X138944048Y-58802381D01*
X139039286Y-58850000D01*
X139086905Y-58897619D01*
X139134524Y-58992857D01*
X139134524Y-59088095D01*
X139086905Y-59230952D01*
X138515476Y-59802381D01*
X139134524Y-59802381D01*
X140086905Y-59802381D02*
X139515476Y-59802381D01*
X139801190Y-59802381D02*
X139801190Y-58802381D01*
X139705952Y-58945238D01*
X139610714Y-59040476D01*
X139515476Y-59088095D01*
X149782143Y-62382143D02*
X149734524Y-62429762D01*
X149591667Y-62477381D01*
X149496429Y-62477381D01*
X149353571Y-62429762D01*
X149258333Y-62334524D01*
X149210714Y-62239286D01*
X149163095Y-62048810D01*
X149163095Y-61905952D01*
X149210714Y-61715476D01*
X149258333Y-61620238D01*
X149353571Y-61525000D01*
X149496429Y-61477381D01*
X149591667Y-61477381D01*
X149734524Y-61525000D01*
X149782143Y-61572619D01*
X150163095Y-61572619D02*
X150210714Y-61525000D01*
X150305952Y-61477381D01*
X150544048Y-61477381D01*
X150639286Y-61525000D01*
X150686905Y-61572619D01*
X150734524Y-61667857D01*
X150734524Y-61763095D01*
X150686905Y-61905952D01*
X150115476Y-62477381D01*
X150734524Y-62477381D01*
X151115476Y-61572619D02*
X151163095Y-61525000D01*
X151258333Y-61477381D01*
X151496429Y-61477381D01*
X151591667Y-61525000D01*
X151639286Y-61572619D01*
X151686905Y-61667857D01*
X151686905Y-61763095D01*
X151639286Y-61905952D01*
X151067857Y-62477381D01*
X151686905Y-62477381D01*
X150257143Y-97007143D02*
X150209524Y-97054762D01*
X150066667Y-97102381D01*
X149971429Y-97102381D01*
X149828571Y-97054762D01*
X149733333Y-96959524D01*
X149685714Y-96864286D01*
X149638095Y-96673810D01*
X149638095Y-96530952D01*
X149685714Y-96340476D01*
X149733333Y-96245238D01*
X149828571Y-96150000D01*
X149971429Y-96102381D01*
X150066667Y-96102381D01*
X150209524Y-96150000D01*
X150257143Y-96197619D01*
X150638095Y-96197619D02*
X150685714Y-96150000D01*
X150780952Y-96102381D01*
X151019048Y-96102381D01*
X151114286Y-96150000D01*
X151161905Y-96197619D01*
X151209524Y-96292857D01*
X151209524Y-96388095D01*
X151161905Y-96530952D01*
X150590476Y-97102381D01*
X151209524Y-97102381D01*
X151542857Y-96102381D02*
X152161905Y-96102381D01*
X151828571Y-96483333D01*
X151971429Y-96483333D01*
X152066667Y-96530952D01*
X152114286Y-96578571D01*
X152161905Y-96673810D01*
X152161905Y-96911905D01*
X152114286Y-97007143D01*
X152066667Y-97054762D01*
X151971429Y-97102381D01*
X151685714Y-97102381D01*
X151590476Y-97054762D01*
X151542857Y-97007143D01*
X134657143Y-100782143D02*
X134609524Y-100829762D01*
X134466667Y-100877381D01*
X134371429Y-100877381D01*
X134228571Y-100829762D01*
X134133333Y-100734524D01*
X134085714Y-100639286D01*
X134038095Y-100448810D01*
X134038095Y-100305952D01*
X134085714Y-100115476D01*
X134133333Y-100020238D01*
X134228571Y-99925000D01*
X134371429Y-99877381D01*
X134466667Y-99877381D01*
X134609524Y-99925000D01*
X134657143Y-99972619D01*
X135038095Y-99972619D02*
X135085714Y-99925000D01*
X135180952Y-99877381D01*
X135419048Y-99877381D01*
X135514286Y-99925000D01*
X135561905Y-99972619D01*
X135609524Y-100067857D01*
X135609524Y-100163095D01*
X135561905Y-100305952D01*
X134990476Y-100877381D01*
X135609524Y-100877381D01*
X136466667Y-100210714D02*
X136466667Y-100877381D01*
X136228571Y-99829762D02*
X135990476Y-100544048D01*
X136609524Y-100544048D01*
X88358334Y-85307143D02*
X88310715Y-85354762D01*
X88167858Y-85402381D01*
X88072620Y-85402381D01*
X87929762Y-85354762D01*
X87834524Y-85259524D01*
X87786905Y-85164286D01*
X87739286Y-84973810D01*
X87739286Y-84830952D01*
X87786905Y-84640476D01*
X87834524Y-84545238D01*
X87929762Y-84450000D01*
X88072620Y-84402381D01*
X88167858Y-84402381D01*
X88310715Y-84450000D01*
X88358334Y-84497619D01*
X88739286Y-84497619D02*
X88786905Y-84450000D01*
X88882143Y-84402381D01*
X89120239Y-84402381D01*
X89215477Y-84450000D01*
X89263096Y-84497619D01*
X89310715Y-84592857D01*
X89310715Y-84688095D01*
X89263096Y-84830952D01*
X88691667Y-85402381D01*
X89310715Y-85402381D01*
X89145569Y-89980892D02*
X89145569Y-89218987D01*
X89526521Y-89599939D02*
X88764616Y-89599939D01*
X102736905Y-99102381D02*
X102736905Y-98102381D01*
X102975000Y-98102381D01*
X103117858Y-98150000D01*
X103213096Y-98245238D01*
X103260715Y-98340476D01*
X103308334Y-98530952D01*
X103308334Y-98673810D01*
X103260715Y-98864286D01*
X103213096Y-98959524D01*
X103117858Y-99054762D01*
X102975000Y-99102381D01*
X102736905Y-99102381D01*
X103689286Y-98197619D02*
X103736905Y-98150000D01*
X103832143Y-98102381D01*
X104070239Y-98102381D01*
X104165477Y-98150000D01*
X104213096Y-98197619D01*
X104260715Y-98292857D01*
X104260715Y-98388095D01*
X104213096Y-98530952D01*
X103641667Y-99102381D01*
X104260715Y-99102381D01*
X71427381Y-82888095D02*
X70427381Y-82888095D01*
X70427381Y-82507142D01*
X70475000Y-82411904D01*
X70522619Y-82364285D01*
X70617857Y-82316666D01*
X70760714Y-82316666D01*
X70855952Y-82364285D01*
X70903571Y-82411904D01*
X70951190Y-82507142D01*
X70951190Y-82888095D01*
X71427381Y-81364285D02*
X71427381Y-81935714D01*
X71427381Y-81650000D02*
X70427381Y-81650000D01*
X70570238Y-81745238D01*
X70665476Y-81840476D01*
X70713095Y-81935714D01*
X169236905Y-55602381D02*
X169236905Y-54602381D01*
X169617858Y-54602381D01*
X169713096Y-54650000D01*
X169760715Y-54697619D01*
X169808334Y-54792857D01*
X169808334Y-54935714D01*
X169760715Y-55030952D01*
X169713096Y-55078571D01*
X169617858Y-55126190D01*
X169236905Y-55126190D01*
X170189286Y-54697619D02*
X170236905Y-54650000D01*
X170332143Y-54602381D01*
X170570239Y-54602381D01*
X170665477Y-54650000D01*
X170713096Y-54697619D01*
X170760715Y-54792857D01*
X170760715Y-54888095D01*
X170713096Y-55030952D01*
X170141667Y-55602381D01*
X170760715Y-55602381D01*
X97236905Y-99102381D02*
X97236905Y-98102381D01*
X97475000Y-98102381D01*
X97617858Y-98150000D01*
X97713096Y-98245238D01*
X97760715Y-98340476D01*
X97808334Y-98530952D01*
X97808334Y-98673810D01*
X97760715Y-98864286D01*
X97713096Y-98959524D01*
X97617858Y-99054762D01*
X97475000Y-99102381D01*
X97236905Y-99102381D01*
X98760715Y-99102381D02*
X98189286Y-99102381D01*
X98475000Y-99102381D02*
X98475000Y-98102381D01*
X98379762Y-98245238D01*
X98284524Y-98340476D01*
X98189286Y-98388095D01*
X87108334Y-68677381D02*
X86775000Y-68201190D01*
X86536905Y-68677381D02*
X86536905Y-67677381D01*
X86917858Y-67677381D01*
X87013096Y-67725000D01*
X87060715Y-67772619D01*
X87108334Y-67867857D01*
X87108334Y-68010714D01*
X87060715Y-68105952D01*
X87013096Y-68153571D01*
X86917858Y-68201190D01*
X86536905Y-68201190D01*
X88060715Y-68677381D02*
X87489286Y-68677381D01*
X87775000Y-68677381D02*
X87775000Y-67677381D01*
X87679762Y-67820238D01*
X87584524Y-67915476D01*
X87489286Y-67963095D01*
X87233334Y-70852381D02*
X86900000Y-70376190D01*
X86661905Y-70852381D02*
X86661905Y-69852381D01*
X87042858Y-69852381D01*
X87138096Y-69900000D01*
X87185715Y-69947619D01*
X87233334Y-70042857D01*
X87233334Y-70185714D01*
X87185715Y-70280952D01*
X87138096Y-70328571D01*
X87042858Y-70376190D01*
X86661905Y-70376190D01*
X87614286Y-69947619D02*
X87661905Y-69900000D01*
X87757143Y-69852381D01*
X87995239Y-69852381D01*
X88090477Y-69900000D01*
X88138096Y-69947619D01*
X88185715Y-70042857D01*
X88185715Y-70138095D01*
X88138096Y-70280952D01*
X87566667Y-70852381D01*
X88185715Y-70852381D01*
X158208334Y-65527381D02*
X157875000Y-65051190D01*
X157636905Y-65527381D02*
X157636905Y-64527381D01*
X158017858Y-64527381D01*
X158113096Y-64575000D01*
X158160715Y-64622619D01*
X158208334Y-64717857D01*
X158208334Y-64860714D01*
X158160715Y-64955952D01*
X158113096Y-65003571D01*
X158017858Y-65051190D01*
X157636905Y-65051190D01*
X158541667Y-64527381D02*
X159160715Y-64527381D01*
X158827381Y-64908333D01*
X158970239Y-64908333D01*
X159065477Y-64955952D01*
X159113096Y-65003571D01*
X159160715Y-65098810D01*
X159160715Y-65336905D01*
X159113096Y-65432143D01*
X159065477Y-65479762D01*
X158970239Y-65527381D01*
X158684524Y-65527381D01*
X158589286Y-65479762D01*
X158541667Y-65432143D01*
X158208334Y-69452381D02*
X157875000Y-68976190D01*
X157636905Y-69452381D02*
X157636905Y-68452381D01*
X158017858Y-68452381D01*
X158113096Y-68500000D01*
X158160715Y-68547619D01*
X158208334Y-68642857D01*
X158208334Y-68785714D01*
X158160715Y-68880952D01*
X158113096Y-68928571D01*
X158017858Y-68976190D01*
X157636905Y-68976190D01*
X159065477Y-68785714D02*
X159065477Y-69452381D01*
X158827381Y-68404762D02*
X158589286Y-69119048D01*
X159208334Y-69119048D01*
X157208334Y-73452381D02*
X156875000Y-72976190D01*
X156636905Y-73452381D02*
X156636905Y-72452381D01*
X157017858Y-72452381D01*
X157113096Y-72500000D01*
X157160715Y-72547619D01*
X157208334Y-72642857D01*
X157208334Y-72785714D01*
X157160715Y-72880952D01*
X157113096Y-72928571D01*
X157017858Y-72976190D01*
X156636905Y-72976190D01*
X158113096Y-72452381D02*
X157636905Y-72452381D01*
X157589286Y-72928571D01*
X157636905Y-72880952D01*
X157732143Y-72833333D01*
X157970239Y-72833333D01*
X158065477Y-72880952D01*
X158113096Y-72928571D01*
X158160715Y-73023810D01*
X158160715Y-73261905D01*
X158113096Y-73357143D01*
X158065477Y-73404762D01*
X157970239Y-73452381D01*
X157732143Y-73452381D01*
X157636905Y-73404762D01*
X157589286Y-73357143D01*
X158133334Y-77777381D02*
X157800000Y-77301190D01*
X157561905Y-77777381D02*
X157561905Y-76777381D01*
X157942858Y-76777381D01*
X158038096Y-76825000D01*
X158085715Y-76872619D01*
X158133334Y-76967857D01*
X158133334Y-77110714D01*
X158085715Y-77205952D01*
X158038096Y-77253571D01*
X157942858Y-77301190D01*
X157561905Y-77301190D01*
X158990477Y-76777381D02*
X158800000Y-76777381D01*
X158704762Y-76825000D01*
X158657143Y-76872619D01*
X158561905Y-77015476D01*
X158514286Y-77205952D01*
X158514286Y-77586905D01*
X158561905Y-77682143D01*
X158609524Y-77729762D01*
X158704762Y-77777381D01*
X158895239Y-77777381D01*
X158990477Y-77729762D01*
X159038096Y-77682143D01*
X159085715Y-77586905D01*
X159085715Y-77348810D01*
X159038096Y-77253571D01*
X158990477Y-77205952D01*
X158895239Y-77158333D01*
X158704762Y-77158333D01*
X158609524Y-77205952D01*
X158561905Y-77253571D01*
X158514286Y-77348810D01*
X158333334Y-82102381D02*
X158000000Y-81626190D01*
X157761905Y-82102381D02*
X157761905Y-81102381D01*
X158142858Y-81102381D01*
X158238096Y-81150000D01*
X158285715Y-81197619D01*
X158333334Y-81292857D01*
X158333334Y-81435714D01*
X158285715Y-81530952D01*
X158238096Y-81578571D01*
X158142858Y-81626190D01*
X157761905Y-81626190D01*
X158666667Y-81102381D02*
X159333334Y-81102381D01*
X158904762Y-82102381D01*
X158258334Y-86027381D02*
X157925000Y-85551190D01*
X157686905Y-86027381D02*
X157686905Y-85027381D01*
X158067858Y-85027381D01*
X158163096Y-85075000D01*
X158210715Y-85122619D01*
X158258334Y-85217857D01*
X158258334Y-85360714D01*
X158210715Y-85455952D01*
X158163096Y-85503571D01*
X158067858Y-85551190D01*
X157686905Y-85551190D01*
X158829762Y-85455952D02*
X158734524Y-85408333D01*
X158686905Y-85360714D01*
X158639286Y-85265476D01*
X158639286Y-85217857D01*
X158686905Y-85122619D01*
X158734524Y-85075000D01*
X158829762Y-85027381D01*
X159020239Y-85027381D01*
X159115477Y-85075000D01*
X159163096Y-85122619D01*
X159210715Y-85217857D01*
X159210715Y-85265476D01*
X159163096Y-85360714D01*
X159115477Y-85408333D01*
X159020239Y-85455952D01*
X158829762Y-85455952D01*
X158734524Y-85503571D01*
X158686905Y-85551190D01*
X158639286Y-85646429D01*
X158639286Y-85836905D01*
X158686905Y-85932143D01*
X158734524Y-85979762D01*
X158829762Y-86027381D01*
X159020239Y-86027381D01*
X159115477Y-85979762D01*
X159163096Y-85932143D01*
X159210715Y-85836905D01*
X159210715Y-85646429D01*
X159163096Y-85551190D01*
X159115477Y-85503571D01*
X159020239Y-85455952D01*
X161133334Y-102377381D02*
X160800000Y-101901190D01*
X160561905Y-102377381D02*
X160561905Y-101377381D01*
X160942858Y-101377381D01*
X161038096Y-101425000D01*
X161085715Y-101472619D01*
X161133334Y-101567857D01*
X161133334Y-101710714D01*
X161085715Y-101805952D01*
X161038096Y-101853571D01*
X160942858Y-101901190D01*
X160561905Y-101901190D01*
X161609524Y-102377381D02*
X161800000Y-102377381D01*
X161895239Y-102329762D01*
X161942858Y-102282143D01*
X162038096Y-102139286D01*
X162085715Y-101948810D01*
X162085715Y-101567857D01*
X162038096Y-101472619D01*
X161990477Y-101425000D01*
X161895239Y-101377381D01*
X161704762Y-101377381D01*
X161609524Y-101425000D01*
X161561905Y-101472619D01*
X161514286Y-101567857D01*
X161514286Y-101805952D01*
X161561905Y-101901190D01*
X161609524Y-101948810D01*
X161704762Y-101996429D01*
X161895239Y-101996429D01*
X161990477Y-101948810D01*
X162038096Y-101901190D01*
X162085715Y-101805952D01*
X157732143Y-67452381D02*
X157398809Y-66976190D01*
X157160714Y-67452381D02*
X157160714Y-66452381D01*
X157541667Y-66452381D01*
X157636905Y-66500000D01*
X157684524Y-66547619D01*
X157732143Y-66642857D01*
X157732143Y-66785714D01*
X157684524Y-66880952D01*
X157636905Y-66928571D01*
X157541667Y-66976190D01*
X157160714Y-66976190D01*
X158684524Y-67452381D02*
X158113095Y-67452381D01*
X158398809Y-67452381D02*
X158398809Y-66452381D01*
X158303571Y-66595238D01*
X158208333Y-66690476D01*
X158113095Y-66738095D01*
X159303571Y-66452381D02*
X159398810Y-66452381D01*
X159494048Y-66500000D01*
X159541667Y-66547619D01*
X159589286Y-66642857D01*
X159636905Y-66833333D01*
X159636905Y-67071429D01*
X159589286Y-67261905D01*
X159541667Y-67357143D01*
X159494048Y-67404762D01*
X159398810Y-67452381D01*
X159303571Y-67452381D01*
X159208333Y-67404762D01*
X159160714Y-67357143D01*
X159113095Y-67261905D01*
X159065476Y-67071429D01*
X159065476Y-66833333D01*
X159113095Y-66642857D01*
X159160714Y-66547619D01*
X159208333Y-66500000D01*
X159303571Y-66452381D01*
X157482143Y-71702381D02*
X157148809Y-71226190D01*
X156910714Y-71702381D02*
X156910714Y-70702381D01*
X157291667Y-70702381D01*
X157386905Y-70750000D01*
X157434524Y-70797619D01*
X157482143Y-70892857D01*
X157482143Y-71035714D01*
X157434524Y-71130952D01*
X157386905Y-71178571D01*
X157291667Y-71226190D01*
X156910714Y-71226190D01*
X158434524Y-71702381D02*
X157863095Y-71702381D01*
X158148809Y-71702381D02*
X158148809Y-70702381D01*
X158053571Y-70845238D01*
X157958333Y-70940476D01*
X157863095Y-70988095D01*
X159386905Y-71702381D02*
X158815476Y-71702381D01*
X159101190Y-71702381D02*
X159101190Y-70702381D01*
X159005952Y-70845238D01*
X158910714Y-70940476D01*
X158815476Y-70988095D01*
X156732143Y-75452381D02*
X156398809Y-74976190D01*
X156160714Y-75452381D02*
X156160714Y-74452381D01*
X156541667Y-74452381D01*
X156636905Y-74500000D01*
X156684524Y-74547619D01*
X156732143Y-74642857D01*
X156732143Y-74785714D01*
X156684524Y-74880952D01*
X156636905Y-74928571D01*
X156541667Y-74976190D01*
X156160714Y-74976190D01*
X157684524Y-75452381D02*
X157113095Y-75452381D01*
X157398809Y-75452381D02*
X157398809Y-74452381D01*
X157303571Y-74595238D01*
X157208333Y-74690476D01*
X157113095Y-74738095D01*
X158065476Y-74547619D02*
X158113095Y-74500000D01*
X158208333Y-74452381D01*
X158446429Y-74452381D01*
X158541667Y-74500000D01*
X158589286Y-74547619D01*
X158636905Y-74642857D01*
X158636905Y-74738095D01*
X158589286Y-74880952D01*
X158017857Y-75452381D01*
X158636905Y-75452381D01*
X157732143Y-79877381D02*
X157398809Y-79401190D01*
X157160714Y-79877381D02*
X157160714Y-78877381D01*
X157541667Y-78877381D01*
X157636905Y-78925000D01*
X157684524Y-78972619D01*
X157732143Y-79067857D01*
X157732143Y-79210714D01*
X157684524Y-79305952D01*
X157636905Y-79353571D01*
X157541667Y-79401190D01*
X157160714Y-79401190D01*
X158684524Y-79877381D02*
X158113095Y-79877381D01*
X158398809Y-79877381D02*
X158398809Y-78877381D01*
X158303571Y-79020238D01*
X158208333Y-79115476D01*
X158113095Y-79163095D01*
X159017857Y-78877381D02*
X159636905Y-78877381D01*
X159303571Y-79258333D01*
X159446429Y-79258333D01*
X159541667Y-79305952D01*
X159589286Y-79353571D01*
X159636905Y-79448810D01*
X159636905Y-79686905D01*
X159589286Y-79782143D01*
X159541667Y-79829762D01*
X159446429Y-79877381D01*
X159160714Y-79877381D01*
X159065476Y-79829762D01*
X159017857Y-79782143D01*
X157732143Y-84077381D02*
X157398809Y-83601190D01*
X157160714Y-84077381D02*
X157160714Y-83077381D01*
X157541667Y-83077381D01*
X157636905Y-83125000D01*
X157684524Y-83172619D01*
X157732143Y-83267857D01*
X157732143Y-83410714D01*
X157684524Y-83505952D01*
X157636905Y-83553571D01*
X157541667Y-83601190D01*
X157160714Y-83601190D01*
X158684524Y-84077381D02*
X158113095Y-84077381D01*
X158398809Y-84077381D02*
X158398809Y-83077381D01*
X158303571Y-83220238D01*
X158208333Y-83315476D01*
X158113095Y-83363095D01*
X159541667Y-83410714D02*
X159541667Y-84077381D01*
X159303571Y-83029762D02*
X159065476Y-83744048D01*
X159684524Y-83744048D01*
X157732143Y-88277381D02*
X157398809Y-87801190D01*
X157160714Y-88277381D02*
X157160714Y-87277381D01*
X157541667Y-87277381D01*
X157636905Y-87325000D01*
X157684524Y-87372619D01*
X157732143Y-87467857D01*
X157732143Y-87610714D01*
X157684524Y-87705952D01*
X157636905Y-87753571D01*
X157541667Y-87801190D01*
X157160714Y-87801190D01*
X158684524Y-88277381D02*
X158113095Y-88277381D01*
X158398809Y-88277381D02*
X158398809Y-87277381D01*
X158303571Y-87420238D01*
X158208333Y-87515476D01*
X158113095Y-87563095D01*
X159589286Y-87277381D02*
X159113095Y-87277381D01*
X159065476Y-87753571D01*
X159113095Y-87705952D01*
X159208333Y-87658333D01*
X159446429Y-87658333D01*
X159541667Y-87705952D01*
X159589286Y-87753571D01*
X159636905Y-87848810D01*
X159636905Y-88086905D01*
X159589286Y-88182143D01*
X159541667Y-88229762D01*
X159446429Y-88277381D01*
X159208333Y-88277381D01*
X159113095Y-88229762D01*
X159065476Y-88182143D01*
X109482143Y-85152381D02*
X109148809Y-84676190D01*
X108910714Y-85152381D02*
X108910714Y-84152381D01*
X109291667Y-84152381D01*
X109386905Y-84200000D01*
X109434524Y-84247619D01*
X109482143Y-84342857D01*
X109482143Y-84485714D01*
X109434524Y-84580952D01*
X109386905Y-84628571D01*
X109291667Y-84676190D01*
X108910714Y-84676190D01*
X110434524Y-85152381D02*
X109863095Y-85152381D01*
X110148809Y-85152381D02*
X110148809Y-84152381D01*
X110053571Y-84295238D01*
X109958333Y-84390476D01*
X109863095Y-84438095D01*
X111291667Y-84152381D02*
X111101190Y-84152381D01*
X111005952Y-84200000D01*
X110958333Y-84247619D01*
X110863095Y-84390476D01*
X110815476Y-84580952D01*
X110815476Y-84961905D01*
X110863095Y-85057143D01*
X110910714Y-85104762D01*
X111005952Y-85152381D01*
X111196429Y-85152381D01*
X111291667Y-85104762D01*
X111339286Y-85057143D01*
X111386905Y-84961905D01*
X111386905Y-84723810D01*
X111339286Y-84628571D01*
X111291667Y-84580952D01*
X111196429Y-84533333D01*
X111005952Y-84533333D01*
X110910714Y-84580952D01*
X110863095Y-84628571D01*
X110815476Y-84723810D01*
X93332143Y-103602381D02*
X92998809Y-103126190D01*
X92760714Y-103602381D02*
X92760714Y-102602381D01*
X93141667Y-102602381D01*
X93236905Y-102650000D01*
X93284524Y-102697619D01*
X93332143Y-102792857D01*
X93332143Y-102935714D01*
X93284524Y-103030952D01*
X93236905Y-103078571D01*
X93141667Y-103126190D01*
X92760714Y-103126190D01*
X94284524Y-103602381D02*
X93713095Y-103602381D01*
X93998809Y-103602381D02*
X93998809Y-102602381D01*
X93903571Y-102745238D01*
X93808333Y-102840476D01*
X93713095Y-102888095D01*
X94855952Y-103030952D02*
X94760714Y-102983333D01*
X94713095Y-102935714D01*
X94665476Y-102840476D01*
X94665476Y-102792857D01*
X94713095Y-102697619D01*
X94760714Y-102650000D01*
X94855952Y-102602381D01*
X95046429Y-102602381D01*
X95141667Y-102650000D01*
X95189286Y-102697619D01*
X95236905Y-102792857D01*
X95236905Y-102840476D01*
X95189286Y-102935714D01*
X95141667Y-102983333D01*
X95046429Y-103030952D01*
X94855952Y-103030952D01*
X94760714Y-103078571D01*
X94713095Y-103126190D01*
X94665476Y-103221429D01*
X94665476Y-103411905D01*
X94713095Y-103507143D01*
X94760714Y-103554762D01*
X94855952Y-103602381D01*
X95046429Y-103602381D01*
X95141667Y-103554762D01*
X95189286Y-103507143D01*
X95236905Y-103411905D01*
X95236905Y-103221429D01*
X95189286Y-103126190D01*
X95141667Y-103078571D01*
X95046429Y-103030952D01*
X103832143Y-103602381D02*
X103498809Y-103126190D01*
X103260714Y-103602381D02*
X103260714Y-102602381D01*
X103641667Y-102602381D01*
X103736905Y-102650000D01*
X103784524Y-102697619D01*
X103832143Y-102792857D01*
X103832143Y-102935714D01*
X103784524Y-103030952D01*
X103736905Y-103078571D01*
X103641667Y-103126190D01*
X103260714Y-103126190D01*
X104784524Y-103602381D02*
X104213095Y-103602381D01*
X104498809Y-103602381D02*
X104498809Y-102602381D01*
X104403571Y-102745238D01*
X104308333Y-102840476D01*
X104213095Y-102888095D01*
X105260714Y-103602381D02*
X105451190Y-103602381D01*
X105546429Y-103554762D01*
X105594048Y-103507143D01*
X105689286Y-103364286D01*
X105736905Y-103173810D01*
X105736905Y-102792857D01*
X105689286Y-102697619D01*
X105641667Y-102650000D01*
X105546429Y-102602381D01*
X105355952Y-102602381D01*
X105260714Y-102650000D01*
X105213095Y-102697619D01*
X105165476Y-102792857D01*
X105165476Y-103030952D01*
X105213095Y-103126190D01*
X105260714Y-103173810D01*
X105355952Y-103221429D01*
X105546429Y-103221429D01*
X105641667Y-103173810D01*
X105689286Y-103126190D01*
X105736905Y-103030952D01*
X137107143Y-95877381D02*
X136773809Y-95401190D01*
X136535714Y-95877381D02*
X136535714Y-94877381D01*
X136916667Y-94877381D01*
X137011905Y-94925000D01*
X137059524Y-94972619D01*
X137107143Y-95067857D01*
X137107143Y-95210714D01*
X137059524Y-95305952D01*
X137011905Y-95353571D01*
X136916667Y-95401190D01*
X136535714Y-95401190D01*
X137488095Y-94972619D02*
X137535714Y-94925000D01*
X137630952Y-94877381D01*
X137869048Y-94877381D01*
X137964286Y-94925000D01*
X138011905Y-94972619D01*
X138059524Y-95067857D01*
X138059524Y-95163095D01*
X138011905Y-95305952D01*
X137440476Y-95877381D01*
X138059524Y-95877381D01*
X138678571Y-94877381D02*
X138773810Y-94877381D01*
X138869048Y-94925000D01*
X138916667Y-94972619D01*
X138964286Y-95067857D01*
X139011905Y-95258333D01*
X139011905Y-95496429D01*
X138964286Y-95686905D01*
X138916667Y-95782143D01*
X138869048Y-95829762D01*
X138773810Y-95877381D01*
X138678571Y-95877381D01*
X138583333Y-95829762D01*
X138535714Y-95782143D01*
X138488095Y-95686905D01*
X138440476Y-95496429D01*
X138440476Y-95258333D01*
X138488095Y-95067857D01*
X138535714Y-94972619D01*
X138583333Y-94925000D01*
X138678571Y-94877381D01*
X130307143Y-99527381D02*
X129973809Y-99051190D01*
X129735714Y-99527381D02*
X129735714Y-98527381D01*
X130116667Y-98527381D01*
X130211905Y-98575000D01*
X130259524Y-98622619D01*
X130307143Y-98717857D01*
X130307143Y-98860714D01*
X130259524Y-98955952D01*
X130211905Y-99003571D01*
X130116667Y-99051190D01*
X129735714Y-99051190D01*
X130688095Y-98622619D02*
X130735714Y-98575000D01*
X130830952Y-98527381D01*
X131069048Y-98527381D01*
X131164286Y-98575000D01*
X131211905Y-98622619D01*
X131259524Y-98717857D01*
X131259524Y-98813095D01*
X131211905Y-98955952D01*
X130640476Y-99527381D01*
X131259524Y-99527381D01*
X132211905Y-99527381D02*
X131640476Y-99527381D01*
X131926190Y-99527381D02*
X131926190Y-98527381D01*
X131830952Y-98670238D01*
X131735714Y-98765476D01*
X131640476Y-98813095D01*
X146432143Y-74777381D02*
X146098809Y-74301190D01*
X145860714Y-74777381D02*
X145860714Y-73777381D01*
X146241667Y-73777381D01*
X146336905Y-73825000D01*
X146384524Y-73872619D01*
X146432143Y-73967857D01*
X146432143Y-74110714D01*
X146384524Y-74205952D01*
X146336905Y-74253571D01*
X146241667Y-74301190D01*
X145860714Y-74301190D01*
X146813095Y-73872619D02*
X146860714Y-73825000D01*
X146955952Y-73777381D01*
X147194048Y-73777381D01*
X147289286Y-73825000D01*
X147336905Y-73872619D01*
X147384524Y-73967857D01*
X147384524Y-74063095D01*
X147336905Y-74205952D01*
X146765476Y-74777381D01*
X147384524Y-74777381D01*
X147765476Y-73872619D02*
X147813095Y-73825000D01*
X147908333Y-73777381D01*
X148146429Y-73777381D01*
X148241667Y-73825000D01*
X148289286Y-73872619D01*
X148336905Y-73967857D01*
X148336905Y-74063095D01*
X148289286Y-74205952D01*
X147717857Y-74777381D01*
X148336905Y-74777381D01*
X134732143Y-85452381D02*
X134398809Y-84976190D01*
X134160714Y-85452381D02*
X134160714Y-84452381D01*
X134541667Y-84452381D01*
X134636905Y-84500000D01*
X134684524Y-84547619D01*
X134732143Y-84642857D01*
X134732143Y-84785714D01*
X134684524Y-84880952D01*
X134636905Y-84928571D01*
X134541667Y-84976190D01*
X134160714Y-84976190D01*
X135113095Y-84547619D02*
X135160714Y-84500000D01*
X135255952Y-84452381D01*
X135494048Y-84452381D01*
X135589286Y-84500000D01*
X135636905Y-84547619D01*
X135684524Y-84642857D01*
X135684524Y-84738095D01*
X135636905Y-84880952D01*
X135065476Y-85452381D01*
X135684524Y-85452381D01*
X136017857Y-84452381D02*
X136636905Y-84452381D01*
X136303571Y-84833333D01*
X136446429Y-84833333D01*
X136541667Y-84880952D01*
X136589286Y-84928571D01*
X136636905Y-85023810D01*
X136636905Y-85261905D01*
X136589286Y-85357143D01*
X136541667Y-85404762D01*
X136446429Y-85452381D01*
X136160714Y-85452381D01*
X136065476Y-85404762D01*
X136017857Y-85357143D01*
X152507143Y-79027381D02*
X152173809Y-78551190D01*
X151935714Y-79027381D02*
X151935714Y-78027381D01*
X152316667Y-78027381D01*
X152411905Y-78075000D01*
X152459524Y-78122619D01*
X152507143Y-78217857D01*
X152507143Y-78360714D01*
X152459524Y-78455952D01*
X152411905Y-78503571D01*
X152316667Y-78551190D01*
X151935714Y-78551190D01*
X152888095Y-78122619D02*
X152935714Y-78075000D01*
X153030952Y-78027381D01*
X153269048Y-78027381D01*
X153364286Y-78075000D01*
X153411905Y-78122619D01*
X153459524Y-78217857D01*
X153459524Y-78313095D01*
X153411905Y-78455952D01*
X152840476Y-79027381D01*
X153459524Y-79027381D01*
X154316667Y-78360714D02*
X154316667Y-79027381D01*
X154078571Y-77979762D02*
X153840476Y-78694048D01*
X154459524Y-78694048D01*
X142082143Y-84452381D02*
X141748809Y-83976190D01*
X141510714Y-84452381D02*
X141510714Y-83452381D01*
X141891667Y-83452381D01*
X141986905Y-83500000D01*
X142034524Y-83547619D01*
X142082143Y-83642857D01*
X142082143Y-83785714D01*
X142034524Y-83880952D01*
X141986905Y-83928571D01*
X141891667Y-83976190D01*
X141510714Y-83976190D01*
X142463095Y-83547619D02*
X142510714Y-83500000D01*
X142605952Y-83452381D01*
X142844048Y-83452381D01*
X142939286Y-83500000D01*
X142986905Y-83547619D01*
X143034524Y-83642857D01*
X143034524Y-83738095D01*
X142986905Y-83880952D01*
X142415476Y-84452381D01*
X143034524Y-84452381D01*
X143939286Y-83452381D02*
X143463095Y-83452381D01*
X143415476Y-83928571D01*
X143463095Y-83880952D01*
X143558333Y-83833333D01*
X143796429Y-83833333D01*
X143891667Y-83880952D01*
X143939286Y-83928571D01*
X143986905Y-84023810D01*
X143986905Y-84261905D01*
X143939286Y-84357143D01*
X143891667Y-84404762D01*
X143796429Y-84452381D01*
X143558333Y-84452381D01*
X143463095Y-84404762D01*
X143415476Y-84357143D01*
X147207143Y-52277381D02*
X146873809Y-51801190D01*
X146635714Y-52277381D02*
X146635714Y-51277381D01*
X147016667Y-51277381D01*
X147111905Y-51325000D01*
X147159524Y-51372619D01*
X147207143Y-51467857D01*
X147207143Y-51610714D01*
X147159524Y-51705952D01*
X147111905Y-51753571D01*
X147016667Y-51801190D01*
X146635714Y-51801190D01*
X147588095Y-51372619D02*
X147635714Y-51325000D01*
X147730952Y-51277381D01*
X147969048Y-51277381D01*
X148064286Y-51325000D01*
X148111905Y-51372619D01*
X148159524Y-51467857D01*
X148159524Y-51563095D01*
X148111905Y-51705952D01*
X147540476Y-52277381D01*
X148159524Y-52277381D01*
X149016667Y-51277381D02*
X148826190Y-51277381D01*
X148730952Y-51325000D01*
X148683333Y-51372619D01*
X148588095Y-51515476D01*
X148540476Y-51705952D01*
X148540476Y-52086905D01*
X148588095Y-52182143D01*
X148635714Y-52229762D01*
X148730952Y-52277381D01*
X148921429Y-52277381D01*
X149016667Y-52229762D01*
X149064286Y-52182143D01*
X149111905Y-52086905D01*
X149111905Y-51848810D01*
X149064286Y-51753571D01*
X149016667Y-51705952D01*
X148921429Y-51658333D01*
X148730952Y-51658333D01*
X148635714Y-51705952D01*
X148588095Y-51753571D01*
X148540476Y-51848810D01*
X147257143Y-54702381D02*
X146923809Y-54226190D01*
X146685714Y-54702381D02*
X146685714Y-53702381D01*
X147066667Y-53702381D01*
X147161905Y-53750000D01*
X147209524Y-53797619D01*
X147257143Y-53892857D01*
X147257143Y-54035714D01*
X147209524Y-54130952D01*
X147161905Y-54178571D01*
X147066667Y-54226190D01*
X146685714Y-54226190D01*
X147638095Y-53797619D02*
X147685714Y-53750000D01*
X147780952Y-53702381D01*
X148019048Y-53702381D01*
X148114286Y-53750000D01*
X148161905Y-53797619D01*
X148209524Y-53892857D01*
X148209524Y-53988095D01*
X148161905Y-54130952D01*
X147590476Y-54702381D01*
X148209524Y-54702381D01*
X148542857Y-53702381D02*
X149209524Y-53702381D01*
X148780952Y-54702381D01*
X152382143Y-82477381D02*
X152048809Y-82001190D01*
X151810714Y-82477381D02*
X151810714Y-81477381D01*
X152191667Y-81477381D01*
X152286905Y-81525000D01*
X152334524Y-81572619D01*
X152382143Y-81667857D01*
X152382143Y-81810714D01*
X152334524Y-81905952D01*
X152286905Y-81953571D01*
X152191667Y-82001190D01*
X151810714Y-82001190D01*
X152763095Y-81572619D02*
X152810714Y-81525000D01*
X152905952Y-81477381D01*
X153144048Y-81477381D01*
X153239286Y-81525000D01*
X153286905Y-81572619D01*
X153334524Y-81667857D01*
X153334524Y-81763095D01*
X153286905Y-81905952D01*
X152715476Y-82477381D01*
X153334524Y-82477381D01*
X153905952Y-81905952D02*
X153810714Y-81858333D01*
X153763095Y-81810714D01*
X153715476Y-81715476D01*
X153715476Y-81667857D01*
X153763095Y-81572619D01*
X153810714Y-81525000D01*
X153905952Y-81477381D01*
X154096429Y-81477381D01*
X154191667Y-81525000D01*
X154239286Y-81572619D01*
X154286905Y-81667857D01*
X154286905Y-81715476D01*
X154239286Y-81810714D01*
X154191667Y-81858333D01*
X154096429Y-81905952D01*
X153905952Y-81905952D01*
X153810714Y-81953571D01*
X153763095Y-82001190D01*
X153715476Y-82096429D01*
X153715476Y-82286905D01*
X153763095Y-82382143D01*
X153810714Y-82429762D01*
X153905952Y-82477381D01*
X154096429Y-82477381D01*
X154191667Y-82429762D01*
X154239286Y-82382143D01*
X154286905Y-82286905D01*
X154286905Y-82096429D01*
X154239286Y-82001190D01*
X154191667Y-81953571D01*
X154096429Y-81905952D01*
X130132143Y-78327381D02*
X129798809Y-77851190D01*
X129560714Y-78327381D02*
X129560714Y-77327381D01*
X129941667Y-77327381D01*
X130036905Y-77375000D01*
X130084524Y-77422619D01*
X130132143Y-77517857D01*
X130132143Y-77660714D01*
X130084524Y-77755952D01*
X130036905Y-77803571D01*
X129941667Y-77851190D01*
X129560714Y-77851190D01*
X130513095Y-77422619D02*
X130560714Y-77375000D01*
X130655952Y-77327381D01*
X130894048Y-77327381D01*
X130989286Y-77375000D01*
X131036905Y-77422619D01*
X131084524Y-77517857D01*
X131084524Y-77613095D01*
X131036905Y-77755952D01*
X130465476Y-78327381D01*
X131084524Y-78327381D01*
X131560714Y-78327381D02*
X131751190Y-78327381D01*
X131846429Y-78279762D01*
X131894048Y-78232143D01*
X131989286Y-78089286D01*
X132036905Y-77898810D01*
X132036905Y-77517857D01*
X131989286Y-77422619D01*
X131941667Y-77375000D01*
X131846429Y-77327381D01*
X131655952Y-77327381D01*
X131560714Y-77375000D01*
X131513095Y-77422619D01*
X131465476Y-77517857D01*
X131465476Y-77755952D01*
X131513095Y-77851190D01*
X131560714Y-77898810D01*
X131655952Y-77946429D01*
X131846429Y-77946429D01*
X131941667Y-77898810D01*
X131989286Y-77851190D01*
X132036905Y-77755952D01*
X155582143Y-100577381D02*
X155248809Y-100101190D01*
X155010714Y-100577381D02*
X155010714Y-99577381D01*
X155391667Y-99577381D01*
X155486905Y-99625000D01*
X155534524Y-99672619D01*
X155582143Y-99767857D01*
X155582143Y-99910714D01*
X155534524Y-100005952D01*
X155486905Y-100053571D01*
X155391667Y-100101190D01*
X155010714Y-100101190D01*
X155915476Y-99577381D02*
X156534524Y-99577381D01*
X156201190Y-99958333D01*
X156344048Y-99958333D01*
X156439286Y-100005952D01*
X156486905Y-100053571D01*
X156534524Y-100148810D01*
X156534524Y-100386905D01*
X156486905Y-100482143D01*
X156439286Y-100529762D01*
X156344048Y-100577381D01*
X156058333Y-100577381D01*
X155963095Y-100529762D01*
X155915476Y-100482143D01*
X156915476Y-99672619D02*
X156963095Y-99625000D01*
X157058333Y-99577381D01*
X157296429Y-99577381D01*
X157391667Y-99625000D01*
X157439286Y-99672619D01*
X157486905Y-99767857D01*
X157486905Y-99863095D01*
X157439286Y-100005952D01*
X156867857Y-100577381D01*
X157486905Y-100577381D01*
X148507143Y-101702381D02*
X148173809Y-101226190D01*
X147935714Y-101702381D02*
X147935714Y-100702381D01*
X148316667Y-100702381D01*
X148411905Y-100750000D01*
X148459524Y-100797619D01*
X148507143Y-100892857D01*
X148507143Y-101035714D01*
X148459524Y-101130952D01*
X148411905Y-101178571D01*
X148316667Y-101226190D01*
X147935714Y-101226190D01*
X148840476Y-100702381D02*
X149459524Y-100702381D01*
X149126190Y-101083333D01*
X149269048Y-101083333D01*
X149364286Y-101130952D01*
X149411905Y-101178571D01*
X149459524Y-101273810D01*
X149459524Y-101511905D01*
X149411905Y-101607143D01*
X149364286Y-101654762D01*
X149269048Y-101702381D01*
X148983333Y-101702381D01*
X148888095Y-101654762D01*
X148840476Y-101607143D01*
X149792857Y-100702381D02*
X150411905Y-100702381D01*
X150078571Y-101083333D01*
X150221429Y-101083333D01*
X150316667Y-101130952D01*
X150364286Y-101178571D01*
X150411905Y-101273810D01*
X150411905Y-101511905D01*
X150364286Y-101607143D01*
X150316667Y-101654762D01*
X150221429Y-101702381D01*
X149935714Y-101702381D01*
X149840476Y-101654762D01*
X149792857Y-101607143D01*
X146607143Y-85552381D02*
X146273809Y-85076190D01*
X146035714Y-85552381D02*
X146035714Y-84552381D01*
X146416667Y-84552381D01*
X146511905Y-84600000D01*
X146559524Y-84647619D01*
X146607143Y-84742857D01*
X146607143Y-84885714D01*
X146559524Y-84980952D01*
X146511905Y-85028571D01*
X146416667Y-85076190D01*
X146035714Y-85076190D01*
X146940476Y-84552381D02*
X147559524Y-84552381D01*
X147226190Y-84933333D01*
X147369048Y-84933333D01*
X147464286Y-84980952D01*
X147511905Y-85028571D01*
X147559524Y-85123810D01*
X147559524Y-85361905D01*
X147511905Y-85457143D01*
X147464286Y-85504762D01*
X147369048Y-85552381D01*
X147083333Y-85552381D01*
X146988095Y-85504762D01*
X146940476Y-85457143D01*
X148178571Y-84552381D02*
X148273810Y-84552381D01*
X148369048Y-84600000D01*
X148416667Y-84647619D01*
X148464286Y-84742857D01*
X148511905Y-84933333D01*
X148511905Y-85171429D01*
X148464286Y-85361905D01*
X148416667Y-85457143D01*
X148369048Y-85504762D01*
X148273810Y-85552381D01*
X148178571Y-85552381D01*
X148083333Y-85504762D01*
X148035714Y-85457143D01*
X147988095Y-85361905D01*
X147940476Y-85171429D01*
X147940476Y-84933333D01*
X147988095Y-84742857D01*
X148035714Y-84647619D01*
X148083333Y-84600000D01*
X148178571Y-84552381D01*
X136257143Y-75152381D02*
X135923809Y-74676190D01*
X135685714Y-75152381D02*
X135685714Y-74152381D01*
X136066667Y-74152381D01*
X136161905Y-74200000D01*
X136209524Y-74247619D01*
X136257143Y-74342857D01*
X136257143Y-74485714D01*
X136209524Y-74580952D01*
X136161905Y-74628571D01*
X136066667Y-74676190D01*
X135685714Y-74676190D01*
X136590476Y-74152381D02*
X137209524Y-74152381D01*
X136876190Y-74533333D01*
X137019048Y-74533333D01*
X137114286Y-74580952D01*
X137161905Y-74628571D01*
X137209524Y-74723810D01*
X137209524Y-74961905D01*
X137161905Y-75057143D01*
X137114286Y-75104762D01*
X137019048Y-75152381D01*
X136733333Y-75152381D01*
X136638095Y-75104762D01*
X136590476Y-75057143D01*
X138161905Y-75152381D02*
X137590476Y-75152381D01*
X137876190Y-75152381D02*
X137876190Y-74152381D01*
X137780952Y-74295238D01*
X137685714Y-74390476D01*
X137590476Y-74438095D01*
X141657143Y-65277381D02*
X141323809Y-64801190D01*
X141085714Y-65277381D02*
X141085714Y-64277381D01*
X141466667Y-64277381D01*
X141561905Y-64325000D01*
X141609524Y-64372619D01*
X141657143Y-64467857D01*
X141657143Y-64610714D01*
X141609524Y-64705952D01*
X141561905Y-64753571D01*
X141466667Y-64801190D01*
X141085714Y-64801190D01*
X141990476Y-64277381D02*
X142609524Y-64277381D01*
X142276190Y-64658333D01*
X142419048Y-64658333D01*
X142514286Y-64705952D01*
X142561905Y-64753571D01*
X142609524Y-64848810D01*
X142609524Y-65086905D01*
X142561905Y-65182143D01*
X142514286Y-65229762D01*
X142419048Y-65277381D01*
X142133333Y-65277381D01*
X142038095Y-65229762D01*
X141990476Y-65182143D01*
X143466667Y-64610714D02*
X143466667Y-65277381D01*
X143228571Y-64229762D02*
X142990476Y-64944048D01*
X143609524Y-64944048D01*
X131182143Y-59102381D02*
X130848809Y-58626190D01*
X130610714Y-59102381D02*
X130610714Y-58102381D01*
X130991667Y-58102381D01*
X131086905Y-58150000D01*
X131134524Y-58197619D01*
X131182143Y-58292857D01*
X131182143Y-58435714D01*
X131134524Y-58530952D01*
X131086905Y-58578571D01*
X130991667Y-58626190D01*
X130610714Y-58626190D01*
X131515476Y-58102381D02*
X132134524Y-58102381D01*
X131801190Y-58483333D01*
X131944048Y-58483333D01*
X132039286Y-58530952D01*
X132086905Y-58578571D01*
X132134524Y-58673810D01*
X132134524Y-58911905D01*
X132086905Y-59007143D01*
X132039286Y-59054762D01*
X131944048Y-59102381D01*
X131658333Y-59102381D01*
X131563095Y-59054762D01*
X131515476Y-59007143D01*
X133039286Y-58102381D02*
X132563095Y-58102381D01*
X132515476Y-58578571D01*
X132563095Y-58530952D01*
X132658333Y-58483333D01*
X132896429Y-58483333D01*
X132991667Y-58530952D01*
X133039286Y-58578571D01*
X133086905Y-58673810D01*
X133086905Y-58911905D01*
X133039286Y-59007143D01*
X132991667Y-59054762D01*
X132896429Y-59102381D01*
X132658333Y-59102381D01*
X132563095Y-59054762D01*
X132515476Y-59007143D01*
X152107143Y-65152381D02*
X151773809Y-64676190D01*
X151535714Y-65152381D02*
X151535714Y-64152381D01*
X151916667Y-64152381D01*
X152011905Y-64200000D01*
X152059524Y-64247619D01*
X152107143Y-64342857D01*
X152107143Y-64485714D01*
X152059524Y-64580952D01*
X152011905Y-64628571D01*
X151916667Y-64676190D01*
X151535714Y-64676190D01*
X152440476Y-64152381D02*
X153059524Y-64152381D01*
X152726190Y-64533333D01*
X152869048Y-64533333D01*
X152964286Y-64580952D01*
X153011905Y-64628571D01*
X153059524Y-64723810D01*
X153059524Y-64961905D01*
X153011905Y-65057143D01*
X152964286Y-65104762D01*
X152869048Y-65152381D01*
X152583333Y-65152381D01*
X152488095Y-65104762D01*
X152440476Y-65057143D01*
X153916667Y-64152381D02*
X153726190Y-64152381D01*
X153630952Y-64200000D01*
X153583333Y-64247619D01*
X153488095Y-64390476D01*
X153440476Y-64580952D01*
X153440476Y-64961905D01*
X153488095Y-65057143D01*
X153535714Y-65104762D01*
X153630952Y-65152381D01*
X153821429Y-65152381D01*
X153916667Y-65104762D01*
X153964286Y-65057143D01*
X154011905Y-64961905D01*
X154011905Y-64723810D01*
X153964286Y-64628571D01*
X153916667Y-64580952D01*
X153821429Y-64533333D01*
X153630952Y-64533333D01*
X153535714Y-64580952D01*
X153488095Y-64628571D01*
X153440476Y-64723810D01*
X136707143Y-57152381D02*
X136373809Y-56676190D01*
X136135714Y-57152381D02*
X136135714Y-56152381D01*
X136516667Y-56152381D01*
X136611905Y-56200000D01*
X136659524Y-56247619D01*
X136707143Y-56342857D01*
X136707143Y-56485714D01*
X136659524Y-56580952D01*
X136611905Y-56628571D01*
X136516667Y-56676190D01*
X136135714Y-56676190D01*
X137040476Y-56152381D02*
X137659524Y-56152381D01*
X137326190Y-56533333D01*
X137469048Y-56533333D01*
X137564286Y-56580952D01*
X137611905Y-56628571D01*
X137659524Y-56723810D01*
X137659524Y-56961905D01*
X137611905Y-57057143D01*
X137564286Y-57104762D01*
X137469048Y-57152381D01*
X137183333Y-57152381D01*
X137088095Y-57104762D01*
X137040476Y-57057143D01*
X137992857Y-56152381D02*
X138659524Y-56152381D01*
X138230952Y-57152381D01*
X155977381Y-60217857D02*
X155501190Y-60551191D01*
X155977381Y-60789286D02*
X154977381Y-60789286D01*
X154977381Y-60408333D01*
X155025000Y-60313095D01*
X155072619Y-60265476D01*
X155167857Y-60217857D01*
X155310714Y-60217857D01*
X155405952Y-60265476D01*
X155453571Y-60313095D01*
X155501190Y-60408333D01*
X155501190Y-60789286D01*
X154977381Y-59884524D02*
X154977381Y-59265476D01*
X155358333Y-59598810D01*
X155358333Y-59455952D01*
X155405952Y-59360714D01*
X155453571Y-59313095D01*
X155548810Y-59265476D01*
X155786905Y-59265476D01*
X155882143Y-59313095D01*
X155929762Y-59360714D01*
X155977381Y-59455952D01*
X155977381Y-59741667D01*
X155929762Y-59836905D01*
X155882143Y-59884524D01*
X155405952Y-58694048D02*
X155358333Y-58789286D01*
X155310714Y-58836905D01*
X155215476Y-58884524D01*
X155167857Y-58884524D01*
X155072619Y-58836905D01*
X155025000Y-58789286D01*
X154977381Y-58694048D01*
X154977381Y-58503571D01*
X155025000Y-58408333D01*
X155072619Y-58360714D01*
X155167857Y-58313095D01*
X155215476Y-58313095D01*
X155310714Y-58360714D01*
X155358333Y-58408333D01*
X155405952Y-58503571D01*
X155405952Y-58694048D01*
X155453571Y-58789286D01*
X155501190Y-58836905D01*
X155596429Y-58884524D01*
X155786905Y-58884524D01*
X155882143Y-58836905D01*
X155929762Y-58789286D01*
X155977381Y-58694048D01*
X155977381Y-58503571D01*
X155929762Y-58408333D01*
X155882143Y-58360714D01*
X155786905Y-58313095D01*
X155596429Y-58313095D01*
X155501190Y-58360714D01*
X155453571Y-58408333D01*
X155405952Y-58503571D01*
X134007143Y-64677381D02*
X133673809Y-64201190D01*
X133435714Y-64677381D02*
X133435714Y-63677381D01*
X133816667Y-63677381D01*
X133911905Y-63725000D01*
X133959524Y-63772619D01*
X134007143Y-63867857D01*
X134007143Y-64010714D01*
X133959524Y-64105952D01*
X133911905Y-64153571D01*
X133816667Y-64201190D01*
X133435714Y-64201190D01*
X134340476Y-63677381D02*
X134959524Y-63677381D01*
X134626190Y-64058333D01*
X134769048Y-64058333D01*
X134864286Y-64105952D01*
X134911905Y-64153571D01*
X134959524Y-64248810D01*
X134959524Y-64486905D01*
X134911905Y-64582143D01*
X134864286Y-64629762D01*
X134769048Y-64677381D01*
X134483333Y-64677381D01*
X134388095Y-64629762D01*
X134340476Y-64582143D01*
X135435714Y-64677381D02*
X135626190Y-64677381D01*
X135721429Y-64629762D01*
X135769048Y-64582143D01*
X135864286Y-64439286D01*
X135911905Y-64248810D01*
X135911905Y-63867857D01*
X135864286Y-63772619D01*
X135816667Y-63725000D01*
X135721429Y-63677381D01*
X135530952Y-63677381D01*
X135435714Y-63725000D01*
X135388095Y-63772619D01*
X135340476Y-63867857D01*
X135340476Y-64105952D01*
X135388095Y-64201190D01*
X135435714Y-64248810D01*
X135530952Y-64296429D01*
X135721429Y-64296429D01*
X135816667Y-64248810D01*
X135864286Y-64201190D01*
X135911905Y-64105952D01*
X149032143Y-56202381D02*
X148698809Y-55726190D01*
X148460714Y-56202381D02*
X148460714Y-55202381D01*
X148841667Y-55202381D01*
X148936905Y-55250000D01*
X148984524Y-55297619D01*
X149032143Y-55392857D01*
X149032143Y-55535714D01*
X148984524Y-55630952D01*
X148936905Y-55678571D01*
X148841667Y-55726190D01*
X148460714Y-55726190D01*
X149889286Y-55535714D02*
X149889286Y-56202381D01*
X149651190Y-55154762D02*
X149413095Y-55869048D01*
X150032143Y-55869048D01*
X150603571Y-55202381D02*
X150698810Y-55202381D01*
X150794048Y-55250000D01*
X150841667Y-55297619D01*
X150889286Y-55392857D01*
X150936905Y-55583333D01*
X150936905Y-55821429D01*
X150889286Y-56011905D01*
X150841667Y-56107143D01*
X150794048Y-56154762D01*
X150698810Y-56202381D01*
X150603571Y-56202381D01*
X150508333Y-56154762D01*
X150460714Y-56107143D01*
X150413095Y-56011905D01*
X150365476Y-55821429D01*
X150365476Y-55583333D01*
X150413095Y-55392857D01*
X150460714Y-55297619D01*
X150508333Y-55250000D01*
X150603571Y-55202381D01*
X137807143Y-65927381D02*
X137473809Y-65451190D01*
X137235714Y-65927381D02*
X137235714Y-64927381D01*
X137616667Y-64927381D01*
X137711905Y-64975000D01*
X137759524Y-65022619D01*
X137807143Y-65117857D01*
X137807143Y-65260714D01*
X137759524Y-65355952D01*
X137711905Y-65403571D01*
X137616667Y-65451190D01*
X137235714Y-65451190D01*
X138664286Y-65260714D02*
X138664286Y-65927381D01*
X138426190Y-64879762D02*
X138188095Y-65594048D01*
X138807143Y-65594048D01*
X139711905Y-65927381D02*
X139140476Y-65927381D01*
X139426190Y-65927381D02*
X139426190Y-64927381D01*
X139330952Y-65070238D01*
X139235714Y-65165476D01*
X139140476Y-65213095D01*
X86413095Y-99102381D02*
X86413095Y-99911905D01*
X86460714Y-100007143D01*
X86508333Y-100054762D01*
X86603571Y-100102381D01*
X86794048Y-100102381D01*
X86889286Y-100054762D01*
X86936905Y-100007143D01*
X86984524Y-99911905D01*
X86984524Y-99102381D01*
X87984524Y-100102381D02*
X87413095Y-100102381D01*
X87698809Y-100102381D02*
X87698809Y-99102381D01*
X87603571Y-99245238D01*
X87508333Y-99340476D01*
X87413095Y-99388095D01*
X113789035Y-80177781D02*
X113789035Y-80987305D01*
X113836654Y-81082543D01*
X113884273Y-81130162D01*
X113979511Y-81177781D01*
X114169988Y-81177781D01*
X114265226Y-81130162D01*
X114312845Y-81082543D01*
X114360464Y-80987305D01*
X114360464Y-80177781D01*
X114789035Y-80273019D02*
X114836654Y-80225400D01*
X114931892Y-80177781D01*
X115169988Y-80177781D01*
X115265226Y-80225400D01*
X115312845Y-80273019D01*
X115360464Y-80368257D01*
X115360464Y-80463495D01*
X115312845Y-80606352D01*
X114741416Y-81177781D01*
X115360464Y-81177781D01*
X119435714Y-93362857D02*
X119435714Y-94334286D01*
X119492857Y-94448571D01*
X119550000Y-94505714D01*
X119664286Y-94562857D01*
X119892857Y-94562857D01*
X120007143Y-94505714D01*
X120064286Y-94448571D01*
X120121429Y-94334286D01*
X120121429Y-93362857D01*
X120578572Y-93362857D02*
X121321429Y-93362857D01*
X120921429Y-93820000D01*
X121092857Y-93820000D01*
X121207143Y-93877143D01*
X121264286Y-93934286D01*
X121321429Y-94048571D01*
X121321429Y-94334286D01*
X121264286Y-94448571D01*
X121207143Y-94505714D01*
X121092857Y-94562857D01*
X120750000Y-94562857D01*
X120635714Y-94505714D01*
X120578572Y-94448571D01*
X141063095Y-75877381D02*
X141063095Y-76686905D01*
X141110714Y-76782143D01*
X141158333Y-76829762D01*
X141253571Y-76877381D01*
X141444048Y-76877381D01*
X141539286Y-76829762D01*
X141586905Y-76782143D01*
X141634524Y-76686905D01*
X141634524Y-75877381D01*
X142539286Y-75877381D02*
X142348809Y-75877381D01*
X142253571Y-75925000D01*
X142205952Y-75972619D01*
X142110714Y-76115476D01*
X142063095Y-76305952D01*
X142063095Y-76686905D01*
X142110714Y-76782143D01*
X142158333Y-76829762D01*
X142253571Y-76877381D01*
X142444048Y-76877381D01*
X142539286Y-76829762D01*
X142586905Y-76782143D01*
X142634524Y-76686905D01*
X142634524Y-76448810D01*
X142586905Y-76353571D01*
X142539286Y-76305952D01*
X142444048Y-76258333D01*
X142253571Y-76258333D01*
X142158333Y-76305952D01*
X142110714Y-76353571D01*
X142063095Y-76448810D01*
X142338095Y-94577381D02*
X142338095Y-95386905D01*
X142385714Y-95482143D01*
X142433333Y-95529762D01*
X142528571Y-95577381D01*
X142719048Y-95577381D01*
X142814286Y-95529762D01*
X142861905Y-95482143D01*
X142909524Y-95386905D01*
X142909524Y-94577381D01*
X143290476Y-94577381D02*
X143957143Y-94577381D01*
X143528571Y-95577381D01*
X143763095Y-61877381D02*
X143763095Y-62686905D01*
X143810714Y-62782143D01*
X143858333Y-62829762D01*
X143953571Y-62877381D01*
X144144048Y-62877381D01*
X144239286Y-62829762D01*
X144286905Y-62782143D01*
X144334524Y-62686905D01*
X144334524Y-61877381D01*
X144953571Y-62305952D02*
X144858333Y-62258333D01*
X144810714Y-62210714D01*
X144763095Y-62115476D01*
X144763095Y-62067857D01*
X144810714Y-61972619D01*
X144858333Y-61925000D01*
X144953571Y-61877381D01*
X145144048Y-61877381D01*
X145239286Y-61925000D01*
X145286905Y-61972619D01*
X145334524Y-62067857D01*
X145334524Y-62115476D01*
X145286905Y-62210714D01*
X145239286Y-62258333D01*
X145144048Y-62305952D01*
X144953571Y-62305952D01*
X144858333Y-62353571D01*
X144810714Y-62401190D01*
X144763095Y-62496429D01*
X144763095Y-62686905D01*
X144810714Y-62782143D01*
X144858333Y-62829762D01*
X144953571Y-62877381D01*
X145144048Y-62877381D01*
X145239286Y-62829762D01*
X145286905Y-62782143D01*
X145334524Y-62686905D01*
X145334524Y-62496429D01*
X145286905Y-62401190D01*
X145239286Y-62353571D01*
X145144048Y-62305952D01*
X101148809Y-60726190D02*
X101148809Y-61202381D01*
X100815476Y-60202381D02*
X101148809Y-60726190D01*
X101482143Y-60202381D01*
X102339286Y-61202381D02*
X101767857Y-61202381D01*
X102053571Y-61202381D02*
X102053571Y-60202381D01*
X101958333Y-60345238D01*
X101863095Y-60440476D01*
X101767857Y-60488095D01*
X113353571Y-64428571D02*
X113686905Y-64428571D01*
X113829762Y-64952381D02*
X113353571Y-64952381D01*
X113353571Y-63952381D01*
X113829762Y-63952381D01*
X114829762Y-64952381D02*
X114496428Y-64476190D01*
X114258333Y-64952381D02*
X114258333Y-63952381D01*
X114639286Y-63952381D01*
X114734524Y-64000000D01*
X114782143Y-64047619D01*
X114829762Y-64142857D01*
X114829762Y-64285714D01*
X114782143Y-64380952D01*
X114734524Y-64428571D01*
X114639286Y-64476190D01*
X114258333Y-64476190D01*
X115210714Y-64666667D02*
X115686905Y-64666667D01*
X115115476Y-64952381D02*
X115448809Y-63952381D01*
X115782143Y-64952381D01*
X116067857Y-64904762D02*
X116210714Y-64952381D01*
X116448810Y-64952381D01*
X116544048Y-64904762D01*
X116591667Y-64857143D01*
X116639286Y-64761905D01*
X116639286Y-64666667D01*
X116591667Y-64571429D01*
X116544048Y-64523810D01*
X116448810Y-64476190D01*
X116258333Y-64428571D01*
X116163095Y-64380952D01*
X116115476Y-64333333D01*
X116067857Y-64238095D01*
X116067857Y-64142857D01*
X116115476Y-64047619D01*
X116163095Y-64000000D01*
X116258333Y-63952381D01*
X116496429Y-63952381D01*
X116639286Y-64000000D01*
X117067857Y-64428571D02*
X117401191Y-64428571D01*
X117544048Y-64952381D02*
X117067857Y-64952381D01*
X117067857Y-63952381D01*
X117544048Y-63952381D01*
X122063095Y-81552381D02*
X122063095Y-82361905D01*
X122110714Y-82457143D01*
X122158333Y-82504762D01*
X122253571Y-82552381D01*
X122444048Y-82552381D01*
X122539286Y-82504762D01*
X122586905Y-82457143D01*
X122634524Y-82361905D01*
X122634524Y-81552381D01*
X123586905Y-81552381D02*
X123110714Y-81552381D01*
X123063095Y-82028571D01*
X123110714Y-81980952D01*
X123205952Y-81933333D01*
X123444048Y-81933333D01*
X123539286Y-81980952D01*
X123586905Y-82028571D01*
X123634524Y-82123810D01*
X123634524Y-82361905D01*
X123586905Y-82457143D01*
X123539286Y-82504762D01*
X123444048Y-82552381D01*
X123205952Y-82552381D01*
X123110714Y-82504762D01*
X123063095Y-82457143D01*
X107736905Y-109850000D02*
X107641667Y-109802381D01*
X107498810Y-109802381D01*
X107355952Y-109850000D01*
X107260714Y-109945238D01*
X107213095Y-110040476D01*
X107165476Y-110230952D01*
X107165476Y-110373810D01*
X107213095Y-110564286D01*
X107260714Y-110659524D01*
X107355952Y-110754762D01*
X107498810Y-110802381D01*
X107594048Y-110802381D01*
X107736905Y-110754762D01*
X107784524Y-110707143D01*
X107784524Y-110373810D01*
X107594048Y-110373810D01*
X108213095Y-110802381D02*
X108213095Y-109802381D01*
X108784524Y-110802381D01*
X108784524Y-109802381D01*
X109260714Y-110802381D02*
X109260714Y-109802381D01*
X109498809Y-109802381D01*
X109641667Y-109850000D01*
X109736905Y-109945238D01*
X109784524Y-110040476D01*
X109832143Y-110230952D01*
X109832143Y-110373810D01*
X109784524Y-110564286D01*
X109736905Y-110659524D01*
X109641667Y-110754762D01*
X109498809Y-110802381D01*
X109260714Y-110802381D01*
X110784524Y-110802381D02*
X110213095Y-110802381D01*
X110498809Y-110802381D02*
X110498809Y-109802381D01*
X110403571Y-109945238D01*
X110308333Y-110040476D01*
X110213095Y-110088095D01*
X132708334Y-105357143D02*
X132660715Y-105404762D01*
X132517858Y-105452381D01*
X132422620Y-105452381D01*
X132279762Y-105404762D01*
X132184524Y-105309524D01*
X132136905Y-105214286D01*
X132089286Y-105023810D01*
X132089286Y-104880952D01*
X132136905Y-104690476D01*
X132184524Y-104595238D01*
X132279762Y-104500000D01*
X132422620Y-104452381D01*
X132517858Y-104452381D01*
X132660715Y-104500000D01*
X132708334Y-104547619D01*
X133565477Y-104785714D02*
X133565477Y-105452381D01*
X133327381Y-104404762D02*
X133089286Y-105119048D01*
X133708334Y-105119048D01*
X113708334Y-109357143D02*
X113660715Y-109404762D01*
X113517858Y-109452381D01*
X113422620Y-109452381D01*
X113279762Y-109404762D01*
X113184524Y-109309524D01*
X113136905Y-109214286D01*
X113089286Y-109023810D01*
X113089286Y-108880952D01*
X113136905Y-108690476D01*
X113184524Y-108595238D01*
X113279762Y-108500000D01*
X113422620Y-108452381D01*
X113517858Y-108452381D01*
X113660715Y-108500000D01*
X113708334Y-108547619D01*
X114613096Y-108452381D02*
X114136905Y-108452381D01*
X114089286Y-108928571D01*
X114136905Y-108880952D01*
X114232143Y-108833333D01*
X114470239Y-108833333D01*
X114565477Y-108880952D01*
X114613096Y-108928571D01*
X114660715Y-109023810D01*
X114660715Y-109261905D01*
X114613096Y-109357143D01*
X114565477Y-109404762D01*
X114470239Y-109452381D01*
X114232143Y-109452381D01*
X114136905Y-109404762D01*
X114089286Y-109357143D01*
X112708334Y-99357143D02*
X112660715Y-99404762D01*
X112517858Y-99452381D01*
X112422620Y-99452381D01*
X112279762Y-99404762D01*
X112184524Y-99309524D01*
X112136905Y-99214286D01*
X112089286Y-99023810D01*
X112089286Y-98880952D01*
X112136905Y-98690476D01*
X112184524Y-98595238D01*
X112279762Y-98500000D01*
X112422620Y-98452381D01*
X112517858Y-98452381D01*
X112660715Y-98500000D01*
X112708334Y-98547619D01*
X113041667Y-98452381D02*
X113660715Y-98452381D01*
X113327381Y-98833333D01*
X113470239Y-98833333D01*
X113565477Y-98880952D01*
X113613096Y-98928571D01*
X113660715Y-99023810D01*
X113660715Y-99261905D01*
X113613096Y-99357143D01*
X113565477Y-99404762D01*
X113470239Y-99452381D01*
X113184524Y-99452381D01*
X113089286Y-99404762D01*
X113041667Y-99357143D01*
X92758334Y-71627381D02*
X92282143Y-71627381D01*
X92282143Y-70627381D01*
X93615477Y-71627381D02*
X93044048Y-71627381D01*
X93329762Y-71627381D02*
X93329762Y-70627381D01*
X93234524Y-70770238D01*
X93139286Y-70865476D01*
X93044048Y-70913095D01*
M02*
