G04 #@! TF.FileFunction,Legend,Bot*
%FSLAX46Y46*%
G04 Gerber Fmt 4.6, Leading zero omitted, Abs format (unit mm)*
G04 Created by KiCad (PCBNEW 4.0.1-stable) date 17/04/2016 20:33:25*
%MOMM*%
G01*
G04 APERTURE LIST*
%ADD10C,0.100000*%
%ADD11C,0.300000*%
G04 APERTURE END LIST*
D10*
D11*
X133253570Y-105078571D02*
X133967856Y-105078571D01*
X133967856Y-103578571D01*
X132824999Y-104650000D02*
X132110713Y-104650000D01*
X132967856Y-105078571D02*
X132467856Y-103578571D01*
X131967856Y-105078571D01*
X131539285Y-105007143D02*
X131324999Y-105078571D01*
X130967856Y-105078571D01*
X130824999Y-105007143D01*
X130753570Y-104935714D01*
X130682142Y-104792857D01*
X130682142Y-104650000D01*
X130753570Y-104507143D01*
X130824999Y-104435714D01*
X130967856Y-104364286D01*
X131253570Y-104292857D01*
X131396428Y-104221429D01*
X131467856Y-104150000D01*
X131539285Y-104007143D01*
X131539285Y-103864286D01*
X131467856Y-103721429D01*
X131396428Y-103650000D01*
X131253570Y-103578571D01*
X130896428Y-103578571D01*
X130682142Y-103650000D01*
X130039285Y-105078571D02*
X130039285Y-103578571D01*
X129682142Y-103578571D01*
X129467857Y-103650000D01*
X129324999Y-103792857D01*
X129253571Y-103935714D01*
X129182142Y-104221429D01*
X129182142Y-104435714D01*
X129253571Y-104721429D01*
X129324999Y-104864286D01*
X129467857Y-105007143D01*
X129682142Y-105078571D01*
X130039285Y-105078571D01*
X128610714Y-104650000D02*
X127896428Y-104650000D01*
X128753571Y-105078571D02*
X128253571Y-103578571D01*
X127753571Y-105078571D01*
X126396428Y-104935714D02*
X126467857Y-105007143D01*
X126682143Y-105078571D01*
X126825000Y-105078571D01*
X127039285Y-105007143D01*
X127182143Y-104864286D01*
X127253571Y-104721429D01*
X127325000Y-104435714D01*
X127325000Y-104221429D01*
X127253571Y-103935714D01*
X127182143Y-103792857D01*
X127039285Y-103650000D01*
X126825000Y-103578571D01*
X126682143Y-103578571D01*
X126467857Y-103650000D01*
X126396428Y-103721429D01*
X125325000Y-105650000D02*
X125396428Y-105578571D01*
X125539285Y-105364286D01*
X125610714Y-105221429D01*
X125682143Y-105007143D01*
X125753571Y-104650000D01*
X125753571Y-104364286D01*
X125682143Y-104007143D01*
X125610714Y-103792857D01*
X125539285Y-103650000D01*
X125396428Y-103435714D01*
X125325000Y-103364286D01*
X124896428Y-103578571D02*
X124539285Y-105078571D01*
X124253571Y-104007143D01*
X123967857Y-105078571D01*
X123610714Y-103578571D01*
X123039285Y-105078571D02*
X123039285Y-103578571D01*
X122324999Y-105078571D02*
X122324999Y-103578571D01*
X121753571Y-103578571D01*
X121610713Y-103650000D01*
X121539285Y-103721429D01*
X121467856Y-103864286D01*
X121467856Y-104078571D01*
X121539285Y-104221429D01*
X121610713Y-104292857D01*
X121753571Y-104364286D01*
X122324999Y-104364286D01*
X120967856Y-105650000D02*
X120896428Y-105578571D01*
X120753571Y-105364286D01*
X120682142Y-105221429D01*
X120610713Y-105007143D01*
X120539285Y-104650000D01*
X120539285Y-104364286D01*
X120610713Y-104007143D01*
X120682142Y-103792857D01*
X120753571Y-103650000D01*
X120896428Y-103435714D01*
X120967856Y-103364286D01*
X118824999Y-104078571D02*
X118467856Y-105078571D01*
X118110714Y-104078571D01*
X117539285Y-104935714D02*
X117467857Y-105007143D01*
X117539285Y-105078571D01*
X117610714Y-105007143D01*
X117539285Y-104935714D01*
X117539285Y-105078571D01*
X116539285Y-103578571D02*
X116396428Y-103578571D01*
X116253571Y-103650000D01*
X116182142Y-103721429D01*
X116110713Y-103864286D01*
X116039285Y-104150000D01*
X116039285Y-104507143D01*
X116110713Y-104792857D01*
X116182142Y-104935714D01*
X116253571Y-105007143D01*
X116396428Y-105078571D01*
X116539285Y-105078571D01*
X116682142Y-105007143D01*
X116753571Y-104935714D01*
X116824999Y-104792857D01*
X116896428Y-104507143D01*
X116896428Y-104150000D01*
X116824999Y-103864286D01*
X116753571Y-103721429D01*
X116682142Y-103650000D01*
X116539285Y-103578571D01*
X114610714Y-105078571D02*
X115467857Y-105078571D01*
X115039285Y-105078571D02*
X115039285Y-103578571D01*
X115182142Y-103792857D01*
X115325000Y-103935714D01*
X115467857Y-104007143D01*
X130110713Y-105978571D02*
X129967856Y-105978571D01*
X129824999Y-106050000D01*
X129753570Y-106121429D01*
X129682141Y-106264286D01*
X129610713Y-106550000D01*
X129610713Y-106907143D01*
X129682141Y-107192857D01*
X129753570Y-107335714D01*
X129824999Y-107407143D01*
X129967856Y-107478571D01*
X130110713Y-107478571D01*
X130253570Y-107407143D01*
X130324999Y-107335714D01*
X130396427Y-107192857D01*
X130467856Y-106907143D01*
X130467856Y-106550000D01*
X130396427Y-106264286D01*
X130324999Y-106121429D01*
X130253570Y-106050000D01*
X130110713Y-105978571D01*
X128253570Y-105978571D02*
X128967856Y-105978571D01*
X129039285Y-106692857D01*
X128967856Y-106621429D01*
X128824999Y-106550000D01*
X128467856Y-106550000D01*
X128324999Y-106621429D01*
X128253570Y-106692857D01*
X128182142Y-106835714D01*
X128182142Y-107192857D01*
X128253570Y-107335714D01*
X128324999Y-107407143D01*
X128467856Y-107478571D01*
X128824999Y-107478571D01*
X128967856Y-107407143D01*
X129039285Y-107335714D01*
X127539285Y-107335714D02*
X127467857Y-107407143D01*
X127539285Y-107478571D01*
X127610714Y-107407143D01*
X127539285Y-107335714D01*
X127539285Y-107478571D01*
X126539285Y-105978571D02*
X126396428Y-105978571D01*
X126253571Y-106050000D01*
X126182142Y-106121429D01*
X126110713Y-106264286D01*
X126039285Y-106550000D01*
X126039285Y-106907143D01*
X126110713Y-107192857D01*
X126182142Y-107335714D01*
X126253571Y-107407143D01*
X126396428Y-107478571D01*
X126539285Y-107478571D01*
X126682142Y-107407143D01*
X126753571Y-107335714D01*
X126824999Y-107192857D01*
X126896428Y-106907143D01*
X126896428Y-106550000D01*
X126824999Y-106264286D01*
X126753571Y-106121429D01*
X126682142Y-106050000D01*
X126539285Y-105978571D01*
X124753571Y-106478571D02*
X124753571Y-107478571D01*
X125110714Y-105907143D02*
X125467857Y-106978571D01*
X124539285Y-106978571D01*
X123967857Y-107335714D02*
X123896429Y-107407143D01*
X123967857Y-107478571D01*
X124039286Y-107407143D01*
X123967857Y-107335714D01*
X123967857Y-107478571D01*
X123325000Y-106121429D02*
X123253571Y-106050000D01*
X123110714Y-105978571D01*
X122753571Y-105978571D01*
X122610714Y-106050000D01*
X122539285Y-106121429D01*
X122467857Y-106264286D01*
X122467857Y-106407143D01*
X122539285Y-106621429D01*
X123396428Y-107478571D01*
X122467857Y-107478571D01*
X121539286Y-105978571D02*
X121396429Y-105978571D01*
X121253572Y-106050000D01*
X121182143Y-106121429D01*
X121110714Y-106264286D01*
X121039286Y-106550000D01*
X121039286Y-106907143D01*
X121110714Y-107192857D01*
X121182143Y-107335714D01*
X121253572Y-107407143D01*
X121396429Y-107478571D01*
X121539286Y-107478571D01*
X121682143Y-107407143D01*
X121753572Y-107335714D01*
X121825000Y-107192857D01*
X121896429Y-106907143D01*
X121896429Y-106550000D01*
X121825000Y-106264286D01*
X121753572Y-106121429D01*
X121682143Y-106050000D01*
X121539286Y-105978571D01*
X119610715Y-107478571D02*
X120467858Y-107478571D01*
X120039286Y-107478571D02*
X120039286Y-105978571D01*
X120182143Y-106192857D01*
X120325001Y-106335714D01*
X120467858Y-106407143D01*
X118325001Y-105978571D02*
X118610715Y-105978571D01*
X118753572Y-106050000D01*
X118825001Y-106121429D01*
X118967858Y-106335714D01*
X119039287Y-106621429D01*
X119039287Y-107192857D01*
X118967858Y-107335714D01*
X118896430Y-107407143D01*
X118753572Y-107478571D01*
X118467858Y-107478571D01*
X118325001Y-107407143D01*
X118253572Y-107335714D01*
X118182144Y-107192857D01*
X118182144Y-106835714D01*
X118253572Y-106692857D01*
X118325001Y-106621429D01*
X118467858Y-106550000D01*
X118753572Y-106550000D01*
X118896430Y-106621429D01*
X118967858Y-106692857D01*
X119039287Y-106835714D01*
X135360715Y-108378571D02*
X134503572Y-108378571D01*
X134932143Y-109878571D02*
X134932143Y-108378571D01*
X134003572Y-109878571D02*
X134003572Y-108378571D01*
X133360715Y-109878571D02*
X133360715Y-109092857D01*
X133432144Y-108950000D01*
X133575001Y-108878571D01*
X133789286Y-108878571D01*
X133932144Y-108950000D01*
X134003572Y-109021429D01*
X132432143Y-109878571D02*
X132575001Y-109807143D01*
X132646429Y-109735714D01*
X132717858Y-109592857D01*
X132717858Y-109164286D01*
X132646429Y-109021429D01*
X132575001Y-108950000D01*
X132432143Y-108878571D01*
X132217858Y-108878571D01*
X132075001Y-108950000D01*
X132003572Y-109021429D01*
X131932143Y-109164286D01*
X131932143Y-109592857D01*
X132003572Y-109735714D01*
X132075001Y-109807143D01*
X132217858Y-109878571D01*
X132432143Y-109878571D01*
X131289286Y-109878571D02*
X131289286Y-108878571D01*
X131289286Y-109021429D02*
X131217858Y-108950000D01*
X131075000Y-108878571D01*
X130860715Y-108878571D01*
X130717858Y-108950000D01*
X130646429Y-109092857D01*
X130646429Y-109878571D01*
X130646429Y-109092857D02*
X130575000Y-108950000D01*
X130432143Y-108878571D01*
X130217858Y-108878571D01*
X130075000Y-108950000D01*
X130003572Y-109092857D01*
X130003572Y-109878571D01*
X128646429Y-109878571D02*
X128646429Y-109092857D01*
X128717858Y-108950000D01*
X128860715Y-108878571D01*
X129146429Y-108878571D01*
X129289286Y-108950000D01*
X128646429Y-109807143D02*
X128789286Y-109878571D01*
X129146429Y-109878571D01*
X129289286Y-109807143D01*
X129360715Y-109664286D01*
X129360715Y-109521429D01*
X129289286Y-109378571D01*
X129146429Y-109307143D01*
X128789286Y-109307143D01*
X128646429Y-109235714D01*
X128003572Y-109807143D02*
X127860715Y-109878571D01*
X127575000Y-109878571D01*
X127432143Y-109807143D01*
X127360715Y-109664286D01*
X127360715Y-109592857D01*
X127432143Y-109450000D01*
X127575000Y-109378571D01*
X127789286Y-109378571D01*
X127932143Y-109307143D01*
X128003572Y-109164286D01*
X128003572Y-109092857D01*
X127932143Y-108950000D01*
X127789286Y-108878571D01*
X127575000Y-108878571D01*
X127432143Y-108950000D01*
X124860714Y-109878571D02*
X125575000Y-109878571D01*
X125575000Y-108378571D01*
X123217857Y-109878571D02*
X123217857Y-108378571D01*
X123217857Y-109092857D02*
X122360714Y-109092857D01*
X122360714Y-109878571D02*
X122360714Y-108378571D01*
X121075000Y-109807143D02*
X121217857Y-109878571D01*
X121503571Y-109878571D01*
X121646428Y-109807143D01*
X121717857Y-109664286D01*
X121717857Y-109092857D01*
X121646428Y-108950000D01*
X121503571Y-108878571D01*
X121217857Y-108878571D01*
X121075000Y-108950000D01*
X121003571Y-109092857D01*
X121003571Y-109235714D01*
X121717857Y-109378571D01*
X119717857Y-108878571D02*
X119717857Y-110092857D01*
X119789286Y-110235714D01*
X119860714Y-110307143D01*
X120003571Y-110378571D01*
X120217857Y-110378571D01*
X120360714Y-110307143D01*
X119717857Y-109807143D02*
X119860714Y-109878571D01*
X120146428Y-109878571D01*
X120289286Y-109807143D01*
X120360714Y-109735714D01*
X120432143Y-109592857D01*
X120432143Y-109164286D01*
X120360714Y-109021429D01*
X120289286Y-108950000D01*
X120146428Y-108878571D01*
X119860714Y-108878571D01*
X119717857Y-108950000D01*
X118360714Y-108878571D02*
X118360714Y-110092857D01*
X118432143Y-110235714D01*
X118503571Y-110307143D01*
X118646428Y-110378571D01*
X118860714Y-110378571D01*
X119003571Y-110307143D01*
X118360714Y-109807143D02*
X118503571Y-109878571D01*
X118789285Y-109878571D01*
X118932143Y-109807143D01*
X119003571Y-109735714D01*
X119075000Y-109592857D01*
X119075000Y-109164286D01*
X119003571Y-109021429D01*
X118932143Y-108950000D01*
X118789285Y-108878571D01*
X118503571Y-108878571D01*
X118360714Y-108950000D01*
X117432142Y-109878571D02*
X117575000Y-109807143D01*
X117646428Y-109664286D01*
X117646428Y-108378571D01*
X116217857Y-109878571D02*
X116217857Y-109092857D01*
X116289286Y-108950000D01*
X116432143Y-108878571D01*
X116717857Y-108878571D01*
X116860714Y-108950000D01*
X116217857Y-109807143D02*
X116360714Y-109878571D01*
X116717857Y-109878571D01*
X116860714Y-109807143D01*
X116932143Y-109664286D01*
X116932143Y-109521429D01*
X116860714Y-109378571D01*
X116717857Y-109307143D01*
X116360714Y-109307143D01*
X116217857Y-109235714D01*
X115503571Y-108878571D02*
X115503571Y-109878571D01*
X115503571Y-109021429D02*
X115432143Y-108950000D01*
X115289285Y-108878571D01*
X115075000Y-108878571D01*
X114932143Y-108950000D01*
X114860714Y-109092857D01*
X114860714Y-109878571D01*
X113503571Y-109878571D02*
X113503571Y-108378571D01*
X113503571Y-109807143D02*
X113646428Y-109878571D01*
X113932142Y-109878571D01*
X114075000Y-109807143D01*
X114146428Y-109735714D01*
X114217857Y-109592857D01*
X114217857Y-109164286D01*
X114146428Y-109021429D01*
X114075000Y-108950000D01*
X113932142Y-108878571D01*
X113646428Y-108878571D01*
X113503571Y-108950000D01*
X130896428Y-111492857D02*
X130682142Y-111564286D01*
X130610714Y-111635714D01*
X130539285Y-111778571D01*
X130539285Y-111992857D01*
X130610714Y-112135714D01*
X130682142Y-112207143D01*
X130825000Y-112278571D01*
X131396428Y-112278571D01*
X131396428Y-110778571D01*
X130896428Y-110778571D01*
X130753571Y-110850000D01*
X130682142Y-110921429D01*
X130610714Y-111064286D01*
X130610714Y-111207143D01*
X130682142Y-111350000D01*
X130753571Y-111421429D01*
X130896428Y-111492857D01*
X131396428Y-111492857D01*
X129253571Y-112278571D02*
X129253571Y-111492857D01*
X129325000Y-111350000D01*
X129467857Y-111278571D01*
X129753571Y-111278571D01*
X129896428Y-111350000D01*
X129253571Y-112207143D02*
X129396428Y-112278571D01*
X129753571Y-112278571D01*
X129896428Y-112207143D01*
X129967857Y-112064286D01*
X129967857Y-111921429D01*
X129896428Y-111778571D01*
X129753571Y-111707143D01*
X129396428Y-111707143D01*
X129253571Y-111635714D01*
X129610714Y-110921429D02*
X129753571Y-110850000D01*
X129825000Y-110707143D01*
X129753571Y-110564286D01*
X129610714Y-110492857D01*
X129467857Y-110564286D01*
X129396428Y-110707143D01*
X129467857Y-110850000D01*
X129610714Y-110921429D01*
X128539285Y-112278571D02*
X128539285Y-111278571D01*
X128539285Y-111564286D02*
X128467857Y-111421429D01*
X128396428Y-111350000D01*
X128253571Y-111278571D01*
X128110714Y-111278571D01*
X126967857Y-112278571D02*
X126967857Y-110778571D01*
X126967857Y-112207143D02*
X127110714Y-112278571D01*
X127396428Y-112278571D01*
X127539286Y-112207143D01*
X127610714Y-112135714D01*
X127682143Y-111992857D01*
X127682143Y-111564286D01*
X127610714Y-111421429D01*
X127539286Y-111350000D01*
X127396428Y-111278571D01*
X127110714Y-111278571D01*
X126967857Y-111350000D01*
X124325000Y-110850000D02*
X124467857Y-110778571D01*
X124682143Y-110778571D01*
X124896428Y-110850000D01*
X125039286Y-110992857D01*
X125110714Y-111135714D01*
X125182143Y-111421429D01*
X125182143Y-111635714D01*
X125110714Y-111921429D01*
X125039286Y-112064286D01*
X124896428Y-112207143D01*
X124682143Y-112278571D01*
X124539286Y-112278571D01*
X124325000Y-112207143D01*
X124253571Y-112135714D01*
X124253571Y-111635714D01*
X124539286Y-111635714D01*
X122967857Y-111278571D02*
X122967857Y-112278571D01*
X123610714Y-111278571D02*
X123610714Y-112064286D01*
X123539286Y-112207143D01*
X123396428Y-112278571D01*
X123182143Y-112278571D01*
X123039286Y-112207143D01*
X122967857Y-112135714D01*
X122325000Y-112207143D02*
X122182143Y-112278571D01*
X121896428Y-112278571D01*
X121753571Y-112207143D01*
X121682143Y-112064286D01*
X121682143Y-111992857D01*
X121753571Y-111850000D01*
X121896428Y-111778571D01*
X122110714Y-111778571D01*
X122253571Y-111707143D01*
X122325000Y-111564286D01*
X122325000Y-111492857D01*
X122253571Y-111350000D01*
X122110714Y-111278571D01*
X121896428Y-111278571D01*
X121753571Y-111350000D01*
X121253571Y-111278571D02*
X120682142Y-111278571D01*
X121039285Y-110778571D02*
X121039285Y-112064286D01*
X120967857Y-112207143D01*
X120824999Y-112278571D01*
X120682142Y-112278571D01*
X119539285Y-112278571D02*
X119539285Y-111492857D01*
X119610714Y-111350000D01*
X119753571Y-111278571D01*
X120039285Y-111278571D01*
X120182142Y-111350000D01*
X119539285Y-112207143D02*
X119682142Y-112278571D01*
X120039285Y-112278571D01*
X120182142Y-112207143D01*
X120253571Y-112064286D01*
X120253571Y-111921429D01*
X120182142Y-111778571D01*
X120039285Y-111707143D01*
X119682142Y-111707143D01*
X119539285Y-111635714D01*
X118967856Y-111278571D02*
X118610713Y-112278571D01*
X118253571Y-111278571D01*
X131717857Y-113250000D02*
X131860714Y-113178571D01*
X132075000Y-113178571D01*
X132289285Y-113250000D01*
X132432143Y-113392857D01*
X132503571Y-113535714D01*
X132575000Y-113821429D01*
X132575000Y-114035714D01*
X132503571Y-114321429D01*
X132432143Y-114464286D01*
X132289285Y-114607143D01*
X132075000Y-114678571D01*
X131932143Y-114678571D01*
X131717857Y-114607143D01*
X131646428Y-114535714D01*
X131646428Y-114035714D01*
X131932143Y-114035714D01*
X131003571Y-114678571D02*
X131003571Y-113678571D01*
X131003571Y-113178571D02*
X131075000Y-113250000D01*
X131003571Y-113321429D01*
X130932143Y-113250000D01*
X131003571Y-113178571D01*
X131003571Y-113321429D01*
X130503571Y-113678571D02*
X129932142Y-113678571D01*
X130289285Y-113178571D02*
X130289285Y-114464286D01*
X130217857Y-114607143D01*
X130074999Y-114678571D01*
X129932142Y-114678571D01*
X129217856Y-114678571D02*
X129360714Y-114607143D01*
X129432142Y-114464286D01*
X129432142Y-113178571D01*
X128075000Y-114607143D02*
X128217857Y-114678571D01*
X128503571Y-114678571D01*
X128646428Y-114607143D01*
X128717857Y-114464286D01*
X128717857Y-113892857D01*
X128646428Y-113750000D01*
X128503571Y-113678571D01*
X128217857Y-113678571D01*
X128075000Y-113750000D01*
X128003571Y-113892857D01*
X128003571Y-114035714D01*
X128717857Y-114178571D01*
X126217857Y-114678571D02*
X126217857Y-113178571D01*
X125717857Y-114250000D01*
X125217857Y-113178571D01*
X125217857Y-114678571D01*
X124503571Y-114678571D02*
X124503571Y-113678571D01*
X124503571Y-113178571D02*
X124575000Y-113250000D01*
X124503571Y-113321429D01*
X124432143Y-113250000D01*
X124503571Y-113178571D01*
X124503571Y-113321429D01*
X123789285Y-114678571D02*
X123789285Y-113178571D01*
X123646428Y-114107143D02*
X123217857Y-114678571D01*
X123217857Y-113678571D02*
X123789285Y-114250000D01*
X122574999Y-114678571D02*
X122574999Y-113178571D01*
X122432142Y-114107143D02*
X122003571Y-114678571D01*
X122003571Y-113678571D02*
X122574999Y-114250000D01*
X120789285Y-114607143D02*
X120932142Y-114678571D01*
X121217856Y-114678571D01*
X121360713Y-114607143D01*
X121432142Y-114464286D01*
X121432142Y-113892857D01*
X121360713Y-113750000D01*
X121217856Y-113678571D01*
X120932142Y-113678571D01*
X120789285Y-113750000D01*
X120717856Y-113892857D01*
X120717856Y-114035714D01*
X121432142Y-114178571D01*
X119860713Y-114678571D02*
X120003571Y-114607143D01*
X120074999Y-114464286D01*
X120074999Y-113178571D01*
X119360714Y-114607143D02*
X119217857Y-114678571D01*
X118932142Y-114678571D01*
X118789285Y-114607143D01*
X118717857Y-114464286D01*
X118717857Y-114392857D01*
X118789285Y-114250000D01*
X118932142Y-114178571D01*
X119146428Y-114178571D01*
X119289285Y-114107143D01*
X119360714Y-113964286D01*
X119360714Y-113892857D01*
X119289285Y-113750000D01*
X119146428Y-113678571D01*
X118932142Y-113678571D01*
X118789285Y-113750000D01*
X117503571Y-114607143D02*
X117646428Y-114678571D01*
X117932142Y-114678571D01*
X118074999Y-114607143D01*
X118146428Y-114464286D01*
X118146428Y-113892857D01*
X118074999Y-113750000D01*
X117932142Y-113678571D01*
X117646428Y-113678571D01*
X117503571Y-113750000D01*
X117432142Y-113892857D01*
X117432142Y-114035714D01*
X118146428Y-114178571D01*
X116789285Y-113678571D02*
X116789285Y-114678571D01*
X116789285Y-113821429D02*
X116717857Y-113750000D01*
X116574999Y-113678571D01*
X116360714Y-113678571D01*
X116217857Y-113750000D01*
X116146428Y-113892857D01*
X116146428Y-114678571D01*
M02*
