M48
;DRILL file {KiCad 4.0.1-stable} date 08/04/2016 12:11:28
;FORMAT={-:-/ absolute / inch / decimal}
FMAT,2
INCH,TZ
T1C0.016
T2C0.032
T3C0.040
T4C0.091
T5C0.120
%
G90
G05
M72
T1
X6.7825Y-4.0709
X7.1033Y-3.2343
X7.1841Y-4.0876
X7.2815Y-3.4222
X7.3278Y-3.3583
X7.3287Y-2.8022
X7.376Y-4.5719
X7.378Y-3.5059
X7.4281Y-3.1506
X7.4656Y-3.6555
X7.4872Y-3.3268
X7.503Y-3.0748
X7.5118Y-3.5413
X7.5207Y-3.3799
X7.5217Y-3.9498
X7.5404Y-3.8268
X7.5689Y-3.3169
X7.5689Y-3.5965
X7.5709Y-3.6358
X7.5925Y-4.5699
X7.6152Y-3.2677
X7.6211Y-3.1732
X7.6247Y-3.1306
X7.6407Y-3.6014
X7.6604Y-3.8287
X7.6703Y-3.2913
X7.7175Y-3.3189
X7.7549Y-3.9232
X7.7687Y-3.1713
X7.8415Y-3.3415
X7.8917Y-2.8022
X7.9872Y-3.7835
X8.0797Y-3.3307
X8.1112Y-3.5965
X8.189Y-3.7293
X8.2057Y-4.5118
X8.2136Y-3.6594
X8.2156Y-4.2598
X8.2205Y-3.2726
X8.2884Y-3.3524
X8.2904Y-3.8898
X8.311Y-3.7598
X8.4734Y-3.6329
X8.5148Y-3.6594
X8.6132Y-3.7047
X8.6339Y-3.5689
X8.7392Y-4.6516
X8.748Y-2.7677
X8.7943Y-2.8327
X8.8287Y-4.3967
X8.8455Y-3.6654
X8.8593Y-2.5974
X8.8671Y-4.127
X8.9843Y-2.8445
X8.9852Y-4.4537
X8.9902Y-3.2972
X9.0118Y-4.1122
X9.0768Y-3.4537
X9.1545Y-3.624
X9.1575Y-3.7943
X9.1634Y-3.8671
X9.2116Y-3.6673
X9.2136Y-2.7913
X9.2185Y-3.628
X9.2205Y-2.8435
X9.2402Y-3.9715
X9.2561Y-4.4667
X9.2766Y-4.2657
X9.2923Y-2.7913
X9.2972Y-2.8455
X9.3002Y-2.8871
X9.3435Y-3.3051
X9.3489Y-3.1068
X9.3593Y-2.6496
X9.4596Y-3.935
X9.4823Y-4.2224
X9.5413Y-2.8455
X9.563Y-3.6319
X9.6033Y-3.5984
X9.7156Y-4.4606
T2
X6.5856Y-3.6402
X6.5856Y-3.7402
X6.6643Y-3.6402
X6.6643Y-3.7402
T3
X8.1309Y-3.1195
X8.1309Y-3.2195
X10.1291Y-3.0902
X10.1291Y-3.2002
X10.1291Y-3.3052
X10.1291Y-3.4152
X10.1291Y-3.5252
X10.1291Y-3.6352
X10.1291Y-3.7402
X10.1291Y-3.8502
X10.1291Y-3.9602
X10.1291Y-4.0702
X10.1291Y-4.1752
X10.1291Y-4.2852
X10.1291Y-4.3952
X10.2291Y-3.1522
X10.2291Y-3.2522
X10.2291Y-3.3622
X10.2291Y-3.4702
X10.2291Y-3.5782
X10.2291Y-3.6882
X10.2291Y-3.7962
X10.2291Y-3.9042
X10.2291Y-4.0162
X10.2291Y-4.1222
X10.2291Y-4.2302
X10.2291Y-4.3402
T4
X6.4793Y-3.454
X6.4793Y-3.9264
T5
X10.2291Y-2.8152
X10.2291Y-4.6652
T0
M30
