M48
;DRILL file {KiCad 4.0.1-stable} date 17/04/2016 17:25:41
;FORMAT={-:-/ absolute / inch / decimal}
FMAT,2
INCH,TZ
T1C0.016
T2C0.032
T3C0.040
T4C0.091
T5C0.120
%
G90
G05
M72
T1
X3.1959Y-3.6122
X3.5167Y-2.7756
X3.5778Y-3.1398
X3.6949Y-2.9636
X3.7156Y-3.5472
X3.7411Y-2.8996
X3.7421Y-2.3435
X3.7894Y-4.1132
X3.7913Y-3.0472
X3.8415Y-2.6919
X3.8789Y-3.1969
X3.9006Y-2.8681
X3.9163Y-2.6161
X3.9252Y-3.0827
X3.9341Y-2.9213
X3.935Y-3.4911
X3.9537Y-3.3681
X3.9823Y-2.8583
X3.9911Y-3.1476
X4.0059Y-4.1112
X4.0285Y-2.8091
X4.0344Y-2.7146
X4.038Y-2.6719
X4.0541Y-3.1427
X4.0738Y-3.3701
X4.0837Y-2.8327
X4.1309Y-2.8602
X4.1683Y-3.4646
X4.1821Y-2.7126
X4.2549Y-2.8829
X4.3051Y-2.3435
X4.4006Y-3.3248
X4.4931Y-2.872
X4.6024Y-3.2707
X4.6191Y-3.1831
X4.6191Y-4.0531
X4.6289Y-3.8012
X4.6339Y-2.814
X4.6722Y-3.0591
X4.7037Y-3.4311
X4.7244Y-3.3012
X4.8297Y-3.1713
X5.1526Y-4.1929
X5.1614Y-2.3091
X5.2077Y-2.374
X5.2421Y-3.938
X5.2589Y-3.2067
X5.2726Y-2.1388
X5.2805Y-3.6683
X5.3976Y-2.3858
X5.3986Y-3.9951
X5.4035Y-2.8386
X5.4252Y-3.6535
X5.4902Y-2.9951
X5.5679Y-3.1654
X5.5709Y-3.3356
X5.5768Y-3.4085
X5.625Y-3.2087
X5.627Y-2.3327
X5.6319Y-3.1693
X5.6339Y-2.3848
X5.6535Y-3.5128
X5.6695Y-4.008
X5.69Y-3.8071
X5.7057Y-2.3327
X5.7106Y-2.3868
X5.7136Y-2.4284
X5.7569Y-2.8465
X5.7623Y-2.6481
X5.7726Y-2.1909
X5.873Y-3.4764
X5.8957Y-3.7638
X5.9547Y-2.3868
X5.9764Y-3.1732
X6.0167Y-3.1398
X6.1289Y-4.002
T2
X2.999Y-3.1815
X2.999Y-3.2815
X3.0777Y-3.1815
X3.0777Y-3.2815
T3
X4.5443Y-2.6608
X4.5443Y-2.7608
X6.5425Y-2.6315
X6.5425Y-2.7415
X6.5425Y-2.8465
X6.5425Y-2.9565
X6.5425Y-3.0665
X6.5425Y-3.1765
X6.5425Y-3.2815
X6.5425Y-3.3915
X6.5425Y-3.5015
X6.5425Y-3.6115
X6.5425Y-3.7165
X6.5425Y-3.8265
X6.5425Y-3.9365
X6.6425Y-2.6935
X6.6425Y-2.7935
X6.6425Y-2.9035
X6.6425Y-3.0115
X6.6425Y-3.1195
X6.6425Y-3.2295
X6.6425Y-3.3375
X6.6425Y-3.4455
X6.6425Y-3.5575
X6.6425Y-3.6635
X6.6425Y-3.7715
X6.6425Y-3.8815
T4
X2.8927Y-2.9953
X2.8927Y-3.4677
T5
X6.6425Y-2.3565
X6.6425Y-4.2065
T0
M30
