G04 #@! TF.FileFunction,Legend,Top*
%FSLAX46Y46*%
G04 Gerber Fmt 4.6, Leading zero omitted, Abs format (unit mm)*
G04 Created by KiCad (PCBNEW 4.0.1-stable) date 08/04/2016 12:11:11*
%MOMM*%
G01*
G04 APERTURE LIST*
%ADD10C,0.100000*%
%ADD11C,0.300000*%
%ADD12C,0.150000*%
G04 APERTURE END LIST*
D10*
D11*
X163896430Y-108328571D02*
X163182144Y-108328571D01*
X163182144Y-106828571D01*
X164325001Y-107900000D02*
X165039287Y-107900000D01*
X164182144Y-108328571D02*
X164682144Y-106828571D01*
X165182144Y-108328571D01*
X165610715Y-108257143D02*
X165825001Y-108328571D01*
X166182144Y-108328571D01*
X166325001Y-108257143D01*
X166396430Y-108185714D01*
X166467858Y-108042857D01*
X166467858Y-107900000D01*
X166396430Y-107757143D01*
X166325001Y-107685714D01*
X166182144Y-107614286D01*
X165896430Y-107542857D01*
X165753572Y-107471429D01*
X165682144Y-107400000D01*
X165610715Y-107257143D01*
X165610715Y-107114286D01*
X165682144Y-106971429D01*
X165753572Y-106900000D01*
X165896430Y-106828571D01*
X166253572Y-106828571D01*
X166467858Y-106900000D01*
X167110715Y-108328571D02*
X167110715Y-106828571D01*
X167467858Y-106828571D01*
X167682143Y-106900000D01*
X167825001Y-107042857D01*
X167896429Y-107185714D01*
X167967858Y-107471429D01*
X167967858Y-107685714D01*
X167896429Y-107971429D01*
X167825001Y-108114286D01*
X167682143Y-108257143D01*
X167467858Y-108328571D01*
X167110715Y-108328571D01*
X168539286Y-107900000D02*
X169253572Y-107900000D01*
X168396429Y-108328571D02*
X168896429Y-106828571D01*
X169396429Y-108328571D01*
X170753572Y-108185714D02*
X170682143Y-108257143D01*
X170467857Y-108328571D01*
X170325000Y-108328571D01*
X170110715Y-108257143D01*
X169967857Y-108114286D01*
X169896429Y-107971429D01*
X169825000Y-107685714D01*
X169825000Y-107471429D01*
X169896429Y-107185714D01*
X169967857Y-107042857D01*
X170110715Y-106900000D01*
X170325000Y-106828571D01*
X170467857Y-106828571D01*
X170682143Y-106900000D01*
X170753572Y-106971429D01*
X171825000Y-108900000D02*
X171753572Y-108828571D01*
X171610715Y-108614286D01*
X171539286Y-108471429D01*
X171467857Y-108257143D01*
X171396429Y-107900000D01*
X171396429Y-107614286D01*
X171467857Y-107257143D01*
X171539286Y-107042857D01*
X171610715Y-106900000D01*
X171753572Y-106685714D01*
X171825000Y-106614286D01*
X172253572Y-106828571D02*
X172610715Y-108328571D01*
X172896429Y-107257143D01*
X173182143Y-108328571D01*
X173539286Y-106828571D01*
X174110715Y-108328571D02*
X174110715Y-106828571D01*
X174825001Y-108328571D02*
X174825001Y-106828571D01*
X175396429Y-106828571D01*
X175539287Y-106900000D01*
X175610715Y-106971429D01*
X175682144Y-107114286D01*
X175682144Y-107328571D01*
X175610715Y-107471429D01*
X175539287Y-107542857D01*
X175396429Y-107614286D01*
X174825001Y-107614286D01*
X176182144Y-108900000D02*
X176253572Y-108828571D01*
X176396429Y-108614286D01*
X176467858Y-108471429D01*
X176539287Y-108257143D01*
X176610715Y-107900000D01*
X176610715Y-107614286D01*
X176539287Y-107257143D01*
X176467858Y-107042857D01*
X176396429Y-106900000D01*
X176253572Y-106685714D01*
X176182144Y-106614286D01*
X178325001Y-107328571D02*
X178682144Y-108328571D01*
X179039286Y-107328571D01*
X179610715Y-108185714D02*
X179682143Y-108257143D01*
X179610715Y-108328571D01*
X179539286Y-108257143D01*
X179610715Y-108185714D01*
X179610715Y-108328571D01*
X180610715Y-106828571D02*
X180753572Y-106828571D01*
X180896429Y-106900000D01*
X180967858Y-106971429D01*
X181039287Y-107114286D01*
X181110715Y-107400000D01*
X181110715Y-107757143D01*
X181039287Y-108042857D01*
X180967858Y-108185714D01*
X180896429Y-108257143D01*
X180753572Y-108328571D01*
X180610715Y-108328571D01*
X180467858Y-108257143D01*
X180396429Y-108185714D01*
X180325001Y-108042857D01*
X180253572Y-107757143D01*
X180253572Y-107400000D01*
X180325001Y-107114286D01*
X180396429Y-106971429D01*
X180467858Y-106900000D01*
X180610715Y-106828571D01*
X182539286Y-108328571D02*
X181682143Y-108328571D01*
X182110715Y-108328571D02*
X182110715Y-106828571D01*
X181967858Y-107042857D01*
X181825000Y-107185714D01*
X181682143Y-107257143D01*
X167039287Y-109228571D02*
X167182144Y-109228571D01*
X167325001Y-109300000D01*
X167396430Y-109371429D01*
X167467859Y-109514286D01*
X167539287Y-109800000D01*
X167539287Y-110157143D01*
X167467859Y-110442857D01*
X167396430Y-110585714D01*
X167325001Y-110657143D01*
X167182144Y-110728571D01*
X167039287Y-110728571D01*
X166896430Y-110657143D01*
X166825001Y-110585714D01*
X166753573Y-110442857D01*
X166682144Y-110157143D01*
X166682144Y-109800000D01*
X166753573Y-109514286D01*
X166825001Y-109371429D01*
X166896430Y-109300000D01*
X167039287Y-109228571D01*
X168896430Y-109228571D02*
X168182144Y-109228571D01*
X168110715Y-109942857D01*
X168182144Y-109871429D01*
X168325001Y-109800000D01*
X168682144Y-109800000D01*
X168825001Y-109871429D01*
X168896430Y-109942857D01*
X168967858Y-110085714D01*
X168967858Y-110442857D01*
X168896430Y-110585714D01*
X168825001Y-110657143D01*
X168682144Y-110728571D01*
X168325001Y-110728571D01*
X168182144Y-110657143D01*
X168110715Y-110585714D01*
X169610715Y-110585714D02*
X169682143Y-110657143D01*
X169610715Y-110728571D01*
X169539286Y-110657143D01*
X169610715Y-110585714D01*
X169610715Y-110728571D01*
X170610715Y-109228571D02*
X170753572Y-109228571D01*
X170896429Y-109300000D01*
X170967858Y-109371429D01*
X171039287Y-109514286D01*
X171110715Y-109800000D01*
X171110715Y-110157143D01*
X171039287Y-110442857D01*
X170967858Y-110585714D01*
X170896429Y-110657143D01*
X170753572Y-110728571D01*
X170610715Y-110728571D01*
X170467858Y-110657143D01*
X170396429Y-110585714D01*
X170325001Y-110442857D01*
X170253572Y-110157143D01*
X170253572Y-109800000D01*
X170325001Y-109514286D01*
X170396429Y-109371429D01*
X170467858Y-109300000D01*
X170610715Y-109228571D01*
X172396429Y-109728571D02*
X172396429Y-110728571D01*
X172039286Y-109157143D02*
X171682143Y-110228571D01*
X172610715Y-110228571D01*
X173182143Y-110585714D02*
X173253571Y-110657143D01*
X173182143Y-110728571D01*
X173110714Y-110657143D01*
X173182143Y-110585714D01*
X173182143Y-110728571D01*
X173825000Y-109371429D02*
X173896429Y-109300000D01*
X174039286Y-109228571D01*
X174396429Y-109228571D01*
X174539286Y-109300000D01*
X174610715Y-109371429D01*
X174682143Y-109514286D01*
X174682143Y-109657143D01*
X174610715Y-109871429D01*
X173753572Y-110728571D01*
X174682143Y-110728571D01*
X175610714Y-109228571D02*
X175753571Y-109228571D01*
X175896428Y-109300000D01*
X175967857Y-109371429D01*
X176039286Y-109514286D01*
X176110714Y-109800000D01*
X176110714Y-110157143D01*
X176039286Y-110442857D01*
X175967857Y-110585714D01*
X175896428Y-110657143D01*
X175753571Y-110728571D01*
X175610714Y-110728571D01*
X175467857Y-110657143D01*
X175396428Y-110585714D01*
X175325000Y-110442857D01*
X175253571Y-110157143D01*
X175253571Y-109800000D01*
X175325000Y-109514286D01*
X175396428Y-109371429D01*
X175467857Y-109300000D01*
X175610714Y-109228571D01*
X177539285Y-110728571D02*
X176682142Y-110728571D01*
X177110714Y-110728571D02*
X177110714Y-109228571D01*
X176967857Y-109442857D01*
X176824999Y-109585714D01*
X176682142Y-109657143D01*
X178824999Y-109228571D02*
X178539285Y-109228571D01*
X178396428Y-109300000D01*
X178324999Y-109371429D01*
X178182142Y-109585714D01*
X178110713Y-109871429D01*
X178110713Y-110442857D01*
X178182142Y-110585714D01*
X178253570Y-110657143D01*
X178396428Y-110728571D01*
X178682142Y-110728571D01*
X178824999Y-110657143D01*
X178896428Y-110585714D01*
X178967856Y-110442857D01*
X178967856Y-110085714D01*
X178896428Y-109942857D01*
X178824999Y-109871429D01*
X178682142Y-109800000D01*
X178396428Y-109800000D01*
X178253570Y-109871429D01*
X178182142Y-109942857D01*
X178110713Y-110085714D01*
X161789285Y-111628571D02*
X162646428Y-111628571D01*
X162217857Y-113128571D02*
X162217857Y-111628571D01*
X163146428Y-113128571D02*
X163146428Y-111628571D01*
X163789285Y-113128571D02*
X163789285Y-112342857D01*
X163717856Y-112200000D01*
X163574999Y-112128571D01*
X163360714Y-112128571D01*
X163217856Y-112200000D01*
X163146428Y-112271429D01*
X164717857Y-113128571D02*
X164574999Y-113057143D01*
X164503571Y-112985714D01*
X164432142Y-112842857D01*
X164432142Y-112414286D01*
X164503571Y-112271429D01*
X164574999Y-112200000D01*
X164717857Y-112128571D01*
X164932142Y-112128571D01*
X165074999Y-112200000D01*
X165146428Y-112271429D01*
X165217857Y-112414286D01*
X165217857Y-112842857D01*
X165146428Y-112985714D01*
X165074999Y-113057143D01*
X164932142Y-113128571D01*
X164717857Y-113128571D01*
X165860714Y-113128571D02*
X165860714Y-112128571D01*
X165860714Y-112271429D02*
X165932142Y-112200000D01*
X166075000Y-112128571D01*
X166289285Y-112128571D01*
X166432142Y-112200000D01*
X166503571Y-112342857D01*
X166503571Y-113128571D01*
X166503571Y-112342857D02*
X166575000Y-112200000D01*
X166717857Y-112128571D01*
X166932142Y-112128571D01*
X167075000Y-112200000D01*
X167146428Y-112342857D01*
X167146428Y-113128571D01*
X168503571Y-113128571D02*
X168503571Y-112342857D01*
X168432142Y-112200000D01*
X168289285Y-112128571D01*
X168003571Y-112128571D01*
X167860714Y-112200000D01*
X168503571Y-113057143D02*
X168360714Y-113128571D01*
X168003571Y-113128571D01*
X167860714Y-113057143D01*
X167789285Y-112914286D01*
X167789285Y-112771429D01*
X167860714Y-112628571D01*
X168003571Y-112557143D01*
X168360714Y-112557143D01*
X168503571Y-112485714D01*
X169146428Y-113057143D02*
X169289285Y-113128571D01*
X169575000Y-113128571D01*
X169717857Y-113057143D01*
X169789285Y-112914286D01*
X169789285Y-112842857D01*
X169717857Y-112700000D01*
X169575000Y-112628571D01*
X169360714Y-112628571D01*
X169217857Y-112557143D01*
X169146428Y-112414286D01*
X169146428Y-112342857D01*
X169217857Y-112200000D01*
X169360714Y-112128571D01*
X169575000Y-112128571D01*
X169717857Y-112200000D01*
X172289286Y-113128571D02*
X171575000Y-113128571D01*
X171575000Y-111628571D01*
X173932143Y-113128571D02*
X173932143Y-111628571D01*
X173932143Y-112342857D02*
X174789286Y-112342857D01*
X174789286Y-113128571D02*
X174789286Y-111628571D01*
X176075000Y-113057143D02*
X175932143Y-113128571D01*
X175646429Y-113128571D01*
X175503572Y-113057143D01*
X175432143Y-112914286D01*
X175432143Y-112342857D01*
X175503572Y-112200000D01*
X175646429Y-112128571D01*
X175932143Y-112128571D01*
X176075000Y-112200000D01*
X176146429Y-112342857D01*
X176146429Y-112485714D01*
X175432143Y-112628571D01*
X177432143Y-112128571D02*
X177432143Y-113342857D01*
X177360714Y-113485714D01*
X177289286Y-113557143D01*
X177146429Y-113628571D01*
X176932143Y-113628571D01*
X176789286Y-113557143D01*
X177432143Y-113057143D02*
X177289286Y-113128571D01*
X177003572Y-113128571D01*
X176860714Y-113057143D01*
X176789286Y-112985714D01*
X176717857Y-112842857D01*
X176717857Y-112414286D01*
X176789286Y-112271429D01*
X176860714Y-112200000D01*
X177003572Y-112128571D01*
X177289286Y-112128571D01*
X177432143Y-112200000D01*
X178789286Y-112128571D02*
X178789286Y-113342857D01*
X178717857Y-113485714D01*
X178646429Y-113557143D01*
X178503572Y-113628571D01*
X178289286Y-113628571D01*
X178146429Y-113557143D01*
X178789286Y-113057143D02*
X178646429Y-113128571D01*
X178360715Y-113128571D01*
X178217857Y-113057143D01*
X178146429Y-112985714D01*
X178075000Y-112842857D01*
X178075000Y-112414286D01*
X178146429Y-112271429D01*
X178217857Y-112200000D01*
X178360715Y-112128571D01*
X178646429Y-112128571D01*
X178789286Y-112200000D01*
X179717858Y-113128571D02*
X179575000Y-113057143D01*
X179503572Y-112914286D01*
X179503572Y-111628571D01*
X180932143Y-113128571D02*
X180932143Y-112342857D01*
X180860714Y-112200000D01*
X180717857Y-112128571D01*
X180432143Y-112128571D01*
X180289286Y-112200000D01*
X180932143Y-113057143D02*
X180789286Y-113128571D01*
X180432143Y-113128571D01*
X180289286Y-113057143D01*
X180217857Y-112914286D01*
X180217857Y-112771429D01*
X180289286Y-112628571D01*
X180432143Y-112557143D01*
X180789286Y-112557143D01*
X180932143Y-112485714D01*
X181646429Y-112128571D02*
X181646429Y-113128571D01*
X181646429Y-112271429D02*
X181717857Y-112200000D01*
X181860715Y-112128571D01*
X182075000Y-112128571D01*
X182217857Y-112200000D01*
X182289286Y-112342857D01*
X182289286Y-113128571D01*
X183646429Y-113128571D02*
X183646429Y-111628571D01*
X183646429Y-113057143D02*
X183503572Y-113128571D01*
X183217858Y-113128571D01*
X183075000Y-113057143D01*
X183003572Y-112985714D01*
X182932143Y-112842857D01*
X182932143Y-112414286D01*
X183003572Y-112271429D01*
X183075000Y-112200000D01*
X183217858Y-112128571D01*
X183503572Y-112128571D01*
X183646429Y-112200000D01*
X166253572Y-114742857D02*
X166467858Y-114814286D01*
X166539286Y-114885714D01*
X166610715Y-115028571D01*
X166610715Y-115242857D01*
X166539286Y-115385714D01*
X166467858Y-115457143D01*
X166325000Y-115528571D01*
X165753572Y-115528571D01*
X165753572Y-114028571D01*
X166253572Y-114028571D01*
X166396429Y-114100000D01*
X166467858Y-114171429D01*
X166539286Y-114314286D01*
X166539286Y-114457143D01*
X166467858Y-114600000D01*
X166396429Y-114671429D01*
X166253572Y-114742857D01*
X165753572Y-114742857D01*
X167896429Y-115528571D02*
X167896429Y-114742857D01*
X167825000Y-114600000D01*
X167682143Y-114528571D01*
X167396429Y-114528571D01*
X167253572Y-114600000D01*
X167896429Y-115457143D02*
X167753572Y-115528571D01*
X167396429Y-115528571D01*
X167253572Y-115457143D01*
X167182143Y-115314286D01*
X167182143Y-115171429D01*
X167253572Y-115028571D01*
X167396429Y-114957143D01*
X167753572Y-114957143D01*
X167896429Y-114885714D01*
X167539286Y-114171429D02*
X167396429Y-114100000D01*
X167325000Y-113957143D01*
X167396429Y-113814286D01*
X167539286Y-113742857D01*
X167682143Y-113814286D01*
X167753572Y-113957143D01*
X167682143Y-114100000D01*
X167539286Y-114171429D01*
X168610715Y-115528571D02*
X168610715Y-114528571D01*
X168610715Y-114814286D02*
X168682143Y-114671429D01*
X168753572Y-114600000D01*
X168896429Y-114528571D01*
X169039286Y-114528571D01*
X170182143Y-115528571D02*
X170182143Y-114028571D01*
X170182143Y-115457143D02*
X170039286Y-115528571D01*
X169753572Y-115528571D01*
X169610714Y-115457143D01*
X169539286Y-115385714D01*
X169467857Y-115242857D01*
X169467857Y-114814286D01*
X169539286Y-114671429D01*
X169610714Y-114600000D01*
X169753572Y-114528571D01*
X170039286Y-114528571D01*
X170182143Y-114600000D01*
X172825000Y-114100000D02*
X172682143Y-114028571D01*
X172467857Y-114028571D01*
X172253572Y-114100000D01*
X172110714Y-114242857D01*
X172039286Y-114385714D01*
X171967857Y-114671429D01*
X171967857Y-114885714D01*
X172039286Y-115171429D01*
X172110714Y-115314286D01*
X172253572Y-115457143D01*
X172467857Y-115528571D01*
X172610714Y-115528571D01*
X172825000Y-115457143D01*
X172896429Y-115385714D01*
X172896429Y-114885714D01*
X172610714Y-114885714D01*
X174182143Y-114528571D02*
X174182143Y-115528571D01*
X173539286Y-114528571D02*
X173539286Y-115314286D01*
X173610714Y-115457143D01*
X173753572Y-115528571D01*
X173967857Y-115528571D01*
X174110714Y-115457143D01*
X174182143Y-115385714D01*
X174825000Y-115457143D02*
X174967857Y-115528571D01*
X175253572Y-115528571D01*
X175396429Y-115457143D01*
X175467857Y-115314286D01*
X175467857Y-115242857D01*
X175396429Y-115100000D01*
X175253572Y-115028571D01*
X175039286Y-115028571D01*
X174896429Y-114957143D01*
X174825000Y-114814286D01*
X174825000Y-114742857D01*
X174896429Y-114600000D01*
X175039286Y-114528571D01*
X175253572Y-114528571D01*
X175396429Y-114600000D01*
X175896429Y-114528571D02*
X176467858Y-114528571D01*
X176110715Y-114028571D02*
X176110715Y-115314286D01*
X176182143Y-115457143D01*
X176325001Y-115528571D01*
X176467858Y-115528571D01*
X177610715Y-115528571D02*
X177610715Y-114742857D01*
X177539286Y-114600000D01*
X177396429Y-114528571D01*
X177110715Y-114528571D01*
X176967858Y-114600000D01*
X177610715Y-115457143D02*
X177467858Y-115528571D01*
X177110715Y-115528571D01*
X176967858Y-115457143D01*
X176896429Y-115314286D01*
X176896429Y-115171429D01*
X176967858Y-115028571D01*
X177110715Y-114957143D01*
X177467858Y-114957143D01*
X177610715Y-114885714D01*
X178182144Y-114528571D02*
X178539287Y-115528571D01*
X178896429Y-114528571D01*
X165432143Y-116500000D02*
X165289286Y-116428571D01*
X165075000Y-116428571D01*
X164860715Y-116500000D01*
X164717857Y-116642857D01*
X164646429Y-116785714D01*
X164575000Y-117071429D01*
X164575000Y-117285714D01*
X164646429Y-117571429D01*
X164717857Y-117714286D01*
X164860715Y-117857143D01*
X165075000Y-117928571D01*
X165217857Y-117928571D01*
X165432143Y-117857143D01*
X165503572Y-117785714D01*
X165503572Y-117285714D01*
X165217857Y-117285714D01*
X166146429Y-117928571D02*
X166146429Y-116928571D01*
X166146429Y-116428571D02*
X166075000Y-116500000D01*
X166146429Y-116571429D01*
X166217857Y-116500000D01*
X166146429Y-116428571D01*
X166146429Y-116571429D01*
X166646429Y-116928571D02*
X167217858Y-116928571D01*
X166860715Y-116428571D02*
X166860715Y-117714286D01*
X166932143Y-117857143D01*
X167075001Y-117928571D01*
X167217858Y-117928571D01*
X167932144Y-117928571D02*
X167789286Y-117857143D01*
X167717858Y-117714286D01*
X167717858Y-116428571D01*
X169075000Y-117857143D02*
X168932143Y-117928571D01*
X168646429Y-117928571D01*
X168503572Y-117857143D01*
X168432143Y-117714286D01*
X168432143Y-117142857D01*
X168503572Y-117000000D01*
X168646429Y-116928571D01*
X168932143Y-116928571D01*
X169075000Y-117000000D01*
X169146429Y-117142857D01*
X169146429Y-117285714D01*
X168432143Y-117428571D01*
X170932143Y-117928571D02*
X170932143Y-116428571D01*
X171432143Y-117500000D01*
X171932143Y-116428571D01*
X171932143Y-117928571D01*
X172646429Y-117928571D02*
X172646429Y-116928571D01*
X172646429Y-116428571D02*
X172575000Y-116500000D01*
X172646429Y-116571429D01*
X172717857Y-116500000D01*
X172646429Y-116428571D01*
X172646429Y-116571429D01*
X173360715Y-117928571D02*
X173360715Y-116428571D01*
X173503572Y-117357143D02*
X173932143Y-117928571D01*
X173932143Y-116928571D02*
X173360715Y-117500000D01*
X174575001Y-117928571D02*
X174575001Y-116428571D01*
X174717858Y-117357143D02*
X175146429Y-117928571D01*
X175146429Y-116928571D02*
X174575001Y-117500000D01*
X176360715Y-117857143D02*
X176217858Y-117928571D01*
X175932144Y-117928571D01*
X175789287Y-117857143D01*
X175717858Y-117714286D01*
X175717858Y-117142857D01*
X175789287Y-117000000D01*
X175932144Y-116928571D01*
X176217858Y-116928571D01*
X176360715Y-117000000D01*
X176432144Y-117142857D01*
X176432144Y-117285714D01*
X175717858Y-117428571D01*
X177289287Y-117928571D02*
X177146429Y-117857143D01*
X177075001Y-117714286D01*
X177075001Y-116428571D01*
X177789286Y-117857143D02*
X177932143Y-117928571D01*
X178217858Y-117928571D01*
X178360715Y-117857143D01*
X178432143Y-117714286D01*
X178432143Y-117642857D01*
X178360715Y-117500000D01*
X178217858Y-117428571D01*
X178003572Y-117428571D01*
X177860715Y-117357143D01*
X177789286Y-117214286D01*
X177789286Y-117142857D01*
X177860715Y-117000000D01*
X178003572Y-116928571D01*
X178217858Y-116928571D01*
X178360715Y-117000000D01*
X179646429Y-117857143D02*
X179503572Y-117928571D01*
X179217858Y-117928571D01*
X179075001Y-117857143D01*
X179003572Y-117714286D01*
X179003572Y-117142857D01*
X179075001Y-117000000D01*
X179217858Y-116928571D01*
X179503572Y-116928571D01*
X179646429Y-117000000D01*
X179717858Y-117142857D01*
X179717858Y-117285714D01*
X179003572Y-117428571D01*
X180360715Y-116928571D02*
X180360715Y-117928571D01*
X180360715Y-117071429D02*
X180432143Y-117000000D01*
X180575001Y-116928571D01*
X180789286Y-116928571D01*
X180932143Y-117000000D01*
X181003572Y-117142857D01*
X181003572Y-117928571D01*
D12*
X189625000Y-82575000D02*
X189625000Y-83650000D01*
X199975000Y-82575000D02*
X199975000Y-83650000D01*
X199975000Y-92925000D02*
X199975000Y-91850000D01*
X189625000Y-92925000D02*
X189625000Y-91850000D01*
X189625000Y-82575000D02*
X190700000Y-82575000D01*
X189625000Y-92925000D02*
X190700000Y-92925000D01*
X199975000Y-92925000D02*
X198900000Y-92925000D01*
X199975000Y-82575000D02*
X198900000Y-82575000D01*
X189625000Y-83650000D02*
X188600000Y-83650000D01*
X187825000Y-103000000D02*
X187825000Y-103700000D01*
X186625000Y-103700000D02*
X186625000Y-103000000D01*
X185400000Y-103000000D02*
X185400000Y-103700000D01*
X184200000Y-103700000D02*
X184200000Y-103000000D01*
X202900000Y-85025000D02*
X202400000Y-85025000D01*
X202400000Y-85975000D02*
X202900000Y-85975000D01*
X187025000Y-88475000D02*
X186325000Y-88475000D01*
X186325000Y-87275000D02*
X187025000Y-87275000D01*
X186675000Y-86800000D02*
X187175000Y-86800000D01*
X187175000Y-85850000D02*
X186675000Y-85850000D01*
X195025000Y-95775000D02*
X195025000Y-95275000D01*
X194075000Y-95275000D02*
X194075000Y-95775000D01*
X192025000Y-95750000D02*
X192025000Y-95250000D01*
X191075000Y-95250000D02*
X191075000Y-95750000D01*
X195575000Y-79750000D02*
X195575000Y-80250000D01*
X196525000Y-80250000D02*
X196525000Y-79750000D01*
X190575000Y-79650000D02*
X190575000Y-80150000D01*
X191525000Y-80150000D02*
X191525000Y-79650000D01*
X183575000Y-85925000D02*
X183575000Y-86625000D01*
X182375000Y-86625000D02*
X182375000Y-85925000D01*
X185675000Y-72775000D02*
X185675000Y-73275000D01*
X186625000Y-73275000D02*
X186625000Y-72775000D01*
X199975000Y-72650000D02*
X199975000Y-73150000D01*
X200925000Y-73150000D02*
X200925000Y-72650000D01*
X220175000Y-92925000D02*
X220175000Y-92425000D01*
X219225000Y-92425000D02*
X219225000Y-92925000D01*
X240225000Y-78725000D02*
X240725000Y-78725000D01*
X240725000Y-77775000D02*
X240225000Y-77775000D01*
X231325000Y-66975000D02*
X231825000Y-66975000D01*
X231825000Y-66025000D02*
X231325000Y-66025000D01*
X227975000Y-91150000D02*
X227475000Y-91150000D01*
X227475000Y-92100000D02*
X227975000Y-92100000D01*
X237900000Y-92025000D02*
X238400000Y-92025000D01*
X238400000Y-91075000D02*
X237900000Y-91075000D01*
X230225000Y-71775000D02*
X229725000Y-71775000D01*
X229725000Y-72725000D02*
X230225000Y-72725000D01*
X240325000Y-72725000D02*
X240825000Y-72725000D01*
X240825000Y-71775000D02*
X240325000Y-71775000D01*
X238950000Y-108725000D02*
X239450000Y-108725000D01*
X239450000Y-107775000D02*
X238950000Y-107775000D01*
X229450000Y-111700000D02*
X228950000Y-111700000D01*
X228950000Y-112650000D02*
X229450000Y-112650000D01*
X211698880Y-92025960D02*
X211698880Y-86824040D01*
X209301120Y-86824040D02*
X209301120Y-92025960D01*
X208201300Y-94024940D02*
X209301120Y-94024940D01*
X208701680Y-94624380D02*
X208701680Y-93425500D01*
X209301120Y-93420420D02*
X211698880Y-93420420D01*
X193400000Y-111325700D02*
X193400000Y-109425700D01*
X192300000Y-111325700D02*
X192300000Y-109425700D01*
X192850000Y-110425700D02*
X192850000Y-109975700D01*
X192600000Y-110475700D02*
X193100000Y-110475700D01*
X192850000Y-110475700D02*
X192600000Y-110225700D01*
X192600000Y-110225700D02*
X193100000Y-110225700D01*
X193100000Y-110225700D02*
X192850000Y-110475700D01*
X184601000Y-84730000D02*
X184601000Y-80920000D01*
X187649000Y-84730000D02*
X184601000Y-84730000D01*
X187649000Y-84730000D02*
X187649000Y-80920000D01*
X184601000Y-80920000D02*
X187649000Y-80920000D01*
X162924000Y-87634000D02*
X154288000Y-87634000D01*
X171306000Y-87634000D02*
X166226000Y-87634000D01*
X162924000Y-99826000D02*
X154288000Y-99826000D01*
X171306000Y-99826000D02*
X166226000Y-99826000D01*
X154288000Y-99826000D02*
X154288000Y-87634000D01*
X171306000Y-87634000D02*
X171306000Y-99826000D01*
X269980000Y-121670000D02*
X256010000Y-121670000D01*
X264900000Y-114050000D02*
X256010000Y-114050000D01*
X269980000Y-115955000D02*
X264900000Y-115955000D01*
X269980000Y-74045000D02*
X264900000Y-74045000D01*
X264900000Y-75950000D02*
X256010000Y-75950000D01*
X256010000Y-68330000D02*
X269980000Y-68330000D01*
X264900000Y-121670000D02*
X264900000Y-114050000D01*
X264900000Y-68330000D02*
X264900000Y-75950000D01*
X266805000Y-115320000D02*
X269980000Y-115320000D01*
X266805000Y-74680000D02*
X269980000Y-74680000D01*
X276965000Y-115320000D02*
X271250000Y-115320000D01*
X276965000Y-74680000D02*
X271250000Y-74680000D01*
X269980000Y-121670000D02*
X271250000Y-121670000D01*
X271250000Y-121670000D02*
X271250000Y-68330000D01*
X271250000Y-68330000D02*
X269980000Y-68330000D01*
X269980000Y-68330000D02*
X269980000Y-121670000D01*
X256010000Y-114050000D02*
X256010000Y-121670000D01*
X266805000Y-74680000D02*
X266805000Y-115320000D01*
X276965000Y-74680000D02*
X276965000Y-115320000D01*
X256010000Y-68330000D02*
X256010000Y-75950000D01*
X187900000Y-111325700D02*
X187900000Y-109425700D01*
X186800000Y-111325700D02*
X186800000Y-109425700D01*
X187350000Y-110425700D02*
X187350000Y-109975700D01*
X187100000Y-110475700D02*
X187600000Y-110475700D01*
X187350000Y-110475700D02*
X187100000Y-110225700D01*
X187100000Y-110225700D02*
X187600000Y-110225700D01*
X187600000Y-110225700D02*
X187350000Y-110475700D01*
X174900000Y-79150000D02*
X176100000Y-79150000D01*
X176100000Y-80900000D02*
X174900000Y-80900000D01*
X174925000Y-81300000D02*
X176125000Y-81300000D01*
X176125000Y-83050000D02*
X174925000Y-83050000D01*
X251800000Y-75625000D02*
X253000000Y-75625000D01*
X253000000Y-77375000D02*
X251800000Y-77375000D01*
X251800000Y-79775000D02*
X253000000Y-79775000D01*
X253000000Y-81525000D02*
X251800000Y-81525000D01*
X251800000Y-83925000D02*
X253000000Y-83925000D01*
X253000000Y-85675000D02*
X251800000Y-85675000D01*
X251800000Y-88075000D02*
X253000000Y-88075000D01*
X253000000Y-89825000D02*
X251800000Y-89825000D01*
X251800000Y-92225000D02*
X253000000Y-92225000D01*
X253000000Y-93975000D02*
X251800000Y-93975000D01*
X251800000Y-96375000D02*
X253000000Y-96375000D01*
X253000000Y-98125000D02*
X251800000Y-98125000D01*
X251800000Y-110600000D02*
X253000000Y-110600000D01*
X253000000Y-112350000D02*
X251800000Y-112350000D01*
X251800000Y-77700000D02*
X253000000Y-77700000D01*
X253000000Y-79450000D02*
X251800000Y-79450000D01*
X251800000Y-81850000D02*
X253000000Y-81850000D01*
X253000000Y-83600000D02*
X251800000Y-83600000D01*
X251800000Y-86000000D02*
X253000000Y-86000000D01*
X253000000Y-87750000D02*
X251800000Y-87750000D01*
X251800000Y-90150000D02*
X253000000Y-90150000D01*
X253000000Y-91900000D02*
X251800000Y-91900000D01*
X251800000Y-94300000D02*
X253000000Y-94300000D01*
X253000000Y-96050000D02*
X251800000Y-96050000D01*
X251800000Y-98450000D02*
X253000000Y-98450000D01*
X253000000Y-100200000D02*
X251800000Y-100200000D01*
X201825000Y-99325000D02*
X200625000Y-99325000D01*
X200625000Y-97575000D02*
X201825000Y-97575000D01*
X182125000Y-83525000D02*
X182125000Y-82325000D01*
X183875000Y-82325000D02*
X183875000Y-83525000D01*
X186475000Y-114500000D02*
X186475000Y-113300000D01*
X188225000Y-113300000D02*
X188225000Y-114500000D01*
X191975000Y-114500000D02*
X191975000Y-113300000D01*
X193725000Y-113300000D02*
X193725000Y-114500000D01*
X227925000Y-110150000D02*
X227925000Y-108950000D01*
X229675000Y-108950000D02*
X229675000Y-110150000D01*
X225125000Y-109225000D02*
X226325000Y-109225000D01*
X226325000Y-110975000D02*
X225125000Y-110975000D01*
X238875000Y-88475000D02*
X238875000Y-89675000D01*
X237125000Y-89675000D02*
X237125000Y-88475000D01*
X227925000Y-93600000D02*
X227925000Y-94800000D01*
X226175000Y-94800000D02*
X226175000Y-93600000D01*
X241650000Y-90575000D02*
X240450000Y-90575000D01*
X240450000Y-88825000D02*
X241650000Y-88825000D01*
X229625000Y-94925000D02*
X230825000Y-94925000D01*
X230825000Y-96675000D02*
X229625000Y-96675000D01*
X236225000Y-64325000D02*
X235025000Y-64325000D01*
X235025000Y-62575000D02*
X236225000Y-62575000D01*
X236300000Y-66675000D02*
X235100000Y-66675000D01*
X235100000Y-64925000D02*
X236300000Y-64925000D01*
X241550000Y-94600000D02*
X240350000Y-94600000D01*
X240350000Y-92850000D02*
X241550000Y-92850000D01*
X224350000Y-88525000D02*
X225550000Y-88525000D01*
X225550000Y-90275000D02*
X224350000Y-90275000D01*
X243625000Y-110700000D02*
X244825000Y-110700000D01*
X244825000Y-112450000D02*
X243625000Y-112450000D01*
X239100000Y-111150000D02*
X239100000Y-109950000D01*
X240850000Y-109950000D02*
X240850000Y-111150000D01*
X238975000Y-93725000D02*
X238975000Y-94925000D01*
X237225000Y-94925000D02*
X237225000Y-93725000D01*
X226925000Y-89400000D02*
X226925000Y-88200000D01*
X228675000Y-88200000D02*
X228675000Y-89400000D01*
X236175000Y-75400000D02*
X237375000Y-75400000D01*
X237375000Y-77150000D02*
X236175000Y-77150000D01*
X225950000Y-69425000D02*
X227150000Y-69425000D01*
X227150000Y-71175000D02*
X225950000Y-71175000D01*
X239800000Y-75400000D02*
X241000000Y-75400000D01*
X241000000Y-77150000D02*
X239800000Y-77150000D01*
X231025000Y-67475000D02*
X232225000Y-67475000D01*
X232225000Y-69225000D02*
X231025000Y-69225000D01*
X244050000Y-73200000D02*
X244050000Y-72000000D01*
X245800000Y-72000000D02*
X245800000Y-73200000D01*
X226675000Y-72550000D02*
X226675000Y-73750000D01*
X224925000Y-73750000D02*
X224925000Y-72550000D01*
X240225000Y-70500000D02*
X240225000Y-69300000D01*
X241975000Y-69300000D02*
X241975000Y-70500000D01*
X230875000Y-74100000D02*
X230875000Y-75300000D01*
X229125000Y-75300000D02*
X229125000Y-74100000D01*
X181244000Y-98549000D02*
X181244000Y-101597000D01*
X181244000Y-101597000D02*
X188356000Y-101597000D01*
X188356000Y-101597000D02*
X188356000Y-98549000D01*
X181244000Y-95501000D02*
X181244000Y-94739000D01*
X181244000Y-94739000D02*
X182768000Y-92453000D01*
X182768000Y-92453000D02*
X186832000Y-92453000D01*
X186832000Y-92453000D02*
X188356000Y-94739000D01*
X188356000Y-94739000D02*
X188356000Y-95501000D01*
X203850080Y-96825480D02*
X204099000Y-96525760D01*
X204099000Y-96525760D02*
X204200600Y-96375900D01*
X204200600Y-96375900D02*
X204200600Y-97224260D01*
X203499560Y-95324340D02*
X203499560Y-97125200D01*
X203499560Y-95324340D02*
X204149800Y-95324340D01*
X208000440Y-95324340D02*
X208000440Y-97125200D01*
X208000440Y-95324340D02*
X207350200Y-95324340D01*
X216650000Y-107870000D02*
X215650000Y-106870000D01*
X215650000Y-106870000D02*
X206250000Y-106870000D01*
X206250000Y-106870000D02*
X206250000Y-119230000D01*
X206250000Y-119230000D02*
X216650000Y-119230000D01*
X216650000Y-119230000D02*
X216650000Y-107870000D01*
X230600000Y-89000000D02*
X230600000Y-89225000D01*
X235250000Y-89000000D02*
X235250000Y-89225000D01*
X235250000Y-94250000D02*
X235250000Y-94025000D01*
X230600000Y-94250000D02*
X230600000Y-94025000D01*
X230600000Y-89000000D02*
X235250000Y-89000000D01*
X230600000Y-94250000D02*
X235250000Y-94250000D01*
X230600000Y-89225000D02*
X229250000Y-89225000D01*
X232125000Y-107700000D02*
X232125000Y-107845000D01*
X236275000Y-107700000D02*
X236275000Y-107845000D01*
X236275000Y-112850000D02*
X236275000Y-112705000D01*
X232125000Y-112850000D02*
X232125000Y-112705000D01*
X232125000Y-107700000D02*
X236275000Y-107700000D01*
X232125000Y-112850000D02*
X236275000Y-112850000D01*
X232125000Y-107845000D02*
X230725000Y-107845000D01*
X233025001Y-69625000D02*
X233025001Y-69850000D01*
X237675001Y-69625000D02*
X237675001Y-69850000D01*
X237675001Y-74875000D02*
X237675001Y-74650000D01*
X233025001Y-74875000D02*
X233025001Y-74650000D01*
X233025001Y-69625000D02*
X237675001Y-69625000D01*
X233025001Y-74875000D02*
X237675001Y-74875000D01*
X233025001Y-69850000D02*
X231675001Y-69850000D01*
X187525380Y-78324360D02*
X199224620Y-78324360D01*
X199224620Y-73325640D02*
X187525380Y-73325640D01*
X199224620Y-78324360D02*
X199224620Y-77476000D01*
X199224620Y-73325640D02*
X199224620Y-74174000D01*
X187525380Y-78324360D02*
X187525380Y-77476000D01*
X187525380Y-73325640D02*
X187525380Y-74174000D01*
X207795000Y-80505000D02*
X207795000Y-83045000D01*
X208075000Y-77685000D02*
X208075000Y-79235000D01*
X207795000Y-80505000D02*
X205255000Y-80505000D01*
X204975000Y-79235000D02*
X204975000Y-77685000D01*
X204975000Y-77685000D02*
X208075000Y-77685000D01*
X205255000Y-80505000D02*
X205255000Y-83045000D01*
X205255000Y-83045000D02*
X207795000Y-83045000D01*
X214000000Y-89525000D02*
X214000000Y-89825000D01*
X217350000Y-89525000D02*
X217350000Y-89825000D01*
X217350000Y-92875000D02*
X217350000Y-92575000D01*
X214000000Y-92875000D02*
X214000000Y-92575000D01*
X214000000Y-89525000D02*
X217350000Y-89525000D01*
X214000000Y-92875000D02*
X217350000Y-92875000D01*
X214000000Y-89825000D02*
X212775000Y-89825000D01*
X220825000Y-117250000D02*
X220125000Y-117250000D01*
X220125000Y-116050000D02*
X220825000Y-116050000D01*
X204375000Y-118500000D02*
X204375000Y-117800000D01*
X205575000Y-117800000D02*
X205575000Y-118500000D01*
X204575000Y-112800000D02*
X204575000Y-113500000D01*
X203375000Y-113500000D02*
X203375000Y-112800000D01*
X193263095Y-80027381D02*
X193263095Y-80836905D01*
X193310714Y-80932143D01*
X193358333Y-80979762D01*
X193453571Y-81027381D01*
X193644048Y-81027381D01*
X193739286Y-80979762D01*
X193786905Y-80932143D01*
X193834524Y-80836905D01*
X193834524Y-80027381D01*
X194453571Y-80455952D02*
X194358333Y-80408333D01*
X194310714Y-80360714D01*
X194263095Y-80265476D01*
X194263095Y-80217857D01*
X194310714Y-80122619D01*
X194358333Y-80075000D01*
X194453571Y-80027381D01*
X194644048Y-80027381D01*
X194739286Y-80075000D01*
X194786905Y-80122619D01*
X194834524Y-80217857D01*
X194834524Y-80265476D01*
X194786905Y-80360714D01*
X194739286Y-80408333D01*
X194644048Y-80455952D01*
X194453571Y-80455952D01*
X194358333Y-80503571D01*
X194310714Y-80551190D01*
X194263095Y-80646429D01*
X194263095Y-80836905D01*
X194310714Y-80932143D01*
X194358333Y-80979762D01*
X194453571Y-81027381D01*
X194644048Y-81027381D01*
X194739286Y-80979762D01*
X194786905Y-80932143D01*
X194834524Y-80836905D01*
X194834524Y-80646429D01*
X194786905Y-80551190D01*
X194739286Y-80503571D01*
X194644048Y-80455952D01*
X218289286Y-122071429D02*
X219051191Y-122071429D01*
X218670239Y-122452381D02*
X218670239Y-121690476D01*
X219575000Y-122452381D02*
X219765476Y-122452381D01*
X219860715Y-122404762D01*
X219908334Y-122357143D01*
X220003572Y-122214286D01*
X220051191Y-122023810D01*
X220051191Y-121642857D01*
X220003572Y-121547619D01*
X219955953Y-121500000D01*
X219860715Y-121452381D01*
X219670238Y-121452381D01*
X219575000Y-121500000D01*
X219527381Y-121547619D01*
X219479762Y-121642857D01*
X219479762Y-121880952D01*
X219527381Y-121976190D01*
X219575000Y-122023810D01*
X219670238Y-122071429D01*
X219860715Y-122071429D01*
X219955953Y-122023810D01*
X220003572Y-121976190D01*
X220051191Y-121880952D01*
X220336905Y-121452381D02*
X220670238Y-122452381D01*
X221003572Y-121452381D01*
X205414286Y-122071429D02*
X206176191Y-122071429D01*
X206700000Y-122452381D02*
X206890476Y-122452381D01*
X206985715Y-122404762D01*
X207033334Y-122357143D01*
X207128572Y-122214286D01*
X207176191Y-122023810D01*
X207176191Y-121642857D01*
X207128572Y-121547619D01*
X207080953Y-121500000D01*
X206985715Y-121452381D01*
X206795238Y-121452381D01*
X206700000Y-121500000D01*
X206652381Y-121547619D01*
X206604762Y-121642857D01*
X206604762Y-121880952D01*
X206652381Y-121976190D01*
X206700000Y-122023810D01*
X206795238Y-122071429D01*
X206985715Y-122071429D01*
X207080953Y-122023810D01*
X207128572Y-121976190D01*
X207176191Y-121880952D01*
X207461905Y-121452381D02*
X207795238Y-122452381D01*
X208128572Y-121452381D01*
X204296429Y-100172619D02*
X204344048Y-100125000D01*
X204439286Y-100077381D01*
X204677382Y-100077381D01*
X204772620Y-100125000D01*
X204820239Y-100172619D01*
X204867858Y-100267857D01*
X204867858Y-100363095D01*
X204820239Y-100505952D01*
X204248810Y-101077381D01*
X204867858Y-101077381D01*
X205296429Y-100982143D02*
X205344048Y-101029762D01*
X205296429Y-101077381D01*
X205248810Y-101029762D01*
X205296429Y-100982143D01*
X205296429Y-101077381D01*
X206248810Y-100077381D02*
X205772619Y-100077381D01*
X205725000Y-100553571D01*
X205772619Y-100505952D01*
X205867857Y-100458333D01*
X206105953Y-100458333D01*
X206201191Y-100505952D01*
X206248810Y-100553571D01*
X206296429Y-100648810D01*
X206296429Y-100886905D01*
X206248810Y-100982143D01*
X206201191Y-101029762D01*
X206105953Y-101077381D01*
X205867857Y-101077381D01*
X205772619Y-101029762D01*
X205725000Y-100982143D01*
X206582143Y-100077381D02*
X206915476Y-101077381D01*
X207248810Y-100077381D01*
X176798810Y-91902381D02*
X177417858Y-91902381D01*
X177084524Y-92283333D01*
X177227382Y-92283333D01*
X177322620Y-92330952D01*
X177370239Y-92378571D01*
X177417858Y-92473810D01*
X177417858Y-92711905D01*
X177370239Y-92807143D01*
X177322620Y-92854762D01*
X177227382Y-92902381D01*
X176941667Y-92902381D01*
X176846429Y-92854762D01*
X176798810Y-92807143D01*
X177846429Y-92807143D02*
X177894048Y-92854762D01*
X177846429Y-92902381D01*
X177798810Y-92854762D01*
X177846429Y-92807143D01*
X177846429Y-92902381D01*
X178227381Y-91902381D02*
X178846429Y-91902381D01*
X178513095Y-92283333D01*
X178655953Y-92283333D01*
X178751191Y-92330952D01*
X178798810Y-92378571D01*
X178846429Y-92473810D01*
X178846429Y-92711905D01*
X178798810Y-92807143D01*
X178751191Y-92854762D01*
X178655953Y-92902381D01*
X178370238Y-92902381D01*
X178275000Y-92854762D01*
X178227381Y-92807143D01*
X179132143Y-91902381D02*
X179465476Y-92902381D01*
X179798810Y-91902381D01*
X176184524Y-86452381D02*
X175708333Y-86452381D01*
X175660714Y-86928571D01*
X175708333Y-86880952D01*
X175803571Y-86833333D01*
X176041667Y-86833333D01*
X176136905Y-86880952D01*
X176184524Y-86928571D01*
X176232143Y-87023810D01*
X176232143Y-87261905D01*
X176184524Y-87357143D01*
X176136905Y-87404762D01*
X176041667Y-87452381D01*
X175803571Y-87452381D01*
X175708333Y-87404762D01*
X175660714Y-87357143D01*
X176517857Y-86452381D02*
X176851190Y-87452381D01*
X177184524Y-86452381D01*
X187083334Y-106007143D02*
X187035715Y-106054762D01*
X186892858Y-106102381D01*
X186797620Y-106102381D01*
X186654762Y-106054762D01*
X186559524Y-105959524D01*
X186511905Y-105864286D01*
X186464286Y-105673810D01*
X186464286Y-105530952D01*
X186511905Y-105340476D01*
X186559524Y-105245238D01*
X186654762Y-105150000D01*
X186797620Y-105102381D01*
X186892858Y-105102381D01*
X187035715Y-105150000D01*
X187083334Y-105197619D01*
X188035715Y-106102381D02*
X187464286Y-106102381D01*
X187750000Y-106102381D02*
X187750000Y-105102381D01*
X187654762Y-105245238D01*
X187559524Y-105340476D01*
X187464286Y-105388095D01*
X184658334Y-105982143D02*
X184610715Y-106029762D01*
X184467858Y-106077381D01*
X184372620Y-106077381D01*
X184229762Y-106029762D01*
X184134524Y-105934524D01*
X184086905Y-105839286D01*
X184039286Y-105648810D01*
X184039286Y-105505952D01*
X184086905Y-105315476D01*
X184134524Y-105220238D01*
X184229762Y-105125000D01*
X184372620Y-105077381D01*
X184467858Y-105077381D01*
X184610715Y-105125000D01*
X184658334Y-105172619D01*
X184991667Y-105077381D02*
X185610715Y-105077381D01*
X185277381Y-105458333D01*
X185420239Y-105458333D01*
X185515477Y-105505952D01*
X185563096Y-105553571D01*
X185610715Y-105648810D01*
X185610715Y-105886905D01*
X185563096Y-105982143D01*
X185515477Y-106029762D01*
X185420239Y-106077381D01*
X185134524Y-106077381D01*
X185039286Y-106029762D01*
X184991667Y-105982143D01*
X204683334Y-85907143D02*
X204635715Y-85954762D01*
X204492858Y-86002381D01*
X204397620Y-86002381D01*
X204254762Y-85954762D01*
X204159524Y-85859524D01*
X204111905Y-85764286D01*
X204064286Y-85573810D01*
X204064286Y-85430952D01*
X204111905Y-85240476D01*
X204159524Y-85145238D01*
X204254762Y-85050000D01*
X204397620Y-85002381D01*
X204492858Y-85002381D01*
X204635715Y-85050000D01*
X204683334Y-85097619D01*
X205540477Y-85335714D02*
X205540477Y-86002381D01*
X205302381Y-84954762D02*
X205064286Y-85669048D01*
X205683334Y-85669048D01*
X184058334Y-88607143D02*
X184010715Y-88654762D01*
X183867858Y-88702381D01*
X183772620Y-88702381D01*
X183629762Y-88654762D01*
X183534524Y-88559524D01*
X183486905Y-88464286D01*
X183439286Y-88273810D01*
X183439286Y-88130952D01*
X183486905Y-87940476D01*
X183534524Y-87845238D01*
X183629762Y-87750000D01*
X183772620Y-87702381D01*
X183867858Y-87702381D01*
X184010715Y-87750000D01*
X184058334Y-87797619D01*
X184963096Y-87702381D02*
X184486905Y-87702381D01*
X184439286Y-88178571D01*
X184486905Y-88130952D01*
X184582143Y-88083333D01*
X184820239Y-88083333D01*
X184915477Y-88130952D01*
X184963096Y-88178571D01*
X185010715Y-88273810D01*
X185010715Y-88511905D01*
X184963096Y-88607143D01*
X184915477Y-88654762D01*
X184820239Y-88702381D01*
X184582143Y-88702381D01*
X184486905Y-88654762D01*
X184439286Y-88607143D01*
X184583334Y-86707143D02*
X184535715Y-86754762D01*
X184392858Y-86802381D01*
X184297620Y-86802381D01*
X184154762Y-86754762D01*
X184059524Y-86659524D01*
X184011905Y-86564286D01*
X183964286Y-86373810D01*
X183964286Y-86230952D01*
X184011905Y-86040476D01*
X184059524Y-85945238D01*
X184154762Y-85850000D01*
X184297620Y-85802381D01*
X184392858Y-85802381D01*
X184535715Y-85850000D01*
X184583334Y-85897619D01*
X185440477Y-85802381D02*
X185250000Y-85802381D01*
X185154762Y-85850000D01*
X185107143Y-85897619D01*
X185011905Y-86040476D01*
X184964286Y-86230952D01*
X184964286Y-86611905D01*
X185011905Y-86707143D01*
X185059524Y-86754762D01*
X185154762Y-86802381D01*
X185345239Y-86802381D01*
X185440477Y-86754762D01*
X185488096Y-86707143D01*
X185535715Y-86611905D01*
X185535715Y-86373810D01*
X185488096Y-86278571D01*
X185440477Y-86230952D01*
X185345239Y-86183333D01*
X185154762Y-86183333D01*
X185059524Y-86230952D01*
X185011905Y-86278571D01*
X184964286Y-86373810D01*
X194283334Y-98432143D02*
X194235715Y-98479762D01*
X194092858Y-98527381D01*
X193997620Y-98527381D01*
X193854762Y-98479762D01*
X193759524Y-98384524D01*
X193711905Y-98289286D01*
X193664286Y-98098810D01*
X193664286Y-97955952D01*
X193711905Y-97765476D01*
X193759524Y-97670238D01*
X193854762Y-97575000D01*
X193997620Y-97527381D01*
X194092858Y-97527381D01*
X194235715Y-97575000D01*
X194283334Y-97622619D01*
X194616667Y-97527381D02*
X195283334Y-97527381D01*
X194854762Y-98527381D01*
X191933334Y-97957143D02*
X191885715Y-98004762D01*
X191742858Y-98052381D01*
X191647620Y-98052381D01*
X191504762Y-98004762D01*
X191409524Y-97909524D01*
X191361905Y-97814286D01*
X191314286Y-97623810D01*
X191314286Y-97480952D01*
X191361905Y-97290476D01*
X191409524Y-97195238D01*
X191504762Y-97100000D01*
X191647620Y-97052381D01*
X191742858Y-97052381D01*
X191885715Y-97100000D01*
X191933334Y-97147619D01*
X192504762Y-97480952D02*
X192409524Y-97433333D01*
X192361905Y-97385714D01*
X192314286Y-97290476D01*
X192314286Y-97242857D01*
X192361905Y-97147619D01*
X192409524Y-97100000D01*
X192504762Y-97052381D01*
X192695239Y-97052381D01*
X192790477Y-97100000D01*
X192838096Y-97147619D01*
X192885715Y-97242857D01*
X192885715Y-97290476D01*
X192838096Y-97385714D01*
X192790477Y-97433333D01*
X192695239Y-97480952D01*
X192504762Y-97480952D01*
X192409524Y-97528571D01*
X192361905Y-97576190D01*
X192314286Y-97671429D01*
X192314286Y-97861905D01*
X192361905Y-97957143D01*
X192409524Y-98004762D01*
X192504762Y-98052381D01*
X192695239Y-98052381D01*
X192790477Y-98004762D01*
X192838096Y-97957143D01*
X192885715Y-97861905D01*
X192885715Y-97671429D01*
X192838096Y-97576190D01*
X192790477Y-97528571D01*
X192695239Y-97480952D01*
X197583334Y-79782143D02*
X197535715Y-79829762D01*
X197392858Y-79877381D01*
X197297620Y-79877381D01*
X197154762Y-79829762D01*
X197059524Y-79734524D01*
X197011905Y-79639286D01*
X196964286Y-79448810D01*
X196964286Y-79305952D01*
X197011905Y-79115476D01*
X197059524Y-79020238D01*
X197154762Y-78925000D01*
X197297620Y-78877381D01*
X197392858Y-78877381D01*
X197535715Y-78925000D01*
X197583334Y-78972619D01*
X198059524Y-79877381D02*
X198250000Y-79877381D01*
X198345239Y-79829762D01*
X198392858Y-79782143D01*
X198488096Y-79639286D01*
X198535715Y-79448810D01*
X198535715Y-79067857D01*
X198488096Y-78972619D01*
X198440477Y-78925000D01*
X198345239Y-78877381D01*
X198154762Y-78877381D01*
X198059524Y-78925000D01*
X198011905Y-78972619D01*
X197964286Y-79067857D01*
X197964286Y-79305952D01*
X198011905Y-79401190D01*
X198059524Y-79448810D01*
X198154762Y-79496429D01*
X198345239Y-79496429D01*
X198440477Y-79448810D01*
X198488096Y-79401190D01*
X198535715Y-79305952D01*
X188157143Y-79632143D02*
X188109524Y-79679762D01*
X187966667Y-79727381D01*
X187871429Y-79727381D01*
X187728571Y-79679762D01*
X187633333Y-79584524D01*
X187585714Y-79489286D01*
X187538095Y-79298810D01*
X187538095Y-79155952D01*
X187585714Y-78965476D01*
X187633333Y-78870238D01*
X187728571Y-78775000D01*
X187871429Y-78727381D01*
X187966667Y-78727381D01*
X188109524Y-78775000D01*
X188157143Y-78822619D01*
X189109524Y-79727381D02*
X188538095Y-79727381D01*
X188823809Y-79727381D02*
X188823809Y-78727381D01*
X188728571Y-78870238D01*
X188633333Y-78965476D01*
X188538095Y-79013095D01*
X189728571Y-78727381D02*
X189823810Y-78727381D01*
X189919048Y-78775000D01*
X189966667Y-78822619D01*
X190014286Y-78917857D01*
X190061905Y-79108333D01*
X190061905Y-79346429D01*
X190014286Y-79536905D01*
X189966667Y-79632143D01*
X189919048Y-79679762D01*
X189823810Y-79727381D01*
X189728571Y-79727381D01*
X189633333Y-79679762D01*
X189585714Y-79632143D01*
X189538095Y-79536905D01*
X189490476Y-79346429D01*
X189490476Y-79108333D01*
X189538095Y-78917857D01*
X189585714Y-78822619D01*
X189633333Y-78775000D01*
X189728571Y-78727381D01*
X180207143Y-87032143D02*
X180159524Y-87079762D01*
X180016667Y-87127381D01*
X179921429Y-87127381D01*
X179778571Y-87079762D01*
X179683333Y-86984524D01*
X179635714Y-86889286D01*
X179588095Y-86698810D01*
X179588095Y-86555952D01*
X179635714Y-86365476D01*
X179683333Y-86270238D01*
X179778571Y-86175000D01*
X179921429Y-86127381D01*
X180016667Y-86127381D01*
X180159524Y-86175000D01*
X180207143Y-86222619D01*
X181159524Y-87127381D02*
X180588095Y-87127381D01*
X180873809Y-87127381D02*
X180873809Y-86127381D01*
X180778571Y-86270238D01*
X180683333Y-86365476D01*
X180588095Y-86413095D01*
X182111905Y-87127381D02*
X181540476Y-87127381D01*
X181826190Y-87127381D02*
X181826190Y-86127381D01*
X181730952Y-86270238D01*
X181635714Y-86365476D01*
X181540476Y-86413095D01*
X183382143Y-73357143D02*
X183334524Y-73404762D01*
X183191667Y-73452381D01*
X183096429Y-73452381D01*
X182953571Y-73404762D01*
X182858333Y-73309524D01*
X182810714Y-73214286D01*
X182763095Y-73023810D01*
X182763095Y-72880952D01*
X182810714Y-72690476D01*
X182858333Y-72595238D01*
X182953571Y-72500000D01*
X183096429Y-72452381D01*
X183191667Y-72452381D01*
X183334524Y-72500000D01*
X183382143Y-72547619D01*
X184334524Y-73452381D02*
X183763095Y-73452381D01*
X184048809Y-73452381D02*
X184048809Y-72452381D01*
X183953571Y-72595238D01*
X183858333Y-72690476D01*
X183763095Y-72738095D01*
X184715476Y-72547619D02*
X184763095Y-72500000D01*
X184858333Y-72452381D01*
X185096429Y-72452381D01*
X185191667Y-72500000D01*
X185239286Y-72547619D01*
X185286905Y-72642857D01*
X185286905Y-72738095D01*
X185239286Y-72880952D01*
X184667857Y-73452381D01*
X185286905Y-73452381D01*
X202232143Y-73107143D02*
X202184524Y-73154762D01*
X202041667Y-73202381D01*
X201946429Y-73202381D01*
X201803571Y-73154762D01*
X201708333Y-73059524D01*
X201660714Y-72964286D01*
X201613095Y-72773810D01*
X201613095Y-72630952D01*
X201660714Y-72440476D01*
X201708333Y-72345238D01*
X201803571Y-72250000D01*
X201946429Y-72202381D01*
X202041667Y-72202381D01*
X202184524Y-72250000D01*
X202232143Y-72297619D01*
X203184524Y-73202381D02*
X202613095Y-73202381D01*
X202898809Y-73202381D02*
X202898809Y-72202381D01*
X202803571Y-72345238D01*
X202708333Y-72440476D01*
X202613095Y-72488095D01*
X203517857Y-72202381D02*
X204136905Y-72202381D01*
X203803571Y-72583333D01*
X203946429Y-72583333D01*
X204041667Y-72630952D01*
X204089286Y-72678571D01*
X204136905Y-72773810D01*
X204136905Y-73011905D01*
X204089286Y-73107143D01*
X204041667Y-73154762D01*
X203946429Y-73202381D01*
X203660714Y-73202381D01*
X203565476Y-73154762D01*
X203517857Y-73107143D01*
X219857143Y-95007143D02*
X219809524Y-95054762D01*
X219666667Y-95102381D01*
X219571429Y-95102381D01*
X219428571Y-95054762D01*
X219333333Y-94959524D01*
X219285714Y-94864286D01*
X219238095Y-94673810D01*
X219238095Y-94530952D01*
X219285714Y-94340476D01*
X219333333Y-94245238D01*
X219428571Y-94150000D01*
X219571429Y-94102381D01*
X219666667Y-94102381D01*
X219809524Y-94150000D01*
X219857143Y-94197619D01*
X220809524Y-95102381D02*
X220238095Y-95102381D01*
X220523809Y-95102381D02*
X220523809Y-94102381D01*
X220428571Y-94245238D01*
X220333333Y-94340476D01*
X220238095Y-94388095D01*
X221666667Y-94435714D02*
X221666667Y-95102381D01*
X221428571Y-94054762D02*
X221190476Y-94769048D01*
X221809524Y-94769048D01*
X242657143Y-78582143D02*
X242609524Y-78629762D01*
X242466667Y-78677381D01*
X242371429Y-78677381D01*
X242228571Y-78629762D01*
X242133333Y-78534524D01*
X242085714Y-78439286D01*
X242038095Y-78248810D01*
X242038095Y-78105952D01*
X242085714Y-77915476D01*
X242133333Y-77820238D01*
X242228571Y-77725000D01*
X242371429Y-77677381D01*
X242466667Y-77677381D01*
X242609524Y-77725000D01*
X242657143Y-77772619D01*
X243609524Y-78677381D02*
X243038095Y-78677381D01*
X243323809Y-78677381D02*
X243323809Y-77677381D01*
X243228571Y-77820238D01*
X243133333Y-77915476D01*
X243038095Y-77963095D01*
X244514286Y-77677381D02*
X244038095Y-77677381D01*
X243990476Y-78153571D01*
X244038095Y-78105952D01*
X244133333Y-78058333D01*
X244371429Y-78058333D01*
X244466667Y-78105952D01*
X244514286Y-78153571D01*
X244561905Y-78248810D01*
X244561905Y-78486905D01*
X244514286Y-78582143D01*
X244466667Y-78629762D01*
X244371429Y-78677381D01*
X244133333Y-78677381D01*
X244038095Y-78629762D01*
X243990476Y-78582143D01*
X227982143Y-66757143D02*
X227934524Y-66804762D01*
X227791667Y-66852381D01*
X227696429Y-66852381D01*
X227553571Y-66804762D01*
X227458333Y-66709524D01*
X227410714Y-66614286D01*
X227363095Y-66423810D01*
X227363095Y-66280952D01*
X227410714Y-66090476D01*
X227458333Y-65995238D01*
X227553571Y-65900000D01*
X227696429Y-65852381D01*
X227791667Y-65852381D01*
X227934524Y-65900000D01*
X227982143Y-65947619D01*
X228934524Y-66852381D02*
X228363095Y-66852381D01*
X228648809Y-66852381D02*
X228648809Y-65852381D01*
X228553571Y-65995238D01*
X228458333Y-66090476D01*
X228363095Y-66138095D01*
X229791667Y-65852381D02*
X229601190Y-65852381D01*
X229505952Y-65900000D01*
X229458333Y-65947619D01*
X229363095Y-66090476D01*
X229315476Y-66280952D01*
X229315476Y-66661905D01*
X229363095Y-66757143D01*
X229410714Y-66804762D01*
X229505952Y-66852381D01*
X229696429Y-66852381D01*
X229791667Y-66804762D01*
X229839286Y-66757143D01*
X229886905Y-66661905D01*
X229886905Y-66423810D01*
X229839286Y-66328571D01*
X229791667Y-66280952D01*
X229696429Y-66233333D01*
X229505952Y-66233333D01*
X229410714Y-66280952D01*
X229363095Y-66328571D01*
X229315476Y-66423810D01*
X224432143Y-91957143D02*
X224384524Y-92004762D01*
X224241667Y-92052381D01*
X224146429Y-92052381D01*
X224003571Y-92004762D01*
X223908333Y-91909524D01*
X223860714Y-91814286D01*
X223813095Y-91623810D01*
X223813095Y-91480952D01*
X223860714Y-91290476D01*
X223908333Y-91195238D01*
X224003571Y-91100000D01*
X224146429Y-91052381D01*
X224241667Y-91052381D01*
X224384524Y-91100000D01*
X224432143Y-91147619D01*
X225384524Y-92052381D02*
X224813095Y-92052381D01*
X225098809Y-92052381D02*
X225098809Y-91052381D01*
X225003571Y-91195238D01*
X224908333Y-91290476D01*
X224813095Y-91338095D01*
X225717857Y-91052381D02*
X226384524Y-91052381D01*
X225955952Y-92052381D01*
X240207143Y-91907143D02*
X240159524Y-91954762D01*
X240016667Y-92002381D01*
X239921429Y-92002381D01*
X239778571Y-91954762D01*
X239683333Y-91859524D01*
X239635714Y-91764286D01*
X239588095Y-91573810D01*
X239588095Y-91430952D01*
X239635714Y-91240476D01*
X239683333Y-91145238D01*
X239778571Y-91050000D01*
X239921429Y-91002381D01*
X240016667Y-91002381D01*
X240159524Y-91050000D01*
X240207143Y-91097619D01*
X241159524Y-92002381D02*
X240588095Y-92002381D01*
X240873809Y-92002381D02*
X240873809Y-91002381D01*
X240778571Y-91145238D01*
X240683333Y-91240476D01*
X240588095Y-91288095D01*
X241730952Y-91430952D02*
X241635714Y-91383333D01*
X241588095Y-91335714D01*
X241540476Y-91240476D01*
X241540476Y-91192857D01*
X241588095Y-91097619D01*
X241635714Y-91050000D01*
X241730952Y-91002381D01*
X241921429Y-91002381D01*
X242016667Y-91050000D01*
X242064286Y-91097619D01*
X242111905Y-91192857D01*
X242111905Y-91240476D01*
X242064286Y-91335714D01*
X242016667Y-91383333D01*
X241921429Y-91430952D01*
X241730952Y-91430952D01*
X241635714Y-91478571D01*
X241588095Y-91526190D01*
X241540476Y-91621429D01*
X241540476Y-91811905D01*
X241588095Y-91907143D01*
X241635714Y-91954762D01*
X241730952Y-92002381D01*
X241921429Y-92002381D01*
X242016667Y-91954762D01*
X242064286Y-91907143D01*
X242111905Y-91811905D01*
X242111905Y-91621429D01*
X242064286Y-91526190D01*
X242016667Y-91478571D01*
X241921429Y-91430952D01*
X229282143Y-71357143D02*
X229234524Y-71404762D01*
X229091667Y-71452381D01*
X228996429Y-71452381D01*
X228853571Y-71404762D01*
X228758333Y-71309524D01*
X228710714Y-71214286D01*
X228663095Y-71023810D01*
X228663095Y-70880952D01*
X228710714Y-70690476D01*
X228758333Y-70595238D01*
X228853571Y-70500000D01*
X228996429Y-70452381D01*
X229091667Y-70452381D01*
X229234524Y-70500000D01*
X229282143Y-70547619D01*
X230234524Y-71452381D02*
X229663095Y-71452381D01*
X229948809Y-71452381D02*
X229948809Y-70452381D01*
X229853571Y-70595238D01*
X229758333Y-70690476D01*
X229663095Y-70738095D01*
X230710714Y-71452381D02*
X230901190Y-71452381D01*
X230996429Y-71404762D01*
X231044048Y-71357143D01*
X231139286Y-71214286D01*
X231186905Y-71023810D01*
X231186905Y-70642857D01*
X231139286Y-70547619D01*
X231091667Y-70500000D01*
X230996429Y-70452381D01*
X230805952Y-70452381D01*
X230710714Y-70500000D01*
X230663095Y-70547619D01*
X230615476Y-70642857D01*
X230615476Y-70880952D01*
X230663095Y-70976190D01*
X230710714Y-71023810D01*
X230805952Y-71071429D01*
X230996429Y-71071429D01*
X231091667Y-71023810D01*
X231139286Y-70976190D01*
X231186905Y-70880952D01*
X240882143Y-74032143D02*
X240834524Y-74079762D01*
X240691667Y-74127381D01*
X240596429Y-74127381D01*
X240453571Y-74079762D01*
X240358333Y-73984524D01*
X240310714Y-73889286D01*
X240263095Y-73698810D01*
X240263095Y-73555952D01*
X240310714Y-73365476D01*
X240358333Y-73270238D01*
X240453571Y-73175000D01*
X240596429Y-73127381D01*
X240691667Y-73127381D01*
X240834524Y-73175000D01*
X240882143Y-73222619D01*
X241263095Y-73222619D02*
X241310714Y-73175000D01*
X241405952Y-73127381D01*
X241644048Y-73127381D01*
X241739286Y-73175000D01*
X241786905Y-73222619D01*
X241834524Y-73317857D01*
X241834524Y-73413095D01*
X241786905Y-73555952D01*
X241215476Y-74127381D01*
X241834524Y-74127381D01*
X242453571Y-73127381D02*
X242548810Y-73127381D01*
X242644048Y-73175000D01*
X242691667Y-73222619D01*
X242739286Y-73317857D01*
X242786905Y-73508333D01*
X242786905Y-73746429D01*
X242739286Y-73936905D01*
X242691667Y-74032143D01*
X242644048Y-74079762D01*
X242548810Y-74127381D01*
X242453571Y-74127381D01*
X242358333Y-74079762D01*
X242310714Y-74032143D01*
X242263095Y-73936905D01*
X242215476Y-73746429D01*
X242215476Y-73508333D01*
X242263095Y-73317857D01*
X242310714Y-73222619D01*
X242358333Y-73175000D01*
X242453571Y-73127381D01*
X241357143Y-108657143D02*
X241309524Y-108704762D01*
X241166667Y-108752381D01*
X241071429Y-108752381D01*
X240928571Y-108704762D01*
X240833333Y-108609524D01*
X240785714Y-108514286D01*
X240738095Y-108323810D01*
X240738095Y-108180952D01*
X240785714Y-107990476D01*
X240833333Y-107895238D01*
X240928571Y-107800000D01*
X241071429Y-107752381D01*
X241166667Y-107752381D01*
X241309524Y-107800000D01*
X241357143Y-107847619D01*
X241738095Y-107847619D02*
X241785714Y-107800000D01*
X241880952Y-107752381D01*
X242119048Y-107752381D01*
X242214286Y-107800000D01*
X242261905Y-107847619D01*
X242309524Y-107942857D01*
X242309524Y-108038095D01*
X242261905Y-108180952D01*
X241690476Y-108752381D01*
X242309524Y-108752381D01*
X243261905Y-108752381D02*
X242690476Y-108752381D01*
X242976190Y-108752381D02*
X242976190Y-107752381D01*
X242880952Y-107895238D01*
X242785714Y-107990476D01*
X242690476Y-108038095D01*
X225757143Y-112432143D02*
X225709524Y-112479762D01*
X225566667Y-112527381D01*
X225471429Y-112527381D01*
X225328571Y-112479762D01*
X225233333Y-112384524D01*
X225185714Y-112289286D01*
X225138095Y-112098810D01*
X225138095Y-111955952D01*
X225185714Y-111765476D01*
X225233333Y-111670238D01*
X225328571Y-111575000D01*
X225471429Y-111527381D01*
X225566667Y-111527381D01*
X225709524Y-111575000D01*
X225757143Y-111622619D01*
X226138095Y-111622619D02*
X226185714Y-111575000D01*
X226280952Y-111527381D01*
X226519048Y-111527381D01*
X226614286Y-111575000D01*
X226661905Y-111622619D01*
X226709524Y-111717857D01*
X226709524Y-111813095D01*
X226661905Y-111955952D01*
X226090476Y-112527381D01*
X226709524Y-112527381D01*
X227090476Y-111622619D02*
X227138095Y-111575000D01*
X227233333Y-111527381D01*
X227471429Y-111527381D01*
X227566667Y-111575000D01*
X227614286Y-111622619D01*
X227661905Y-111717857D01*
X227661905Y-111813095D01*
X227614286Y-111955952D01*
X227042857Y-112527381D01*
X227661905Y-112527381D01*
X206734534Y-89982803D02*
X206686915Y-90030422D01*
X206544058Y-90078041D01*
X206448820Y-90078041D01*
X206305962Y-90030422D01*
X206210724Y-89935184D01*
X206163105Y-89839946D01*
X206115486Y-89649470D01*
X206115486Y-89506612D01*
X206163105Y-89316136D01*
X206210724Y-89220898D01*
X206305962Y-89125660D01*
X206448820Y-89078041D01*
X206544058Y-89078041D01*
X206686915Y-89125660D01*
X206734534Y-89173279D01*
X207163105Y-90078041D02*
X207163105Y-89078041D01*
X207544058Y-89078041D01*
X207639296Y-89125660D01*
X207686915Y-89173279D01*
X207734534Y-89268517D01*
X207734534Y-89411374D01*
X207686915Y-89506612D01*
X207639296Y-89554231D01*
X207544058Y-89601850D01*
X207163105Y-89601850D01*
X208686915Y-90078041D02*
X208115486Y-90078041D01*
X208401200Y-90078041D02*
X208401200Y-89078041D01*
X208305962Y-89220898D01*
X208210724Y-89316136D01*
X208115486Y-89363755D01*
X208770569Y-94405892D02*
X208770569Y-93643987D01*
X209151521Y-94024939D02*
X208389616Y-94024939D01*
X191064286Y-110054762D02*
X191207143Y-110102381D01*
X191445239Y-110102381D01*
X191540477Y-110054762D01*
X191588096Y-110007143D01*
X191635715Y-109911905D01*
X191635715Y-109816667D01*
X191588096Y-109721429D01*
X191540477Y-109673810D01*
X191445239Y-109626190D01*
X191254762Y-109578571D01*
X191159524Y-109530952D01*
X191111905Y-109483333D01*
X191064286Y-109388095D01*
X191064286Y-109292857D01*
X191111905Y-109197619D01*
X191159524Y-109150000D01*
X191254762Y-109102381D01*
X191492858Y-109102381D01*
X191635715Y-109150000D01*
X186058334Y-80427381D02*
X185582143Y-80427381D01*
X185582143Y-79427381D01*
X186915477Y-80427381D02*
X186344048Y-80427381D01*
X186629762Y-80427381D02*
X186629762Y-79427381D01*
X186534524Y-79570238D01*
X186439286Y-79665476D01*
X186344048Y-79713095D01*
X162527381Y-94538095D02*
X161527381Y-94538095D01*
X161527381Y-94157142D01*
X161575000Y-94061904D01*
X161622619Y-94014285D01*
X161717857Y-93966666D01*
X161860714Y-93966666D01*
X161955952Y-94014285D01*
X162003571Y-94061904D01*
X162051190Y-94157142D01*
X162051190Y-94538095D01*
X162527381Y-93014285D02*
X162527381Y-93585714D01*
X162527381Y-93300000D02*
X161527381Y-93300000D01*
X161670238Y-93395238D01*
X161765476Y-93490476D01*
X161813095Y-93585714D01*
X262977381Y-95838095D02*
X261977381Y-95838095D01*
X261977381Y-95457142D01*
X262025000Y-95361904D01*
X262072619Y-95314285D01*
X262167857Y-95266666D01*
X262310714Y-95266666D01*
X262405952Y-95314285D01*
X262453571Y-95361904D01*
X262501190Y-95457142D01*
X262501190Y-95838095D01*
X262072619Y-94885714D02*
X262025000Y-94838095D01*
X261977381Y-94742857D01*
X261977381Y-94504761D01*
X262025000Y-94409523D01*
X262072619Y-94361904D01*
X262167857Y-94314285D01*
X262263095Y-94314285D01*
X262405952Y-94361904D01*
X262977381Y-94933333D01*
X262977381Y-94314285D01*
X182148809Y-110402381D02*
X182148809Y-109402381D01*
X182529762Y-109402381D01*
X182625000Y-109450000D01*
X182672619Y-109497619D01*
X182720238Y-109592857D01*
X182720238Y-109735714D01*
X182672619Y-109830952D01*
X182625000Y-109878571D01*
X182529762Y-109926190D01*
X182148809Y-109926190D01*
X183291666Y-110402381D02*
X183196428Y-110354762D01*
X183148809Y-110307143D01*
X183101190Y-110211905D01*
X183101190Y-109926190D01*
X183148809Y-109830952D01*
X183196428Y-109783333D01*
X183291666Y-109735714D01*
X183434524Y-109735714D01*
X183529762Y-109783333D01*
X183577381Y-109830952D01*
X183625000Y-109926190D01*
X183625000Y-110211905D01*
X183577381Y-110307143D01*
X183529762Y-110354762D01*
X183434524Y-110402381D01*
X183291666Y-110402381D01*
X183958333Y-109735714D02*
X184148809Y-110402381D01*
X184339286Y-109926190D01*
X184529762Y-110402381D01*
X184720238Y-109735714D01*
X185482143Y-110354762D02*
X185386905Y-110402381D01*
X185196428Y-110402381D01*
X185101190Y-110354762D01*
X185053571Y-110259524D01*
X185053571Y-109878571D01*
X185101190Y-109783333D01*
X185196428Y-109735714D01*
X185386905Y-109735714D01*
X185482143Y-109783333D01*
X185529762Y-109878571D01*
X185529762Y-109973810D01*
X185053571Y-110069048D01*
X185958333Y-110402381D02*
X185958333Y-109735714D01*
X185958333Y-109926190D02*
X186005952Y-109830952D01*
X186053571Y-109783333D01*
X186148809Y-109735714D01*
X186244048Y-109735714D01*
X178208334Y-80327381D02*
X177875000Y-79851190D01*
X177636905Y-80327381D02*
X177636905Y-79327381D01*
X178017858Y-79327381D01*
X178113096Y-79375000D01*
X178160715Y-79422619D01*
X178208334Y-79517857D01*
X178208334Y-79660714D01*
X178160715Y-79755952D01*
X178113096Y-79803571D01*
X178017858Y-79851190D01*
X177636905Y-79851190D01*
X179160715Y-80327381D02*
X178589286Y-80327381D01*
X178875000Y-80327381D02*
X178875000Y-79327381D01*
X178779762Y-79470238D01*
X178684524Y-79565476D01*
X178589286Y-79613095D01*
X178333334Y-82502381D02*
X178000000Y-82026190D01*
X177761905Y-82502381D02*
X177761905Y-81502381D01*
X178142858Y-81502381D01*
X178238096Y-81550000D01*
X178285715Y-81597619D01*
X178333334Y-81692857D01*
X178333334Y-81835714D01*
X178285715Y-81930952D01*
X178238096Y-81978571D01*
X178142858Y-82026190D01*
X177761905Y-82026190D01*
X178714286Y-81597619D02*
X178761905Y-81550000D01*
X178857143Y-81502381D01*
X179095239Y-81502381D01*
X179190477Y-81550000D01*
X179238096Y-81597619D01*
X179285715Y-81692857D01*
X179285715Y-81788095D01*
X179238096Y-81930952D01*
X178666667Y-82502381D01*
X179285715Y-82502381D01*
X248855953Y-77177381D02*
X248522619Y-76701190D01*
X248284524Y-77177381D02*
X248284524Y-76177381D01*
X248665477Y-76177381D01*
X248760715Y-76225000D01*
X248808334Y-76272619D01*
X248855953Y-76367857D01*
X248855953Y-76510714D01*
X248808334Y-76605952D01*
X248760715Y-76653571D01*
X248665477Y-76701190D01*
X248284524Y-76701190D01*
X249189286Y-76177381D02*
X249855953Y-77177381D01*
X249855953Y-76177381D02*
X249189286Y-77177381D01*
X250236905Y-76510714D02*
X250236905Y-77510714D01*
X250236905Y-76558333D02*
X250332143Y-76510714D01*
X250522620Y-76510714D01*
X250617858Y-76558333D01*
X250665477Y-76605952D01*
X250713096Y-76701190D01*
X250713096Y-76986905D01*
X250665477Y-77082143D01*
X250617858Y-77129762D01*
X250522620Y-77177381D01*
X250332143Y-77177381D01*
X250236905Y-77129762D01*
X248903572Y-81102381D02*
X248570238Y-80626190D01*
X248332143Y-81102381D02*
X248332143Y-80102381D01*
X248713096Y-80102381D01*
X248808334Y-80150000D01*
X248855953Y-80197619D01*
X248903572Y-80292857D01*
X248903572Y-80435714D01*
X248855953Y-80530952D01*
X248808334Y-80578571D01*
X248713096Y-80626190D01*
X248332143Y-80626190D01*
X249522619Y-80626190D02*
X249522619Y-81102381D01*
X249189286Y-80102381D02*
X249522619Y-80626190D01*
X249855953Y-80102381D01*
X250189286Y-80435714D02*
X250189286Y-81435714D01*
X250189286Y-80483333D02*
X250284524Y-80435714D01*
X250475001Y-80435714D01*
X250570239Y-80483333D01*
X250617858Y-80530952D01*
X250665477Y-80626190D01*
X250665477Y-80911905D01*
X250617858Y-81007143D01*
X250570239Y-81054762D01*
X250475001Y-81102381D01*
X250284524Y-81102381D01*
X250189286Y-81054762D01*
X247189286Y-85102381D02*
X246855952Y-84626190D01*
X246617857Y-85102381D02*
X246617857Y-84102381D01*
X246998810Y-84102381D01*
X247094048Y-84150000D01*
X247141667Y-84197619D01*
X247189286Y-84292857D01*
X247189286Y-84435714D01*
X247141667Y-84530952D01*
X247094048Y-84578571D01*
X246998810Y-84626190D01*
X246617857Y-84626190D01*
X247617857Y-85102381D02*
X247617857Y-84102381D01*
X248094047Y-85102381D02*
X248094047Y-84102381D01*
X248665476Y-85102381D01*
X248665476Y-84102381D01*
X248998809Y-84102381D02*
X249570238Y-84102381D01*
X249284523Y-85102381D02*
X249284523Y-84102381D01*
X249903571Y-84435714D02*
X249903571Y-85435714D01*
X249903571Y-84483333D02*
X249998809Y-84435714D01*
X250189286Y-84435714D01*
X250284524Y-84483333D01*
X250332143Y-84530952D01*
X250379762Y-84626190D01*
X250379762Y-84911905D01*
X250332143Y-85007143D01*
X250284524Y-85054762D01*
X250189286Y-85102381D01*
X249998809Y-85102381D01*
X249903571Y-85054762D01*
X248757143Y-89427381D02*
X248423809Y-88951190D01*
X248185714Y-89427381D02*
X248185714Y-88427381D01*
X248566667Y-88427381D01*
X248661905Y-88475000D01*
X248709524Y-88522619D01*
X248757143Y-88617857D01*
X248757143Y-88760714D01*
X248709524Y-88855952D01*
X248661905Y-88903571D01*
X248566667Y-88951190D01*
X248185714Y-88951190D01*
X249757143Y-89427381D02*
X249423809Y-88951190D01*
X249185714Y-89427381D02*
X249185714Y-88427381D01*
X249566667Y-88427381D01*
X249661905Y-88475000D01*
X249709524Y-88522619D01*
X249757143Y-88617857D01*
X249757143Y-88760714D01*
X249709524Y-88855952D01*
X249661905Y-88903571D01*
X249566667Y-88951190D01*
X249185714Y-88951190D01*
X250185714Y-88760714D02*
X250185714Y-89760714D01*
X250185714Y-88808333D02*
X250280952Y-88760714D01*
X250471429Y-88760714D01*
X250566667Y-88808333D01*
X250614286Y-88855952D01*
X250661905Y-88951190D01*
X250661905Y-89236905D01*
X250614286Y-89332143D01*
X250566667Y-89379762D01*
X250471429Y-89427381D01*
X250280952Y-89427381D01*
X250185714Y-89379762D01*
X248957143Y-93752381D02*
X248623809Y-93276190D01*
X248385714Y-93752381D02*
X248385714Y-92752381D01*
X248766667Y-92752381D01*
X248861905Y-92800000D01*
X248909524Y-92847619D01*
X248957143Y-92942857D01*
X248957143Y-93085714D01*
X248909524Y-93180952D01*
X248861905Y-93228571D01*
X248766667Y-93276190D01*
X248385714Y-93276190D01*
X249909524Y-92800000D02*
X249814286Y-92752381D01*
X249671429Y-92752381D01*
X249528571Y-92800000D01*
X249433333Y-92895238D01*
X249385714Y-92990476D01*
X249338095Y-93180952D01*
X249338095Y-93323810D01*
X249385714Y-93514286D01*
X249433333Y-93609524D01*
X249528571Y-93704762D01*
X249671429Y-93752381D01*
X249766667Y-93752381D01*
X249909524Y-93704762D01*
X249957143Y-93657143D01*
X249957143Y-93323810D01*
X249766667Y-93323810D01*
X250385714Y-93085714D02*
X250385714Y-94085714D01*
X250385714Y-93133333D02*
X250480952Y-93085714D01*
X250671429Y-93085714D01*
X250766667Y-93133333D01*
X250814286Y-93180952D01*
X250861905Y-93276190D01*
X250861905Y-93561905D01*
X250814286Y-93657143D01*
X250766667Y-93704762D01*
X250671429Y-93752381D01*
X250480952Y-93752381D01*
X250385714Y-93704762D01*
X248882143Y-97677381D02*
X248548809Y-97201190D01*
X248310714Y-97677381D02*
X248310714Y-96677381D01*
X248691667Y-96677381D01*
X248786905Y-96725000D01*
X248834524Y-96772619D01*
X248882143Y-96867857D01*
X248882143Y-97010714D01*
X248834524Y-97105952D01*
X248786905Y-97153571D01*
X248691667Y-97201190D01*
X248310714Y-97201190D01*
X249644048Y-97153571D02*
X249786905Y-97201190D01*
X249834524Y-97248810D01*
X249882143Y-97344048D01*
X249882143Y-97486905D01*
X249834524Y-97582143D01*
X249786905Y-97629762D01*
X249691667Y-97677381D01*
X249310714Y-97677381D01*
X249310714Y-96677381D01*
X249644048Y-96677381D01*
X249739286Y-96725000D01*
X249786905Y-96772619D01*
X249834524Y-96867857D01*
X249834524Y-96963095D01*
X249786905Y-97058333D01*
X249739286Y-97105952D01*
X249644048Y-97153571D01*
X249310714Y-97153571D01*
X250310714Y-97010714D02*
X250310714Y-98010714D01*
X250310714Y-97058333D02*
X250405952Y-97010714D01*
X250596429Y-97010714D01*
X250691667Y-97058333D01*
X250739286Y-97105952D01*
X250786905Y-97201190D01*
X250786905Y-97486905D01*
X250739286Y-97582143D01*
X250691667Y-97629762D01*
X250596429Y-97677381D01*
X250405952Y-97677381D01*
X250310714Y-97629762D01*
X250019047Y-114027381D02*
X249685713Y-113551190D01*
X249447618Y-114027381D02*
X249447618Y-113027381D01*
X249828571Y-113027381D01*
X249923809Y-113075000D01*
X249971428Y-113122619D01*
X250019047Y-113217857D01*
X250019047Y-113360714D01*
X249971428Y-113455952D01*
X249923809Y-113503571D01*
X249828571Y-113551190D01*
X249447618Y-113551190D01*
X250399999Y-113979762D02*
X250542856Y-114027381D01*
X250780952Y-114027381D01*
X250876190Y-113979762D01*
X250923809Y-113932143D01*
X250971428Y-113836905D01*
X250971428Y-113741667D01*
X250923809Y-113646429D01*
X250876190Y-113598810D01*
X250780952Y-113551190D01*
X250590475Y-113503571D01*
X250495237Y-113455952D01*
X250447618Y-113408333D01*
X250399999Y-113313095D01*
X250399999Y-113217857D01*
X250447618Y-113122619D01*
X250495237Y-113075000D01*
X250590475Y-113027381D01*
X250828571Y-113027381D01*
X250971428Y-113075000D01*
X251399999Y-114027381D02*
X251399999Y-113027381D01*
X251828571Y-114027381D02*
X251828571Y-113503571D01*
X251780952Y-113408333D01*
X251685714Y-113360714D01*
X251542856Y-113360714D01*
X251447618Y-113408333D01*
X251399999Y-113455952D01*
X252733333Y-113360714D02*
X252733333Y-114027381D01*
X252304761Y-113360714D02*
X252304761Y-113884524D01*
X252352380Y-113979762D01*
X252447618Y-114027381D01*
X252590476Y-114027381D01*
X252685714Y-113979762D01*
X252733333Y-113932143D01*
X253066666Y-113360714D02*
X253447618Y-113360714D01*
X253209523Y-113027381D02*
X253209523Y-113884524D01*
X253257142Y-113979762D01*
X253352380Y-114027381D01*
X253447618Y-114027381D01*
X253638095Y-113360714D02*
X254019047Y-113360714D01*
X253780952Y-113027381D02*
X253780952Y-113884524D01*
X253828571Y-113979762D01*
X253923809Y-114027381D01*
X254019047Y-114027381D01*
X254733334Y-113979762D02*
X254638096Y-114027381D01*
X254447619Y-114027381D01*
X254352381Y-113979762D01*
X254304762Y-113884524D01*
X254304762Y-113503571D01*
X254352381Y-113408333D01*
X254447619Y-113360714D01*
X254638096Y-113360714D01*
X254733334Y-113408333D01*
X254780953Y-113503571D01*
X254780953Y-113598810D01*
X254304762Y-113694048D01*
X255209524Y-114027381D02*
X255209524Y-113360714D01*
X255209524Y-113551190D02*
X255257143Y-113455952D01*
X255304762Y-113408333D01*
X255400000Y-113360714D01*
X255495239Y-113360714D01*
X248855953Y-79102381D02*
X248522619Y-78626190D01*
X248284524Y-79102381D02*
X248284524Y-78102381D01*
X248665477Y-78102381D01*
X248760715Y-78150000D01*
X248808334Y-78197619D01*
X248855953Y-78292857D01*
X248855953Y-78435714D01*
X248808334Y-78530952D01*
X248760715Y-78578571D01*
X248665477Y-78626190D01*
X248284524Y-78626190D01*
X249189286Y-78102381D02*
X249855953Y-79102381D01*
X249855953Y-78102381D02*
X249189286Y-79102381D01*
X250236905Y-78435714D02*
X250236905Y-79102381D01*
X250236905Y-78530952D02*
X250284524Y-78483333D01*
X250379762Y-78435714D01*
X250522620Y-78435714D01*
X250617858Y-78483333D01*
X250665477Y-78578571D01*
X250665477Y-79102381D01*
X248653572Y-83352381D02*
X248320238Y-82876190D01*
X248082143Y-83352381D02*
X248082143Y-82352381D01*
X248463096Y-82352381D01*
X248558334Y-82400000D01*
X248605953Y-82447619D01*
X248653572Y-82542857D01*
X248653572Y-82685714D01*
X248605953Y-82780952D01*
X248558334Y-82828571D01*
X248463096Y-82876190D01*
X248082143Y-82876190D01*
X249272619Y-82876190D02*
X249272619Y-83352381D01*
X248939286Y-82352381D02*
X249272619Y-82876190D01*
X249605953Y-82352381D01*
X249939286Y-82685714D02*
X249939286Y-83352381D01*
X249939286Y-82780952D02*
X249986905Y-82733333D01*
X250082143Y-82685714D01*
X250225001Y-82685714D01*
X250320239Y-82733333D01*
X250367858Y-82828571D01*
X250367858Y-83352381D01*
X247189286Y-87102381D02*
X246855952Y-86626190D01*
X246617857Y-87102381D02*
X246617857Y-86102381D01*
X246998810Y-86102381D01*
X247094048Y-86150000D01*
X247141667Y-86197619D01*
X247189286Y-86292857D01*
X247189286Y-86435714D01*
X247141667Y-86530952D01*
X247094048Y-86578571D01*
X246998810Y-86626190D01*
X246617857Y-86626190D01*
X247617857Y-87102381D02*
X247617857Y-86102381D01*
X248094047Y-87102381D02*
X248094047Y-86102381D01*
X248665476Y-87102381D01*
X248665476Y-86102381D01*
X248998809Y-86102381D02*
X249570238Y-86102381D01*
X249284523Y-87102381D02*
X249284523Y-86102381D01*
X249903571Y-86435714D02*
X249903571Y-87102381D01*
X249903571Y-86530952D02*
X249951190Y-86483333D01*
X250046428Y-86435714D01*
X250189286Y-86435714D01*
X250284524Y-86483333D01*
X250332143Y-86578571D01*
X250332143Y-87102381D01*
X248832143Y-91527381D02*
X248498809Y-91051190D01*
X248260714Y-91527381D02*
X248260714Y-90527381D01*
X248641667Y-90527381D01*
X248736905Y-90575000D01*
X248784524Y-90622619D01*
X248832143Y-90717857D01*
X248832143Y-90860714D01*
X248784524Y-90955952D01*
X248736905Y-91003571D01*
X248641667Y-91051190D01*
X248260714Y-91051190D01*
X249832143Y-91527381D02*
X249498809Y-91051190D01*
X249260714Y-91527381D02*
X249260714Y-90527381D01*
X249641667Y-90527381D01*
X249736905Y-90575000D01*
X249784524Y-90622619D01*
X249832143Y-90717857D01*
X249832143Y-90860714D01*
X249784524Y-90955952D01*
X249736905Y-91003571D01*
X249641667Y-91051190D01*
X249260714Y-91051190D01*
X250260714Y-90860714D02*
X250260714Y-91527381D01*
X250260714Y-90955952D02*
X250308333Y-90908333D01*
X250403571Y-90860714D01*
X250546429Y-90860714D01*
X250641667Y-90908333D01*
X250689286Y-91003571D01*
X250689286Y-91527381D01*
X248832143Y-95727381D02*
X248498809Y-95251190D01*
X248260714Y-95727381D02*
X248260714Y-94727381D01*
X248641667Y-94727381D01*
X248736905Y-94775000D01*
X248784524Y-94822619D01*
X248832143Y-94917857D01*
X248832143Y-95060714D01*
X248784524Y-95155952D01*
X248736905Y-95203571D01*
X248641667Y-95251190D01*
X248260714Y-95251190D01*
X249784524Y-94775000D02*
X249689286Y-94727381D01*
X249546429Y-94727381D01*
X249403571Y-94775000D01*
X249308333Y-94870238D01*
X249260714Y-94965476D01*
X249213095Y-95155952D01*
X249213095Y-95298810D01*
X249260714Y-95489286D01*
X249308333Y-95584524D01*
X249403571Y-95679762D01*
X249546429Y-95727381D01*
X249641667Y-95727381D01*
X249784524Y-95679762D01*
X249832143Y-95632143D01*
X249832143Y-95298810D01*
X249641667Y-95298810D01*
X250260714Y-95060714D02*
X250260714Y-95727381D01*
X250260714Y-95155952D02*
X250308333Y-95108333D01*
X250403571Y-95060714D01*
X250546429Y-95060714D01*
X250641667Y-95108333D01*
X250689286Y-95203571D01*
X250689286Y-95727381D01*
X248832143Y-99927381D02*
X248498809Y-99451190D01*
X248260714Y-99927381D02*
X248260714Y-98927381D01*
X248641667Y-98927381D01*
X248736905Y-98975000D01*
X248784524Y-99022619D01*
X248832143Y-99117857D01*
X248832143Y-99260714D01*
X248784524Y-99355952D01*
X248736905Y-99403571D01*
X248641667Y-99451190D01*
X248260714Y-99451190D01*
X249594048Y-99403571D02*
X249736905Y-99451190D01*
X249784524Y-99498810D01*
X249832143Y-99594048D01*
X249832143Y-99736905D01*
X249784524Y-99832143D01*
X249736905Y-99879762D01*
X249641667Y-99927381D01*
X249260714Y-99927381D01*
X249260714Y-98927381D01*
X249594048Y-98927381D01*
X249689286Y-98975000D01*
X249736905Y-99022619D01*
X249784524Y-99117857D01*
X249784524Y-99213095D01*
X249736905Y-99308333D01*
X249689286Y-99355952D01*
X249594048Y-99403571D01*
X249260714Y-99403571D01*
X250260714Y-99260714D02*
X250260714Y-99927381D01*
X250260714Y-99355952D02*
X250308333Y-99308333D01*
X250403571Y-99260714D01*
X250546429Y-99260714D01*
X250641667Y-99308333D01*
X250689286Y-99403571D01*
X250689286Y-99927381D01*
X200582143Y-96802381D02*
X200248809Y-96326190D01*
X200010714Y-96802381D02*
X200010714Y-95802381D01*
X200391667Y-95802381D01*
X200486905Y-95850000D01*
X200534524Y-95897619D01*
X200582143Y-95992857D01*
X200582143Y-96135714D01*
X200534524Y-96230952D01*
X200486905Y-96278571D01*
X200391667Y-96326190D01*
X200010714Y-96326190D01*
X201534524Y-96802381D02*
X200963095Y-96802381D01*
X201248809Y-96802381D02*
X201248809Y-95802381D01*
X201153571Y-95945238D01*
X201058333Y-96040476D01*
X200963095Y-96088095D01*
X202391667Y-95802381D02*
X202201190Y-95802381D01*
X202105952Y-95850000D01*
X202058333Y-95897619D01*
X201963095Y-96040476D01*
X201915476Y-96230952D01*
X201915476Y-96611905D01*
X201963095Y-96707143D01*
X202010714Y-96754762D01*
X202105952Y-96802381D01*
X202296429Y-96802381D01*
X202391667Y-96754762D01*
X202439286Y-96707143D01*
X202486905Y-96611905D01*
X202486905Y-96373810D01*
X202439286Y-96278571D01*
X202391667Y-96230952D01*
X202296429Y-96183333D01*
X202105952Y-96183333D01*
X202010714Y-96230952D01*
X201963095Y-96278571D01*
X201915476Y-96373810D01*
X182582143Y-80927381D02*
X182248809Y-80451190D01*
X182010714Y-80927381D02*
X182010714Y-79927381D01*
X182391667Y-79927381D01*
X182486905Y-79975000D01*
X182534524Y-80022619D01*
X182582143Y-80117857D01*
X182582143Y-80260714D01*
X182534524Y-80355952D01*
X182486905Y-80403571D01*
X182391667Y-80451190D01*
X182010714Y-80451190D01*
X183534524Y-80927381D02*
X182963095Y-80927381D01*
X183248809Y-80927381D02*
X183248809Y-79927381D01*
X183153571Y-80070238D01*
X183058333Y-80165476D01*
X182963095Y-80213095D01*
X183867857Y-79927381D02*
X184534524Y-79927381D01*
X184105952Y-80927381D01*
X186332143Y-116902381D02*
X185998809Y-116426190D01*
X185760714Y-116902381D02*
X185760714Y-115902381D01*
X186141667Y-115902381D01*
X186236905Y-115950000D01*
X186284524Y-115997619D01*
X186332143Y-116092857D01*
X186332143Y-116235714D01*
X186284524Y-116330952D01*
X186236905Y-116378571D01*
X186141667Y-116426190D01*
X185760714Y-116426190D01*
X187284524Y-116902381D02*
X186713095Y-116902381D01*
X186998809Y-116902381D02*
X186998809Y-115902381D01*
X186903571Y-116045238D01*
X186808333Y-116140476D01*
X186713095Y-116188095D01*
X187855952Y-116330952D02*
X187760714Y-116283333D01*
X187713095Y-116235714D01*
X187665476Y-116140476D01*
X187665476Y-116092857D01*
X187713095Y-115997619D01*
X187760714Y-115950000D01*
X187855952Y-115902381D01*
X188046429Y-115902381D01*
X188141667Y-115950000D01*
X188189286Y-115997619D01*
X188236905Y-116092857D01*
X188236905Y-116140476D01*
X188189286Y-116235714D01*
X188141667Y-116283333D01*
X188046429Y-116330952D01*
X187855952Y-116330952D01*
X187760714Y-116378571D01*
X187713095Y-116426190D01*
X187665476Y-116521429D01*
X187665476Y-116711905D01*
X187713095Y-116807143D01*
X187760714Y-116854762D01*
X187855952Y-116902381D01*
X188046429Y-116902381D01*
X188141667Y-116854762D01*
X188189286Y-116807143D01*
X188236905Y-116711905D01*
X188236905Y-116521429D01*
X188189286Y-116426190D01*
X188141667Y-116378571D01*
X188046429Y-116330952D01*
X192282143Y-117402381D02*
X191948809Y-116926190D01*
X191710714Y-117402381D02*
X191710714Y-116402381D01*
X192091667Y-116402381D01*
X192186905Y-116450000D01*
X192234524Y-116497619D01*
X192282143Y-116592857D01*
X192282143Y-116735714D01*
X192234524Y-116830952D01*
X192186905Y-116878571D01*
X192091667Y-116926190D01*
X191710714Y-116926190D01*
X193234524Y-117402381D02*
X192663095Y-117402381D01*
X192948809Y-117402381D02*
X192948809Y-116402381D01*
X192853571Y-116545238D01*
X192758333Y-116640476D01*
X192663095Y-116688095D01*
X193710714Y-117402381D02*
X193901190Y-117402381D01*
X193996429Y-117354762D01*
X194044048Y-117307143D01*
X194139286Y-117164286D01*
X194186905Y-116973810D01*
X194186905Y-116592857D01*
X194139286Y-116497619D01*
X194091667Y-116450000D01*
X193996429Y-116402381D01*
X193805952Y-116402381D01*
X193710714Y-116450000D01*
X193663095Y-116497619D01*
X193615476Y-116592857D01*
X193615476Y-116830952D01*
X193663095Y-116926190D01*
X193710714Y-116973810D01*
X193805952Y-117021429D01*
X193996429Y-117021429D01*
X194091667Y-116973810D01*
X194139286Y-116926190D01*
X194186905Y-116830952D01*
X228207143Y-107527381D02*
X227873809Y-107051190D01*
X227635714Y-107527381D02*
X227635714Y-106527381D01*
X228016667Y-106527381D01*
X228111905Y-106575000D01*
X228159524Y-106622619D01*
X228207143Y-106717857D01*
X228207143Y-106860714D01*
X228159524Y-106955952D01*
X228111905Y-107003571D01*
X228016667Y-107051190D01*
X227635714Y-107051190D01*
X228588095Y-106622619D02*
X228635714Y-106575000D01*
X228730952Y-106527381D01*
X228969048Y-106527381D01*
X229064286Y-106575000D01*
X229111905Y-106622619D01*
X229159524Y-106717857D01*
X229159524Y-106813095D01*
X229111905Y-106955952D01*
X228540476Y-107527381D01*
X229159524Y-107527381D01*
X229778571Y-106527381D02*
X229873810Y-106527381D01*
X229969048Y-106575000D01*
X230016667Y-106622619D01*
X230064286Y-106717857D01*
X230111905Y-106908333D01*
X230111905Y-107146429D01*
X230064286Y-107336905D01*
X230016667Y-107432143D01*
X229969048Y-107479762D01*
X229873810Y-107527381D01*
X229778571Y-107527381D01*
X229683333Y-107479762D01*
X229635714Y-107432143D01*
X229588095Y-107336905D01*
X229540476Y-107146429D01*
X229540476Y-106908333D01*
X229588095Y-106717857D01*
X229635714Y-106622619D01*
X229683333Y-106575000D01*
X229778571Y-106527381D01*
X221407143Y-111177381D02*
X221073809Y-110701190D01*
X220835714Y-111177381D02*
X220835714Y-110177381D01*
X221216667Y-110177381D01*
X221311905Y-110225000D01*
X221359524Y-110272619D01*
X221407143Y-110367857D01*
X221407143Y-110510714D01*
X221359524Y-110605952D01*
X221311905Y-110653571D01*
X221216667Y-110701190D01*
X220835714Y-110701190D01*
X221788095Y-110272619D02*
X221835714Y-110225000D01*
X221930952Y-110177381D01*
X222169048Y-110177381D01*
X222264286Y-110225000D01*
X222311905Y-110272619D01*
X222359524Y-110367857D01*
X222359524Y-110463095D01*
X222311905Y-110605952D01*
X221740476Y-111177381D01*
X222359524Y-111177381D01*
X223311905Y-111177381D02*
X222740476Y-111177381D01*
X223026190Y-111177381D02*
X223026190Y-110177381D01*
X222930952Y-110320238D01*
X222835714Y-110415476D01*
X222740476Y-110463095D01*
X237532143Y-86427381D02*
X237198809Y-85951190D01*
X236960714Y-86427381D02*
X236960714Y-85427381D01*
X237341667Y-85427381D01*
X237436905Y-85475000D01*
X237484524Y-85522619D01*
X237532143Y-85617857D01*
X237532143Y-85760714D01*
X237484524Y-85855952D01*
X237436905Y-85903571D01*
X237341667Y-85951190D01*
X236960714Y-85951190D01*
X237913095Y-85522619D02*
X237960714Y-85475000D01*
X238055952Y-85427381D01*
X238294048Y-85427381D01*
X238389286Y-85475000D01*
X238436905Y-85522619D01*
X238484524Y-85617857D01*
X238484524Y-85713095D01*
X238436905Y-85855952D01*
X237865476Y-86427381D01*
X238484524Y-86427381D01*
X238865476Y-85522619D02*
X238913095Y-85475000D01*
X239008333Y-85427381D01*
X239246429Y-85427381D01*
X239341667Y-85475000D01*
X239389286Y-85522619D01*
X239436905Y-85617857D01*
X239436905Y-85713095D01*
X239389286Y-85855952D01*
X238817857Y-86427381D01*
X239436905Y-86427381D01*
X225832143Y-97102381D02*
X225498809Y-96626190D01*
X225260714Y-97102381D02*
X225260714Y-96102381D01*
X225641667Y-96102381D01*
X225736905Y-96150000D01*
X225784524Y-96197619D01*
X225832143Y-96292857D01*
X225832143Y-96435714D01*
X225784524Y-96530952D01*
X225736905Y-96578571D01*
X225641667Y-96626190D01*
X225260714Y-96626190D01*
X226213095Y-96197619D02*
X226260714Y-96150000D01*
X226355952Y-96102381D01*
X226594048Y-96102381D01*
X226689286Y-96150000D01*
X226736905Y-96197619D01*
X226784524Y-96292857D01*
X226784524Y-96388095D01*
X226736905Y-96530952D01*
X226165476Y-97102381D01*
X226784524Y-97102381D01*
X227117857Y-96102381D02*
X227736905Y-96102381D01*
X227403571Y-96483333D01*
X227546429Y-96483333D01*
X227641667Y-96530952D01*
X227689286Y-96578571D01*
X227736905Y-96673810D01*
X227736905Y-96911905D01*
X227689286Y-97007143D01*
X227641667Y-97054762D01*
X227546429Y-97102381D01*
X227260714Y-97102381D01*
X227165476Y-97054762D01*
X227117857Y-97007143D01*
X243607143Y-90677381D02*
X243273809Y-90201190D01*
X243035714Y-90677381D02*
X243035714Y-89677381D01*
X243416667Y-89677381D01*
X243511905Y-89725000D01*
X243559524Y-89772619D01*
X243607143Y-89867857D01*
X243607143Y-90010714D01*
X243559524Y-90105952D01*
X243511905Y-90153571D01*
X243416667Y-90201190D01*
X243035714Y-90201190D01*
X243988095Y-89772619D02*
X244035714Y-89725000D01*
X244130952Y-89677381D01*
X244369048Y-89677381D01*
X244464286Y-89725000D01*
X244511905Y-89772619D01*
X244559524Y-89867857D01*
X244559524Y-89963095D01*
X244511905Y-90105952D01*
X243940476Y-90677381D01*
X244559524Y-90677381D01*
X245416667Y-90010714D02*
X245416667Y-90677381D01*
X245178571Y-89629762D02*
X244940476Y-90344048D01*
X245559524Y-90344048D01*
X233182143Y-96102381D02*
X232848809Y-95626190D01*
X232610714Y-96102381D02*
X232610714Y-95102381D01*
X232991667Y-95102381D01*
X233086905Y-95150000D01*
X233134524Y-95197619D01*
X233182143Y-95292857D01*
X233182143Y-95435714D01*
X233134524Y-95530952D01*
X233086905Y-95578571D01*
X232991667Y-95626190D01*
X232610714Y-95626190D01*
X233563095Y-95197619D02*
X233610714Y-95150000D01*
X233705952Y-95102381D01*
X233944048Y-95102381D01*
X234039286Y-95150000D01*
X234086905Y-95197619D01*
X234134524Y-95292857D01*
X234134524Y-95388095D01*
X234086905Y-95530952D01*
X233515476Y-96102381D01*
X234134524Y-96102381D01*
X235039286Y-95102381D02*
X234563095Y-95102381D01*
X234515476Y-95578571D01*
X234563095Y-95530952D01*
X234658333Y-95483333D01*
X234896429Y-95483333D01*
X234991667Y-95530952D01*
X235039286Y-95578571D01*
X235086905Y-95673810D01*
X235086905Y-95911905D01*
X235039286Y-96007143D01*
X234991667Y-96054762D01*
X234896429Y-96102381D01*
X234658333Y-96102381D01*
X234563095Y-96054762D01*
X234515476Y-96007143D01*
X238307143Y-63927381D02*
X237973809Y-63451190D01*
X237735714Y-63927381D02*
X237735714Y-62927381D01*
X238116667Y-62927381D01*
X238211905Y-62975000D01*
X238259524Y-63022619D01*
X238307143Y-63117857D01*
X238307143Y-63260714D01*
X238259524Y-63355952D01*
X238211905Y-63403571D01*
X238116667Y-63451190D01*
X237735714Y-63451190D01*
X238688095Y-63022619D02*
X238735714Y-62975000D01*
X238830952Y-62927381D01*
X239069048Y-62927381D01*
X239164286Y-62975000D01*
X239211905Y-63022619D01*
X239259524Y-63117857D01*
X239259524Y-63213095D01*
X239211905Y-63355952D01*
X238640476Y-63927381D01*
X239259524Y-63927381D01*
X240116667Y-62927381D02*
X239926190Y-62927381D01*
X239830952Y-62975000D01*
X239783333Y-63022619D01*
X239688095Y-63165476D01*
X239640476Y-63355952D01*
X239640476Y-63736905D01*
X239688095Y-63832143D01*
X239735714Y-63879762D01*
X239830952Y-63927381D01*
X240021429Y-63927381D01*
X240116667Y-63879762D01*
X240164286Y-63832143D01*
X240211905Y-63736905D01*
X240211905Y-63498810D01*
X240164286Y-63403571D01*
X240116667Y-63355952D01*
X240021429Y-63308333D01*
X239830952Y-63308333D01*
X239735714Y-63355952D01*
X239688095Y-63403571D01*
X239640476Y-63498810D01*
X238357143Y-66352381D02*
X238023809Y-65876190D01*
X237785714Y-66352381D02*
X237785714Y-65352381D01*
X238166667Y-65352381D01*
X238261905Y-65400000D01*
X238309524Y-65447619D01*
X238357143Y-65542857D01*
X238357143Y-65685714D01*
X238309524Y-65780952D01*
X238261905Y-65828571D01*
X238166667Y-65876190D01*
X237785714Y-65876190D01*
X238738095Y-65447619D02*
X238785714Y-65400000D01*
X238880952Y-65352381D01*
X239119048Y-65352381D01*
X239214286Y-65400000D01*
X239261905Y-65447619D01*
X239309524Y-65542857D01*
X239309524Y-65638095D01*
X239261905Y-65780952D01*
X238690476Y-66352381D01*
X239309524Y-66352381D01*
X239642857Y-65352381D02*
X240309524Y-65352381D01*
X239880952Y-66352381D01*
X243482143Y-94127381D02*
X243148809Y-93651190D01*
X242910714Y-94127381D02*
X242910714Y-93127381D01*
X243291667Y-93127381D01*
X243386905Y-93175000D01*
X243434524Y-93222619D01*
X243482143Y-93317857D01*
X243482143Y-93460714D01*
X243434524Y-93555952D01*
X243386905Y-93603571D01*
X243291667Y-93651190D01*
X242910714Y-93651190D01*
X243863095Y-93222619D02*
X243910714Y-93175000D01*
X244005952Y-93127381D01*
X244244048Y-93127381D01*
X244339286Y-93175000D01*
X244386905Y-93222619D01*
X244434524Y-93317857D01*
X244434524Y-93413095D01*
X244386905Y-93555952D01*
X243815476Y-94127381D01*
X244434524Y-94127381D01*
X245005952Y-93555952D02*
X244910714Y-93508333D01*
X244863095Y-93460714D01*
X244815476Y-93365476D01*
X244815476Y-93317857D01*
X244863095Y-93222619D01*
X244910714Y-93175000D01*
X245005952Y-93127381D01*
X245196429Y-93127381D01*
X245291667Y-93175000D01*
X245339286Y-93222619D01*
X245386905Y-93317857D01*
X245386905Y-93365476D01*
X245339286Y-93460714D01*
X245291667Y-93508333D01*
X245196429Y-93555952D01*
X245005952Y-93555952D01*
X244910714Y-93603571D01*
X244863095Y-93651190D01*
X244815476Y-93746429D01*
X244815476Y-93936905D01*
X244863095Y-94032143D01*
X244910714Y-94079762D01*
X245005952Y-94127381D01*
X245196429Y-94127381D01*
X245291667Y-94079762D01*
X245339286Y-94032143D01*
X245386905Y-93936905D01*
X245386905Y-93746429D01*
X245339286Y-93651190D01*
X245291667Y-93603571D01*
X245196429Y-93555952D01*
X221232143Y-89977381D02*
X220898809Y-89501190D01*
X220660714Y-89977381D02*
X220660714Y-88977381D01*
X221041667Y-88977381D01*
X221136905Y-89025000D01*
X221184524Y-89072619D01*
X221232143Y-89167857D01*
X221232143Y-89310714D01*
X221184524Y-89405952D01*
X221136905Y-89453571D01*
X221041667Y-89501190D01*
X220660714Y-89501190D01*
X221613095Y-89072619D02*
X221660714Y-89025000D01*
X221755952Y-88977381D01*
X221994048Y-88977381D01*
X222089286Y-89025000D01*
X222136905Y-89072619D01*
X222184524Y-89167857D01*
X222184524Y-89263095D01*
X222136905Y-89405952D01*
X221565476Y-89977381D01*
X222184524Y-89977381D01*
X222660714Y-89977381D02*
X222851190Y-89977381D01*
X222946429Y-89929762D01*
X222994048Y-89882143D01*
X223089286Y-89739286D01*
X223136905Y-89548810D01*
X223136905Y-89167857D01*
X223089286Y-89072619D01*
X223041667Y-89025000D01*
X222946429Y-88977381D01*
X222755952Y-88977381D01*
X222660714Y-89025000D01*
X222613095Y-89072619D01*
X222565476Y-89167857D01*
X222565476Y-89405952D01*
X222613095Y-89501190D01*
X222660714Y-89548810D01*
X222755952Y-89596429D01*
X222946429Y-89596429D01*
X223041667Y-89548810D01*
X223089286Y-89501190D01*
X223136905Y-89405952D01*
X246682143Y-112227381D02*
X246348809Y-111751190D01*
X246110714Y-112227381D02*
X246110714Y-111227381D01*
X246491667Y-111227381D01*
X246586905Y-111275000D01*
X246634524Y-111322619D01*
X246682143Y-111417857D01*
X246682143Y-111560714D01*
X246634524Y-111655952D01*
X246586905Y-111703571D01*
X246491667Y-111751190D01*
X246110714Y-111751190D01*
X247015476Y-111227381D02*
X247634524Y-111227381D01*
X247301190Y-111608333D01*
X247444048Y-111608333D01*
X247539286Y-111655952D01*
X247586905Y-111703571D01*
X247634524Y-111798810D01*
X247634524Y-112036905D01*
X247586905Y-112132143D01*
X247539286Y-112179762D01*
X247444048Y-112227381D01*
X247158333Y-112227381D01*
X247063095Y-112179762D01*
X247015476Y-112132143D01*
X248253571Y-111227381D02*
X248348810Y-111227381D01*
X248444048Y-111275000D01*
X248491667Y-111322619D01*
X248539286Y-111417857D01*
X248586905Y-111608333D01*
X248586905Y-111846429D01*
X248539286Y-112036905D01*
X248491667Y-112132143D01*
X248444048Y-112179762D01*
X248348810Y-112227381D01*
X248253571Y-112227381D01*
X248158333Y-112179762D01*
X248110714Y-112132143D01*
X248063095Y-112036905D01*
X248015476Y-111846429D01*
X248015476Y-111608333D01*
X248063095Y-111417857D01*
X248110714Y-111322619D01*
X248158333Y-111275000D01*
X248253571Y-111227381D01*
X239607143Y-113352381D02*
X239273809Y-112876190D01*
X239035714Y-113352381D02*
X239035714Y-112352381D01*
X239416667Y-112352381D01*
X239511905Y-112400000D01*
X239559524Y-112447619D01*
X239607143Y-112542857D01*
X239607143Y-112685714D01*
X239559524Y-112780952D01*
X239511905Y-112828571D01*
X239416667Y-112876190D01*
X239035714Y-112876190D01*
X239940476Y-112352381D02*
X240559524Y-112352381D01*
X240226190Y-112733333D01*
X240369048Y-112733333D01*
X240464286Y-112780952D01*
X240511905Y-112828571D01*
X240559524Y-112923810D01*
X240559524Y-113161905D01*
X240511905Y-113257143D01*
X240464286Y-113304762D01*
X240369048Y-113352381D01*
X240083333Y-113352381D01*
X239988095Y-113304762D01*
X239940476Y-113257143D01*
X241511905Y-113352381D02*
X240940476Y-113352381D01*
X241226190Y-113352381D02*
X241226190Y-112352381D01*
X241130952Y-112495238D01*
X241035714Y-112590476D01*
X240940476Y-112638095D01*
X237707143Y-97202381D02*
X237373809Y-96726190D01*
X237135714Y-97202381D02*
X237135714Y-96202381D01*
X237516667Y-96202381D01*
X237611905Y-96250000D01*
X237659524Y-96297619D01*
X237707143Y-96392857D01*
X237707143Y-96535714D01*
X237659524Y-96630952D01*
X237611905Y-96678571D01*
X237516667Y-96726190D01*
X237135714Y-96726190D01*
X238040476Y-96202381D02*
X238659524Y-96202381D01*
X238326190Y-96583333D01*
X238469048Y-96583333D01*
X238564286Y-96630952D01*
X238611905Y-96678571D01*
X238659524Y-96773810D01*
X238659524Y-97011905D01*
X238611905Y-97107143D01*
X238564286Y-97154762D01*
X238469048Y-97202381D01*
X238183333Y-97202381D01*
X238088095Y-97154762D01*
X238040476Y-97107143D01*
X239040476Y-96297619D02*
X239088095Y-96250000D01*
X239183333Y-96202381D01*
X239421429Y-96202381D01*
X239516667Y-96250000D01*
X239564286Y-96297619D01*
X239611905Y-96392857D01*
X239611905Y-96488095D01*
X239564286Y-96630952D01*
X238992857Y-97202381D01*
X239611905Y-97202381D01*
X227357143Y-86802381D02*
X227023809Y-86326190D01*
X226785714Y-86802381D02*
X226785714Y-85802381D01*
X227166667Y-85802381D01*
X227261905Y-85850000D01*
X227309524Y-85897619D01*
X227357143Y-85992857D01*
X227357143Y-86135714D01*
X227309524Y-86230952D01*
X227261905Y-86278571D01*
X227166667Y-86326190D01*
X226785714Y-86326190D01*
X227690476Y-85802381D02*
X228309524Y-85802381D01*
X227976190Y-86183333D01*
X228119048Y-86183333D01*
X228214286Y-86230952D01*
X228261905Y-86278571D01*
X228309524Y-86373810D01*
X228309524Y-86611905D01*
X228261905Y-86707143D01*
X228214286Y-86754762D01*
X228119048Y-86802381D01*
X227833333Y-86802381D01*
X227738095Y-86754762D01*
X227690476Y-86707143D01*
X228642857Y-85802381D02*
X229261905Y-85802381D01*
X228928571Y-86183333D01*
X229071429Y-86183333D01*
X229166667Y-86230952D01*
X229214286Y-86278571D01*
X229261905Y-86373810D01*
X229261905Y-86611905D01*
X229214286Y-86707143D01*
X229166667Y-86754762D01*
X229071429Y-86802381D01*
X228785714Y-86802381D01*
X228690476Y-86754762D01*
X228642857Y-86707143D01*
X232757143Y-76927381D02*
X232423809Y-76451190D01*
X232185714Y-76927381D02*
X232185714Y-75927381D01*
X232566667Y-75927381D01*
X232661905Y-75975000D01*
X232709524Y-76022619D01*
X232757143Y-76117857D01*
X232757143Y-76260714D01*
X232709524Y-76355952D01*
X232661905Y-76403571D01*
X232566667Y-76451190D01*
X232185714Y-76451190D01*
X233090476Y-75927381D02*
X233709524Y-75927381D01*
X233376190Y-76308333D01*
X233519048Y-76308333D01*
X233614286Y-76355952D01*
X233661905Y-76403571D01*
X233709524Y-76498810D01*
X233709524Y-76736905D01*
X233661905Y-76832143D01*
X233614286Y-76879762D01*
X233519048Y-76927381D01*
X233233333Y-76927381D01*
X233138095Y-76879762D01*
X233090476Y-76832143D01*
X234566667Y-76260714D02*
X234566667Y-76927381D01*
X234328571Y-75879762D02*
X234090476Y-76594048D01*
X234709524Y-76594048D01*
X222282143Y-70752381D02*
X221948809Y-70276190D01*
X221710714Y-70752381D02*
X221710714Y-69752381D01*
X222091667Y-69752381D01*
X222186905Y-69800000D01*
X222234524Y-69847619D01*
X222282143Y-69942857D01*
X222282143Y-70085714D01*
X222234524Y-70180952D01*
X222186905Y-70228571D01*
X222091667Y-70276190D01*
X221710714Y-70276190D01*
X222615476Y-69752381D02*
X223234524Y-69752381D01*
X222901190Y-70133333D01*
X223044048Y-70133333D01*
X223139286Y-70180952D01*
X223186905Y-70228571D01*
X223234524Y-70323810D01*
X223234524Y-70561905D01*
X223186905Y-70657143D01*
X223139286Y-70704762D01*
X223044048Y-70752381D01*
X222758333Y-70752381D01*
X222663095Y-70704762D01*
X222615476Y-70657143D01*
X224139286Y-69752381D02*
X223663095Y-69752381D01*
X223615476Y-70228571D01*
X223663095Y-70180952D01*
X223758333Y-70133333D01*
X223996429Y-70133333D01*
X224091667Y-70180952D01*
X224139286Y-70228571D01*
X224186905Y-70323810D01*
X224186905Y-70561905D01*
X224139286Y-70657143D01*
X224091667Y-70704762D01*
X223996429Y-70752381D01*
X223758333Y-70752381D01*
X223663095Y-70704762D01*
X223615476Y-70657143D01*
X243207143Y-76802381D02*
X242873809Y-76326190D01*
X242635714Y-76802381D02*
X242635714Y-75802381D01*
X243016667Y-75802381D01*
X243111905Y-75850000D01*
X243159524Y-75897619D01*
X243207143Y-75992857D01*
X243207143Y-76135714D01*
X243159524Y-76230952D01*
X243111905Y-76278571D01*
X243016667Y-76326190D01*
X242635714Y-76326190D01*
X243540476Y-75802381D02*
X244159524Y-75802381D01*
X243826190Y-76183333D01*
X243969048Y-76183333D01*
X244064286Y-76230952D01*
X244111905Y-76278571D01*
X244159524Y-76373810D01*
X244159524Y-76611905D01*
X244111905Y-76707143D01*
X244064286Y-76754762D01*
X243969048Y-76802381D01*
X243683333Y-76802381D01*
X243588095Y-76754762D01*
X243540476Y-76707143D01*
X245016667Y-75802381D02*
X244826190Y-75802381D01*
X244730952Y-75850000D01*
X244683333Y-75897619D01*
X244588095Y-76040476D01*
X244540476Y-76230952D01*
X244540476Y-76611905D01*
X244588095Y-76707143D01*
X244635714Y-76754762D01*
X244730952Y-76802381D01*
X244921429Y-76802381D01*
X245016667Y-76754762D01*
X245064286Y-76707143D01*
X245111905Y-76611905D01*
X245111905Y-76373810D01*
X245064286Y-76278571D01*
X245016667Y-76230952D01*
X244921429Y-76183333D01*
X244730952Y-76183333D01*
X244635714Y-76230952D01*
X244588095Y-76278571D01*
X244540476Y-76373810D01*
X227807143Y-68802381D02*
X227473809Y-68326190D01*
X227235714Y-68802381D02*
X227235714Y-67802381D01*
X227616667Y-67802381D01*
X227711905Y-67850000D01*
X227759524Y-67897619D01*
X227807143Y-67992857D01*
X227807143Y-68135714D01*
X227759524Y-68230952D01*
X227711905Y-68278571D01*
X227616667Y-68326190D01*
X227235714Y-68326190D01*
X228140476Y-67802381D02*
X228759524Y-67802381D01*
X228426190Y-68183333D01*
X228569048Y-68183333D01*
X228664286Y-68230952D01*
X228711905Y-68278571D01*
X228759524Y-68373810D01*
X228759524Y-68611905D01*
X228711905Y-68707143D01*
X228664286Y-68754762D01*
X228569048Y-68802381D01*
X228283333Y-68802381D01*
X228188095Y-68754762D01*
X228140476Y-68707143D01*
X229092857Y-67802381D02*
X229759524Y-67802381D01*
X229330952Y-68802381D01*
X247077381Y-71867857D02*
X246601190Y-72201191D01*
X247077381Y-72439286D02*
X246077381Y-72439286D01*
X246077381Y-72058333D01*
X246125000Y-71963095D01*
X246172619Y-71915476D01*
X246267857Y-71867857D01*
X246410714Y-71867857D01*
X246505952Y-71915476D01*
X246553571Y-71963095D01*
X246601190Y-72058333D01*
X246601190Y-72439286D01*
X246077381Y-71534524D02*
X246077381Y-70915476D01*
X246458333Y-71248810D01*
X246458333Y-71105952D01*
X246505952Y-71010714D01*
X246553571Y-70963095D01*
X246648810Y-70915476D01*
X246886905Y-70915476D01*
X246982143Y-70963095D01*
X247029762Y-71010714D01*
X247077381Y-71105952D01*
X247077381Y-71391667D01*
X247029762Y-71486905D01*
X246982143Y-71534524D01*
X246505952Y-70344048D02*
X246458333Y-70439286D01*
X246410714Y-70486905D01*
X246315476Y-70534524D01*
X246267857Y-70534524D01*
X246172619Y-70486905D01*
X246125000Y-70439286D01*
X246077381Y-70344048D01*
X246077381Y-70153571D01*
X246125000Y-70058333D01*
X246172619Y-70010714D01*
X246267857Y-69963095D01*
X246315476Y-69963095D01*
X246410714Y-70010714D01*
X246458333Y-70058333D01*
X246505952Y-70153571D01*
X246505952Y-70344048D01*
X246553571Y-70439286D01*
X246601190Y-70486905D01*
X246696429Y-70534524D01*
X246886905Y-70534524D01*
X246982143Y-70486905D01*
X247029762Y-70439286D01*
X247077381Y-70344048D01*
X247077381Y-70153571D01*
X247029762Y-70058333D01*
X246982143Y-70010714D01*
X246886905Y-69963095D01*
X246696429Y-69963095D01*
X246601190Y-70010714D01*
X246553571Y-70058333D01*
X246505952Y-70153571D01*
X225107143Y-76327381D02*
X224773809Y-75851190D01*
X224535714Y-76327381D02*
X224535714Y-75327381D01*
X224916667Y-75327381D01*
X225011905Y-75375000D01*
X225059524Y-75422619D01*
X225107143Y-75517857D01*
X225107143Y-75660714D01*
X225059524Y-75755952D01*
X225011905Y-75803571D01*
X224916667Y-75851190D01*
X224535714Y-75851190D01*
X225440476Y-75327381D02*
X226059524Y-75327381D01*
X225726190Y-75708333D01*
X225869048Y-75708333D01*
X225964286Y-75755952D01*
X226011905Y-75803571D01*
X226059524Y-75898810D01*
X226059524Y-76136905D01*
X226011905Y-76232143D01*
X225964286Y-76279762D01*
X225869048Y-76327381D01*
X225583333Y-76327381D01*
X225488095Y-76279762D01*
X225440476Y-76232143D01*
X226535714Y-76327381D02*
X226726190Y-76327381D01*
X226821429Y-76279762D01*
X226869048Y-76232143D01*
X226964286Y-76089286D01*
X227011905Y-75898810D01*
X227011905Y-75517857D01*
X226964286Y-75422619D01*
X226916667Y-75375000D01*
X226821429Y-75327381D01*
X226630952Y-75327381D01*
X226535714Y-75375000D01*
X226488095Y-75422619D01*
X226440476Y-75517857D01*
X226440476Y-75755952D01*
X226488095Y-75851190D01*
X226535714Y-75898810D01*
X226630952Y-75946429D01*
X226821429Y-75946429D01*
X226916667Y-75898810D01*
X226964286Y-75851190D01*
X227011905Y-75755952D01*
X240132143Y-67852381D02*
X239798809Y-67376190D01*
X239560714Y-67852381D02*
X239560714Y-66852381D01*
X239941667Y-66852381D01*
X240036905Y-66900000D01*
X240084524Y-66947619D01*
X240132143Y-67042857D01*
X240132143Y-67185714D01*
X240084524Y-67280952D01*
X240036905Y-67328571D01*
X239941667Y-67376190D01*
X239560714Y-67376190D01*
X240989286Y-67185714D02*
X240989286Y-67852381D01*
X240751190Y-66804762D02*
X240513095Y-67519048D01*
X241132143Y-67519048D01*
X241703571Y-66852381D02*
X241798810Y-66852381D01*
X241894048Y-66900000D01*
X241941667Y-66947619D01*
X241989286Y-67042857D01*
X242036905Y-67233333D01*
X242036905Y-67471429D01*
X241989286Y-67661905D01*
X241941667Y-67757143D01*
X241894048Y-67804762D01*
X241798810Y-67852381D01*
X241703571Y-67852381D01*
X241608333Y-67804762D01*
X241560714Y-67757143D01*
X241513095Y-67661905D01*
X241465476Y-67471429D01*
X241465476Y-67233333D01*
X241513095Y-67042857D01*
X241560714Y-66947619D01*
X241608333Y-66900000D01*
X241703571Y-66852381D01*
X228907143Y-77577381D02*
X228573809Y-77101190D01*
X228335714Y-77577381D02*
X228335714Y-76577381D01*
X228716667Y-76577381D01*
X228811905Y-76625000D01*
X228859524Y-76672619D01*
X228907143Y-76767857D01*
X228907143Y-76910714D01*
X228859524Y-77005952D01*
X228811905Y-77053571D01*
X228716667Y-77101190D01*
X228335714Y-77101190D01*
X229764286Y-76910714D02*
X229764286Y-77577381D01*
X229526190Y-76529762D02*
X229288095Y-77244048D01*
X229907143Y-77244048D01*
X230811905Y-77577381D02*
X230240476Y-77577381D01*
X230526190Y-77577381D02*
X230526190Y-76577381D01*
X230430952Y-76720238D01*
X230335714Y-76815476D01*
X230240476Y-76863095D01*
X183663095Y-96127381D02*
X183663095Y-96936905D01*
X183710714Y-97032143D01*
X183758333Y-97079762D01*
X183853571Y-97127381D01*
X184044048Y-97127381D01*
X184139286Y-97079762D01*
X184186905Y-97032143D01*
X184234524Y-96936905D01*
X184234524Y-96127381D01*
X185186905Y-96127381D02*
X184710714Y-96127381D01*
X184663095Y-96603571D01*
X184710714Y-96555952D01*
X184805952Y-96508333D01*
X185044048Y-96508333D01*
X185139286Y-96555952D01*
X185186905Y-96603571D01*
X185234524Y-96698810D01*
X185234524Y-96936905D01*
X185186905Y-97032143D01*
X185139286Y-97079762D01*
X185044048Y-97127381D01*
X184805952Y-97127381D01*
X184710714Y-97079762D01*
X184663095Y-97032143D01*
X204889035Y-91827781D02*
X204889035Y-92637305D01*
X204936654Y-92732543D01*
X204984273Y-92780162D01*
X205079511Y-92827781D01*
X205269988Y-92827781D01*
X205365226Y-92780162D01*
X205412845Y-92732543D01*
X205460464Y-92637305D01*
X205460464Y-91827781D01*
X206365226Y-91827781D02*
X206174749Y-91827781D01*
X206079511Y-91875400D01*
X206031892Y-91923019D01*
X205936654Y-92065876D01*
X205889035Y-92256352D01*
X205889035Y-92637305D01*
X205936654Y-92732543D01*
X205984273Y-92780162D01*
X206079511Y-92827781D01*
X206269988Y-92827781D01*
X206365226Y-92780162D01*
X206412845Y-92732543D01*
X206460464Y-92637305D01*
X206460464Y-92399210D01*
X206412845Y-92303971D01*
X206365226Y-92256352D01*
X206269988Y-92208733D01*
X206079511Y-92208733D01*
X205984273Y-92256352D01*
X205936654Y-92303971D01*
X205889035Y-92399210D01*
X210535714Y-105012857D02*
X210535714Y-105984286D01*
X210592857Y-106098571D01*
X210650000Y-106155714D01*
X210764286Y-106212857D01*
X210992857Y-106212857D01*
X211107143Y-106155714D01*
X211164286Y-106098571D01*
X211221429Y-105984286D01*
X211221429Y-105012857D01*
X211678572Y-105012857D02*
X212478572Y-105012857D01*
X211964286Y-106212857D01*
X231686905Y-87527381D02*
X231686905Y-88336905D01*
X231734524Y-88432143D01*
X231782143Y-88479762D01*
X231877381Y-88527381D01*
X232067858Y-88527381D01*
X232163096Y-88479762D01*
X232210715Y-88432143D01*
X232258334Y-88336905D01*
X232258334Y-87527381D01*
X233258334Y-88527381D02*
X232686905Y-88527381D01*
X232972619Y-88527381D02*
X232972619Y-87527381D01*
X232877381Y-87670238D01*
X232782143Y-87765476D01*
X232686905Y-87813095D01*
X233877381Y-87527381D02*
X233972620Y-87527381D01*
X234067858Y-87575000D01*
X234115477Y-87622619D01*
X234163096Y-87717857D01*
X234210715Y-87908333D01*
X234210715Y-88146429D01*
X234163096Y-88336905D01*
X234115477Y-88432143D01*
X234067858Y-88479762D01*
X233972620Y-88527381D01*
X233877381Y-88527381D01*
X233782143Y-88479762D01*
X233734524Y-88432143D01*
X233686905Y-88336905D01*
X233639286Y-88146429D01*
X233639286Y-87908333D01*
X233686905Y-87717857D01*
X233734524Y-87622619D01*
X233782143Y-87575000D01*
X233877381Y-87527381D01*
X232961905Y-106227381D02*
X232961905Y-107036905D01*
X233009524Y-107132143D01*
X233057143Y-107179762D01*
X233152381Y-107227381D01*
X233342858Y-107227381D01*
X233438096Y-107179762D01*
X233485715Y-107132143D01*
X233533334Y-107036905D01*
X233533334Y-106227381D01*
X234533334Y-107227381D02*
X233961905Y-107227381D01*
X234247619Y-107227381D02*
X234247619Y-106227381D01*
X234152381Y-106370238D01*
X234057143Y-106465476D01*
X233961905Y-106513095D01*
X235485715Y-107227381D02*
X234914286Y-107227381D01*
X235200000Y-107227381D02*
X235200000Y-106227381D01*
X235104762Y-106370238D01*
X235009524Y-106465476D01*
X234914286Y-106513095D01*
X234386905Y-73527381D02*
X234386905Y-74336905D01*
X234434524Y-74432143D01*
X234482143Y-74479762D01*
X234577381Y-74527381D01*
X234767858Y-74527381D01*
X234863096Y-74479762D01*
X234910715Y-74432143D01*
X234958334Y-74336905D01*
X234958334Y-73527381D01*
X235958334Y-74527381D02*
X235386905Y-74527381D01*
X235672619Y-74527381D02*
X235672619Y-73527381D01*
X235577381Y-73670238D01*
X235482143Y-73765476D01*
X235386905Y-73813095D01*
X236339286Y-73622619D02*
X236386905Y-73575000D01*
X236482143Y-73527381D01*
X236720239Y-73527381D01*
X236815477Y-73575000D01*
X236863096Y-73622619D01*
X236910715Y-73717857D01*
X236910715Y-73813095D01*
X236863096Y-73955952D01*
X236291667Y-74527381D01*
X236910715Y-74527381D01*
X192248809Y-72376190D02*
X192248809Y-72852381D01*
X191915476Y-71852381D02*
X192248809Y-72376190D01*
X192582143Y-71852381D01*
X193439286Y-72852381D02*
X192867857Y-72852381D01*
X193153571Y-72852381D02*
X193153571Y-71852381D01*
X193058333Y-71995238D01*
X192963095Y-72090476D01*
X192867857Y-72138095D01*
X204453571Y-76078571D02*
X204786905Y-76078571D01*
X204929762Y-76602381D02*
X204453571Y-76602381D01*
X204453571Y-75602381D01*
X204929762Y-75602381D01*
X205929762Y-76602381D02*
X205596428Y-76126190D01*
X205358333Y-76602381D02*
X205358333Y-75602381D01*
X205739286Y-75602381D01*
X205834524Y-75650000D01*
X205882143Y-75697619D01*
X205929762Y-75792857D01*
X205929762Y-75935714D01*
X205882143Y-76030952D01*
X205834524Y-76078571D01*
X205739286Y-76126190D01*
X205358333Y-76126190D01*
X206310714Y-76316667D02*
X206786905Y-76316667D01*
X206215476Y-76602381D02*
X206548809Y-75602381D01*
X206882143Y-76602381D01*
X207167857Y-76554762D02*
X207310714Y-76602381D01*
X207548810Y-76602381D01*
X207644048Y-76554762D01*
X207691667Y-76507143D01*
X207739286Y-76411905D01*
X207739286Y-76316667D01*
X207691667Y-76221429D01*
X207644048Y-76173810D01*
X207548810Y-76126190D01*
X207358333Y-76078571D01*
X207263095Y-76030952D01*
X207215476Y-75983333D01*
X207167857Y-75888095D01*
X207167857Y-75792857D01*
X207215476Y-75697619D01*
X207263095Y-75650000D01*
X207358333Y-75602381D01*
X207596429Y-75602381D01*
X207739286Y-75650000D01*
X208167857Y-76078571D02*
X208501191Y-76078571D01*
X208644048Y-76602381D02*
X208167857Y-76602381D01*
X208167857Y-75602381D01*
X208644048Y-75602381D01*
X214913095Y-88052381D02*
X214913095Y-88861905D01*
X214960714Y-88957143D01*
X215008333Y-89004762D01*
X215103571Y-89052381D01*
X215294048Y-89052381D01*
X215389286Y-89004762D01*
X215436905Y-88957143D01*
X215484524Y-88861905D01*
X215484524Y-88052381D01*
X216008333Y-89052381D02*
X216198809Y-89052381D01*
X216294048Y-89004762D01*
X216341667Y-88957143D01*
X216436905Y-88814286D01*
X216484524Y-88623810D01*
X216484524Y-88242857D01*
X216436905Y-88147619D01*
X216389286Y-88100000D01*
X216294048Y-88052381D01*
X216103571Y-88052381D01*
X216008333Y-88100000D01*
X215960714Y-88147619D01*
X215913095Y-88242857D01*
X215913095Y-88480952D01*
X215960714Y-88576190D01*
X216008333Y-88623810D01*
X216103571Y-88671429D01*
X216294048Y-88671429D01*
X216389286Y-88623810D01*
X216436905Y-88576190D01*
X216484524Y-88480952D01*
X199313096Y-121500000D02*
X199217858Y-121452381D01*
X199075001Y-121452381D01*
X198932143Y-121500000D01*
X198836905Y-121595238D01*
X198789286Y-121690476D01*
X198741667Y-121880952D01*
X198741667Y-122023810D01*
X198789286Y-122214286D01*
X198836905Y-122309524D01*
X198932143Y-122404762D01*
X199075001Y-122452381D01*
X199170239Y-122452381D01*
X199313096Y-122404762D01*
X199360715Y-122357143D01*
X199360715Y-122023810D01*
X199170239Y-122023810D01*
X199789286Y-122452381D02*
X199789286Y-121452381D01*
X200360715Y-122452381D01*
X200360715Y-121452381D01*
X200836905Y-122452381D02*
X200836905Y-121452381D01*
X201075000Y-121452381D01*
X201217858Y-121500000D01*
X201313096Y-121595238D01*
X201360715Y-121690476D01*
X201408334Y-121880952D01*
X201408334Y-122023810D01*
X201360715Y-122214286D01*
X201313096Y-122309524D01*
X201217858Y-122404762D01*
X201075000Y-122452381D01*
X200836905Y-122452381D01*
X223332143Y-117007143D02*
X223284524Y-117054762D01*
X223141667Y-117102381D01*
X223046429Y-117102381D01*
X222903571Y-117054762D01*
X222808333Y-116959524D01*
X222760714Y-116864286D01*
X222713095Y-116673810D01*
X222713095Y-116530952D01*
X222760714Y-116340476D01*
X222808333Y-116245238D01*
X222903571Y-116150000D01*
X223046429Y-116102381D01*
X223141667Y-116102381D01*
X223284524Y-116150000D01*
X223332143Y-116197619D01*
X223713095Y-116197619D02*
X223760714Y-116150000D01*
X223855952Y-116102381D01*
X224094048Y-116102381D01*
X224189286Y-116150000D01*
X224236905Y-116197619D01*
X224284524Y-116292857D01*
X224284524Y-116388095D01*
X224236905Y-116530952D01*
X223665476Y-117102381D01*
X224284524Y-117102381D01*
X224617857Y-116102381D02*
X225236905Y-116102381D01*
X224903571Y-116483333D01*
X225046429Y-116483333D01*
X225141667Y-116530952D01*
X225189286Y-116578571D01*
X225236905Y-116673810D01*
X225236905Y-116911905D01*
X225189286Y-117007143D01*
X225141667Y-117054762D01*
X225046429Y-117102381D01*
X224760714Y-117102381D01*
X224665476Y-117054762D01*
X224617857Y-117007143D01*
X204332143Y-121007143D02*
X204284524Y-121054762D01*
X204141667Y-121102381D01*
X204046429Y-121102381D01*
X203903571Y-121054762D01*
X203808333Y-120959524D01*
X203760714Y-120864286D01*
X203713095Y-120673810D01*
X203713095Y-120530952D01*
X203760714Y-120340476D01*
X203808333Y-120245238D01*
X203903571Y-120150000D01*
X204046429Y-120102381D01*
X204141667Y-120102381D01*
X204284524Y-120150000D01*
X204332143Y-120197619D01*
X204713095Y-120197619D02*
X204760714Y-120150000D01*
X204855952Y-120102381D01*
X205094048Y-120102381D01*
X205189286Y-120150000D01*
X205236905Y-120197619D01*
X205284524Y-120292857D01*
X205284524Y-120388095D01*
X205236905Y-120530952D01*
X204665476Y-121102381D01*
X205284524Y-121102381D01*
X206141667Y-120435714D02*
X206141667Y-121102381D01*
X205903571Y-120054762D02*
X205665476Y-120769048D01*
X206284524Y-120769048D01*
X203808334Y-111007143D02*
X203760715Y-111054762D01*
X203617858Y-111102381D01*
X203522620Y-111102381D01*
X203379762Y-111054762D01*
X203284524Y-110959524D01*
X203236905Y-110864286D01*
X203189286Y-110673810D01*
X203189286Y-110530952D01*
X203236905Y-110340476D01*
X203284524Y-110245238D01*
X203379762Y-110150000D01*
X203522620Y-110102381D01*
X203617858Y-110102381D01*
X203760715Y-110150000D01*
X203808334Y-110197619D01*
X204189286Y-110197619D02*
X204236905Y-110150000D01*
X204332143Y-110102381D01*
X204570239Y-110102381D01*
X204665477Y-110150000D01*
X204713096Y-110197619D01*
X204760715Y-110292857D01*
X204760715Y-110388095D01*
X204713096Y-110530952D01*
X204141667Y-111102381D01*
X204760715Y-111102381D01*
M02*
